<svg width="510" height="510" viewBox="0 0 510 510" fill="none" xmlns="http://www.w3.org/2000/svg">
<path d="M501.081 422.452C486.206 451.139 454.969 467.502 415.869 467.502H94.3561C55.0436 467.502 24.0186 451.139 9.14364 422.452C-5.94386 393.552 -1.69386 356.577 19.7686 325.552L190.619 55.252C205.706 33.577 229.506 21.252 255.006 21.252C280.506 21.252 304.306 33.577 318.756 54.6145L490.456 325.977C511.919 357.002 515.956 393.764 500.869 422.452H501.081ZM455.394 349.777C455.394 349.777 454.969 349.352 454.969 348.927L283.481 77.9895C277.319 69.277 266.694 63.752 255.006 63.752C243.319 63.752 232.694 69.277 226.106 78.8395L55.0436 348.927C41.8686 367.627 38.8936 388.027 46.5436 402.689C53.9811 417.139 70.9811 425.002 94.1436 425.002H415.444C438.606 425.002 455.606 417.139 463.044 402.689C470.694 388.027 467.719 367.627 455.181 349.777H455.394Z" fill="#FF4003"/>
<path d="M276.248 315.716H233.748V148.752H276.248V315.716ZM276.248 349.109H233.748V382.502H276.248V349.109Z" fill="#FF4003"/>
</svg>
