<svg width="512" height="512" viewBox="0 0 512 512" fill="none" xmlns="http://www.w3.org/2000/svg">
<g clip-path="url(#clip0_30_187)">
<path d="M476.703 449.633H137.305C128.328 449.633 121.051 442.355 121.051 433.379V106.32C121.051 82.3945 140.445 63 164.371 63H468.68C492.605 63 512 82.3945 512 106.32V414.336C512 433.832 496.199 449.633 476.703 449.633Z" fill="url(#paint0_linear_30_187)"/>
<path d="M137.305 449.633H476.703C496.199 449.633 512 433.828 512 414.336V134.98L478.246 101.227C472.734 95.0742 464.73 91.1992 455.82 91.1992H123.77C122.016 95.9062 121.051 101 121.051 106.32V433.379C121.051 442.355 128.328 449.633 137.305 449.633Z" fill="url(#paint1_linear_30_187)"/>
<path d="M139.395 94.6289C145.371 113.387 162.797 126.121 182.484 126.121H302.508C300.922 126.121 299.352 126.031 297.797 125.867L249.07 77.1719C240.723 68.4141 229 63.1367 216.332 63.1367H165.246C151.438 63.1367 139.078 69.3359 130.785 79.0938C134.574 83.5586 137.539 88.8008 139.395 94.6289Z" fill="url(#paint2_linear_30_187)"/>
<path d="M455.82 449.633H60.3047C43.6797 449.633 30.2031 436.156 30.2031 419.531V121.297C30.2031 104.672 43.6797 91.1953 60.3047 91.1953H455.82C472.445 91.1953 485.922 104.672 485.922 121.297V419.531C485.922 436.156 472.445 449.633 455.82 449.633Z" fill="url(#paint3_linear_30_187)"/>
<path d="M444.031 140.309C435.789 131.578 424.113 126.121 411.156 126.121H30.2031V419.531C30.2031 436.156 43.6797 449.633 60.3047 449.633H455.82C472.445 449.633 485.922 436.156 485.922 419.531V182.199L444.031 140.309Z" fill="url(#paint4_linear_30_187)"/>
<path d="M139.395 94.6289C145.371 113.387 162.797 126.121 182.484 126.121H302.508C300.922 126.121 299.352 126.031 297.797 125.867L263.105 91.1953H138.133C138.594 92.3203 139.023 93.457 139.395 94.6289Z" fill="url(#paint5_linear_30_187)"/>
<path d="M306.309 137.523V126.121H302.508C282.824 126.121 265.398 113.387 259.422 94.6289C253.445 75.8711 236.02 63.1367 216.332 63.1367H165.246C140.273 63.1367 120.023 83.3828 120.023 108.359V137.523H306.309Z" fill="#4F1D75"/>
<path d="M139.395 94.6289C133.418 75.8711 115.992 63.1367 96.3086 63.1367H45.2227C20.2461 63.1367 0 83.3828 0 108.359V404.973C0 429.637 19.9961 449.633 44.6602 449.633H468.727C461.906 449.633 456.379 444.105 456.379 437.285V171.344C456.379 146.371 436.133 126.121 411.156 126.121H182.484C162.797 126.121 145.371 113.387 139.395 94.6289Z" fill="url(#paint6_linear_30_187)"/>
</g>
<defs>
<linearGradient id="paint0_linear_30_187" x1="405.156" y1="21.7594" x2="313.247" y2="268.402" gradientUnits="userSpaceOnUse">
<stop stop-color="#FFBD50"/>
<stop offset="0.2378" stop-color="#FFBD50"/>
<stop offset="0.5353" stop-color="#FFBB11"/>
<stop offset="0.8632" stop-color="#FFBD50"/>
<stop offset="1" stop-color="#FFBD50"/>
</linearGradient>
<linearGradient id="paint1_linear_30_187" x1="410.946" y1="381.933" x2="243.393" y2="214.381" gradientUnits="userSpaceOnUse">
<stop stop-color="#FF9517" stop-opacity="0"/>
<stop offset="0.3074" stop-color="#EE8421" stop-opacity="0.305882"/>
<stop offset="0.6784" stop-color="#E07728" stop-opacity="0.678431"/>
<stop offset="1" stop-color="#DB722B"/>
</linearGradient>
<linearGradient id="paint2_linear_30_187" x1="282.329" y1="175.322" x2="152.183" y2="45.1757" gradientUnits="userSpaceOnUse">
<stop stop-color="#FF9517" stop-opacity="0"/>
<stop offset="0.3074" stop-color="#EE8421" stop-opacity="0.305882"/>
<stop offset="0.6784" stop-color="#E07728" stop-opacity="0.678431"/>
<stop offset="1" stop-color="#DB722B"/>
</linearGradient>
<linearGradient id="paint3_linear_30_187" x1="258.062" y1="-36.3071" x2="258.062" y2="453.416" gradientUnits="userSpaceOnUse">
<stop stop-color="#FFFCF8"/>
<stop offset="0.1875" stop-color="#FAF8F6"/>
<stop offset="0.4041" stop-color="#ECEEF2"/>
<stop offset="0.6353" stop-color="#D5DCEA"/>
<stop offset="0.875" stop-color="#B5C4DF"/>
<stop offset="1" stop-color="#A1B5D8"/>
</linearGradient>
<linearGradient id="paint4_linear_30_187" x1="482.845" y1="311.203" x2="355.366" y2="299.153" gradientUnits="userSpaceOnUse">
<stop stop-color="#A1B5D8" stop-opacity="0"/>
<stop offset="0.6699" stop-color="#8190A4" stop-opacity="0.670588"/>
<stop offset="1" stop-color="#748290"/>
</linearGradient>
<linearGradient id="paint5_linear_30_187" x1="281.026" y1="174.019" x2="162.568" y2="55.5605" gradientUnits="userSpaceOnUse">
<stop stop-color="#A1B5D8" stop-opacity="0"/>
<stop offset="0.6699" stop-color="#8190A4" stop-opacity="0.670588"/>
<stop offset="1" stop-color="#748290"/>
</linearGradient>
<linearGradient id="paint6_linear_30_187" x1="234.363" y1="260.447" x2="234.363" y2="471.537" gradientUnits="userSpaceOnUse">
<stop stop-color="#FFBD50"/>
<stop offset="0.2378" stop-color="#FFCB0E"/>
<stop offset="0.5353" stop-color="#FFBD50"/>
<stop offset="0.8632" stop-color="#FFA215"/>
<stop offset="1" stop-color="#FFBD50"/>
</linearGradient>
<clipPath id="clip0_30_187">
<rect width="512" height="512" fill="white"/>
</clipPath>
</defs>
</svg>
