<svg width="17" height="14" viewBox="0 0 17 14" fill="none" xmlns="http://www.w3.org/2000/svg">
<path d="M7.16491 3.65228C7.16491 4.90244 6.15146 5.91589 4.9013 5.91589C3.65115 5.91589 2.6377 4.90244 2.6377 3.65228C2.6377 2.40212 3.65115 1.38867 4.9013 1.38867C6.15146 1.38867 7.16491 2.40212 7.16491 3.65228Z" stroke="black"/>
<path d="M8.94577 12.2548H8.9387L9.20574 12.937C9.21718 12.9663 9.2213 12.9979 9.21774 13.0291C9.21418 13.0603 9.20304 13.0901 9.1853 13.116L9.59781 13.3985L9.1853 13.116C9.16756 13.1419 9.14375 13.1631 9.11596 13.1777C9.08816 13.1923 9.05721 13.1998 9.02582 13.1997H9.02413L0.739777 13.1997L0.738091 13.1997C0.706696 13.1998 0.675751 13.1923 0.647953 13.1777C0.620156 13.1631 0.596349 13.1419 0.578607 13.116C0.560866 13.0901 0.549729 13.0603 0.546166 13.0291C0.542651 12.9983 0.546612 12.9671 0.557704 12.9382L2.11012 9.0572L2.11053 9.05618C2.27866 8.63314 2.57112 8.27104 2.9493 8.01765C3.32748 7.76427 3.77361 7.63152 4.2288 7.63693L4.2288 7.63697H4.23474H5.54211V7.63701L5.54886 7.63692C6.00397 7.63078 6.4502 7.76316 6.82832 8.0165C7.20645 8.26985 7.49861 8.63218 7.66603 9.05542L7.66602 9.05542L7.66673 9.0572L8.94577 12.2548Z" stroke="black"/>
<path d="M13.4335 4.24603C13.4335 5.49618 12.42 6.50964 11.1699 6.50964C9.9197 6.50964 8.90625 5.49618 8.90625 4.24603C8.90625 2.99587 9.9197 1.98242 11.1699 1.98242C12.42 1.98242 13.4335 2.99587 13.4335 4.24603Z" stroke="black"/>
<path d="M10.5339 12.6124C10.5339 12.7845 10.598 12.9505 10.7136 13.0779C10.8293 13.2053 10.9883 13.2851 11.1596 13.3017H14.5898L14.5963 13.3147C14.7092 13.3151 14.8205 13.2878 14.9205 13.2353C15.0205 13.1828 15.1061 13.1067 15.1699 13.0135C15.2338 12.9203 15.2738 12.8129 15.2866 12.7007C15.2995 12.5885 15.2846 12.4749 15.2435 12.3697L13.949 9.13367C13.7706 8.68454 13.4608 8.29971 13.0601 8.02951C12.6594 7.7593 12.1865 7.61629 11.7032 7.61918H10.5835C10.0812 7.61773 9.59152 7.77643 9.18555 8.07223" stroke="black"/>
</svg>
