<svg width="15" height="13" viewBox="0 0 15 13" fill="none" xmlns="http://www.w3.org/2000/svg">
<path d="M12.6558 8.40379C11.881 7.69585 10.9587 7.17176 9.95251 6.8545C11.0302 6.1763 11.7382 5.04126 11.7382 3.75781C11.7382 1.68576 9.89326 0 7.62554 0C5.35781 0 3.51286 1.68576 3.51286 3.75781C3.51286 5.04126 4.22088 6.1763 5.2986 6.8545C4.29238 7.17176 3.37014 7.69585 2.59532 8.40379C1.2517 9.6315 0.511719 11.2638 0.511719 13H1.62325C1.62325 9.9759 4.31586 7.51562 7.62554 7.51562C10.9352 7.51562 13.6278 9.9759 13.6278 13H14.7394C14.7394 11.2638 13.9994 9.6315 12.6558 8.40379ZM7.62554 6.5C5.97072 6.5 4.6244 5.26988 4.6244 3.75781C4.6244 2.24575 5.97072 1.01562 7.62554 1.01562C9.28036 1.01562 10.6267 2.24575 10.6267 3.75781C10.6267 5.26988 9.28036 6.5 7.62554 6.5Z" fill="black"/>
</svg>
