<svg width="300" height="224" viewBox="0 0 300 224" fill="none" xmlns="http://www.w3.org/2000/svg">
<g clip-path="url(#clip0_1382_8275)">
<path d="M287.456 194.049C287.787 184.182 283.272 174.378 274.489 171.016C276.581 181.1 274.805 192.444 269.573 202.403C267.535 206.282 264.89 210.44 265.617 214.396C266.068 216.858 267.818 218.765 269.918 219.975C272.018 221.185 274.465 221.786 276.882 222.376L277.31 222.796C282.703 213.791 287.126 203.916 287.456 194.049Z" fill="#F2F2F2"/>
<path d="M274.367 171.201C278.771 177.353 281.017 185.242 280.53 193.355C280.459 195.151 280.117 196.927 279.516 198.621C278.853 200.32 277.8 201.84 276.442 203.057C275.186 204.227 273.785 205.297 272.795 206.715C272.307 207.407 271.963 208.191 271.784 209.019C271.605 209.847 271.595 210.702 271.755 211.534C272.124 213.506 273.205 215.126 274.324 216.666C275.566 218.376 276.887 220.128 277.177 222.371C277.212 222.643 277.644 222.513 277.609 222.241C277.104 218.338 273.721 216.068 272.491 212.54C271.917 210.893 271.865 208.992 272.913 207.282C273.829 205.786 275.272 204.682 276.553 203.507C277.895 202.333 278.971 200.884 279.706 199.259C280.388 197.591 280.797 195.823 280.916 194.024C281.233 190.143 280.917 186.237 279.981 182.457C278.976 178.296 277.185 174.366 274.705 170.878C274.553 170.665 274.216 170.99 274.368 171.201L274.367 171.201Z" fill="white"/>
<path d="M280.827 190.707C282.243 190.38 283.521 189.62 284.484 188.533C285.447 187.445 286.047 186.085 286.201 184.641C286.223 184.36 285.788 184.374 285.766 184.655C285.625 186 285.066 187.267 284.167 188.277C283.269 189.288 282.076 189.992 280.757 190.289C280.729 190.294 280.703 190.303 280.679 190.318C280.655 190.333 280.634 190.352 280.617 190.375C280.601 190.397 280.589 190.423 280.583 190.45C280.577 190.478 280.576 190.506 280.58 190.534C280.585 190.561 280.595 190.588 280.61 190.612C280.625 190.635 280.645 190.656 280.668 190.672C280.691 190.688 280.717 190.699 280.744 190.705C280.772 190.711 280.8 190.712 280.827 190.707V190.707Z" fill="white"/>
<path d="M277.145 202.537C276.056 201.781 275.139 200.802 274.454 199.666C273.77 198.53 273.334 197.261 273.175 195.944C273.139 195.673 272.707 195.803 272.743 196.075C272.911 197.444 273.368 198.763 274.082 199.944C274.797 201.124 275.754 202.14 276.89 202.924C277.107 203.072 277.362 202.684 277.145 202.537Z" fill="white"/>
<path d="M278.479 178.636C277.99 178.866 277.449 178.968 276.909 178.931C276.37 178.893 275.848 178.719 275.395 178.424C275.18 178.273 274.926 178.661 275.139 178.811C275.641 179.135 276.217 179.327 276.813 179.369C277.409 179.412 278.007 179.303 278.55 179.054C278.606 179.035 278.655 178.998 278.688 178.948C278.721 178.899 278.736 178.839 278.731 178.78C278.726 178.753 278.715 178.727 278.699 178.705C278.683 178.682 278.662 178.663 278.638 178.65C278.614 178.636 278.588 178.628 278.56 178.625C278.533 178.623 278.505 178.627 278.479 178.636Z" fill="white"/>
<path d="M243.433 188.122C243.564 188.221 243.695 188.319 243.826 188.422C245.575 189.753 247.196 191.245 248.668 192.878C248.784 193.002 248.899 193.13 249.011 193.258C252.536 197.286 255.176 202.009 256.76 207.122C257.41 209.207 257.888 211.342 258.191 213.504C258.615 216.52 258.828 219.858 260.214 222.343C260.355 222.603 260.513 222.853 260.689 223.091L276.685 223.363C276.724 223.345 276.763 223.331 276.802 223.313L277.436 223.353C277.428 223.238 277.418 223.12 277.41 223.005C277.406 222.938 277.398 222.871 277.394 222.805C277.39 222.76 277.386 222.716 277.385 222.675C277.384 222.66 277.382 222.645 277.38 222.634C277.379 222.593 277.374 222.556 277.373 222.519C277.315 221.856 277.255 221.192 277.187 220.529C277.187 220.525 277.187 220.525 277.184 220.521C276.661 215.469 275.702 210.475 273.985 205.894C273.934 205.756 273.883 205.615 273.824 205.477C273.045 203.432 272.081 201.464 270.943 199.596C270.321 198.585 269.642 197.611 268.907 196.678C267.007 194.277 264.688 192.239 262.063 190.663C256.805 187.502 250.347 186.216 243.924 187.983C243.759 188.028 243.598 188.073 243.433 188.122Z" fill="#F2F2F2"/>
<path d="M243.437 188.328C251.072 190.043 257.857 194.307 262.365 200.391C263.387 201.701 264.169 203.181 264.673 204.764C265.122 206.412 265.117 208.151 264.657 209.797C264.26 211.394 263.674 213.009 263.663 214.621C263.653 215.411 263.831 216.191 264.181 216.898C264.531 217.606 265.043 218.221 265.676 218.692C267.202 219.875 269.144 220.374 271.069 220.793C273.207 221.258 275.44 221.706 277.062 223.13C277.259 223.302 277.561 222.947 277.365 222.774C274.542 220.297 270.173 220.732 266.938 218.962C265.429 218.136 264.226 216.811 264.111 214.955C264.01 213.331 264.614 211.666 265.03 210.05C265.499 208.442 265.568 206.744 265.23 205.104C264.815 203.493 264.096 201.976 263.113 200.634C260.976 197.619 258.311 195.015 255.248 192.949C251.701 190.536 247.727 188.82 243.539 187.893C243.275 187.834 243.175 188.27 243.437 188.328Z" fill="white"/>
<path d="M261.016 198.321C263.164 196.148 263.61 192.897 262.071 190.728C261.919 190.515 261.543 190.789 261.695 191.003C263.137 193.035 262.707 196.034 260.699 198.066C260.488 198.28 260.806 198.533 261.016 198.321V198.321Z" fill="white"/>
<path d="M264.963 208.998C263.62 209.145 262.26 209.018 260.968 208.624C259.675 208.23 258.476 207.578 257.443 206.706C257.246 206.535 256.944 206.89 257.141 207.062C258.218 207.966 259.467 208.643 260.814 209.05C262.16 209.457 263.575 209.586 264.973 209.43C265.255 209.403 265.243 208.972 264.963 208.998L264.963 208.998Z" fill="white"/>
<path d="M251.595 191.135C251.275 191.615 250.854 192.017 250.36 192.315C249.867 192.613 249.314 192.798 248.741 192.858C248.459 192.88 248.471 193.312 248.751 193.289C249.384 193.221 249.995 193.015 250.54 192.688C251.086 192.36 251.554 191.917 251.912 191.39C251.95 191.349 251.971 191.293 251.97 191.236C251.969 191.18 251.945 191.125 251.905 191.085C251.856 191.053 251.798 191.04 251.74 191.049C251.682 191.058 251.631 191.089 251.595 191.135V191.135Z" fill="white"/>
<path d="M238.677 182.844C238.71 182.806 238.455 182.774 237.983 182.747V166.884H215.084V168.161H204.776C203.567 168.163 202.408 168.643 201.554 169.498C200.699 170.353 200.218 171.511 200.217 172.72V179.281C200.218 180.49 200.698 181.649 201.553 182.504C202.408 183.359 203.567 183.839 204.776 183.84L215.341 183.854L219.979 183.861H220.299L224.941 183.868L237.906 183.885H239.024C239.187 183.701 238.521 183.028 238.677 182.844Z" fill="#3F3D56"/>
<path d="M238.923 183.139C238.166 184.243 237.552 184.203 237.015 183.488C236.733 183.077 236.505 182.631 236.338 182.161C234.706 177.977 233.639 168.378 230.562 171.735C229.954 172.397 229.337 173.055 228.718 173.705C227.567 174.916 226.364 176.23 225.173 177.391C225.172 177.394 225.2 177.265 225.196 177.268C224.608 177.843 225.051 172.871 224.819 171.472C224.769 171.17 224.689 171.035 224.56 171.156C224.55 171.02 224.544 170.884 224.545 170.747C224.543 170.531 224.554 170.315 224.578 170.1C224.597 169.903 224.624 169.703 224.661 169.502L234.722 115.702C234.987 114.293 235.695 113.005 236.742 112.025C237.789 111.046 239.121 110.425 240.545 110.254C241.219 110.179 241.901 110.203 242.568 110.326L244.399 110.668C245.122 110.803 245.818 111.057 246.458 111.42L246.461 111.421C247.684 112.111 248.661 113.166 249.255 114.438C249.85 115.71 250.031 117.137 249.775 118.517L238.923 183.139Z" fill="#3F3D56"/>
<path d="M153.009 213.784L148.286 211.525L154.774 191.782L161.745 195.116L153.009 213.784Z" fill="#FFB6B6"/>
<path d="M184.676 210.601C184.332 210.816 183.989 211.028 183.642 211.24C182.951 211.663 182.254 212.079 181.557 212.489C181.206 212.693 180.852 212.898 180.502 213.099V213.11L180.481 213.113L180.474 213.117L179.94 213.248L179.173 211.222L178.819 210.289L178.32 208.967L177.404 206.549L172.581 193.816L180.079 191.966L180.36 193.115H180.363L180.502 193.684L183.122 204.307L183.656 206.479L183.673 206.545L183.996 207.843L184.273 208.967L184.582 210.223L184.676 210.601Z" fill="#FFB6B6"/>
<path d="M229.402 165.885C228.927 166.648 228.441 167.408 227.952 168.161C227.043 169.563 226.11 170.944 225.152 172.304C225.152 172.307 225.149 172.307 225.145 172.311C224.587 172.828 223.97 173.279 223.307 173.653C223.279 173.674 223.248 173.688 223.22 173.705C222.731 173.975 222.212 174.184 221.672 174.326C221.478 174.375 221.28 174.424 221.086 174.472C220.385 174.639 219.691 174.781 219.001 174.906C217.773 175.124 216.558 175.281 215.351 175.378C215.254 175.388 215.157 175.395 215.059 175.402C210.095 175.766 205.261 175.18 200.217 174.219C197.726 173.747 195.182 173.182 192.549 172.595C191.689 172.401 190.825 172.21 189.95 172.019C189.885 172.005 189.815 171.988 189.746 171.974C188.497 171.7 187.227 171.429 185.926 171.162C184.288 170.826 182.598 170.5 180.843 170.191L180.968 172.665C181.072 174.568 181.467 176.443 182.141 178.226C182.89 180.419 183.483 182.154 182.231 185.766L181.627 187.514C181.94 188.382 182.047 189.312 181.941 190.228C181.834 191.145 181.517 192.025 181.013 192.798L180.891 192.982L185.926 205.719L186.252 206.545H183.674L180.503 206.548H175.129L167.374 190.991L167.003 190.248V190.21L167.804 160.313C167.815 160.049 167.836 159.782 167.87 159.519C168.012 158.32 168.39 157.161 168.984 156.11C169.578 155.06 170.375 154.138 171.329 153.398C172.244 152.684 173.291 152.158 174.41 151.852C175.529 151.546 176.698 151.465 177.849 151.615L180.503 151.958L185.926 152.659L189.746 153.155L189.822 153.166L201.088 154.623L201.896 151.327L202.045 151.271L206.788 149.533L223.192 143.52L223.234 143.507L224.313 143.111L224.441 143.319C224.479 143.382 224.517 143.444 224.552 143.507C225.619 145.419 226.487 147.434 227.144 149.523C228.248 152.934 229.158 156.406 229.867 159.921C229.899 160.074 229.926 160.212 229.951 160.337L229.961 160.375C229.971 160.434 229.978 160.473 229.982 160.483C230.36 162.058 230.096 163.98 229.402 165.885Z" fill="#2F2E41"/>
<path d="M236.729 76.5931C236.729 73.8305 235.368 71.181 232.944 69.2275C230.52 67.274 227.233 66.1765 223.806 66.1765C220.378 66.1765 217.091 67.274 214.668 69.2275C212.244 71.181 210.882 73.8305 210.882 76.5931V83.1227C210.883 83.4933 211.066 83.8486 211.391 84.1106C211.716 84.3727 212.157 84.5201 212.617 84.5206H212.934C213.3 83.6746 213.524 82.7927 213.598 81.8986C214.265 82.7045 214.774 83.5891 215.104 84.5206H234.991C235.451 84.5203 235.892 84.373 236.218 84.111C236.544 83.849 236.728 83.4936 236.729 83.1227C237.774 81.4042 238.244 79.4334 236.729 76.5931Z" fill="#2F2E41"/>
<path d="M230.095 154.867C230.043 154.645 229.977 154.42 229.907 154.201C229.357 152.546 228.715 150.922 227.985 149.337C227.166 147.533 226.185 145.6 225.015 143.508C224.45 142.495 223.841 141.441 223.19 140.347C222.864 139.799 222.525 139.241 222.174 138.672C222.16 138.645 222.145 138.62 222.129 138.595L222.028 138.429L205.798 140.601L199.754 141.409L199.393 144.421L199.306 145.167C199.303 145.167 199.303 145.167 199.306 145.17L199.063 147.203V147.207L198.741 149.892L198.713 149.889L189.744 148.726L180.501 147.529L175.536 146.887C174.386 146.737 173.217 146.818 172.098 147.124C170.978 147.43 169.931 147.956 169.017 148.671C168.063 149.41 167.266 150.332 166.672 151.383C166.078 152.434 165.7 153.592 165.558 154.791C165.527 155.034 165.506 155.284 165.495 155.53L160.812 166.629C158.009 173.267 156.224 180.29 155.517 187.46L152.082 198.441L152.571 198.486L159.851 199.163L161.773 199.343L166.006 193.164C166.488 192.46 166.946 191.735 167.372 190.992C168.075 189.779 168.7 188.523 169.243 187.231L178.399 165.442C179.106 165.564 179.807 165.68 180.501 165.789C183.711 166.31 186.791 166.734 189.744 167.063C199.344 168.135 207.657 168.218 215.058 167.309C217.136 167.056 219.145 166.723 221.084 166.31C221.796 166.161 222.498 166 223.19 165.828C223.353 165.789 223.513 165.751 223.673 165.71C225.106 165.34 226.425 164.616 227.507 163.605C228.589 162.594 229.4 161.328 229.866 159.922C230.422 158.294 230.501 156.54 230.095 154.867Z" fill="#2F2E41"/>
<path d="M154.518 210.56L149.408 208.111L148.606 207.726L147.326 210.869L138.388 212.836C137.946 212.933 137.547 213.169 137.249 213.509C136.95 213.849 136.768 214.275 136.729 214.726C136.691 215.177 136.797 215.628 137.033 216.014C137.269 216.4 137.622 216.7 138.041 216.871L146.774 220.434L149.546 217.94L148.866 221.288L152.155 222.631L155.76 211.157L154.518 210.56Z" fill="#2F2E41"/>
<path d="M185.926 205.719L186.252 206.545H185.926V205.719Z" fill="#2F2E41"/>
<path d="M124.862 145.672C124.862 143.812 124.238 142.303 123.471 142.299H65.7066C64.9363 142.303 64.3153 143.812 64.3118 145.672V222.224C64.3119 222.397 64.2476 222.563 64.1316 222.691C64.0156 222.819 63.8561 222.899 63.6843 222.916C63.1232 222.97 62.5622 223.02 62.0011 223.066C61.9873 223.066 61.9734 223.07 61.9595 223.07C61.6542 223.098 61.3489 223.118 61.0435 223.143H61.0401C60.883 222.852 60.7278 222.559 60.5744 222.264C60.5225 222.164 60.4954 222.054 60.4954 221.942V141.296C60.4954 140.783 60.5162 140.266 60.5509 139.756C60.6004 139.056 60.6873 138.358 60.8111 137.667C61.3974 134.444 62.7228 132.262 64.2286 132.255H124.945C125.165 132.256 125.382 132.302 125.584 132.39C125.88 132.521 126.147 132.709 126.371 132.942C126.676 133.258 126.936 133.614 127.145 134C127.888 135.308 128.418 137.258 128.606 139.527C128.606 139.548 128.609 139.569 128.609 139.589C128.658 140.152 128.682 140.724 128.679 141.296L128.727 148.732L128.758 153.166L128.852 167.079L128.887 172.019L129.039 222.744C129.039 222.928 128.966 223.104 128.836 223.234C128.706 223.364 128.53 223.438 128.346 223.438H125.556C125.372 223.438 125.196 223.364 125.065 223.234C124.935 223.104 124.862 222.928 124.862 222.744L124.862 145.672Z" fill="#3F3D56"/>
<path d="M83.6861 111.629L79.6681 129.308L77.1006 132.12H75.2482L82.8826 99.9763L83.2601 105.437V105.441L83.6861 111.629Z" fill="#3F3D56"/>
<path d="M103.023 129.696L79.4512 129.547L77.3591 129.533L75.8672 129.522L74.1289 129.512H74.1151C73.863 129.512 73.6212 129.612 73.442 129.79L70.5068 132.725C70.4418 132.789 70.3889 132.864 70.3506 132.947C70.3323 132.97 70.3172 132.996 70.3055 133.023C70.242 133.171 70.2158 133.332 70.2291 133.492C70.2424 133.652 70.2949 133.806 70.382 133.941C70.4691 134.076 70.588 134.188 70.7284 134.266C70.8687 134.344 71.0261 134.387 71.1868 134.39H101.722C101.905 134.389 102.085 134.337 102.239 134.239C102.394 134.141 102.518 134.001 102.596 133.835L102.836 133.315L103.329 132.256L103.887 131.063C103.947 130.936 103.978 130.797 103.977 130.657C103.976 130.404 103.875 130.161 103.697 129.981C103.518 129.802 103.276 129.699 103.023 129.696Z" fill="#3F3D56"/>
<path opacity="0.17" d="M102.836 133.314L102.595 133.836C102.516 134.001 102.393 134.141 102.239 134.239C102.084 134.337 101.906 134.39 101.723 134.391H71.1863C71.0257 134.388 70.8683 134.345 70.7279 134.267C70.5876 134.189 70.4687 134.077 70.3818 133.942C70.2948 133.807 70.2424 133.653 70.2292 133.493C70.2161 133.333 70.2425 133.172 70.3063 133.025C70.3171 132.997 70.332 132.971 70.3505 132.948L102.836 133.314Z" fill="black"/>
<path opacity="0.17" d="M83.2601 105.437V105.441L76.7228 132.12H75.2482L82.8826 99.9763L83.2601 105.437Z" fill="black"/>
<path d="M91.2823 110.325L82.0291 39.9252C81.9952 39.6613 81.8579 39.4217 81.6474 39.259L75.2774 31.286L74.7049 30.8454C74.4928 30.6849 74.2263 30.6138 73.9624 30.6476L73.0048 30.776C72.7407 30.8101 72.501 30.9476 72.3383 31.1584C72.1757 31.3693 72.1034 31.6361 72.1375 31.9001L81.7272 104.844V104.847L82.3136 109.309L83.011 114.607V114.614L84.0935 122.857C84.1107 122.999 84.1584 123.134 84.2333 123.255C84.3082 123.376 84.4084 123.48 84.5272 123.558C84.6438 123.639 84.7763 123.693 84.9156 123.718C85.055 123.743 85.1982 123.739 85.3356 123.704L85.9427 123.551C86.1753 123.491 86.3793 123.351 86.5187 123.156L86.7893 122.771L86.9142 122.59L91.1054 111.037C91.2525 110.831 91.3157 110.576 91.2823 110.325Z" fill="#3F3D56"/>
<path opacity="0.17" d="M75.2758 31.2864L86.9153 122.592L86.7889 122.771L86.5191 123.155C86.38 123.35 86.1758 123.491 85.943 123.55L85.335 123.703C85.1974 123.737 85.0541 123.742 84.9145 123.717C84.7749 123.692 84.6422 123.638 84.525 123.558C84.4078 123.478 84.3088 123.374 84.2344 123.254C84.16 123.133 84.1118 122.998 84.0932 122.857L72.139 31.9013C72.1043 31.6372 72.176 31.3701 72.3382 31.1588C72.5004 30.9475 72.7399 30.8093 73.004 30.7745L73.964 30.6483C74.0943 30.6307 74.2267 30.6392 74.3537 30.6733C74.4806 30.7074 74.5995 30.7665 74.7034 30.847L75.2758 31.2864Z" fill="black"/>
<path d="M75.6188 33.8977L81.7956 42.7141L89.1371 98.574L85.1568 106.47L75.6188 33.8977Z" fill="#6E2F9B"/>
<path d="M208.366 222.857L204.13 222.936L215.903 182.038L220.139 183.346L208.366 222.857Z" fill="#3F3D56"/>
<path d="M236.147 222.935L231.914 222.855L220.298 183.861L220.139 183.347L222.855 182.508C223.393 182.518 223.952 182.525 224.528 182.532L224.941 183.868L236.147 222.935Z" fill="#3F3D56"/>
<path d="M184.146 206.721L178.791 208.576L177.95 208.867L179.252 212.001L174.286 219.688C174.04 220.067 173.922 220.516 173.949 220.967C173.976 221.419 174.147 221.85 174.437 222.198C174.726 222.545 175.12 222.791 175.559 222.899C175.998 223.007 176.461 222.972 176.878 222.799L185.591 219.186L185.806 215.463L187.678 218.321L190.96 216.961L185.448 206.271L184.146 206.721Z" fill="#2F2E41"/>
<path d="M151.644 91.9239C151.898 92.4186 152.257 92.8515 152.696 93.1923C153.136 93.5331 153.644 93.7735 154.187 93.8964C154.729 94.0193 155.292 94.0218 155.835 93.9038C156.378 93.7857 156.889 93.55 157.331 93.2132L168.592 100.688L168.613 93.6649L157.917 87.6431C157.302 86.9374 156.449 86.4819 155.521 86.3628C154.592 86.2438 153.652 86.4695 152.879 86.9971C152.106 87.5248 151.553 88.3178 151.325 89.2258C151.098 90.1338 151.211 91.0938 151.644 91.9239V91.9239Z" fill="#FFB6B6"/>
<path d="M160.056 95.1702L165.31 89.1934L186.702 101.893L215.059 99.2958C216.46 99.1675 217.873 99.3493 219.197 99.8284C220.52 100.307 221.722 101.072 222.717 102.068C223.711 103.064 224.475 104.266 224.953 105.59C225.43 106.914 225.611 108.327 225.481 109.729C225.244 112.26 224.013 114.594 222.057 116.218C220.101 117.842 217.581 118.624 215.049 118.393L183.112 115.437L160.056 95.1702Z" fill="#6E2F9B"/>
<path d="M225.872 95.2623L225.823 95.2004L212.42 93.8779L203.365 109.829C195.58 119.346 201.237 125.909 201.575 126.885L198.873 139.343L199.479 143.512L199.781 144.751L230.624 160.867L224.285 139.748L230.475 120.489C231.847 116.231 232.145 111.699 231.342 107.298C230.539 102.896 228.66 98.7617 225.872 95.2623Z" fill="#6E2F9B"/>
<path d="M233.562 83.6677C232.642 86.4848 230.641 88.8213 227.999 90.1635C225.357 91.5058 222.29 91.7438 219.473 90.8253C219.153 90.7212 218.841 90.6033 218.536 90.4714C215.972 89.3724 213.911 87.3538 212.76 84.8126C211.609 82.2714 211.45 79.3914 212.315 76.739C212.589 75.8945 212.965 75.086 213.432 74.3312C214.869 72.005 217.108 70.2861 219.726 69.5C222.345 68.7139 225.161 68.915 227.641 70.0653C230.121 71.2156 232.093 73.2353 233.185 75.742C234.276 78.2487 234.41 81.0686 233.562 83.6677Z" fill="#FFB6B6"/>
<path d="M229.923 146.518C229.923 147.129 229.738 147.725 229.392 148.227C229.047 148.73 228.557 149.117 227.987 149.336C227.717 149.439 227.433 149.502 227.144 149.523C227.067 149.53 226.988 149.533 226.911 149.533H221.086V177.796C220.999 177.911 220.909 178.025 220.819 178.14C220.319 178.778 219.813 179.416 219.299 180.044C219.188 180.183 219.077 180.319 218.97 180.454C218.8 180.659 218.633 180.863 218.467 181.064C218.408 181.134 218.352 181.2 218.296 181.269C218.012 181.609 217.727 181.949 217.436 182.289V182.293C217.433 182.296 217.433 182.296 217.433 182.3L217.287 182.466C217.054 182.74 216.822 183.018 216.583 183.292C216.257 183.111 215.97 182.87 215.736 182.581C215.591 182.407 215.467 182.216 215.368 182.012C215.365 182.008 215.365 182.005 215.361 181.998C215.357 181.99 215.354 181.982 215.351 181.974C215.156 181.568 215.056 181.123 215.059 180.672V149.533H202C201.615 149.536 201.232 149.461 200.876 149.315C200.426 149.135 200.027 148.85 199.711 148.482C199.396 148.115 199.174 147.677 199.065 147.205V147.202C198.902 146.517 198.988 145.796 199.308 145.169C199.304 145.165 199.304 145.165 199.308 145.165C199.443 144.891 199.622 144.641 199.839 144.426V144.423C199.839 144.419 199.839 144.419 199.842 144.416C200.123 144.128 200.459 143.9 200.829 143.744C201.2 143.588 201.598 143.507 202 143.507H226.911C227.71 143.507 228.476 143.825 229.04 144.389C229.605 144.954 229.922 145.72 229.923 146.518Z" fill="#3F3D56"/>
<path d="M246.511 88.1856C245.292 87.9576 244.04 87.972 242.827 88.2278C241.614 88.4837 240.463 88.976 239.44 89.6767C238.417 90.3774 237.542 91.2727 236.865 92.3115C236.188 93.3503 235.722 94.5123 235.494 95.7312V95.7312C235.092 97.8843 235.45 100.11 236.508 102.028C237.567 103.946 239.258 105.436 241.294 106.244L238.456 121.424L244.38 122.532L250.658 88.9611L246.511 88.1856Z" fill="#3F3D56"/>
<path d="M201.348 188.826H191.455C190.911 188.826 190.385 188.629 189.975 188.272C189.564 187.915 189.296 187.422 189.219 186.884C188.608 182.388 188.608 177.831 189.219 173.336C189.295 172.804 189.557 172.316 189.96 171.96C190.363 171.604 190.88 171.403 191.417 171.393C194.53 169.998 197.882 169.998 201.383 171.393C201.709 171.398 202.03 171.473 202.323 171.615C202.617 171.756 202.876 171.961 203.082 172.213C203.298 172.476 203.452 172.783 203.533 173.112C203.615 173.442 203.622 173.785 203.554 174.118C202.759 178.073 202.759 182.146 203.554 186.101C203.622 186.434 203.615 186.778 203.533 187.107C203.452 187.437 203.298 187.744 203.082 188.006C202.872 188.263 202.608 188.47 202.308 188.612C202.008 188.754 201.68 188.827 201.348 188.826Z" fill="#F2F2F2"/>
<path d="M200.312 176.558H191.985C191.847 176.558 191.715 176.504 191.617 176.406C191.52 176.308 191.465 176.176 191.465 176.038C191.465 175.9 191.52 175.768 191.617 175.67C191.715 175.572 191.847 175.518 191.985 175.518H200.312C200.45 175.518 200.583 175.572 200.68 175.67C200.778 175.768 200.833 175.9 200.833 176.038C200.833 176.176 200.778 176.308 200.68 176.406C200.583 176.504 200.45 176.558 200.312 176.558Z" fill="white"/>
<path d="M200.312 180.722H191.985C191.847 180.722 191.715 180.667 191.617 180.569C191.52 180.472 191.465 180.339 191.465 180.201C191.465 180.063 191.52 179.931 191.617 179.833C191.715 179.736 191.847 179.681 191.985 179.681H200.312C200.45 179.681 200.583 179.736 200.68 179.833C200.778 179.931 200.833 180.063 200.833 180.201C200.833 180.339 200.778 180.472 200.68 180.569C200.583 180.667 200.45 180.722 200.312 180.722Z" fill="white"/>
<path d="M200.312 184.885H191.985C191.847 184.885 191.715 184.83 191.617 184.733C191.52 184.635 191.465 184.503 191.465 184.365C191.465 184.227 191.52 184.094 191.617 183.997C191.715 183.899 191.847 183.844 191.985 183.844H200.312C200.45 183.844 200.583 183.899 200.68 183.997C200.778 184.094 200.833 184.227 200.833 184.365C200.833 184.503 200.778 184.635 200.68 184.733C200.583 184.83 200.45 184.885 200.312 184.885Z" fill="white"/>
<path d="M83.1289 78.55V78.549C83.1394 78.4646 83.1825 78.3877 83.249 78.3345C83.3154 78.2814 83.4 78.2564 83.4846 78.2648L137.013 78.4074C137.097 78.3995 137.182 78.4249 137.248 78.4782C137.314 78.5314 137.356 78.6084 137.366 78.6926V78.6936C137.356 78.778 137.313 78.8549 137.246 78.908C137.18 78.9611 137.095 78.9862 137.011 78.9778L83.4822 78.8352C83.3977 78.8431 83.3136 78.8177 83.2476 78.7644C83.1816 78.7111 83.139 78.6342 83.1289 78.55Z" fill="#3F3D56"/>
<path d="M97.284 111.518L95.0112 114.017C94.9058 114.106 94.7772 114.163 94.6406 114.18C94.5041 114.198 94.3653 114.176 94.2408 114.117C93.8639 113.984 93.5285 113.754 93.2681 113.451C91.6438 111.607 89.8202 109.949 87.8308 108.507C87.504 108.277 87.2433 107.965 87.0747 107.602C87.0062 107.485 86.9716 107.352 86.9746 107.217C86.9776 107.081 87.0182 106.95 87.0917 106.836C87.1143 105.468 87.8848 104.621 89.382 104.317C89.6445 104.044 90.2375 104.148 90.7691 104.562C92.9555 106.268 95.0103 108.136 96.9161 110.151C97.3841 110.646 97.5423 111.234 97.284 111.518Z" fill="#6E2F9B"/>
<path d="M91.4422 106.136L89.5292 108.241C89.4632 108.313 89.304 108.276 89.1735 108.157C89.0431 108.039 88.9909 107.884 89.0569 107.811L90.9699 105.707C91.036 105.634 91.1952 105.672 91.3256 105.79C91.4561 105.909 91.5083 106.064 91.4422 106.136Z" fill="white"/>
<path d="M93.3315 107.854L91.4185 109.958C91.3524 110.031 91.1932 109.994 91.0628 109.875C90.9323 109.756 90.8802 109.602 90.9462 109.529L92.8592 107.425C92.9253 107.352 93.0845 107.389 93.2149 107.508C93.3454 107.627 93.3975 107.782 93.3315 107.854Z" fill="white"/>
<path d="M95.2206 109.572L93.3076 111.676C93.2415 111.748 93.0823 111.711 92.9519 111.593C92.8214 111.474 92.7693 111.319 92.8353 111.246L94.7483 109.142C94.8144 109.07 94.9736 109.107 95.104 109.226C95.2345 109.344 95.2866 109.499 95.2206 109.572Z" fill="white"/>
<path d="M300 223.135C300 223.189 299.99 223.243 299.969 223.293C299.948 223.343 299.918 223.389 299.879 223.427C299.841 223.465 299.795 223.496 299.745 223.517C299.695 223.537 299.641 223.548 299.587 223.548H0.412875C0.303374 223.548 0.198356 223.504 0.120927 223.427C0.0434985 223.349 0 223.244 0 223.135C0 223.025 0.0434985 222.92 0.120927 222.843C0.198356 222.765 0.303374 222.722 0.412875 222.722H299.587C299.641 222.722 299.695 222.732 299.745 222.753C299.795 222.774 299.841 222.804 299.879 222.842C299.918 222.881 299.948 222.926 299.969 222.977C299.99 223.027 300 223.081 300 223.135Z" fill="#CCCCCC"/>
<path d="M204.247 176.18C204.726 175.897 205.137 175.513 205.451 175.054C205.765 174.595 205.975 174.073 206.065 173.524C206.156 172.976 206.125 172.414 205.975 171.879C205.825 171.343 205.559 170.847 205.197 170.426L211.991 158.741L204.978 159.137L199.602 170.172C198.934 170.827 198.53 171.706 198.466 172.64C198.402 173.573 198.683 174.498 199.256 175.239C199.828 175.98 200.653 176.484 201.573 176.658C202.493 176.831 203.444 176.661 204.247 176.18V176.18Z" fill="#FFB6B6"/>
<path d="M206.988 167.59L200.71 162.7L212.118 140.592L207.844 112.439C207.633 111.048 207.73 109.627 208.13 108.277C208.53 106.928 209.222 105.683 210.157 104.63C211.091 103.578 212.247 102.745 213.54 102.189C214.833 101.634 216.233 101.37 217.64 101.416C220.181 101.503 222.583 102.594 224.321 104.45C226.058 106.306 226.989 108.775 226.908 111.316L225.851 143.372L206.988 167.59Z" fill="#6E2F9B"/>
<path d="M152.544 97.9299H131.345C130.777 97.9292 130.232 97.7033 129.83 97.3015C129.428 96.8998 129.202 96.3551 129.202 95.787V67.7171C129.202 67.149 129.428 66.6043 129.83 66.2026C130.232 65.8008 130.777 65.5749 131.345 65.5742H152.544C153.112 65.5749 153.657 65.8008 154.058 66.2026C154.46 66.6043 154.686 67.149 154.687 67.7171V95.787C154.686 96.3551 154.46 96.8998 154.058 97.3015C153.657 97.7033 153.112 97.9292 152.544 97.9299Z" fill="#E6E6E6"/>
<path d="M151.054 96.1438H132.835C132.33 96.1433 131.847 95.9426 131.49 95.5859C131.133 95.2292 130.933 94.7456 130.932 94.2412V69.2628C130.933 68.7583 131.133 68.2747 131.49 67.918C131.847 67.5613 132.33 67.3607 132.835 67.3601H151.054C151.558 67.3607 152.042 67.5613 152.398 67.918C152.755 68.2747 152.956 68.7583 152.956 69.2628V94.2412C152.956 94.7456 152.755 95.2292 152.398 95.5859C152.042 95.9426 151.558 96.1433 151.054 96.1438Z" fill="white"/>
<path d="M149.236 72.107H134.652C134.59 72.1072 134.528 72.095 134.47 72.0712C134.412 72.0474 134.359 72.0123 134.315 71.9682C134.271 71.924 134.236 71.8715 134.212 71.8137C134.188 71.7559 134.175 71.694 134.175 71.6314C134.175 71.5688 134.188 71.5069 134.212 71.4491C134.236 71.3913 134.271 71.3388 134.315 71.2946C134.359 71.2504 134.412 71.2154 134.47 71.1916C134.528 71.1678 134.59 71.1556 134.652 71.1558H149.236C149.299 71.1556 149.361 71.1678 149.419 71.1916C149.476 71.2154 149.529 71.2504 149.573 71.2946C149.618 71.3388 149.653 71.3913 149.677 71.4491C149.701 71.5069 149.713 71.5688 149.713 71.6314C149.713 71.694 149.701 71.7559 149.677 71.8137C149.653 71.8715 149.618 71.924 149.573 71.9682C149.529 72.0123 149.476 72.0474 149.419 72.0712C149.361 72.095 149.299 72.1072 149.236 72.107Z" fill="#6E2F9B"/>
<path d="M149.236 73.9865H134.652C134.526 73.9865 134.405 73.9364 134.316 73.8471C134.227 73.7579 134.177 73.637 134.177 73.5108C134.177 73.3847 134.227 73.2637 134.316 73.1745C134.405 73.0853 134.526 73.0352 134.652 73.0352H149.236C149.299 73.0352 149.361 73.0475 149.418 73.0714C149.476 73.0953 149.528 73.1303 149.573 73.1745C149.617 73.2186 149.652 73.2711 149.676 73.3288C149.7 73.3865 149.712 73.4483 149.712 73.5108C149.712 73.5733 149.7 73.6351 149.676 73.6928C149.652 73.7505 149.617 73.803 149.573 73.8471C149.528 73.8913 149.476 73.9264 149.418 73.9503C149.361 73.9742 149.299 73.9865 149.236 73.9865Z" fill="#6E2F9B"/>
<path d="M140.974 75.8659H134.652C134.526 75.8659 134.405 75.8157 134.316 75.7265C134.227 75.6373 134.177 75.5164 134.177 75.3902C134.177 75.2641 134.227 75.1431 134.316 75.0539C134.405 74.9647 134.526 74.9146 134.652 74.9146H140.974C141.1 74.9146 141.221 74.9647 141.31 75.0539C141.4 75.1431 141.45 75.2641 141.45 75.3902C141.45 75.5164 141.4 75.6373 141.31 75.7265C141.221 75.8157 141.1 75.8659 140.974 75.8659Z" fill="#6E2F9B"/>
<path d="M149.236 79.8021H134.652C134.59 79.8023 134.528 79.7901 134.47 79.7663C134.412 79.7424 134.359 79.7074 134.315 79.6632C134.271 79.6191 134.236 79.5666 134.212 79.5088C134.188 79.451 134.175 79.389 134.175 79.3265C134.175 79.2639 134.188 79.2019 134.212 79.1441C134.236 79.0864 134.271 79.0339 134.315 78.9897C134.359 78.9455 134.412 78.9105 134.47 78.8867C134.528 78.8628 134.59 78.8507 134.652 78.8508H149.236C149.299 78.8507 149.361 78.8628 149.419 78.8867C149.476 78.9105 149.529 78.9455 149.573 78.9897C149.618 79.0339 149.653 79.0864 149.677 79.1441C149.701 79.2019 149.713 79.2639 149.713 79.3265C149.713 79.389 149.701 79.451 149.677 79.5088C149.653 79.5666 149.618 79.6191 149.573 79.6632C149.529 79.7074 149.476 79.7424 149.419 79.7663C149.361 79.7901 149.299 79.8023 149.236 79.8021Z" fill="#E4E4E4"/>
<path d="M149.236 81.6815H134.652C134.59 81.6817 134.528 81.6695 134.47 81.6457C134.412 81.6218 134.359 81.5868 134.315 81.5427C134.271 81.4985 134.236 81.446 134.212 81.3882C134.188 81.3304 134.175 81.2684 134.175 81.2059C134.175 81.1433 134.188 81.0813 134.212 81.0235C134.236 80.9658 134.271 80.9133 134.315 80.8691C134.359 80.8249 134.412 80.7899 134.47 80.7661C134.528 80.7422 134.59 80.7301 134.652 80.7302H149.236C149.299 80.7301 149.361 80.7422 149.419 80.7661C149.476 80.7899 149.529 80.8249 149.573 80.8691C149.618 80.9133 149.653 80.9658 149.677 81.0235C149.701 81.0813 149.713 81.1433 149.713 81.2059C149.713 81.2684 149.701 81.3304 149.677 81.3882C149.653 81.446 149.618 81.4985 149.573 81.5427C149.529 81.5868 149.476 81.6218 149.419 81.6457C149.361 81.6695 149.299 81.6817 149.236 81.6815Z" fill="#E4E4E4"/>
<path d="M140.974 83.5612H134.652C134.526 83.5612 134.405 83.5111 134.316 83.4219C134.227 83.3327 134.177 83.2117 134.177 83.0855C134.177 82.9594 134.227 82.8384 134.316 82.7492C134.405 82.66 134.526 82.6099 134.652 82.6099H140.974C141.1 82.6099 141.221 82.66 141.31 82.7492C141.4 82.8384 141.45 82.9594 141.45 83.0855C141.45 83.2117 141.4 83.3327 141.31 83.4219C141.221 83.5111 141.1 83.5612 140.974 83.5612Z" fill="#E4E4E4"/>
<path d="M149.236 87.4972H134.652C134.526 87.4972 134.405 87.4471 134.316 87.3579C134.227 87.2687 134.177 87.1477 134.177 87.0215C134.177 86.8954 134.227 86.7744 134.316 86.6852C134.405 86.596 134.526 86.5459 134.652 86.5459H149.236C149.362 86.5459 149.483 86.596 149.573 86.6852C149.662 86.7744 149.712 86.8954 149.712 87.0215C149.712 87.1477 149.662 87.2687 149.573 87.3579C149.483 87.4471 149.362 87.4972 149.236 87.4972Z" fill="#E4E4E4"/>
<path d="M149.236 89.3766H134.652C134.526 89.3766 134.405 89.3265 134.316 89.2373C134.227 89.1481 134.177 89.0271 134.177 88.9009C134.177 88.7748 134.227 88.6538 134.316 88.5646C134.405 88.4754 134.526 88.4253 134.652 88.4253H149.236C149.362 88.4253 149.483 88.4754 149.573 88.5646C149.662 88.6538 149.712 88.7748 149.712 88.9009C149.712 89.0271 149.662 89.1481 149.573 89.2373C149.483 89.3265 149.362 89.3766 149.236 89.3766Z" fill="#E4E4E4"/>
<path d="M140.974 91.2562H134.652C134.526 91.2562 134.405 91.2061 134.316 91.1169C134.227 91.0277 134.177 90.9067 134.177 90.7806C134.177 90.6544 134.227 90.5334 134.316 90.4442C134.405 90.355 134.526 90.3049 134.652 90.3049H140.974C141.1 90.3049 141.221 90.355 141.31 90.4442C141.4 90.5334 141.45 90.6544 141.45 90.7806C141.45 90.9067 141.4 91.0277 141.31 91.1169C141.221 91.2061 141.1 91.2562 140.974 91.2562Z" fill="#E4E4E4"/>
<path d="M80.405 60.5291L137.276 11.8853H137.366V12.5993H137.54L80.8696 61.0717L80.405 60.5291Z" fill="#2F2E41"/>
<path d="M119.67 116.393H93.5207C93.1121 116.393 92.7205 116.556 92.4316 116.844C92.1427 117.133 91.9802 117.525 91.9797 117.934V134.214C91.9802 134.622 92.1427 135.014 92.4316 135.303C92.7205 135.592 93.1121 135.754 93.5207 135.755H119.67C120.078 135.754 120.47 135.592 120.759 135.303C121.048 135.014 121.21 134.622 121.211 134.214V117.934C121.21 117.525 121.048 117.133 120.759 116.844C120.47 116.556 120.078 116.393 119.67 116.393Z" fill="white"/>
<path d="M119.67 116.393H93.5207C93.1121 116.393 92.7205 116.556 92.4316 116.844C92.1427 117.133 91.9802 117.525 91.9797 117.934V134.214C91.9802 134.622 92.1427 135.014 92.4316 135.303C92.7205 135.592 93.1121 135.754 93.5207 135.755H119.67C120.078 135.754 120.47 135.592 120.759 135.303C121.048 135.014 121.21 134.622 121.211 134.214V117.934C121.21 117.525 121.048 117.133 120.759 116.844C120.47 116.556 120.078 116.393 119.67 116.393ZM120.176 128.087C120.169 129.744 119.514 131.333 118.349 132.513C117.185 133.693 115.605 134.369 113.948 134.397C111.294 134.431 115.416 134.445 112.216 134.445C104.898 134.445 97.2678 134.375 94.4209 134.33C94.0464 134.322 93.6896 134.168 93.427 133.901C93.1643 133.634 93.0164 133.274 93.015 132.9V117.935C93.0151 117.801 93.0684 117.672 93.1632 117.577C93.2579 117.482 93.3864 117.428 93.5206 117.428H119.669C119.803 117.428 119.932 117.481 120.026 117.576C120.121 117.671 120.175 117.799 120.176 117.933V128.087Z" fill="#CACACA"/>
<path d="M116.22 126.783H96.2974C96.1212 126.783 95.9493 126.728 95.8052 126.627C95.6611 126.525 95.5519 126.382 95.4925 126.216L92.4156 117.583C92.3696 117.454 92.3553 117.316 92.3738 117.181C92.3923 117.045 92.443 116.916 92.5218 116.804C92.6006 116.692 92.705 116.601 92.8264 116.538C92.9477 116.475 93.0825 116.442 93.2193 116.442L119.939 116.394H119.94C120.082 116.394 120.221 116.429 120.345 116.496C120.47 116.563 120.576 116.66 120.654 116.778C120.732 116.896 120.779 117.032 120.791 117.173C120.804 117.314 120.781 117.455 120.726 117.585L120.679 117.565L120.726 117.585L117.006 126.265C116.94 126.419 116.83 126.55 116.691 126.642C116.551 126.734 116.388 126.783 116.22 126.783Z" fill="#CACACA"/>
<path d="M106.58 128.912C107.756 128.912 108.709 127.959 108.709 126.783C108.709 125.608 107.756 124.655 106.58 124.655C105.405 124.655 104.451 125.608 104.451 126.783C104.451 127.959 105.405 128.912 106.58 128.912Z" fill="#3F3D56"/>
<path d="M49.3131 212.478C48.8967 215.545 46.8115 218.313 44.1296 220.121C43.4906 220.553 42.8162 220.93 42.1138 221.249C41.3414 221.597 40.5448 221.889 39.7302 222.123C36.1566 223.167 32.295 223.212 28.5375 223.233C24.7384 223.257 20.9404 223.282 17.1436 223.306C14.1494 223.323 11.058 223.323 8.29279 222.175C8.25144 222.16 8.2109 222.142 8.17135 222.123C5.45471 220.95 3.14053 218.372 3.20645 215.423C3.23295 214.384 3.52692 213.37 4.05995 212.478C4.4128 211.878 4.83685 211.324 5.32286 210.826C6.82864 209.265 8.9173 208.04 10.8741 207.055C14.1008 205.434 17.7473 203.332 18.691 200.001C18.7906 199.651 18.8579 199.292 18.8922 198.929C19.1143 196.639 18.0005 194.533 16.5815 192.649C16.4427 192.462 16.297 192.275 16.1478 192.087C15.8286 191.688 15.499 191.296 15.1729 190.921C15.0341 190.762 14.8953 190.599 14.7531 190.436C13.4416 188.916 12.1197 187.292 11.4292 185.478C11.132 184.718 10.9666 183.913 10.94 183.098C10.8637 180.152 14.1563 177.186 16.6474 178.577C17.8687 178.459 19.09 178.337 20.3112 178.212C21.8101 178.063 23.302 177.914 24.7973 177.761H24.8008C25.1374 177.734 25.467 177.699 25.7966 177.664C28.9087 177.356 32.0186 177.044 35.1261 176.731C36.507 176.596 38.1308 176.544 39.0294 177.605C40.0078 178.764 39.5012 180.596 38.5332 181.765C37.5652 182.931 36.2225 183.757 35.3135 184.964C34.1373 186.526 33.8632 188.5 34.1998 190.436C34.2972 190.998 34.4435 191.55 34.6369 192.087C34.9766 193.046 35.4472 193.953 36.0352 194.783C38.0752 197.642 41.0972 199.613 43.7792 201.878C46.4646 204.147 48.9765 207.027 49.3443 210.517C49.3547 210.618 49.3651 210.722 49.3686 210.826C49.4075 211.377 49.3889 211.931 49.3131 212.478Z" fill="#E6E6E6"/>
<path d="M27.4938 180.708C24.7866 178.034 22.4806 174.982 20.6475 171.647C18.82 168.329 17.4702 164.769 16.6381 161.074C15.7944 157.324 15.515 153.469 15.809 149.636C16.4188 141.83 19.3032 134.374 24.1055 128.19C24.3988 127.814 24.6991 127.443 25.0064 127.078C25.349 126.671 25.9311 127.258 25.5909 127.663C20.6903 133.539 17.62 140.723 16.7601 148.326C16.1381 154.136 16.8326 160.011 18.792 165.516C20.7514 171.021 23.9253 176.014 28.0783 180.124C28.4577 180.498 27.8731 181.083 27.4938 180.708V180.708Z" fill="#E6E6E6"/>
<path d="M23.7722 128.892C24.1069 128.767 24.4346 128.624 24.754 128.463C24.7701 128.488 24.7859 128.514 24.802 128.538L23.7722 128.892Z" fill="#E6E6E6"/>
<path d="M30.1542 121.6C30.0189 122.358 29.7746 123.091 29.429 123.779C28.4748 125.695 26.9548 127.272 25.0748 128.296C24.9707 128.352 24.8631 128.411 24.7556 128.463C24.6272 128.262 24.4954 128.06 24.3705 127.859C23.4849 126.541 22.8302 125.081 22.4345 123.543C22.032 121.735 22.2506 119.706 23.4094 118.259C24.5647 116.812 26.7714 116.163 28.3708 117.1C28.8326 117.376 29.2245 117.755 29.5158 118.207C29.3562 118.405 29.1966 118.599 29.037 118.797C29.0229 118.815 29.0079 118.832 28.9919 118.849C28.8531 119.022 28.7108 119.192 28.5721 119.366C27.9927 120.077 27.4167 120.792 26.8373 121.499C27.654 121.65 28.485 121.707 29.3145 121.67C29.3805 121.666 29.4499 121.663 29.5158 121.659C29.7274 121.645 29.9425 121.628 30.1542 121.6Z" fill="#E6E6E6"/>
<path d="M18.4514 135.829L18.2294 138.722L18.1704 139.506C18.1079 139.475 18.042 139.444 17.9796 139.413C15.8215 138.341 13.9169 136.822 12.393 134.956C10.8691 133.09 9.76095 130.92 9.14268 128.591C8.93597 127.783 8.79099 126.961 8.70898 126.131C9.83311 125.958 10.9607 125.781 12.0848 125.607C11.1747 124.423 10.0347 123.436 8.73327 122.703C9.03004 119.808 10.0764 117.039 11.7691 114.671C12.0606 119.522 17.1399 122.606 18.9996 127.092C19.5701 128.496 19.8171 130.011 19.7222 131.523C19.6273 133.035 19.193 134.507 18.4514 135.829Z" fill="#E6E6E6"/>
<path d="M17.4869 161.243C17.2163 161.257 16.9457 161.264 16.6785 161.26C14.3696 161.246 12.088 160.76 9.97365 159.832C7.85928 158.904 5.95667 157.554 4.38249 155.865C3.1082 154.47 2.08361 152.865 1.35359 151.122C1.37788 151.119 1.3987 151.115 1.42298 151.112C2.54711 150.938 3.67471 150.762 4.79884 150.588C3.60494 149.032 2.01816 147.823 0.201713 147.084C-0.0439483 145.516 -0.0626455 143.921 0.146199 142.348C2.6859 146.487 8.62227 146.82 12.3728 149.901C14.1615 151.392 15.3809 153.455 15.825 155.74C15.9357 156.305 15.9949 156.879 16.002 157.454C16.0054 157.593 16.0054 157.728 16.002 157.864L16.0852 158.051L17.4869 161.243Z" fill="#E6E6E6"/>
<path d="M28.6451 166.034C27.9269 166.916 27.2087 167.804 26.4905 168.685C27.3734 168.847 28.273 168.901 29.169 168.845C28.3733 171.694 26.8459 174.286 24.7384 176.363C24.5406 176.557 24.3359 176.748 24.1277 176.929C24.0861 176.967 24.041 177.005 23.9993 177.043L23.812 176.512L23.8085 176.509L22.7468 173.57C21.3999 172.216 20.4671 170.506 20.058 168.64V168.633C19.8091 167.541 19.7516 166.414 19.888 165.302C20.4812 160.483 24.5545 156.15 23.5414 151.4C25.7736 153.208 27.5056 155.557 28.5722 158.224C27.9928 158.936 27.4168 159.65 26.8374 160.358C27.6541 160.508 28.4852 160.565 29.3147 160.528C29.6052 161.703 29.7635 162.906 29.7865 164.116C29.79 164.289 29.79 164.459 29.7865 164.633C29.4222 165.084 29.0545 165.531 28.6902 165.982C28.6761 166.001 28.6611 166.018 28.6451 166.034Z" fill="#E6E6E6"/>
<path d="M155.666 23.6819H134.467C133.899 23.6812 133.354 23.4552 132.953 23.0535C132.551 22.6518 132.325 22.1071 132.324 21.539V2.14289C132.325 1.57476 132.551 1.03008 132.953 0.628349C133.354 0.226618 133.899 0.000644646 134.467 0H155.666C156.234 0.000641891 156.779 0.226618 157.181 0.628349C157.582 1.03008 157.808 1.57476 157.809 2.14289V21.539C157.808 22.1071 157.582 22.6518 157.181 23.0535C156.779 23.4552 156.234 23.6812 155.666 23.6819Z" fill="#E6E6E6"/>
<path d="M154.176 21.8958H135.957C135.453 21.8952 134.969 21.6946 134.613 21.3379C134.256 20.9812 134.055 20.4976 134.055 19.9931V3.68854C134.055 3.1841 134.256 2.70048 134.613 2.34379C134.969 1.9871 135.453 1.78646 135.957 1.78589H154.176C154.681 1.78646 155.164 1.9871 155.521 2.34379C155.878 2.70048 156.078 3.1841 156.079 3.68854V19.9931C156.078 20.4976 155.878 20.9812 155.521 21.3379C155.164 21.6946 154.681 21.8952 154.176 21.8958Z" fill="white"/>
<path d="M152.359 6.5328H137.775C137.712 6.53297 137.65 6.52079 137.592 6.49697C137.535 6.47314 137.482 6.43813 137.438 6.39395C137.393 6.34977 137.358 6.29727 137.334 6.23948C137.31 6.18169 137.298 6.11974 137.298 6.05717C137.298 5.9946 137.31 5.93265 137.334 5.87486C137.358 5.81707 137.393 5.76458 137.438 5.7204C137.482 5.67621 137.535 5.64121 137.592 5.61738C137.65 5.59355 137.712 5.58138 137.775 5.58154H152.359C152.421 5.58138 152.483 5.59355 152.541 5.61738C152.599 5.64121 152.652 5.67621 152.696 5.7204C152.74 5.76458 152.775 5.81707 152.799 5.87486C152.823 5.93265 152.836 5.9946 152.836 6.05717C152.836 6.11974 152.823 6.18169 152.799 6.23948C152.775 6.29727 152.74 6.34977 152.696 6.39395C152.652 6.43813 152.599 6.47314 152.541 6.49697C152.483 6.52079 152.421 6.53297 152.359 6.5328Z" fill="#6E2F9B"/>
<path d="M152.359 8.41224H137.775C137.649 8.41224 137.528 8.36213 137.438 8.27292C137.349 8.18372 137.299 8.06274 137.299 7.93659C137.299 7.81044 137.349 7.68945 137.438 7.60025C137.528 7.51105 137.649 7.46094 137.775 7.46094H152.359C152.485 7.46094 152.606 7.51105 152.695 7.60025C152.784 7.68945 152.834 7.81044 152.834 7.93659C152.834 8.06274 152.784 8.18372 152.695 8.27292C152.606 8.36213 152.485 8.41224 152.359 8.41224Z" fill="#6E2F9B"/>
<path d="M144.097 10.2919H137.775C137.649 10.2919 137.528 10.2418 137.438 10.1526C137.349 10.0634 137.299 9.94238 137.299 9.81623C137.299 9.69008 137.349 9.5691 137.438 9.4799C137.528 9.39069 137.649 9.34058 137.775 9.34058H144.097C144.223 9.34058 144.344 9.39069 144.433 9.4799C144.522 9.5691 144.572 9.69008 144.572 9.81623C144.572 9.94238 144.522 10.0634 144.433 10.1526C144.344 10.2418 144.223 10.2919 144.097 10.2919Z" fill="#6E2F9B"/>
<path d="M152.359 14.2281H137.775C137.712 14.2283 137.65 14.2161 137.592 14.1923C137.535 14.1684 137.482 14.1334 137.438 14.0893C137.393 14.0451 137.358 13.9926 137.334 13.9348C137.31 13.877 137.298 13.8151 137.298 13.7525C137.298 13.6899 137.31 13.628 137.334 13.5702C137.358 13.5124 137.393 13.4599 137.438 13.4157C137.482 13.3715 137.535 13.3365 137.592 13.3127C137.65 13.2889 137.712 13.2767 137.775 13.2769H152.359C152.421 13.2767 152.483 13.2889 152.541 13.3127C152.599 13.3365 152.652 13.3715 152.696 13.4157C152.74 13.4599 152.775 13.5124 152.799 13.5702C152.823 13.628 152.836 13.6899 152.836 13.7525C152.836 13.8151 152.823 13.877 152.799 13.9348C152.775 13.9926 152.74 14.0451 152.696 14.0893C152.652 14.1334 152.599 14.1684 152.541 14.1923C152.483 14.2161 152.421 14.2283 152.359 14.2281Z" fill="#E4E4E4"/>
<path d="M152.359 16.1076H137.775C137.712 16.1077 137.65 16.0955 137.592 16.0717C137.535 16.0479 137.482 16.0129 137.438 15.9687C137.393 15.9245 137.358 15.872 137.334 15.8142C137.31 15.7564 137.298 15.6945 137.298 15.6319C137.298 15.5693 137.31 15.5074 137.334 15.4496C137.358 15.3918 137.393 15.3393 137.438 15.2951C137.482 15.2509 137.535 15.2159 137.592 15.1921C137.65 15.1683 137.712 15.1561 137.775 15.1563H152.359C152.421 15.1561 152.483 15.1683 152.541 15.1921C152.599 15.2159 152.652 15.2509 152.696 15.2951C152.74 15.3393 152.775 15.3918 152.799 15.4496C152.823 15.5074 152.836 15.5693 152.836 15.6319C152.836 15.6945 152.823 15.7564 152.799 15.8142C152.775 15.872 152.74 15.9245 152.696 15.9687C152.652 16.0129 152.599 16.0479 152.541 16.0717C152.483 16.0955 152.421 16.1077 152.359 16.1076Z" fill="#E4E4E4"/>
<path d="M144.097 17.9869H137.775C137.649 17.9869 137.528 17.9368 137.438 17.8476C137.349 17.7584 137.299 17.6374 137.299 17.5113C137.299 17.3851 137.349 17.2642 137.438 17.175C137.528 17.0858 137.649 17.0356 137.775 17.0356H144.097C144.223 17.0356 144.344 17.0858 144.433 17.175C144.522 17.2642 144.572 17.3851 144.572 17.5113C144.572 17.6374 144.522 17.7584 144.433 17.8476C144.344 17.9368 144.223 17.9869 144.097 17.9869Z" fill="#E4E4E4"/>
<path d="M233.73 81.4978C233.845 81.4137 233.939 81.3068 234.005 81.1844C234.072 81.0621 234.109 80.9271 234.114 80.7886L234.439 72.8806C234.447 72.7198 234.411 72.5589 234.336 72.4124C234.261 72.2659 234.149 72.1385 234.01 72.0417C228.525 68.2352 222.442 67.0431 215.929 68.4981C215.756 68.5378 215.598 68.6194 215.471 68.7349C215.343 68.8504 215.25 68.9958 215.201 69.157L212.796 74.943C212.757 75.0718 212.747 75.2076 212.767 75.3415C212.787 75.4755 212.836 75.6048 212.912 75.721C213.064 75.9553 212.485 80.3374 212.769 80.3929C213.034 77.7653 213.855 76.6437 215.707 78.3151C215.899 78.3522 216.097 78.3373 216.278 78.2722C216.459 78.2071 216.615 78.0944 216.729 77.9473L217.925 76.3889C218.002 76.288 218.113 76.2143 218.24 76.1791C218.368 76.1438 218.505 76.1488 218.631 76.1934C218.757 76.2379 218.866 76.3196 218.94 76.4261C219.014 76.5326 219.05 76.658 219.042 76.7836L218.963 78.0895C218.949 78.3246 219.027 78.5585 219.181 78.7474C219.336 78.9363 219.557 79.0671 219.803 79.1155C222.99 81.4329 227.675 81.8922 232.903 81.6754C233.048 81.7037 233.197 81.7025 233.34 81.6719C233.482 81.6412 233.616 81.5819 233.73 81.4978Z" fill="#2F2E41"/>
</g>
<defs>
<clipPath id="clip0_1382_8275">
<rect width="300" height="224" fill="white"/>
</clipPath>
</defs>
</svg>
