<svg width="300" height="213" viewBox="0 0 300 213" fill="none" xmlns="http://www.w3.org/2000/svg">
<g clip-path="url(#clip0_1371_7796)">
<path d="M264.171 194.796L264.463 187.415C267.509 185.586 270.906 184.62 274.36 184.601C269.607 188.967 270.201 197.383 266.978 203.254C265.96 205.076 264.591 206.618 262.971 207.765C261.351 208.912 259.522 209.635 257.619 209.88L253.641 212.616C253.096 209.197 253.216 205.687 253.994 202.325C254.772 198.964 256.19 195.833 258.149 193.146C259.261 191.651 260.537 190.32 261.946 189.183C262.898 192.005 264.171 194.796 264.171 194.796Z" fill="#F2F2F2"/>
<path d="M63.0942 186.708L53.4953 183.443C52.2364 177.697 52.2451 171.692 53.5204 165.951C57.4733 175.487 68.7678 177.671 75.2771 185.233C77.2913 187.609 78.8037 190.463 79.7023 193.585C80.6009 196.707 80.8627 200.016 80.4682 203.267L82.5693 210.902C77.8669 210.521 73.2941 208.999 69.1658 206.441C65.0375 203.883 61.4518 200.35 58.6559 196.085C57.1085 193.675 55.8374 191.056 54.8726 188.289C58.9437 187.77 63.0942 186.708 63.0942 186.708Z" fill="#F2F2F2"/>
<path d="M230.911 211.409C230.909 211.633 230.83 211.847 230.69 212.005C230.621 212.083 230.539 212.144 230.448 212.186C230.358 212.228 230.261 212.249 230.163 212.249H227.158C227.059 212.249 226.962 212.228 226.871 212.186C226.78 212.144 226.698 212.082 226.628 212.004C226.559 211.926 226.504 211.833 226.466 211.731C226.429 211.629 226.41 211.52 226.41 211.409V109.306C226.41 107.055 225.737 105.228 224.911 105.224H37.8368C37.007 105.228 36.3379 107.055 36.3341 109.306V210.783C36.3335 210.992 36.264 211.193 36.139 211.348C36.014 211.502 35.8425 211.599 35.6576 211.619C35.0521 211.686 34.4465 211.745 33.8448 211.8C33.8298 211.8 33.8148 211.804 33.7999 211.804C33.471 211.837 33.142 211.863 32.8131 211.892H32.8094C32.6374 211.544 32.473 211.187 32.3048 210.83C32.2508 210.708 32.2227 210.575 32.2225 210.439V104.01C32.2225 103.389 32.245 102.763 32.2823 102.146C32.3357 101.298 32.4293 100.454 32.5627 99.6177C33.1944 95.7165 34.6222 93.075 36.2444 93.0667H226.5C226.737 93.0684 226.971 93.1241 227.188 93.2304C227.506 93.3889 227.795 93.6157 228.036 93.8981C228.364 94.281 228.644 94.7118 228.87 95.1789C229.67 96.7621 230.241 99.1221 230.443 101.869C230.443 101.894 230.447 101.919 230.447 101.944C230.499 102.624 230.526 103.317 230.522 104.01L230.574 113.009L230.608 118.376L230.709 135.216L230.746 141.196L230.911 211.409Z" fill="#E6E6E6"/>
<path d="M161.481 61.9351H142.416C142.146 61.9355 141.888 62.0563 141.697 62.2708C141.507 62.4854 141.4 62.7761 141.4 63.0791V96.915H162.499V63.0791C162.499 62.9288 162.473 62.78 162.422 62.6412C162.371 62.5024 162.296 62.3762 162.201 62.27C162.106 62.1637 161.994 62.0795 161.871 62.022C161.747 61.9645 161.615 61.935 161.481 61.9351ZM152.012 81.1602C151.416 81.1571 150.845 80.8896 150.424 80.416C150.002 79.9423 149.764 79.3008 149.761 78.631V74.7283C149.761 74.0575 149.998 73.4142 150.42 72.9399C150.843 72.4655 151.415 72.1991 152.012 72.1991C152.609 72.1991 153.182 72.4655 153.604 72.9399C154.026 73.4142 154.264 74.0575 154.264 74.7283V78.631C154.261 79.3008 154.023 79.9423 153.601 80.416C153.18 80.8896 152.609 81.1571 152.012 81.1602Z" fill="#CCCCCC"/>
<path d="M141.335 95.8328V99.0973C141.335 99.2664 141.395 99.4286 141.501 99.5482C141.608 99.6678 141.752 99.7351 141.903 99.7355H161.996C162.147 99.7346 162.291 99.6671 162.397 99.5476C162.504 99.4281 162.564 99.2663 162.564 99.0973V95.8328H141.335Z" fill="#3F3D56"/>
<path d="M193.051 9.13013H111.555C110.855 9.13138 110.184 9.44442 109.689 10.0006C109.194 10.5569 108.915 11.3109 108.914 12.0976V73.8816C108.914 74.6684 109.193 75.4227 109.688 75.9791C110.183 76.5354 110.855 76.8483 111.555 76.8491H193.051C193.751 76.8483 194.422 76.5354 194.918 75.9791C195.413 75.4227 195.691 74.6684 195.692 73.8816V12.0976C195.691 11.3109 195.412 10.5569 194.917 10.0006C194.422 9.44442 193.751 9.13138 193.051 9.13013Z" fill="#E6E6E6"/>
<path d="M192.37 11.2737H112.236C111.861 11.2746 111.502 11.4425 111.237 11.7407C110.972 12.0388 110.824 12.4428 110.823 12.864V73.1166C110.824 73.5373 110.973 73.9406 111.238 74.238C111.503 74.5355 111.862 74.7029 112.236 74.7036H192.37C192.745 74.7029 193.104 74.5355 193.368 74.238C193.633 73.9406 193.782 73.5373 193.783 73.1166V12.864C193.783 12.4428 193.634 12.0388 193.369 11.7407C193.105 11.4425 192.745 11.2746 192.37 11.2737Z" fill="white"/>
<path d="M176.762 100.872H129.086C128.956 100.872 128.827 100.839 128.709 100.776C128.591 100.713 128.487 100.621 128.405 100.507C128.323 100.393 128.264 100.26 128.234 100.118C128.203 99.9751 128.201 99.8267 128.228 99.6832L128.968 95.7359C129.01 95.5151 129.118 95.3171 129.274 95.1748C129.43 95.0325 129.625 94.9544 129.826 94.9536H176.022C176.223 94.9544 176.418 95.0325 176.574 95.1748C176.73 95.3171 176.838 95.5151 176.88 95.7359L177.62 99.6832C177.647 99.8267 177.645 99.9751 177.614 100.118C177.583 100.26 177.525 100.393 177.443 100.507C177.36 100.621 177.257 100.713 177.139 100.776C177.021 100.839 176.892 100.872 176.762 100.872Z" fill="#CCCCCC"/>
<path d="M131.45 95.6643H130.347C130.246 95.6643 130.164 95.7561 130.164 95.8693V96.4491C130.164 96.5623 130.246 96.6541 130.347 96.6541H131.45C131.551 96.6541 131.633 96.5623 131.633 96.4491V95.8693C131.633 95.7561 131.551 95.6643 131.45 95.6643Z" fill="#E6E6E6"/>
<path d="M134.387 95.6643H133.283C133.183 95.6643 133.101 95.7561 133.101 95.8693V96.4491C133.101 96.5623 133.183 96.6541 133.283 96.6541H134.387C134.488 96.6541 134.569 96.5623 134.569 96.4491V95.8693C134.569 95.7561 134.488 95.6643 134.387 95.6643Z" fill="#E6E6E6"/>
<path d="M137.323 95.6643H136.22C136.119 95.6643 136.038 95.7561 136.038 95.8693V96.4491C136.038 96.5623 136.119 96.6541 136.22 96.6541H137.323C137.424 96.6541 137.506 96.5623 137.506 96.4491V95.8693C137.506 95.7561 137.424 95.6643 137.323 95.6643Z" fill="#E6E6E6"/>
<path d="M140.26 95.6643H139.157C139.056 95.6643 138.974 95.7561 138.974 95.8693V96.4491C138.974 96.5623 139.056 96.6541 139.157 96.6541H140.26C140.361 96.6541 140.443 96.5623 140.443 96.4491V95.8693C140.443 95.7561 140.361 95.6643 140.26 95.6643Z" fill="#E6E6E6"/>
<path d="M143.197 95.6643H142.094C141.993 95.6643 141.911 95.7561 141.911 95.8693V96.4491C141.911 96.5623 141.993 96.6541 142.094 96.6541H143.197C143.298 96.6541 143.379 96.5623 143.379 96.4491V95.8693C143.379 95.7561 143.298 95.6643 143.197 95.6643Z" fill="#E6E6E6"/>
<path d="M146.134 95.6643H145.03C144.929 95.6643 144.848 95.7561 144.848 95.8693V96.4491C144.848 96.5623 144.929 96.6541 145.03 96.6541H146.134C146.234 96.6541 146.316 96.5623 146.316 96.4491V95.8693C146.316 95.7561 146.234 95.6643 146.134 95.6643Z" fill="#E6E6E6"/>
<path d="M149.07 95.6643H147.967C147.866 95.6643 147.785 95.7561 147.785 95.8693V96.4491C147.785 96.5623 147.866 96.6541 147.967 96.6541H149.07C149.171 96.6541 149.253 96.5623 149.253 96.4491V95.8693C149.253 95.7561 149.171 95.6643 149.07 95.6643Z" fill="#E6E6E6"/>
<path d="M152.007 95.6643H150.904C150.803 95.6643 150.721 95.7561 150.721 95.8693V96.4491C150.721 96.5623 150.803 96.6541 150.904 96.6541H152.007C152.108 96.6541 152.19 96.5623 152.19 96.4491V95.8693C152.19 95.7561 152.108 95.6643 152.007 95.6643Z" fill="#E6E6E6"/>
<path d="M154.944 95.6643H153.84C153.74 95.6643 153.658 95.7561 153.658 95.8693V96.4491C153.658 96.5623 153.74 96.6541 153.84 96.6541H154.944C155.045 96.6541 155.126 96.5623 155.126 96.4491V95.8693C155.126 95.7561 155.045 95.6643 154.944 95.6643Z" fill="#E6E6E6"/>
<path d="M157.881 95.6643H156.777C156.676 95.6643 156.595 95.7561 156.595 95.8693V96.4491C156.595 96.5623 156.676 96.6541 156.777 96.6541H157.881C157.981 96.6541 158.063 96.5623 158.063 96.4491V95.8693C158.063 95.7561 157.981 95.6643 157.881 95.6643Z" fill="#E6E6E6"/>
<path d="M160.817 95.6643H159.714C159.613 95.6643 159.531 95.7561 159.531 95.8693V96.4491C159.531 96.5623 159.613 96.6541 159.714 96.6541H160.817C160.918 96.6541 161 96.5623 161 96.4491V95.8693C161 95.7561 160.918 95.6643 160.817 95.6643Z" fill="#E6E6E6"/>
<path d="M163.754 95.6643H162.651C162.55 95.6643 162.468 95.7561 162.468 95.8693V96.4491C162.468 96.5623 162.55 96.6541 162.651 96.6541H163.754C163.855 96.6541 163.936 96.5623 163.936 96.4491V95.8693C163.936 95.7561 163.855 95.6643 163.754 95.6643Z" fill="#E6E6E6"/>
<path d="M166.691 95.6643H165.587C165.487 95.6643 165.405 95.7561 165.405 95.8693V96.4491C165.405 96.5623 165.487 96.6541 165.587 96.6541H166.691C166.792 96.6541 166.873 96.5623 166.873 96.4491V95.8693C166.873 95.7561 166.792 95.6643 166.691 95.6643Z" fill="#E6E6E6"/>
<path d="M169.627 95.6643H168.524C168.423 95.6643 168.342 95.7561 168.342 95.8693V96.4491C168.342 96.5623 168.423 96.6541 168.524 96.6541H169.627C169.728 96.6541 169.81 96.5623 169.81 96.4491V95.8693C169.81 95.7561 169.728 95.6643 169.627 95.6643Z" fill="#E6E6E6"/>
<path d="M172.564 95.6643H171.461C171.36 95.6643 171.278 95.7561 171.278 95.8693V96.4491C171.278 96.5623 171.36 96.6541 171.461 96.6541H172.564C172.665 96.6541 172.747 96.5623 172.747 96.4491V95.8693C172.747 95.7561 172.665 95.6643 172.564 95.6643Z" fill="#E6E6E6"/>
<path d="M175.501 95.6643H174.398C174.297 95.6643 174.215 95.7561 174.215 95.8693V96.4491C174.215 96.5623 174.297 96.6541 174.398 96.6541H175.501C175.602 96.6541 175.683 96.5623 175.683 96.4491V95.8693C175.683 95.7561 175.602 95.6643 175.501 95.6643Z" fill="#E6E6E6"/>
<path d="M131.415 97.314H130.312C130.211 97.314 130.13 97.4058 130.13 97.519V98.0988C130.13 98.212 130.211 98.3038 130.312 98.3038H131.415C131.516 98.3038 131.598 98.212 131.598 98.0988V97.519C131.598 97.4058 131.516 97.314 131.415 97.314Z" fill="#E6E6E6"/>
<path d="M134.352 97.314H133.249C133.148 97.314 133.066 97.4058 133.066 97.519V98.0988C133.066 98.212 133.148 98.3038 133.249 98.3038H134.352C134.453 98.3038 134.535 98.212 134.535 98.0988V97.519C134.535 97.4058 134.453 97.314 134.352 97.314Z" fill="#E6E6E6"/>
<path d="M137.289 97.314H136.185C136.085 97.314 136.003 97.4058 136.003 97.519V98.0988C136.003 98.212 136.085 98.3038 136.185 98.3038H137.289C137.39 98.3038 137.471 98.212 137.471 98.0988V97.519C137.471 97.4058 137.39 97.314 137.289 97.314Z" fill="#E6E6E6"/>
<path d="M140.226 97.314H139.122C139.021 97.314 138.94 97.4058 138.94 97.519V98.0988C138.94 98.212 139.021 98.3038 139.122 98.3038H140.226C140.326 98.3038 140.408 98.212 140.408 98.0988V97.519C140.408 97.4058 140.326 97.314 140.226 97.314Z" fill="#E6E6E6"/>
<path d="M143.162 97.314H142.059C141.958 97.314 141.876 97.4058 141.876 97.519V98.0988C141.876 98.212 141.958 98.3038 142.059 98.3038H143.162C143.263 98.3038 143.345 98.212 143.345 98.0988V97.519C143.345 97.4058 143.263 97.314 143.162 97.314Z" fill="#E6E6E6"/>
<path d="M146.099 97.314H144.996C144.895 97.314 144.813 97.4058 144.813 97.519V98.0988C144.813 98.212 144.895 98.3038 144.996 98.3038H146.099C146.2 98.3038 146.281 98.212 146.281 98.0988V97.519C146.281 97.4058 146.2 97.314 146.099 97.314Z" fill="#E6E6E6"/>
<path d="M149.036 97.314H147.932C147.832 97.314 147.75 97.4058 147.75 97.519V98.0988C147.75 98.212 147.832 98.3038 147.932 98.3038H149.036C149.137 98.3038 149.218 98.212 149.218 98.0988V97.519C149.218 97.4058 149.137 97.314 149.036 97.314Z" fill="#E6E6E6"/>
<path d="M151.972 97.314H150.869C150.768 97.314 150.687 97.4058 150.687 97.519V98.0988C150.687 98.212 150.768 98.3038 150.869 98.3038H151.972C152.073 98.3038 152.155 98.212 152.155 98.0988V97.519C152.155 97.4058 152.073 97.314 151.972 97.314Z" fill="#E6E6E6"/>
<path d="M154.909 97.314H153.806C153.705 97.314 153.623 97.4058 153.623 97.519V98.0988C153.623 98.212 153.705 98.3038 153.806 98.3038H154.909C155.01 98.3038 155.092 98.212 155.092 98.0988V97.519C155.092 97.4058 155.01 97.314 154.909 97.314Z" fill="#E6E6E6"/>
<path d="M157.846 97.314H156.742C156.642 97.314 156.56 97.4058 156.56 97.519V98.0988C156.56 98.212 156.642 98.3038 156.742 98.3038H157.846C157.947 98.3038 158.028 98.212 158.028 98.0988V97.519C158.028 97.4058 157.947 97.314 157.846 97.314Z" fill="#E6E6E6"/>
<path d="M160.783 97.314H159.679C159.578 97.314 159.497 97.4058 159.497 97.519V98.0988C159.497 98.212 159.578 98.3038 159.679 98.3038H160.783C160.883 98.3038 160.965 98.212 160.965 98.0988V97.519C160.965 97.4058 160.883 97.314 160.783 97.314Z" fill="#E6E6E6"/>
<path d="M163.719 97.314H162.616C162.515 97.314 162.433 97.4058 162.433 97.519V98.0988C162.433 98.212 162.515 98.3038 162.616 98.3038H163.719C163.82 98.3038 163.902 98.212 163.902 98.0988V97.519C163.902 97.4058 163.82 97.314 163.719 97.314Z" fill="#E6E6E6"/>
<path d="M166.656 97.314H165.553C165.452 97.314 165.37 97.4058 165.37 97.519V98.0988C165.37 98.212 165.452 98.3038 165.553 98.3038H166.656C166.757 98.3038 166.838 98.212 166.838 98.0988V97.519C166.838 97.4058 166.757 97.314 166.656 97.314Z" fill="#E6E6E6"/>
<path d="M169.593 97.314H168.489C168.389 97.314 168.307 97.4058 168.307 97.519V98.0988C168.307 98.212 168.389 98.3038 168.489 98.3038H169.593C169.694 98.3038 169.775 98.212 169.775 98.0988V97.519C169.775 97.4058 169.694 97.314 169.593 97.314Z" fill="#E6E6E6"/>
<path d="M172.529 97.314H171.426C171.325 97.314 171.244 97.4058 171.244 97.519V98.0988C171.244 98.212 171.325 98.3038 171.426 98.3038H172.529C172.63 98.3038 172.712 98.212 172.712 98.0988V97.519C172.712 97.4058 172.63 97.314 172.529 97.314Z" fill="#E6E6E6"/>
<path d="M175.466 97.314H174.363C174.262 97.314 174.18 97.4058 174.18 97.519V98.0988C174.18 98.212 174.262 98.3038 174.363 98.3038H175.466C175.567 98.3038 175.649 98.212 175.649 98.0988V97.519C175.649 97.4058 175.567 97.314 175.466 97.314Z" fill="#E6E6E6"/>
<path d="M155.79 99.2937H144.408C144.307 99.2937 144.226 99.3855 144.226 99.4987V100.078C144.226 100.192 144.307 100.283 144.408 100.283H155.79C155.891 100.283 155.973 100.192 155.973 100.078V99.4987C155.973 99.3855 155.891 99.2937 155.79 99.2937Z" fill="#E6E6E6"/>
<path d="M188.342 19.575H113.361C113.283 19.5731 113.209 19.5369 113.154 19.4743C113.1 19.4117 113.069 19.3276 113.069 19.24C113.069 19.1524 113.1 19.0683 113.154 19.0057C113.209 18.9431 113.283 18.907 113.361 18.905H188.342C188.42 18.907 188.494 18.9431 188.549 19.0057C188.603 19.0683 188.634 19.1524 188.634 19.24C188.634 19.3276 188.603 19.4117 188.549 19.4743C188.494 19.5369 188.42 19.5731 188.342 19.575Z" fill="#CACACA"/>
<path d="M118.465 17.1947C119.43 17.1947 120.212 16.2961 120.212 15.1877C120.212 14.0792 119.43 13.1807 118.465 13.1807C117.5 13.1807 116.717 14.0792 116.717 15.1877C116.717 16.2961 117.5 17.1947 118.465 17.1947Z" fill="#CCCCCC"/>
<path d="M124.502 17.1947C125.467 17.1947 126.249 16.2961 126.249 15.1877C126.249 14.0792 125.467 13.1807 124.502 13.1807C123.537 13.1807 122.754 14.0792 122.754 15.1877C122.754 16.2961 123.537 17.1947 124.502 17.1947Z" fill="#CCCCCC"/>
<path d="M130.538 17.1947C131.503 17.1947 132.286 16.2961 132.286 15.1877C132.286 14.0792 131.503 13.1807 130.538 13.1807C129.573 13.1807 128.791 14.0792 128.791 15.1877C128.791 16.2961 129.573 17.1947 130.538 17.1947Z" fill="#CCCCCC"/>
<path d="M184.708 13.678H180.419C180.334 13.6799 180.253 13.7192 180.194 13.7874C180.134 13.8556 180.101 13.9473 180.101 14.0428C180.101 14.1383 180.134 14.23 180.194 14.2982C180.253 14.3664 180.334 14.4056 180.419 14.4075H184.708C184.792 14.4056 184.873 14.3664 184.933 14.2982C184.992 14.23 185.026 14.1383 185.026 14.0428C185.026 13.9473 184.992 13.8556 184.933 13.7874C184.873 13.7192 184.792 13.6799 184.708 13.678Z" fill="#CCCCCC"/>
<path d="M184.708 15.0474H180.419C180.334 15.0493 180.253 15.0886 180.194 15.1568C180.134 15.225 180.101 15.3166 180.101 15.4121C180.101 15.5076 180.134 15.5993 180.194 15.6675C180.253 15.7357 180.334 15.775 180.419 15.7769H184.708C184.792 15.775 184.873 15.7357 184.933 15.6675C184.992 15.5993 185.026 15.5076 185.026 15.4121C185.026 15.3166 184.992 15.225 184.933 15.1568C184.873 15.0886 184.792 15.0493 184.708 15.0474Z" fill="#CCCCCC"/>
<path d="M184.708 16.4148H180.419C180.334 16.4167 180.253 16.456 180.194 16.5242C180.134 16.5924 180.101 16.6841 180.101 16.7796C180.101 16.8751 180.134 16.9668 180.194 17.035C180.253 17.1032 180.334 17.1425 180.419 17.1444H184.708C184.792 17.1425 184.873 17.1032 184.933 17.035C184.992 16.9668 185.026 16.8751 185.026 16.7796C185.026 16.6841 184.992 16.5924 184.933 16.5242C184.873 16.456 184.792 16.4167 184.708 16.4148Z" fill="#CCCCCC"/>
<path d="M150.775 24.6546L150.532 23.8597L181.503 5.78052L181.745 6.57546L150.775 24.6546Z" fill="#3F3D56"/>
<path d="M244.22 58.1412L243.978 57.3462L262.614 39.3586L262.856 40.1532L244.22 58.1412Z" fill="#3F3D56"/>
<path d="M208.416 62.3284L177.445 44.2493L177.687 43.4543L208.658 61.5335L208.416 62.3284Z" fill="#3F3D56"/>
<path d="M224.27 49.7478L206.113 16.2595L206.687 15.7207L224.843 49.209L224.27 49.7478Z" fill="#3F3D56"/>
<path d="M238.439 6.11184L220.757 6.02029V5.18042L238.439 5.27197V6.11184Z" fill="#3F3D56"/>
<path d="M270.471 11.3212H250.661C249.372 11.3212 248.136 10.746 247.225 9.72224C246.313 8.69845 245.802 7.30988 245.802 5.86202C245.802 4.41415 246.313 3.02559 247.225 2.00179C248.136 0.977997 249.372 0.402832 250.661 0.402832H270.471C271.76 0.402832 272.996 0.977997 273.907 2.00179C274.818 3.02559 275.33 4.41415 275.33 5.86202C275.33 7.30988 274.818 8.69845 273.907 9.72224C272.996 10.746 271.76 11.3212 270.471 11.3212Z" fill="#6E2F9B"/>
<path d="M295.141 43.2365H275.33C274.042 43.2365 272.806 42.6613 271.894 41.6375C270.983 40.6137 270.471 39.2252 270.471 37.7773C270.471 36.3294 270.983 34.9409 271.894 33.9171C272.806 32.8933 274.042 32.3181 275.33 32.3181H295.141C296.43 32.3181 297.666 32.8933 298.577 33.9171C299.488 34.9409 300 36.3294 300 37.7773C300 39.2252 299.488 40.6137 298.577 41.6375C297.666 42.6613 296.43 43.2365 295.141 43.2365Z" fill="#6E2F9B"/>
<path d="M263.109 65.7425L245.426 65.6514V64.8115L263.109 64.9026V65.7425Z" fill="#3F3D56"/>
<path d="M295.141 70.9523H275.33C274.042 70.9523 272.806 70.3771 271.894 69.3533C270.983 68.3295 270.471 66.941 270.471 65.4931C270.471 64.0453 270.983 62.6567 271.894 61.6329C272.806 60.6091 274.042 60.0339 275.33 60.0339H295.141C296.43 60.0339 297.666 60.6091 298.577 61.6329C299.488 62.6567 300 64.0453 300 65.4931C300 66.941 299.488 68.3295 298.577 69.3533C297.666 70.3771 296.43 70.9523 295.141 70.9523Z" fill="#6E2F9B"/>
<path d="M237.204 67.1898H217.394C216.105 67.1898 214.869 66.6147 213.958 65.5909C213.047 64.5671 212.535 63.1785 212.535 61.7307C212.535 60.2828 213.047 58.8942 213.958 57.8704C214.869 56.8466 216.105 56.2715 217.394 56.2715H237.204C238.493 56.2715 239.729 56.8466 240.64 57.8704C241.552 58.8942 242.064 60.2828 242.064 61.7307C242.064 63.1785 241.552 64.5671 240.64 65.5909C239.729 66.6147 238.493 67.1898 237.204 67.1898Z" fill="#6E2F9B"/>
<path d="M210.292 10.9184H190.482C189.193 10.9184 187.957 10.3432 187.046 9.31941C186.134 8.29561 185.622 6.90705 185.622 5.45918C185.622 4.01132 186.134 2.62276 187.046 1.59896C187.957 0.575164 189.193 6.1023e-08 190.482 0H210.292C211.581 6.1023e-08 212.817 0.575164 213.728 1.59896C214.639 2.62276 215.151 4.01132 215.151 5.45918C215.151 6.90705 214.639 8.29561 213.728 9.31941C212.817 10.3432 211.581 10.9184 210.292 10.9184Z" fill="#6E2F9B"/>
<path d="M115.602 104.64H93.1753C92.3823 104.64 91.6217 104.994 91.0609 105.624C90.5001 106.254 90.1851 107.109 90.1851 108C90.1851 108.891 90.5001 109.745 91.0609 110.375C91.6217 111.005 92.3823 111.359 93.1753 111.359H101.399V137.395H107.379V111.359H115.602C116.395 111.359 117.156 111.005 117.717 110.375C118.278 109.745 118.593 108.891 118.593 108C118.593 107.109 118.278 106.254 117.717 105.624C117.156 104.994 116.395 104.64 115.602 104.64Z" fill="#3F3D56"/>
<path d="M130.404 151.814H70.4187C64.6034 151.791 58.9898 149.417 54.6034 145.127C50.217 140.838 47.3506 134.919 46.5278 128.451L44.4044 119.676C40.0095 101.493 33.3152 84.1116 24.5262 68.0644C20.509 60.7349 18.4414 53.6401 23.1376 46.8092C23.1776 46.751 23.2169 46.6937 23.2556 46.6371C27.0223 41.1292 45.7702 39.9368 51.8819 39.7049C52.1234 39.6957 52.3658 39.6911 52.609 39.6912H89.9196C90.1631 39.6912 90.4054 39.6957 90.6466 39.7049C93.9413 39.8128 97.1486 40.9207 99.9281 42.9111C102.708 44.9015 104.956 47.7001 106.434 51.01C108.011 54.3893 108.745 58.1852 108.557 61.9951C108.369 65.8049 107.266 69.4865 105.366 72.6493C92.2601 94.7677 88.2475 108.637 92.3556 117.618C96.3294 126.306 108.511 130.747 130.69 131.596C136.651 131.824 139.386 137.038 139.405 141.786C139.424 146.412 136.794 151.519 130.976 151.801C130.786 151.81 130.596 151.814 130.404 151.814Z" fill="#3F3D56"/>
<path d="M80.609 211.655H103.036C103.829 211.655 104.59 211.302 105.15 210.672C105.711 210.041 106.026 209.187 106.026 208.296C106.026 207.405 105.711 206.55 105.15 205.92C104.59 205.29 103.829 204.936 103.036 204.936H94.8128V148.245H88.8323V204.936H80.609C79.816 204.936 79.0554 205.29 78.4946 205.92C77.9338 206.55 77.6188 207.405 77.6188 208.296C77.6188 209.187 77.9338 210.041 78.4946 210.672C79.0554 211.302 79.816 211.655 80.609 211.655Z" fill="#3F3D56"/>
<path d="M100.908 188.8L104.771 191.158L114.998 175.271L109.296 171.791L100.908 188.8Z" fill="#FFB6B6"/>
<path d="M102.767 183.139L109.781 185.607L108.665 188.908L113.474 196.75C113.712 197.137 113.833 197.6 113.82 198.07C113.807 198.54 113.66 198.993 113.402 199.363C113.144 199.733 112.787 200.001 112.383 200.127C111.98 200.253 111.551 200.231 111.16 200.064L102.995 196.579L102.692 192.713L101.038 195.743L97.9597 194.429L102.767 183.139Z" fill="#2F2E41"/>
<path d="M110.669 28.5875C110.761 29.2931 110.713 30.0126 110.531 30.6955C110.348 31.3783 110.034 32.0078 109.612 32.5397C109.189 33.0716 108.668 33.4929 108.084 33.774C107.501 34.055 106.87 34.1889 106.236 34.1663L91.3398 69.775L86.668 62.4557L102.002 28.7846C102.106 27.5899 102.597 26.4797 103.382 25.6644C104.166 24.8491 105.189 24.3854 106.258 24.3611C107.326 24.3368 108.365 24.7536 109.178 25.5326C109.991 26.3115 110.522 27.3985 110.669 28.5875Z" fill="#FFB6B6"/>
<path d="M61.2363 76.9748C61.2363 76.9748 60.8371 83.1956 67.0991 84.4157C73.3612 85.6358 90.1014 73.743 92.8506 71.9169C95.5999 70.0908 100.723 47.1151 100.723 47.1151L96.2676 38.6484C90.7665 46.4664 86.4465 53.6755 86.1842 58.7928L61.2363 76.9748Z" fill="#6E2F9B"/>
<path d="M68.4656 98.4027L69.818 104.931C69.818 104.931 69.8313 110.951 70.7802 112.061C71.7225 113.166 92.4429 110.947 92.4429 110.947C92.4429 110.947 90.246 101.247 90.2753 93.907L68.4656 98.4027Z" fill="#FFB6B6"/>
<path d="M112.238 181.908L104.763 177.289C104.62 166.36 110.471 151.571 117.411 136.08C101.891 139.079 87.2484 140.039 74.5835 136.411C72.5043 135.795 70.7247 134.283 69.6292 132.204C68.5337 130.125 68.2103 127.646 68.729 125.301C68.7783 125.071 68.8353 124.843 68.9 124.618C70.4157 119.422 67.017 116.165 70.1431 110.451C78.3649 107.296 86.1754 106.405 93.3176 109.191L97.7927 120.307L119.974 117.082C121.046 116.938 122.132 117.034 123.171 117.364C124.209 117.694 125.179 118.252 126.025 119.005C126.871 119.758 127.576 120.692 128.099 121.752C128.622 122.813 128.953 123.979 129.073 125.184C129.103 125.455 129.122 125.727 129.132 125.999C124.646 149.622 119.617 170.877 112.238 181.908Z" fill="#2F2E41"/>
<path d="M65.4545 57.0712L73.9996 56.5044C74.3599 56.4805 74.7179 56.5834 75.0237 56.799C75.3295 57.0145 75.5678 57.3318 75.7055 57.7067L78.1203 64.2836L88.1564 73.6029C88.1564 73.6029 92.13 79.2838 92.1392 86.6206C92.1485 93.9574 93.549 110.939 93.549 110.939C93.549 110.939 87.7498 101.768 84.1704 104.207C83.5614 104.622 83.3472 105.471 82.7093 105.9C82.3911 106.114 81.6561 105.906 81.3348 106.12C76.4024 109.41 71.2584 112.623 70.7778 112.06C69.8341 110.954 68.6893 105.3 68.6893 105.3L60.8674 73.0122C60.4434 71.3134 60.3592 69.5302 60.6209 67.7905C60.8825 66.0508 61.4836 64.3977 62.381 62.9497C62.9275 62.0854 63.5 61.4423 64.0321 61.336C65.2268 61.0502 64.5913 58.042 65.4545 57.0712Z" fill="#6E2F9B"/>
<path d="M138.144 202.477L141.751 199.66L133.58 182.34L128.256 186.498L138.144 202.477Z" fill="#FFB6B6"/>
<path d="M138.689 190.856L133.036 196.533C124.047 185.28 117.252 169.499 111.494 151.577C96.4056 146.613 85.0273 138.606 75.094 129.099C71.7243 125.896 69.1982 121.781 72.0721 117.878C72.2065 117.696 72.3468 117.519 72.493 117.349C75.8863 113.431 84.4917 114.178 89.5317 110.588L100.791 124.109L100.082 127.733L121.23 135.781C122.248 136.182 123.184 136.805 123.987 137.615C124.789 138.424 125.44 139.404 125.904 140.498C126.367 141.591 126.633 142.777 126.686 143.987C126.74 145.197 126.579 146.407 126.215 147.547C126.135 147.804 126.046 148.058 125.948 148.307L138.689 190.856Z" fill="#2F2E41"/>
<path d="M136.041 201.335L141.815 196.226L143.609 199.126L152.086 199.097C152.504 199.095 152.912 199.244 153.25 199.522C153.588 199.799 153.839 200.191 153.964 200.64C154.09 201.088 154.085 201.57 153.95 202.016C153.815 202.461 153.556 202.846 153.212 203.114L146.041 208.715L143.03 206.812L144.322 210.057L141.618 212.169L136.041 201.335Z" fill="#2F2E41"/>
<path d="M78.0729 138.442C77.4887 138.163 76.9659 137.744 76.5415 137.214C76.117 136.684 75.8012 136.056 75.6162 135.374C75.4313 134.692 75.3817 133.972 75.4709 133.266C75.5602 132.56 75.7861 131.885 76.1328 131.288L56.788 98.4901L64.7818 97.8074L82.4253 130.019C83.2797 130.74 83.8691 131.788 84.0817 132.965C84.2943 134.141 84.1155 135.364 83.579 136.403C83.0425 137.441 82.1857 138.222 81.1708 138.598C80.156 138.974 79.0538 138.918 78.0729 138.442V138.442Z" fill="#FFB6B6"/>
<path d="M80.5529 42.9235C80.5529 39.496 79.1914 36.2088 76.7677 33.7852C74.3441 31.3616 71.057 30 67.6294 30C64.2019 30 60.9148 31.3616 58.4911 33.7852C56.0675 36.2088 54.7059 39.496 54.7059 42.9235V51.0245C54.7066 51.4843 54.8895 51.9251 55.2146 52.2502C55.5398 52.5754 55.9805 52.7583 56.4403 52.7589H56.7576C57.1239 51.7093 57.3473 50.6151 57.4218 49.5058C58.0891 50.5057 58.5972 51.6031 58.9277 52.7589H78.8143C79.2745 52.7585 79.7159 52.5757 80.0417 52.2507C80.3676 51.9256 80.5514 51.4847 80.5529 51.0245C81.5978 48.8924 82.0674 46.4474 80.5529 42.9235Z" fill="#2F2E41"/>
<path d="M66.9501 65.8508C66.9501 65.8508 62.4262 62.236 58.2452 67.6137C54.0643 72.9914 54.4134 95.24 54.3741 98.8279C54.3618 99.9514 55.8059 102.376 57.7954 105.176C58.6886 106.433 59.6917 107.766 60.7224 109.091C61.3188 109.858 60.8049 111.454 61.4038 112.199C61.9994 112.94 63.7078 112.831 64.2743 113.519C66.9634 116.784 69.148 119.269 69.148 119.269L77.902 119.39C78.0008 112.079 73.5443 105.553 67.819 99.2458L66.9501 65.8508Z" fill="#6E2F9B"/>
<path d="M81.588 106.32H59.161C58.368 106.32 57.6074 106.674 57.0466 107.304C56.4858 107.934 56.1708 108.788 56.1708 109.679C56.1708 110.57 56.4858 111.425 57.0466 112.055C57.6074 112.685 58.368 113.039 59.161 113.039H67.3843V139.075H73.3648V113.039H81.588C82.3811 113.039 83.1417 112.685 83.7025 112.055C84.2632 111.425 84.5783 110.57 84.5783 109.679C84.5783 108.788 84.2632 107.934 83.7025 107.304C83.1417 106.674 82.3811 106.32 81.588 106.32Z" fill="#3F3D56"/>
<path d="M69.4926 53.2899C74.5093 52.1366 77.744 46.6327 76.7175 40.9966C75.691 35.3604 70.792 31.7263 65.7753 32.8796C60.7586 34.0329 57.5239 39.5368 58.5504 45.1729C59.5769 50.8091 64.4759 54.4431 69.4926 53.2899Z" fill="#FFB6B6"/>
<path d="M57.955 43.6795C57.858 43.5933 57.7805 43.4873 57.728 43.3685C57.6755 43.2498 57.6492 43.1211 57.6507 42.9913L57.7386 35.5776C57.7399 35.4268 57.7787 35.2788 57.8516 35.1467C57.9245 35.0147 58.0291 34.903 58.156 34.8216C63.1612 31.624 68.5693 30.9095 74.2302 32.6979C74.3806 32.7463 74.5157 32.833 74.6225 32.9493C74.7293 33.0657 74.8041 33.2078 74.8395 33.3617L76.6819 38.9285C76.7101 39.0515 76.7123 39.179 76.6885 39.3029C76.6646 39.4268 76.6152 39.5444 76.5433 39.6482C76.3981 39.8571 76.7004 43.9916 76.4478 44.0248C76.3391 41.5511 75.6701 40.4487 73.9618 41.8893C73.791 41.9114 73.6174 41.8844 73.4613 41.8117C73.3052 41.7389 73.173 41.6233 73.08 41.4783L72.1014 39.9429C72.0381 39.8435 71.9441 39.7674 71.8337 39.726C71.7233 39.6847 71.6025 39.6803 71.4894 39.7137C71.3764 39.7471 71.2772 39.8163 71.2069 39.9109C71.1367 40.0056 71.0991 40.1205 71.0999 40.2384L71.1077 41.4644C71.1089 41.6851 71.0295 41.8986 70.8846 42.065C70.7396 42.2314 70.539 42.3392 70.3202 42.3683C67.4065 44.3249 63.264 44.4463 58.6743 43.9C58.5456 43.9169 58.4148 43.906 58.2907 43.868C58.1666 43.8299 58.0521 43.7657 57.955 43.6795Z" fill="#2F2E41"/>
<path d="M164.442 212.871L0.445005 213C0.386451 213 0.328441 212.987 0.274295 212.962C0.220149 212.937 0.170936 212.9 0.129472 212.854C0.0880078 212.808 0.0551084 212.752 0.0326613 212.692C0.0102143 212.631 -0.00134277 212.566 -0.00134277 212.5C-0.00134277 212.434 0.0102143 212.369 0.0326613 212.308C0.0551084 212.247 0.0880078 212.192 0.129472 212.146C0.170936 212.099 0.220149 212.063 0.274295 212.038C0.328441 212.013 0.386451 212 0.445005 212L164.442 211.871C164.56 211.871 164.673 211.924 164.757 212.017C164.84 212.111 164.887 212.238 164.887 212.371C164.887 212.503 164.84 212.631 164.757 212.724C164.673 212.818 164.56 212.871 164.442 212.871Z" fill="#CACACA"/>
<path d="M273.961 212.871L189.205 213C189.147 213 189.089 212.987 189.035 212.962C188.981 212.937 188.931 212.9 188.89 212.854C188.848 212.808 188.815 212.752 188.793 212.692C188.771 212.631 188.759 212.566 188.759 212.5C188.759 212.434 188.771 212.369 188.793 212.308C188.815 212.247 188.848 212.192 188.89 212.146C188.931 212.099 188.981 212.063 189.035 212.038C189.089 212.013 189.147 212 189.205 212L273.961 211.871C274.079 211.871 274.192 211.924 274.275 212.017C274.359 212.111 274.406 212.238 274.406 212.371C274.406 212.503 274.359 212.631 274.275 212.724C274.192 212.818 274.079 212.871 273.961 212.871Z" fill="#CACACA"/>
<path d="M168.19 62.1507H136.062C134.722 62.149 133.437 61.5502 132.49 60.4855C131.542 59.4209 131.009 57.9774 131.008 56.4717V32.555C131.009 31.0493 131.542 29.6058 132.49 28.5412C133.438 27.4765 134.722 26.8777 136.062 26.876H168.19C169.531 26.8777 170.815 27.4765 171.763 28.5412C172.711 29.6058 173.244 31.0493 173.245 32.555V56.4717C173.244 57.9774 172.711 59.4209 171.763 60.4855C170.815 61.5502 169.53 62.149 168.19 62.1507ZM136.062 27.7159C134.921 27.7173 133.826 28.2276 133.018 29.1348C132.211 30.042 131.757 31.272 131.755 32.555V56.4717C131.757 57.7547 132.211 58.9847 133.018 59.8919C133.826 60.7991 134.921 61.3094 136.062 61.3108H168.19C169.332 61.3094 170.427 60.7991 171.235 59.8919C172.042 58.9847 172.496 57.7547 172.498 56.4717V32.555C172.496 31.272 172.042 30.042 171.235 29.1348C170.427 28.2276 169.332 27.7173 168.19 27.7159H136.062Z" fill="#E6E6E6"/>
<path d="M145.582 34.4348H136.988V35.2747H145.582V34.4348Z" fill="#E6E6E6"/>
<path d="M156.051 37.7944H136.988V38.6343H156.051V37.7944Z" fill="#E6E6E6"/>
<path d="M156.051 40.7339H136.988V41.5738H156.051V40.7339Z" fill="#E6E6E6"/>
<path d="M161.284 43.6736H136.988V44.5135H161.284V43.6736Z" fill="#E6E6E6"/>
<path d="M149.697 46.613H136.988V47.4529H149.697V46.613Z" fill="#E6E6E6"/>
<path d="M160.163 49.5525H136.988V50.3924H160.163V49.5525Z" fill="#E6E6E6"/>
<path d="M141.1 52.4922H136.988V53.3321H141.1V52.4922Z" fill="#E6E6E6"/>
</g>
<defs>
<clipPath id="clip0_1371_7796">
<rect width="300" height="213" fill="white"/>
</clipPath>
</defs>
</svg>
