<svg width="300" height="267" viewBox="0 0 300 267" fill="none" xmlns="http://www.w3.org/2000/svg">
<path d="M218.337 14.5864H21.5214C21.3215 14.5822 21.1313 14.4998 20.9915 14.357C20.8516 14.2141 20.7733 14.0222 20.7733 13.8223C20.7733 13.6224 20.8516 13.4304 20.9915 13.2876C21.1313 13.1447 21.3215 13.0624 21.5214 13.0581H218.337C218.537 13.0624 218.727 13.1447 218.867 13.2876C219.007 13.4304 219.085 13.6224 219.085 13.8223C219.085 14.0222 219.007 14.2141 218.867 14.357C218.727 14.4998 218.537 14.5822 218.337 14.5864Z" fill="#CACACA"/>
<path d="M34.6021 9.15647C37.0755 9.15647 39.0805 7.10673 39.0805 4.57824C39.0805 2.04975 37.0755 0 34.6021 0C32.1287 0 30.1237 2.04975 30.1237 4.57824C30.1237 7.10673 32.1287 9.15647 34.6021 9.15647Z" fill="#3F3D56"/>
<path d="M50.073 9.15647C52.5464 9.15647 54.5515 7.10673 54.5515 4.57824C54.5515 2.04975 52.5464 0 50.073 0C47.5997 0 45.5946 2.04975 45.5946 4.57824C45.5946 7.10673 47.5997 9.15647 50.073 9.15647Z" fill="#3F3D56"/>
<path d="M65.544 9.15647C68.0174 9.15647 70.0224 7.10673 70.0224 4.57824C70.0224 2.04975 68.0174 0 65.544 0C63.0706 0 61.0656 2.04975 61.0656 4.57824C61.0656 7.10673 63.0706 9.15647 65.544 9.15647Z" fill="#3F3D56"/>
<path d="M209.022 1.13477H198.032C197.814 1.1391 197.607 1.22868 197.454 1.38427C197.302 1.53985 197.216 1.74903 197.216 1.96689C197.216 2.18476 197.302 2.39394 197.454 2.54952C197.607 2.7051 197.814 2.79468 198.032 2.79901H209.022C209.24 2.79468 209.447 2.7051 209.6 2.54952C209.752 2.39394 209.838 2.18476 209.838 1.96689C209.838 1.74903 209.752 1.53985 209.6 1.38427C209.447 1.22868 209.24 1.1391 209.022 1.13477Z" fill="#3F3D56"/>
<path d="M209.022 4.2583H198.032C197.814 4.26264 197.607 4.35222 197.454 4.5078C197.302 4.66338 197.216 4.87256 197.216 5.09043C197.216 5.30829 197.302 5.51747 197.454 5.67306C197.607 5.82864 197.814 5.91821 198.032 5.92255H209.022C209.24 5.91821 209.447 5.82864 209.6 5.67306C209.752 5.51747 209.838 5.30829 209.838 5.09043C209.838 4.87256 209.752 4.66338 209.6 4.5078C209.447 4.35222 209.24 4.26264 209.022 4.2583Z" fill="#3F3D56"/>
<path d="M209.022 7.37769H198.032C197.814 7.38202 197.607 7.4716 197.454 7.62718C197.302 7.78276 197.216 7.99194 197.216 8.20981C197.216 8.42767 197.302 8.63685 197.454 8.79243C197.607 8.94802 197.814 9.0376 198.032 9.04193H209.022C209.24 9.0376 209.447 8.94802 209.6 8.79243C209.752 8.63685 209.838 8.42767 209.838 8.20981C209.838 7.99194 209.752 7.78276 209.6 7.62718C209.447 7.4716 209.24 7.38202 209.022 7.37769Z" fill="#3F3D56"/>
<path d="M75.6453 153.202L75.9149 55.9474C75.9226 53.979 76.7108 52.094 78.1065 50.706C79.5023 49.3179 81.3916 48.5402 83.36 48.5435L156.809 48.7471C158.777 48.7548 160.662 49.543 162.05 50.9387C163.438 52.3345 164.216 54.2238 164.213 56.1922L163.943 153.447C163.935 155.415 163.147 157.3 161.751 158.688C160.356 160.076 158.466 160.854 156.498 160.851L83.0492 160.647C81.0808 160.639 79.1958 159.851 77.8078 158.455C76.4198 157.06 75.642 155.17 75.6453 153.202Z" fill="#E6E6E6"/>
<path d="M81.3608 123.843L81.5341 61.3185C81.5413 59.475 82.2794 57.7097 83.5866 56.4097C84.8937 55.1098 86.6632 54.3815 88.5067 54.3845L151.63 54.5595C153.473 54.5667 155.239 55.3048 156.539 56.612C157.839 57.9191 158.567 59.6886 158.564 61.5321L158.324 148.075C158.317 149.919 157.579 151.684 156.272 152.984C154.964 154.284 153.195 155.012 151.351 155.009L112.248 154.901C104.036 154.869 96.1726 151.581 90.3821 145.758C84.5917 139.936 81.3473 132.054 81.3608 123.843Z" fill="white"/>
<path d="M144.539 103.193H95.3192C94.5359 103.193 93.7848 102.882 93.2309 102.328C92.6771 101.774 92.366 101.023 92.366 100.24C92.366 99.4568 92.6771 98.7057 93.2309 98.1518C93.7848 97.598 94.5359 97.2869 95.3192 97.2869H144.539C145.322 97.2869 146.073 97.598 146.627 98.1518C147.181 98.7057 147.492 99.4568 147.492 100.24C147.492 101.023 147.181 101.774 146.627 102.328C146.073 102.882 145.322 103.193 144.539 103.193Z" fill="#6E2F9B"/>
<path d="M106.148 86.9977H95.3192C94.5359 86.9977 93.7848 86.6865 93.2309 86.1327C92.6771 85.5789 92.366 84.8277 92.366 84.0445C92.366 83.2613 92.6771 82.5101 93.2309 81.9563C93.7848 81.4025 94.5359 81.0913 95.3192 81.0913H106.148C106.931 81.0913 107.682 81.4025 108.236 81.9563C108.79 82.5101 109.101 83.2613 109.101 84.0445C109.101 84.8277 108.79 85.5789 108.236 86.1327C107.682 86.6865 106.931 86.9977 106.148 86.9977Z" fill="#6E2F9B"/>
<path d="M144.539 129.159H95.3192C94.5359 129.159 93.7848 128.848 93.2309 128.294C92.6771 127.74 92.366 126.989 92.366 126.206C92.366 125.423 92.6771 124.672 93.2309 124.118C93.7848 123.564 94.5359 123.253 95.3192 123.253H144.539C145.322 123.253 146.073 123.564 146.627 124.118C147.181 124.672 147.492 125.423 147.492 126.206C147.492 126.989 147.181 127.74 146.627 128.294C146.073 128.848 145.322 129.159 144.539 129.159Z" fill="#6E2F9B"/>
<path d="M144.539 116.176H95.3192C94.5359 116.176 93.7848 115.865 93.2309 115.311C92.6771 114.757 92.366 114.006 92.366 113.223C92.366 112.44 92.6771 111.689 93.2309 111.135C93.7848 110.581 94.5359 110.27 95.3192 110.27H144.539C145.322 110.27 146.073 110.581 146.627 111.135C147.181 111.689 147.492 112.44 147.492 113.223C147.492 114.006 147.181 114.757 146.627 115.311C146.073 115.865 145.322 116.176 144.539 116.176Z" fill="#6E2F9B"/>
<path d="M11.7507 191.938C18.2405 191.938 23.5015 186.677 23.5015 180.187C23.5015 173.697 18.2405 168.436 11.7507 168.436C5.26098 168.436 0 173.697 0 180.187C0 186.677 5.26098 191.938 11.7507 191.938Z" fill="#6E2F9B"/>
<path d="M10.1477 186.303C9.94476 186.303 9.74463 186.255 9.56314 186.165C9.38166 186.074 9.22381 185.942 9.1021 185.78L5.89632 181.505C5.79311 181.368 5.71796 181.212 5.6752 181.045C5.63243 180.879 5.62287 180.706 5.64707 180.536C5.67127 180.366 5.72876 180.202 5.81624 180.054C5.90372 179.906 6.01948 179.777 6.1569 179.674C6.29432 179.571 6.45071 179.496 6.61712 179.454C6.78353 179.411 6.95671 179.402 7.12674 179.426C7.29677 179.45 7.46033 179.508 7.60806 179.596C7.75578 179.683 7.88479 179.799 7.98769 179.937L10.085 182.733L15.4717 174.653C15.6642 174.365 15.9632 174.165 16.3029 174.097C16.6427 174.029 16.9955 174.099 17.2838 174.292C17.572 174.484 17.7722 174.783 17.8403 175.122C17.9084 175.462 17.8389 175.815 17.6469 176.103L11.2354 185.721C11.1194 185.894 10.9634 186.038 10.7805 186.139C10.5975 186.241 10.393 186.296 10.184 186.302C10.1719 186.302 10.1598 186.303 10.1477 186.303Z" fill="white"/>
<path d="M11.8555 154.439H11.0095V156.977H11.8555V154.439Z" fill="#2F2E41"/>
<path d="M11.8555 149.593H11.0095V144.747H11.8555V149.593ZM11.8555 139.901H11.0095V135.055H11.8555V139.901ZM11.8555 130.209H11.0095V125.363H11.8555V130.209ZM11.8555 120.517H11.0095V115.672H11.8555V120.517ZM11.8555 110.825H11.0095V105.979H11.8555V110.825Z" fill="#2F2E41"/>
<path d="M11.8556 101.134H11.0096V98.1729H13.9706V99.0188H11.8556V101.134Z" fill="#2F2E41"/>
<path d="M53.902 99.0186H48.9105V98.1726H53.902V99.0186ZM43.9191 99.0186H38.9277V98.1726H43.9191V99.0186ZM33.9362 99.0186H28.9448V98.1726H33.9362V99.0186ZM23.9533 99.0186H18.9619V98.1726H23.9533V99.0186Z" fill="#2F2E41"/>
<path d="M61.4315 98.1726H58.8936V99.0186H61.4315V98.1726Z" fill="#2F2E41"/>
<path d="M283.972 128.912H283.126V131.45H283.972V128.912Z" fill="#2F2E41"/>
<path d="M283.972 123.356H283.126V117.801H283.972V123.356ZM283.972 112.245H283.126V106.689H283.972V112.245Z" fill="#2F2E41"/>
<path d="M283.972 101.134H283.126V99.0188H281.011V98.1729H283.972V101.134Z" fill="#2F2E41"/>
<path d="M275.752 99.0186H270.494V98.1726H275.752V99.0186ZM265.235 99.0186H259.976V98.1726H265.235V99.0186ZM254.718 99.0186H249.459V98.1726H254.718V99.0186ZM244.201 99.0186H238.943V98.1726H244.201V99.0186ZM233.684 99.0186H228.425V98.1726H233.684L233.684 99.0186ZM223.167 99.0186H217.908V98.1726H223.167V99.0186ZM212.65 99.0186H207.391V98.1726H212.65V99.0186ZM202.133 99.0186H196.874V98.1726H202.133V99.0186ZM191.616 99.0186H186.357V98.1726H191.616V99.0186Z" fill="#2F2E41"/>
<path d="M181.099 98.1726H178.561V99.0186H181.099V98.1726Z" fill="#2F2E41"/>
<path d="M283.815 162.328C290.304 162.328 295.565 157.067 295.565 150.578C295.565 144.088 290.304 138.827 283.815 138.827C277.325 138.827 272.064 144.088 272.064 150.578C272.064 157.067 277.325 162.328 283.815 162.328Z" fill="#6E2F9B"/>
<path d="M286.126 150.578L288.438 148.266C288.743 147.959 288.915 147.544 288.914 147.111C288.914 146.678 288.742 146.263 288.436 145.957C288.129 145.651 287.714 145.479 287.281 145.478C286.849 145.478 286.433 145.649 286.126 145.954L283.815 148.266L281.503 145.954C281.196 145.649 280.781 145.478 280.348 145.478C279.915 145.479 279.5 145.651 279.194 145.957C278.888 146.263 278.716 146.678 278.715 147.111C278.715 147.544 278.886 147.959 279.191 148.266L281.503 150.578L279.191 152.889C279.039 153.041 278.918 153.221 278.835 153.42C278.752 153.618 278.709 153.831 278.709 154.046C278.708 154.261 278.75 154.474 278.833 154.673C278.915 154.872 279.035 155.053 279.188 155.205C279.34 155.357 279.52 155.477 279.719 155.56C279.918 155.642 280.131 155.684 280.346 155.684C280.561 155.683 280.774 155.64 280.973 155.558C281.171 155.475 281.351 155.354 281.503 155.201L283.815 152.889L286.126 155.201C286.278 155.354 286.458 155.475 286.657 155.558C286.855 155.64 287.068 155.683 287.283 155.684C287.498 155.684 287.711 155.642 287.91 155.56C288.109 155.477 288.29 155.357 288.442 155.205C288.594 155.053 288.715 154.872 288.797 154.673C288.879 154.474 288.921 154.261 288.921 154.046C288.92 153.831 288.877 153.618 288.795 153.42C288.712 153.221 288.591 153.041 288.438 152.889L286.126 150.578Z" fill="white"/>
<path d="M69.2172 186.511C69.1014 186.119 69.0728 185.708 69.1333 185.304C69.1939 184.901 69.3422 184.516 69.5677 184.176C69.7933 183.836 70.0906 183.549 70.4388 183.337C70.7869 183.124 71.1775 182.991 71.5829 182.945L73.7731 173.274L77.3419 176.991L74.715 185.605C74.7459 186.291 74.5241 186.965 74.0916 187.498C73.6591 188.032 73.0459 188.388 72.3683 188.5C71.6906 188.611 70.9955 188.471 70.4148 188.104C69.834 187.737 69.4079 187.17 69.2172 186.511H69.2172Z" fill="#FFB6B6"/>
<path d="M74.4793 126.93L74.6548 127.762L83.797 155.73L77.6475 180.653L72.6141 178.3L73.8007 156.202C64.7672 144.141 62.1102 139.775 62.8978 127.222L74.4793 126.93Z" fill="#E6E6E6"/>
<path d="M66.6881 257.87L62.1909 257.87L60.0513 240.523L66.689 240.523L66.6881 257.87Z" fill="#FFB6B6"/>
<path d="M66.8471 262.561L53.0173 262.561V262.386C53.0174 260.958 53.5846 259.589 54.5941 258.58C55.6036 257.57 56.9727 257.003 58.4003 257.003H58.4006L60.9268 255.087L65.6401 257.003L66.8474 257.004L66.8471 262.561Z" fill="#2F2E41"/>
<path d="M41.973 257.87L37.4758 257.87L35.3362 240.523L41.9739 240.523L41.973 257.87Z" fill="#FFB6B6"/>
<path d="M42.1315 262.561L28.3016 262.561V262.386C28.3017 260.958 28.8689 259.589 29.8784 258.58C30.8879 257.57 32.257 257.003 33.6846 257.003H33.6849L36.2111 255.087L40.9244 257.003L42.1317 257.004L42.1315 262.561Z" fill="#2F2E41"/>
<path d="M72.1579 178.3C72.1579 178.3 73.9319 182.513 72.1579 189.387C70.3839 196.262 69.9404 213.558 69.9404 213.558L67.0967 252.399H59.5746L59.2962 224.424L55.5264 194.266L47.9869 222.872C47.9869 222.872 45.1041 244.16 43.9953 245.047C42.8866 245.934 42.3815 252.131 42.3815 252.131C40.1025 252.472 36.6358 251.581 34.5908 250.519C35.4336 250.154 39.0061 179.349 39.1168 178.3C39.5496 174.198 72.1579 178.3 72.1579 178.3Z" fill="#2F2E41"/>
<path d="M10.5329 170.85C10.9394 170.884 11.3484 170.828 11.731 170.687C12.1136 170.545 12.4606 170.322 12.7474 170.032C13.0343 169.742 13.254 169.392 13.3912 169.008C13.5284 168.624 13.5797 168.214 13.5415 167.808L22.5638 163.694L18.1981 160.957L10.2997 165.283C9.62166 165.393 9.00732 165.747 8.57308 166.279C8.13884 166.811 7.91488 167.484 7.94362 168.17C7.97236 168.857 8.25182 169.508 8.72903 170.002C9.20624 170.496 9.84805 170.798 10.5328 170.85L10.5329 170.85Z" fill="#FFB6B6"/>
<path d="M45.6585 136.54L48.7219 137.723L40.1374 154.795L17.655 167.186L15.9692 161.892L33.0083 147.772C38.9683 130.433 42.5494 122.686 46.8503 122.792L45.6585 136.54Z" fill="#E6E6E6"/>
<path d="M42.9233 126.743C43.3135 125.352 44.1687 124.137 45.3463 123.3C46.5238 122.464 47.9526 122.056 49.3944 122.145C49.4173 122.147 49.4402 122.148 49.4631 122.15C51.3787 122.296 53.8304 117.648 56.3696 117.845C58.1562 117.985 59.9861 118.129 61.703 118.267C63.2331 118.39 64.6734 123.344 65.9134 123.449C68.2558 123.649 68.8088 123.803 68.9762 123.859C69.6414 124.08 72.2004 124.255 73.8123 126.136C74.5338 126.978 77.4028 134.946 75.6288 143.373C73.8548 151.799 71.8252 162.715 71.8252 162.715C71.8252 162.715 73.5988 167.987 72.7118 170.205C71.8248 172.422 73.5988 173.975 73.5988 174.862C73.5988 175.749 73.1553 180.184 73.1553 180.184C73.1553 180.184 41.5659 183.536 38.7837 180.184C38.6925 180.074 42.4739 161.694 40.9083 146.918C40.0489 138.807 41.6507 131.209 42.9233 126.743Z" fill="#E6E6E6"/>
<path d="M58.9 116.881C63.9402 116.881 68.0261 112.795 68.0261 107.755C68.0261 102.715 63.9402 98.6289 58.9 98.6289C53.8597 98.6289 49.7738 102.715 49.7738 107.755C49.7738 112.795 53.8597 116.881 58.9 116.881Z" fill="#FFB6B6"/>
<path d="M52.6435 97.2173C53.2975 97.1979 53.073 95.965 53.6 95.5717C53.6025 95.5836 53.6052 95.5955 53.6079 95.6074C53.677 95.8737 53.8298 96.1108 54.0438 96.2838C54.2577 96.4568 54.5216 96.5564 54.7965 96.5682C55.0714 96.5799 55.3427 96.503 55.5707 96.3489C55.7986 96.1948 55.971 95.9716 56.0625 95.7121C56.1499 95.412 56.3081 95.1372 56.5238 94.911C56.7395 94.6847 57.0064 94.5135 57.302 94.4119C57.3348 95.5546 58.1992 96.5464 59.2303 97.0399C60.2615 97.5335 61.4373 97.6156 62.5804 97.6325C63.7235 97.6494 64.883 97.6111 65.9915 97.8909C67.0999 98.1706 68.1781 98.8282 68.6517 99.8687C69.1253 100.909 68.7874 102.342 67.7518 102.826C68.5541 102.83 69.2348 103.492 69.5122 104.245C69.7896 104.998 69.7472 105.826 69.6861 106.626C69.4607 109.577 68.911 112.754 66.7621 114.79C65.1244 116.341 62.7802 116.965 60.5245 116.956C58.2689 116.947 58.6655 116.74 56.4845 116.164C56.4845 116.164 54.411 110.22 54.9331 109.635C55.4553 109.051 55.889 108.302 55.7945 107.524C55.7 106.746 54.8636 106.049 54.1378 106.345C54.2599 106.033 54.3518 105.974 54.4094 105.989C54.3727 105.901 54.3407 105.81 54.3135 105.718C54.1769 105.249 53.9309 104.82 53.5959 104.464C53.2608 104.109 52.8462 103.838 52.3861 103.674C51.9214 103.524 51.4217 103.519 50.9541 103.66C50.4865 103.802 50.0734 104.083 49.7703 104.466C47.3821 102.226 48.8637 97.3295 52.6435 97.2173Z" fill="#2F2E41"/>
<path d="M265.587 71.6579C265.587 67.864 264.031 64.2255 261.262 61.5428C258.494 58.8601 254.738 57.353 250.822 57.353C246.906 57.353 243.151 58.8601 240.382 61.5428C237.613 64.2255 236.057 67.864 236.057 71.6579V80.6248C236.058 81.1337 236.267 81.6216 236.639 81.9815C237.01 82.3414 237.514 82.5439 238.039 82.5446H238.401C238.82 81.3827 239.075 80.1716 239.16 78.9438C239.923 80.0505 240.503 81.2653 240.881 82.5446H263.601C264.126 82.5441 264.631 82.3418 265.003 81.982C265.375 81.6222 265.585 81.1342 265.587 80.6248C266.781 78.2648 267.317 75.5584 265.587 71.6579Z" fill="#2F2E41"/>
<path d="M287.067 141.666C287.394 141.063 287.582 140.397 287.615 139.716C287.648 139.035 287.527 138.355 287.26 137.725C286.993 137.094 286.586 136.527 286.069 136.065C285.551 135.603 284.936 135.257 284.265 135.05L265.528 96.6475L256.957 102.47L278.07 138.388C277.786 139.503 277.935 140.679 278.487 141.695C279.039 142.711 279.956 143.495 281.065 143.899C282.174 144.303 283.398 144.299 284.504 143.887C285.61 143.476 286.522 142.686 287.067 141.666V141.666Z" fill="#FFB8B8"/>
<path d="M269.824 103.055L259.873 107.366C259.59 107.489 259.283 107.551 258.973 107.548C258.662 107.545 258.357 107.478 258.076 107.35C257.795 107.223 257.546 107.038 257.345 106.809C257.145 106.579 256.998 106.311 256.914 106.022L253.979 95.8833C253.34 94.4762 253.302 92.8809 253.875 91.447C254.447 90.0132 255.584 88.8578 257.034 88.2343C258.485 87.6108 260.131 87.5701 261.613 88.1209C263.094 88.6718 264.29 89.7694 264.938 91.173L270.763 100.022C270.93 100.275 271.038 100.56 271.081 100.858C271.124 101.155 271.1 101.459 271.011 101.746C270.922 102.034 270.77 102.3 270.565 102.526C270.36 102.752 270.108 102.932 269.824 103.055Z" fill="#CCCCCC"/>
<path d="M223.865 145.474C224.551 145.32 225.193 145.022 225.747 144.601C226.3 144.18 226.752 143.647 227.07 143.039C227.388 142.43 227.565 141.762 227.587 141.081C227.61 140.399 227.478 139.721 227.201 139.094L244.946 100.252L234.795 97.7747L220.544 136.735C219.488 137.255 218.666 138.133 218.234 139.202C217.802 140.271 217.789 141.456 218.198 142.533C218.608 143.611 219.411 144.505 220.455 145.047C221.5 145.589 222.713 145.741 223.865 145.474H223.865Z" fill="#FFB8B8"/>
<path d="M219.028 215.88L224.19 217.7L233.896 199.277L226.277 196.589L219.028 215.88Z" fill="#FFB8B8"/>
<path d="M232.4 225.856L216.176 220.133L218.459 214.06L228.414 217.572C230.076 218.158 231.43 219.361 232.178 220.914C232.925 222.468 233.005 224.245 232.4 225.856Z" fill="#2F2E41"/>
<path d="M231.238 205.277C230.921 205.277 230.608 205.209 230.322 205.078L224.389 202.356C223.903 202.135 223.52 201.745 223.315 201.264C223.11 200.782 223.099 200.244 223.283 199.755L240.026 154.837C240.164 154.465 240.409 154.138 240.731 153.896C241.054 153.653 241.441 153.504 241.847 153.466C242.253 153.427 242.662 153.502 243.027 153.68C243.392 153.858 243.697 154.132 243.907 154.471L252.762 168.77C252.959 169.089 253.065 169.453 253.069 169.824C253.073 170.195 252.975 170.561 252.785 170.884L233.12 204.226C232.929 204.546 232.655 204.812 232.324 204.996C231.994 205.181 231.619 205.278 231.238 205.277Z" fill="#2F2E41"/>
<path d="M251.369 82.7927C257.447 82.7927 262.374 78.0189 262.374 72.13C262.374 66.2411 257.447 61.4673 251.369 61.4673C245.29 61.4673 240.363 66.2411 240.363 72.13C240.363 78.0189 245.29 82.7927 251.369 82.7927Z" fill="#FFB8B8"/>
<path d="M266.938 120.609L247.452 115.417L237.088 95.3348C236.59 94.3701 236.355 93.298 236.405 92.2205C236.455 91.1429 236.788 90.0956 237.374 89.1781C237.959 88.2605 238.777 87.5032 239.749 86.9779C240.722 86.4527 241.816 86.177 242.93 86.177H258.433C260.043 86.176 261.595 86.7514 262.793 87.7926C266.952 91.4021 275.69 101.808 267.023 120.428L266.938 120.609Z" fill="#6E2F9B"/>
<path d="M242.544 107.199L232.671 102.721C232.39 102.594 232.141 102.409 231.94 102.18C231.74 101.951 231.593 101.683 231.509 101.393C231.425 101.104 231.406 100.801 231.454 100.504C231.502 100.207 231.615 99.9235 231.787 99.6729L237.787 90.8936C238.468 89.505 239.689 88.4346 241.184 87.9172C242.678 87.3997 244.323 87.4775 245.758 88.1333C247.193 88.7892 248.302 89.9696 248.84 91.4159C249.378 92.8621 249.303 94.4562 248.63 95.8485L245.527 105.904C245.438 106.192 245.286 106.458 245.082 106.684C244.877 106.91 244.625 107.09 244.342 107.213C244.059 107.336 243.751 107.398 243.441 107.396C243.131 107.393 242.825 107.326 242.544 107.199Z" fill="#6E2F9B"/>
<path d="M254.489 220.914H259.982L262.596 200.385L254.488 200.385L254.489 220.914Z" fill="#FFB8B8"/>
<path d="M270.577 225.855L253.312 225.856L253.312 219.393L263.906 219.393C265.675 219.393 267.372 220.073 268.623 221.285C269.874 222.497 270.577 224.141 270.577 225.855Z" fill="#2F2E41"/>
<path d="M256.563 213.091C256.07 213.091 255.59 212.927 255.207 212.625C254.824 212.324 254.559 211.903 254.459 211.435C252.879 204.226 244.678 167.305 238.277 148.286C231.765 128.937 242.856 120.124 245.146 118.553C245.39 118.387 245.583 118.16 245.707 117.897L247.37 114.352C247.543 113.986 247.82 113.675 248.17 113.458C248.519 113.24 248.926 113.125 249.341 113.125H249.354C261.824 113.197 266.016 117.005 267.239 118.639C267.42 118.883 267.544 119.161 267.602 119.455C267.66 119.75 267.652 120.053 267.577 120.344L259.687 151.881C259.638 152.077 259.627 152.279 259.655 152.479L267.504 209.741C267.542 210.016 267.523 210.296 267.448 210.564C267.373 210.832 267.243 211.082 267.067 211.301C266.891 211.52 266.672 211.703 266.422 211.839C266.172 211.975 265.897 212.062 265.612 212.094L256.817 213.077C256.733 213.086 256.648 213.091 256.563 213.091Z" fill="#2F2E41"/>
<path d="M239.673 70.5791C239.573 70.4672 239.499 70.3357 239.456 70.1937C239.413 70.0516 239.402 69.9022 239.423 69.7557L240.664 61.3858C240.689 61.2154 240.757 61.0538 240.862 60.9153C240.967 60.7769 241.107 60.6661 241.267 60.593C247.6 57.7217 254.021 57.718 260.353 60.5821C260.521 60.6593 260.666 60.7773 260.773 60.9248C260.879 61.0722 260.945 61.244 260.963 61.4233L262.258 67.9919C262.272 68.1352 262.255 68.2797 262.209 68.4163C262.162 68.5529 262.086 68.6785 261.986 68.7851C261.785 68.9997 261.503 73.7197 261.203 73.7197C261.456 70.9064 260.844 69.5604 258.629 70.9353C258.426 70.9349 258.228 70.8786 258.057 70.7731C257.886 70.6676 257.749 70.5172 257.663 70.3394L256.757 68.4578C256.698 68.3359 256.6 68.2359 256.478 68.1727C256.355 68.1095 256.215 68.0867 256.078 68.1076C255.941 68.1285 255.814 68.192 255.718 68.2886C255.621 68.3852 255.56 68.5095 255.543 68.643L255.363 70.0304C255.331 70.2801 255.206 70.5098 255.011 70.6763C254.816 70.8429 254.565 70.935 254.306 70.9353C250.605 72.7145 245.751 72.2357 240.479 70.9353C240.326 70.9353 240.175 70.9035 240.036 70.8421C239.897 70.7806 239.773 70.6909 239.673 70.5791Z" fill="#2F2E41"/>
<path d="M92.4052 265.588H0.241898C0.177743 265.588 0.116204 265.495 0.0708391 265.33C0.0254744 265.164 0 264.94 0 264.706C0 264.472 0.0254744 264.247 0.0708391 264.082C0.116204 263.916 0.177743 263.823 0.241898 263.823H92.4052C92.4693 263.823 92.5308 263.916 92.5762 264.082C92.6216 264.247 92.6471 264.472 92.6471 264.706C92.6471 264.94 92.6216 265.164 92.5762 265.33C92.5308 265.495 92.4693 265.588 92.4052 265.588Z" fill="#CCCCCC"/>
<path d="M291.817 229.412H199.654C199.59 229.412 199.528 229.319 199.483 229.153C199.437 228.988 199.412 228.763 199.412 228.529C199.412 228.295 199.437 228.071 199.483 227.906C199.528 227.74 199.59 227.647 199.654 227.647H291.817C291.881 227.647 291.943 227.74 291.988 227.906C292.033 228.071 292.059 228.295 292.059 228.529C292.059 228.763 292.033 228.988 291.988 229.153C291.943 229.319 291.881 229.412 291.817 229.412Z" fill="#CCCCCC"/>
</svg>
