<svg width="300" height="283" viewBox="0 0 300 283" fill="none" xmlns="http://www.w3.org/2000/svg">
<g clip-path="url(#clip0_1371_7678)">
<path d="M197.358 0H110.183C96.6245 0 85.6333 12.4885 85.6333 27.8939V254.235C85.6333 269.641 96.6245 282.129 110.183 282.129H197.358C210.916 282.129 221.908 269.641 221.908 254.235V27.8939C221.908 12.4885 210.916 0 197.358 0Z" fill="#3F3D56"/>
<path d="M219.609 27.8959V254.236C219.602 260.939 217.255 267.365 213.084 272.105C208.912 276.844 203.257 279.51 197.358 279.518H110.184C104.285 279.51 98.6288 276.844 94.4574 272.105C90.2859 267.365 87.9394 260.939 87.9326 254.236V27.8959C87.9394 21.193 90.2859 14.7668 94.4574 10.0271C98.6288 5.28746 104.285 2.62129 110.184 2.61353H121.583V7.0877C121.583 9.11324 122.291 11.0558 123.552 12.4881C124.813 13.9203 126.522 14.725 128.305 14.7251H179.236C181.019 14.725 182.729 13.9203 183.989 12.4881C185.25 11.0558 185.958 9.11324 185.958 7.0877V2.61353H197.358C203.257 2.62129 208.912 5.28746 213.084 10.0271C217.255 14.7668 219.602 21.193 219.609 27.8959Z" fill="white"/>
<path d="M85.0063 57.2332C84.563 57.2327 84.138 57.0323 83.8245 56.6761C83.5111 56.32 83.3347 55.8371 83.3342 55.3334V51.5336C83.3342 51.0298 83.5104 50.5465 83.824 50.1902C84.1375 49.834 84.5628 49.6338 85.0063 49.6338C85.4498 49.6338 85.8751 49.834 86.1887 50.1902C86.5022 50.5465 86.6784 51.0298 86.6784 51.5336V55.3334C86.6779 55.8371 86.5016 56.32 86.1881 56.6761C85.8746 57.0323 85.4496 57.2327 85.0063 57.2332Z" fill="#3F3D56"/>
<path d="M85.0063 76.717C84.563 76.7164 84.138 76.5161 83.8245 76.1599C83.5111 75.8037 83.3347 75.3208 83.3342 74.8171V64.3576C83.3342 63.8538 83.5104 63.3705 83.824 63.0142C84.1375 62.6579 84.5628 62.4578 85.0063 62.4578C85.4498 62.4578 85.8751 62.6579 86.1887 63.0142C86.5022 63.3705 86.6784 63.8538 86.6784 64.3576V74.8171C86.6779 75.3208 86.5016 75.8037 86.1881 76.1599C85.8746 76.5161 85.4496 76.7164 85.0063 76.717Z" fill="#3F3D56"/>
<path d="M85.0063 92.3807C84.563 92.3802 84.138 92.1798 83.8245 91.8237C83.5111 91.4675 83.3347 90.9846 83.3342 90.4809V80.0214C83.3342 79.5176 83.5104 79.0343 83.824 78.678C84.1375 78.3217 84.5628 78.1216 85.0063 78.1216C85.4498 78.1216 85.8751 78.3217 86.1887 78.678C86.5022 79.0343 86.6784 79.5176 86.6784 80.0214V90.4809C86.6779 90.9846 86.5016 91.4675 86.1881 91.8237C85.8746 92.1798 85.4496 92.3802 85.0063 92.3807Z" fill="#3F3D56"/>
<path d="M222.117 83.8315C221.673 83.8309 221.248 83.6305 220.935 83.2744C220.621 82.9182 220.445 82.4353 220.445 81.9316V56.4101C220.445 55.9062 220.621 55.423 220.934 55.0667C221.248 54.7104 221.673 54.5103 222.117 54.5103C222.56 54.5103 222.985 54.7104 223.299 55.0667C223.613 55.423 223.789 55.9062 223.789 56.4101V81.9316C223.788 82.4353 223.612 82.9182 223.298 83.2744C222.985 83.6305 222.56 83.8309 222.117 83.8315Z" fill="#3F3D56"/>
<path d="M157.362 8.71369H144.404C144.127 8.71369 143.861 8.58859 143.665 8.36591C143.469 8.14322 143.359 7.8412 143.359 7.52628C143.359 7.21136 143.469 6.90934 143.665 6.68666C143.861 6.46397 144.127 6.33887 144.404 6.33887H157.362C157.639 6.33887 157.905 6.46397 158.101 6.68666C158.297 6.90934 158.407 7.21136 158.407 7.52628C158.407 7.8412 158.297 8.14322 158.101 8.36591C157.905 8.58859 157.639 8.71369 157.362 8.71369Z" fill="white"/>
<path d="M164.051 8.47603C164.512 8.47603 164.887 8.05073 164.887 7.5261C164.887 7.00147 164.512 6.57617 164.051 6.57617C163.589 6.57617 163.215 7.00147 163.215 7.5261C163.215 8.05073 163.589 8.47603 164.051 8.47603Z" fill="white"/>
<path d="M264.503 270.264C264.808 270.276 265.109 270.182 265.366 269.994C265.622 269.805 265.822 269.532 265.937 269.21C266.052 268.889 266.077 268.535 266.009 268.196C265.942 267.858 265.784 267.551 265.558 267.318C265.519 267.149 265.491 267.027 265.452 266.858C265.737 266.012 266.237 265.282 266.89 264.762C267.542 264.241 268.317 263.954 269.114 263.937C269.911 263.92 270.695 264.173 271.364 264.665C272.033 265.157 272.558 265.865 272.871 266.698C274.676 271.375 277.002 276.211 275.909 281.395C283.263 263.238 280.522 240.782 269.3 225.444C266.217 223.558 263.703 220.175 263.023 216.223C264.546 216.791 266.426 215.368 265.27 213.564C264.769 212.875 264.264 212.192 263.764 211.503C269.47 204.465 276.43 215.354 270.164 224.837C272.264 227.772 274.089 230.947 275.608 234.313C275.234 230.726 275.614 227.089 276.718 223.701C277.84 220.544 279.968 217.871 281.84 215.131C284.115 211.793 288.868 213.27 289.213 217.472C287.094 218.288 286.848 221.78 289.283 222.231C288.712 230.06 284.274 237.297 278.108 240.795C280.457 248.063 281.415 255.817 280.919 263.539C281.937 254.509 290.438 252.229 296.363 248.58C296.74 248.3 297.18 248.15 297.63 248.149C298.081 248.149 298.521 248.297 298.899 248.576C299.276 248.855 299.574 249.252 299.756 249.72C299.938 250.188 299.996 250.706 299.923 251.211C299.104 251.6 298.322 252.08 297.586 252.644C297.242 252.913 296.979 253.296 296.834 253.741C296.688 254.186 296.668 254.671 296.775 255.13C296.882 255.589 297.111 255.999 297.431 256.304C297.751 256.609 298.146 256.794 298.562 256.834C295.632 265.307 287.919 271.059 279.948 271.113C279.214 274.903 278.135 278.596 276.729 282.133L264.9 282.261C264.856 282.112 264.816 281.958 264.777 281.809C265.873 281.876 266.971 281.789 268.048 281.552C265.119 277.687 262.862 275.723 264.502 270.264L264.503 270.264Z" fill="#F2F2F2"/>
<path d="M35.5304 270.264C35.2251 270.276 34.9238 270.182 34.6673 269.994C34.4108 269.805 34.2115 269.532 34.0963 269.21C33.9812 268.889 33.9558 268.535 34.0236 268.196C34.0914 267.858 34.2491 267.551 34.4753 267.318C34.5143 267.149 34.5423 267.027 34.5813 266.858C34.2963 266.012 33.7955 265.282 33.143 264.762C32.4906 264.241 31.7161 263.954 30.9191 263.937C30.122 263.92 29.3385 264.173 28.6692 264.665C27.9998 265.157 27.475 265.865 27.162 266.698C25.3571 271.375 23.0314 276.211 24.1245 281.395C16.7698 263.238 19.5109 240.782 30.7335 225.444C33.8158 223.558 36.3296 220.175 37.0098 216.223C35.4874 216.791 33.6071 215.368 34.7633 213.564C35.2637 212.875 35.7688 212.192 36.2692 211.503C30.5631 204.465 23.603 215.354 29.8691 224.837C27.7687 227.772 25.944 230.947 24.4248 234.313C24.7992 230.726 24.4187 227.089 23.3147 223.701C22.1935 220.544 20.0647 217.871 18.1933 215.131C15.918 211.793 11.1651 213.27 10.82 217.472C12.9388 218.288 13.1857 221.78 10.7504 222.231C11.3216 230.06 15.759 237.297 21.9248 240.795C19.5761 248.063 18.6178 255.817 19.1137 263.539C18.0958 254.509 9.59484 252.229 3.67023 248.58C3.29355 248.3 2.85323 248.15 2.40298 248.149C1.95273 248.149 1.51202 248.297 1.1346 248.576C0.757179 248.855 0.459369 249.252 0.277498 249.72C0.0956267 250.188 0.037555 250.706 0.110369 251.211C0.929047 251.6 1.71173 252.08 2.44688 252.644C2.79132 252.913 3.05422 253.296 3.19955 253.741C3.34488 254.186 3.36552 254.671 3.25864 255.13C3.15176 255.589 2.9226 255.999 2.60256 256.304C2.28252 256.609 1.88727 256.794 1.471 256.834C4.40178 265.307 12.1144 271.059 20.0848 271.113C20.819 274.903 21.8979 278.596 23.3041 282.133L35.1334 282.261C35.1771 282.112 35.2165 281.958 35.2559 281.809C34.1603 281.876 33.0617 281.789 31.9846 281.552C34.9141 277.687 37.1712 275.723 35.5308 270.264L35.5304 270.264Z" fill="#F2F2F2"/>
<path d="M116.603 13.8087H105.316C104.762 13.8087 104.23 13.5585 103.838 13.1132C103.446 12.6678 103.226 12.0638 103.226 11.4339C103.226 10.8041 103.446 10.2 103.838 9.75465C104.23 9.30928 104.762 9.05908 105.316 9.05908H116.603C117.157 9.05908 117.689 9.30928 118.081 9.75465C118.473 10.2 118.693 10.8041 118.693 11.4339C118.693 12.0638 118.473 12.6678 118.081 13.1132C117.689 13.5585 117.157 13.8087 116.603 13.8087Z" fill="#E6E6E6"/>
<path d="M190.592 13.5713C191.631 13.5713 192.473 12.6144 192.473 11.434C192.473 10.2536 191.631 9.29663 190.592 9.29663C189.553 9.29663 188.711 10.2536 188.711 11.434C188.711 12.6144 189.553 13.5713 190.592 13.5713Z" fill="#E6E6E6"/>
<path d="M196.444 13.5713C197.483 13.5713 198.325 12.6144 198.325 11.434C198.325 10.2536 197.483 9.29663 196.444 9.29663C195.405 9.29663 194.563 10.2536 194.563 11.434C194.563 12.6144 195.405 13.5713 196.444 13.5713Z" fill="#E6E6E6"/>
<path d="M202.297 13.5713C203.336 13.5713 204.178 12.6144 204.178 11.434C204.178 10.2536 203.336 9.29663 202.297 9.29663C201.258 9.29663 200.416 10.2536 200.416 11.434C200.416 12.6144 201.258 13.5713 202.297 13.5713Z" fill="#E6E6E6"/>
<path d="M189.277 47.0012H118.339C116.965 47.0034 115.647 47.6246 114.676 48.7286C113.704 49.8327 113.157 51.3294 113.156 52.8908V105.284C113.157 106.846 113.704 108.342 114.676 109.446C115.647 110.55 116.965 111.172 118.339 111.174H189.277C190.651 111.172 191.969 110.551 192.941 109.447C193.913 108.343 194.459 106.846 194.46 105.284V52.8908C194.459 51.3292 193.913 49.8319 192.941 48.7277C191.969 47.6235 190.651 47.0026 189.277 47.0012Z" fill="#F2F2F2"/>
<path d="M167.069 69.3682C160.658 82.2467 153.584 94.6839 145.883 106.615H134.758C142.045 96.5287 149.337 86.4427 156.634 76.3566C158.727 73.4524 160.999 70.41 164.139 69.23L167.069 69.3682Z" fill="#3F3D56"/>
<path d="M152.285 67.3028C151.124 68.6765 150.013 70.1055 148.966 71.5899C146.662 74.743 144.39 77.9237 142.11 81.0952C140.69 83.0682 139.27 85.0411 137.866 87.0141C137.42 86.6888 136.997 86.3251 136.6 85.9262C134.358 83.7151 132.967 80.5941 132.726 77.232C132.485 73.8699 133.412 70.5341 135.309 67.9396C137.207 65.345 139.923 63.698 142.876 63.3515C145.829 63.005 148.784 63.9866 151.108 66.0858C151.527 66.457 151.92 66.8638 152.285 67.3028Z" fill="#6E2F9B"/>
<path d="M194.46 65.8052V67.7193L193.708 67.4058L183.119 63.0076C179.671 61.578 176.23 59.9441 172.669 58.9134C169.57 57.9063 166.28 57.9542 163.205 59.0512C160.464 60.2033 157.956 61.9723 155.831 64.252C154.89 65.2399 153.979 66.2516 153.097 67.3013C152.809 67.648 152.52 67.9948 152.236 68.3415C151.383 69.3959 150.56 70.4741 149.778 71.5902C147.475 74.744 145.201 77.9263 142.923 81.0943C141.501 83.0702 140.08 85.0413 138.675 87.0124C133.985 93.5336 129.323 100.068 124.688 106.614C124.064 106.606 123.443 106.517 122.837 106.348C127.564 99.6749 132.315 93.0191 137.087 86.3807C137.196 86.2287 137.304 86.0767 137.413 85.9247C137.973 85.1315 138.546 84.3336 139.114 83.5404C141.493 80.2299 143.873 76.9225 146.254 73.6183C147.985 71.215 149.703 68.8022 151.567 66.5224C151.68 66.3751 151.797 66.2326 151.918 66.0854C152.098 65.8669 152.278 65.6532 152.462 65.4299C156.512 60.6755 161.566 56.4721 167.619 56.3581C171.181 56.2964 174.621 57.5788 177.932 58.9324C181.497 60.4001 185.051 61.8915 188.612 63.3734L194.46 65.8052Z" fill="#3F3D56"/>
<path d="M196.128 226.852H111.413C110.039 226.85 108.721 226.229 107.75 225.125C106.778 224.021 106.232 222.524 106.23 220.963V207.99C106.232 206.429 106.778 204.932 107.75 203.828C108.721 202.724 110.039 202.103 111.413 202.101H196.128C197.502 202.103 198.82 202.724 199.792 203.828C200.763 204.932 201.31 206.429 201.311 207.99V220.963C201.31 222.524 200.763 224.021 199.792 225.125C198.82 226.229 197.502 226.85 196.128 226.852Z" fill="#F2F2F2"/>
<path d="M196.128 160.357H111.413C110.039 160.355 108.721 159.734 107.75 158.63C106.778 157.526 106.232 156.029 106.23 154.468V141.495C106.232 139.934 106.778 138.437 107.75 137.333C108.721 136.229 110.039 135.608 111.413 135.606H196.128C197.502 135.608 198.82 136.229 199.792 137.333C200.763 138.437 201.31 139.934 201.311 141.495V154.468C201.31 156.029 200.763 157.526 199.792 158.63C198.82 159.734 197.502 160.355 196.128 160.357Z" fill="#F2F2F2"/>
<path d="M196.128 193.604H111.413C110.039 193.603 108.721 192.982 107.75 191.878C106.778 190.774 106.232 189.277 106.23 187.715V174.743C106.232 173.181 106.778 171.684 107.75 170.58C108.721 169.476 110.039 168.855 111.413 168.854H196.128C197.502 168.855 198.82 169.476 199.792 170.58C200.763 171.684 201.31 173.181 201.311 174.743V187.715C201.31 189.277 200.763 190.774 199.792 191.878C198.82 192.982 197.502 193.603 196.128 193.604Z" fill="#F2F2F2"/>
<path d="M164.063 212.256H139.102C138.806 212.256 138.522 212.123 138.313 211.885C138.103 211.647 137.986 211.324 137.986 210.987C137.986 210.651 138.103 210.328 138.313 210.09C138.522 209.852 138.806 209.719 139.102 209.719H164.063C164.359 209.719 164.643 209.852 164.852 210.09C165.062 210.328 165.179 210.651 165.179 210.987C165.179 211.324 165.062 211.647 164.852 211.885C164.643 212.123 164.359 212.256 164.063 212.256Z" fill="white"/>
<path d="M188.07 219.234H138.823C138.527 219.234 138.242 219.101 138.033 218.863C137.824 218.625 137.706 218.302 137.706 217.966C137.706 217.629 137.824 217.306 138.033 217.068C138.242 216.83 138.527 216.697 138.823 216.697H188.07C188.366 216.697 188.65 216.83 188.859 217.068C189.069 217.306 189.186 217.629 189.186 217.966C189.186 218.302 189.069 218.625 188.859 218.863C188.65 219.101 188.366 219.234 188.07 219.234Z" fill="white"/>
<path d="M125.841 222.983C129.976 222.983 133.328 219.175 133.328 214.477C133.328 209.779 129.976 205.97 125.841 205.97C121.707 205.97 118.355 209.779 118.355 214.477C118.355 219.175 121.707 222.983 125.841 222.983Z" fill="white"/>
<path d="M124.173 225.967C123.409 225.561 122.536 225.51 121.74 225.825C120.943 226.139 120.286 226.795 119.909 227.651C119.834 227.827 119.773 228.009 119.725 228.196L108.451 228.962L106.78 235.598L122.124 232.652C122.822 232.818 123.549 232.716 124.19 232.364C124.832 232.011 125.353 231.426 125.672 230.702C125.85 230.288 125.954 229.838 125.979 229.377C126.004 228.917 125.949 228.456 125.817 228.02C125.685 227.584 125.478 227.182 125.21 226.837C124.941 226.492 124.615 226.21 124.25 226.008C124.225 225.994 124.199 225.98 124.173 225.967Z" fill="#FFB6B6"/>
<path d="M99.289 193.232C98.5462 192.887 97.7465 192.727 96.9445 192.764C96.1425 192.801 95.357 193.034 94.6413 193.447C93.9256 193.86 93.2965 194.443 92.7969 195.157C92.2973 195.871 91.9389 196.699 91.7459 197.584L88.6465 211.806L89.2295 236.686C89.2295 236.686 105.408 240.214 108.124 237.946C110.84 235.679 110.585 233.991 110.84 235.679C111.095 237.367 112.26 238.075 112.276 237.404C112.293 236.732 112.424 236.847 113.101 236.645C113.778 236.442 116.765 235.191 116.765 235.191L116.899 228.098C116.899 228.098 111.961 225.97 110.763 226.605C109.564 227.24 111.018 228.293 109.564 227.24C108.111 226.187 107.953 222.863 107.704 225.858C107.456 228.854 106.728 229.412 105.639 228.08C104.55 226.748 99.5022 227.599 99.5022 227.599L102.714 199.941C102.876 198.55 102.627 197.138 102.008 195.924C101.388 194.71 100.432 193.764 99.289 193.232Z" fill="#6E2F9B"/>
<path d="M208.239 267.015L208.409 261.776L190.705 258.537L190.455 266.269L208.239 267.015Z" fill="#FFB6B6"/>
<path d="M205.026 268.592L204.858 260.204L208.014 260.336L213.109 252.581C213.361 252.198 213.713 251.917 214.116 251.778C214.518 251.639 214.949 251.649 215.346 251.808C215.743 251.967 216.084 252.266 216.321 252.661C216.558 253.057 216.677 253.527 216.661 254.005L216.338 263.97L213.16 265.556L216.26 266.358L216.138 270.115L205.026 268.592Z" fill="#2F2E41"/>
<path d="M108.6 279.029L164.675 271.62C164.675 271.62 188.89 273.209 194.571 269.01L200.562 268.15L200.887 258.151C200.887 258.151 197.223 258.182 195.117 257.066C193.011 255.951 194.474 254.587 192.466 255.928C190.458 257.27 190.67 257.432 189.117 256.815C187.565 256.198 116.361 252.891 116.361 252.891L108.6 279.029Z" fill="#2F2E41"/>
<path d="M182.492 274.69L185.752 270.98L174.712 254.925L169.9 260.4L182.492 274.69Z" fill="#FFB6B6"/>
<path d="M179.192 273.363L184.09 267.084L186.324 269.619L194.701 267.872C195.115 267.786 195.542 267.852 195.92 268.061C196.299 268.27 196.608 268.611 196.804 269.034C197 269.457 197.071 269.94 197.008 270.413C196.945 270.885 196.751 271.323 196.453 271.661L190.251 278.716L186.972 277.423L188.765 280.406L186.427 283.066L179.192 273.363Z" fill="#2F2E41"/>
<path d="M86.4775 244.136L87.035 258.859C87.6913 276.193 104.491 286.683 117.518 277.633C117.758 277.466 117.999 277.294 118.241 277.115C118.241 277.115 123.18 275.608 123.03 273.221C122.88 270.835 124.086 269.673 125.154 270.324C126.222 270.975 140.201 248.433 140.201 248.433C140.201 248.433 169.246 264.895 175.653 268.77L182.414 266.677C182.414 266.677 184.958 268.042 184.042 266.067C183.125 264.093 182.961 265.038 182.679 262.887C182.398 260.735 181.677 258.067 181.241 258.18C180.804 258.292 145.309 230.064 145.309 230.064C145.309 230.064 139.526 223.414 132.353 227.805C132.204 228.45 132.332 228.472 132.332 228.472L108.637 250.41L105.288 243.186L86.4775 244.136Z" fill="#2F2E41"/>
<path d="M102.403 190.036L92.244 184.625L89.2024 190.639C89.2024 190.639 81.0336 203.884 80.9151 213.44C80.7966 222.995 82.2463 225.836 82.2463 225.836C82.2463 225.836 78.7242 228.828 80.4853 230.657C82.2463 232.486 86.1451 233.275 83.1507 234.068C80.1562 234.861 80.9151 242.887 84.2592 244.312C87.6034 245.737 105.563 245.725 105.563 245.725C105.402 245.102 105.39 244.442 105.529 243.813C105.668 243.184 105.952 242.608 106.353 242.146C107.746 240.56 109 241.698 107.746 239.23C106.491 236.761 104.401 238.186 106.073 234.861C107.746 231.536 107.745 230.543 107.745 230.543C107.745 230.543 111.154 223.172 106.019 215.175C105.706 214.688 105.969 214.669 105.969 214.669L101.824 198.883L102.403 190.036Z" fill="#6E2F9B"/>
<path d="M86.0312 167.288C86.1171 169.726 84.7647 173.181 84.0987 175.264C83.3867 177.491 86.4727 180.447 88.448 181.095C88.5509 180.323 88.8896 179.617 89.4047 179.101C89.2624 179.837 89.25 180.597 89.3683 181.338L106.067 185.657C109.071 181.704 112.092 176.021 111.433 169.168C111.591 167.866 111.407 166.541 110.904 165.358C110.401 164.175 109.602 163.187 108.607 162.518L100.165 156.852C96.574 155.923 92.0519 155.362 89.4582 157.887C88.2994 159.058 87.3891 160.512 86.7956 162.141C86.202 163.769 85.9407 165.529 86.0312 167.288Z" fill="#2F2E41"/>
<path d="M100.957 183.569C106.267 183.569 110.572 178.678 110.572 172.644C110.572 166.611 106.267 161.72 100.957 161.72C95.6476 161.72 91.343 166.611 91.343 172.644C91.343 178.678 95.6476 183.569 100.957 183.569Z" fill="#FFB6B6"/>
<path d="M89.6942 166.808L89.2302 169.124L97.3413 171.222C97.3485 170.754 97.4408 170.292 97.6125 169.866C97.7841 169.44 98.0314 169.059 98.3387 168.747C98.1638 169.655 98.1837 170.598 98.3969 171.495C102.771 174.284 106.714 175.272 110.249 174.561C110.728 174.685 111.231 174.587 111.647 174.29C112.063 173.993 112.357 173.52 112.466 172.976C113.889 165.876 110.162 158.62 103.945 156.858C102.433 156.429 100.862 156.347 99.322 156.616C97.7824 156.886 96.3056 157.502 94.9784 158.429C93.6511 159.356 92.5 160.574 91.5926 162.013C90.6852 163.452 90.0398 165.082 89.6942 166.808V166.808Z" fill="#2F2E41"/>
<path d="M94.4363 151.531C95.5058 151.267 96.6376 151.331 97.6046 150.508L96.9704 152.162C98.7287 151.614 100.603 151.827 102.231 152.759C102.715 153.005 103.128 153.402 103.422 153.904C103.58 154.207 103.676 154.547 103.704 154.898C103.731 155.249 103.688 155.602 103.579 155.932C103.475 156.215 103.32 156.47 103.125 156.681C102.929 156.892 102.697 157.055 102.443 157.158C101.993 157.312 101.521 157.368 101.053 157.323C99.0786 157.271 97.1047 157.219 95.1308 157.167C94.3785 157.22 93.6268 157.054 92.9468 156.684C92.5853 156.431 92.2968 156.063 92.1168 155.625C91.9368 155.188 91.8731 154.7 91.9335 154.223C92.1218 152.719 93.3668 151.794 94.4363 151.531Z" fill="#2F2E41"/>
<path d="M146.59 237.148C146.567 237.117 146.541 237.089 146.512 237.066C146.44 236.971 146.352 236.893 146.254 236.837L145.55 236.409L140.88 230.517C140.61 230.357 140.295 230.323 140.003 230.422L139.991 230.426L137.99 231.129L136.269 231.736L133.866 232.582L117.493 238.343L106.732 242.128C106.441 242.233 106.198 242.463 106.054 242.77C105.911 243.076 105.88 243.434 105.967 243.766C106.017 243.949 106.101 244.118 106.213 244.262L106.555 244.695L107.273 245.605L108.938 249.523L109.399 250.109C109.546 250.295 109.737 250.43 109.949 250.498C110.162 250.565 110.386 250.563 110.597 250.491L146.051 239.289C146.235 239.221 146.402 239.103 146.537 238.945C146.671 238.786 146.769 238.593 146.823 238.382C146.876 238.17 146.883 237.947 146.842 237.732C146.802 237.517 146.715 237.316 146.59 237.148Z" fill="#CCCCCC"/>
<path d="M144.486 178.867L143.799 178.994C143.611 179.029 143.443 179.148 143.331 179.324L143.029 179.804L140.3 187.557C140.189 187.734 140.144 187.954 140.176 188.169L140.496 190.377L139.288 229.802C139.318 230.006 139.414 230.189 139.558 230.317L144.855 238.369L144.979 238.48L145.246 238.718C145.383 238.838 145.553 238.899 145.725 238.891L146.175 238.866C146.278 238.861 146.378 238.83 146.469 238.778C146.56 238.725 146.64 238.651 146.704 238.56C146.769 238.47 146.816 238.365 146.842 238.253C146.868 238.141 146.872 238.024 146.855 237.909L145.318 179.542C145.287 179.327 145.182 179.136 145.027 179.009C144.871 178.883 144.678 178.831 144.489 178.867L144.486 178.867Z" fill="#CCCCCC"/>
<path d="M143.336 181.931L140.919 190.296L139.984 223.712L143.746 227.512L143.336 181.931Z" fill="#6E2F9B"/>
<path d="M124.645 232.902C123.881 232.497 123.008 232.446 122.211 232.76C121.415 233.075 120.758 233.73 120.38 234.587C120.306 234.763 120.244 234.945 120.196 235.132L108.923 235.897L107.252 242.534L122.596 239.588C123.294 239.754 124.02 239.652 124.662 239.299C125.304 238.947 125.825 238.362 126.144 237.638C126.503 236.801 126.555 235.836 126.288 234.956C126.022 234.076 125.458 233.352 124.722 232.943C124.696 232.929 124.671 232.916 124.645 232.902Z" fill="#FFB6B6"/>
<path d="M99.7607 200.168C99.0178 199.823 98.2182 199.663 97.4162 199.7C96.6142 199.737 95.8286 199.97 95.113 200.383C94.3973 200.796 93.7682 201.379 93.2686 202.093C92.769 202.807 92.4105 203.634 92.2176 204.52L89.1182 218.742L89.7012 243.622C89.7012 243.622 105.879 247.149 108.595 244.882C111.311 242.615 111.056 240.927 111.311 242.615C111.566 244.303 112.732 245.011 112.748 244.339C112.764 243.668 112.896 243.783 113.573 243.58C114.25 243.378 117.237 242.127 117.237 242.127L117.371 235.033C117.371 235.033 112.432 232.906 111.234 233.541C110.036 234.176 111.489 235.229 110.036 234.176C108.583 233.122 108.424 229.798 108.176 232.794C107.927 235.79 107.2 236.348 106.111 235.016C105.021 233.684 99.9739 234.534 99.9739 234.534L103.186 206.877C103.347 205.486 103.099 204.073 102.479 202.86C101.86 201.646 100.904 200.699 99.7607 200.168Z" fill="#6E2F9B"/>
<path d="M2.20171e-06 282.671C-0.000192624 282.745 0.0125443 282.818 0.0374757 282.887C0.0624071 282.956 0.0990449 283.018 0.145278 283.071C0.191512 283.123 0.246427 283.165 0.30687 283.193C0.367314 283.221 0.43209 283.236 0.497472 283.236H299.503C299.635 283.236 299.761 283.176 299.854 283.07C299.948 282.964 300 282.82 300 282.671C300 282.521 299.948 282.377 299.854 282.271C299.761 282.165 299.635 282.105 299.503 282.105H0.497446C0.432067 282.105 0.367297 282.12 0.306858 282.148C0.246418 282.176 0.191502 282.218 0.145272 282.271C0.0990416 282.323 0.0624064 282.385 0.0374757 282.454C0.0125451 282.523 -0.000190389 282.596 2.20171e-06 282.671Z" fill="#CCCCCC"/>
<path d="M263.847 160.357H179.132C177.758 160.355 176.44 159.734 175.469 158.63C174.497 157.526 173.951 156.029 173.949 154.468V141.495C173.951 139.934 174.497 138.437 175.469 137.333C176.44 136.229 177.758 135.608 179.132 135.606H263.847C265.222 135.608 266.539 136.229 267.511 137.333C268.482 138.437 269.029 139.934 269.03 141.495V154.468C269.029 156.029 268.482 157.526 267.511 158.63C266.539 159.734 265.222 160.355 263.847 160.357Z" fill="#E6E6E6"/>
<path d="M231.782 145.761H206.821C206.525 145.761 206.241 145.627 206.032 145.389C205.822 145.152 205.705 144.829 205.705 144.492C205.705 144.156 205.822 143.833 206.032 143.595C206.241 143.357 206.525 143.224 206.821 143.224H231.782C232.078 143.224 232.362 143.357 232.571 143.595C232.781 143.833 232.898 144.156 232.898 144.492C232.898 144.829 232.781 145.152 232.571 145.389C232.362 145.627 232.078 145.761 231.782 145.761Z" fill="white"/>
<path d="M255.789 152.739H206.542C206.246 152.739 205.962 152.605 205.753 152.367C205.543 152.13 205.426 151.807 205.426 151.47C205.426 151.134 205.543 150.811 205.753 150.573C205.962 150.335 206.246 150.202 206.542 150.202H255.789C256.085 150.202 256.369 150.335 256.579 150.573C256.788 150.811 256.906 151.134 256.906 151.47C256.906 151.807 256.788 152.13 256.579 152.367C256.369 152.605 256.085 152.739 255.789 152.739Z" fill="white"/>
<path d="M193.56 156.488C197.695 156.488 201.047 152.679 201.047 147.981C201.047 143.284 197.695 139.475 193.56 139.475C189.426 139.475 186.074 143.284 186.074 147.981C186.074 152.679 189.426 156.488 193.56 156.488Z" fill="white"/>
<path d="M236.676 193.604H151.961C150.587 193.603 149.269 192.982 148.297 191.878C147.326 190.774 146.779 189.277 146.778 187.715V174.743C146.779 173.181 147.326 171.684 148.297 170.58C149.269 169.476 150.587 168.855 151.961 168.854H236.676C238.05 168.855 239.368 169.476 240.339 170.58C241.311 171.684 241.858 173.181 241.859 174.743V187.715C241.858 189.277 241.311 190.774 240.339 191.878C239.368 192.982 238.05 193.603 236.676 193.604Z" fill="#E6E6E6"/>
<path d="M204.611 179.009H179.65C179.354 179.009 179.07 178.875 178.86 178.637C178.651 178.399 178.533 178.076 178.533 177.74C178.533 177.403 178.651 177.081 178.86 176.843C179.07 176.605 179.354 176.471 179.65 176.471H204.611C204.907 176.471 205.191 176.605 205.4 176.843C205.61 177.081 205.727 177.403 205.727 177.74C205.727 178.076 205.61 178.399 205.4 178.637C205.191 178.875 204.907 179.009 204.611 179.009Z" fill="white"/>
<path d="M228.618 185.987H179.371C179.075 185.987 178.791 185.853 178.581 185.615C178.372 185.377 178.254 185.054 178.254 184.718C178.254 184.381 178.372 184.059 178.581 183.821C178.791 183.583 179.075 183.449 179.371 183.449H228.618C228.914 183.449 229.198 183.583 229.407 183.821C229.617 184.059 229.734 184.381 229.734 184.718C229.734 185.054 229.617 185.377 229.407 185.615C229.198 185.853 228.914 185.987 228.618 185.987Z" fill="white"/>
<path d="M166.389 189.735C170.524 189.735 173.876 185.927 173.876 181.229C173.876 176.531 170.524 172.723 166.389 172.723C162.255 172.723 158.903 176.531 158.903 181.229C158.903 185.927 162.255 189.735 166.389 189.735Z" fill="white"/>
</g>
<defs>
<clipPath id="clip0_1371_7678">
<rect width="300" height="283" fill="white"/>
</clipPath>
</defs>
</svg>
