<svg width="300" height="282" viewBox="0 0 300 282" fill="none" xmlns="http://www.w3.org/2000/svg">
<g clip-path="url(#clip0_1382_7919)">
<path d="M145.305 88.5857L143.311 88.5868L118.748 88.5999L116.754 88.601C115.786 88.6027 114.858 89.0317 114.174 89.7938C113.49 90.556 113.105 91.589 113.105 92.6663L113.121 129.975C113.122 131.053 113.508 132.085 114.193 132.847C114.878 133.608 115.806 134.036 116.774 134.037L116.779 134.037L145.319 134.022L145.325 134.022C146.293 134.02 147.22 133.591 147.905 132.829C148.589 132.067 148.973 131.034 148.974 129.956L148.958 92.6471C148.956 91.5698 148.571 90.5372 147.886 89.7758C147.201 89.0144 146.273 88.5864 145.305 88.5857Z" fill="#E6E6E6"/>
<path d="M145.305 89.7556L142.944 89.7569L119.116 89.7697L116.755 89.7709C116.065 89.7721 115.405 90.0776 114.917 90.6204C114.43 91.1631 114.156 91.8988 114.156 92.6659L114.172 129.975C114.173 130.742 114.448 131.478 114.935 132.02C115.423 132.562 116.084 132.867 116.773 132.867L116.778 132.867L145.319 132.852L145.324 132.852C146.013 132.851 146.674 132.545 147.161 132.003C147.648 131.46 147.922 130.724 147.923 129.957L147.907 92.6478C147.906 91.8807 147.631 91.1453 147.143 90.6031C146.656 90.0609 145.995 89.7561 145.305 89.7556Z" fill="white"/>
<path d="M141.846 98.188C141.845 98.0085 141.781 97.8366 141.667 97.7096C141.553 97.5827 141.398 97.5111 141.237 97.5102L140.285 97.5125L130.591 97.5174C130.43 97.5184 130.276 97.5903 130.163 97.7173C130.049 97.8443 129.986 98.0161 129.986 98.1951C129.986 98.3742 130.049 98.546 130.163 98.673C130.276 98.8 130.43 98.8718 130.591 98.8729L141.237 98.8658C141.398 98.8649 141.553 98.7931 141.667 98.6662C141.781 98.5393 141.845 98.3674 141.846 98.188Z" fill="#E6E6E6"/>
<path d="M131.326 217.992C129.876 218.564 128.31 218.83 126.739 218.773C125.168 218.715 123.629 218.335 122.231 217.659C120.834 216.982 119.611 216.027 118.649 214.859C117.688 213.691 117.01 212.34 116.665 210.9L78.6851 206.862L91.4165 192.552L125.531 198.58C128.147 198.196 130.822 198.727 133.049 200.07C135.276 201.414 136.9 203.478 137.615 205.871C138.329 208.263 138.083 210.819 136.924 213.053C135.765 215.287 133.773 217.045 131.326 217.992L131.326 217.992Z" fill="#FFB8B8"/>
<path d="M110.849 191.504L94.7954 188.811L93.6297 188.616C92.6981 188.46 91.8122 188.12 91.0303 187.62C90.2484 187.119 89.5881 186.469 89.0928 185.712C88.5975 184.955 88.2785 184.109 88.1566 183.228C88.0348 182.347 88.1129 181.452 88.3858 180.601L96.2682 156.017L96.5042 155.286C97.4883 152.162 97.3131 148.816 96.0071 145.797C94.7012 142.778 92.3419 140.264 89.3155 138.668C87.267 137.6 84.9836 136.991 82.6431 136.886C80.3026 136.782 77.9679 137.185 75.8207 138.066C73.6734 138.946 71.7715 140.279 70.2627 141.962C68.754 143.645 67.6791 145.632 67.1217 147.768L57.0681 186.281L56.6952 187.708C55.993 190.395 55.9164 193.193 56.4707 195.91C57.0249 198.628 58.197 201.201 59.907 203.455C61.617 205.709 63.8247 207.59 66.3796 208.971C68.9345 210.351 71.7764 211.198 74.7117 211.454C74.7446 211.459 74.773 211.459 74.8061 211.463L80.8242 211.964L88.631 212.615L98.4489 213.435L107.611 214.201C108.811 214.303 110.008 213.978 110.964 213.29C111.921 212.603 112.567 211.603 112.774 210.488C112.788 210.426 112.798 210.364 112.807 210.302L114.752 196.675L114.771 196.551C114.939 195.397 114.624 194.227 113.893 193.286C113.161 192.345 112.07 191.707 110.849 191.504Z" fill="#CCCCCC"/>
<path d="M102.192 242.954L101.611 237.513L101.177 237.536L24.8584 240.987L25.0566 246.494L25.3919 255.926C37.2011 264.369 50.3152 271.07 64.2804 275.796L64.7762 272.19C64.8195 271.896 64.9697 271.625 65.2013 271.423C65.4329 271.221 65.7318 271.101 66.0472 271.082C66.3626 271.063 66.6753 271.147 66.9322 271.32C67.1892 271.493 67.3746 271.744 67.457 272.03L68.9627 277.298C81.1281 280.98 93.7613 283.127 106.53 283.682L102.192 242.954Z" fill="#2F2E41"/>
<path d="M77.6569 106.566C86.4244 98.3365 86.4244 84.994 77.6569 76.7647C68.8893 68.5353 54.6743 68.5353 45.9068 76.7647C37.1392 84.994 37.1392 98.3365 45.9068 106.566C54.6743 114.795 68.8893 114.795 77.6569 106.566Z" fill="#FFB8B8"/>
<path d="M106.577 237.881L102.126 224.909L102.05 224.688L101.824 224.023L100.554 220.328C100.143 219.128 99.7515 217.923 99.3881 216.713C99.053 215.623 98.7399 214.53 98.4489 213.435C98.0336 211.911 97.656 210.381 97.3161 208.845C96.1642 203.684 95.3961 198.454 95.0174 193.192C94.9134 191.735 94.8395 190.274 94.7954 188.811C94.519 179.84 95.3794 170.871 97.3585 162.091C99.0815 154.499 98.1612 146.588 94.7333 139.524C91.3054 132.459 85.551 126.615 78.3178 122.852C73.5714 120.389 68.3181 118.91 62.9115 118.514C62.5386 118.488 62.1656 118.466 61.7881 118.443C56.0769 118.105 50.3575 118.974 45.0522 120.988C39.7469 123.002 34.9911 126.108 31.136 130.078C29.0712 132.189 27.2778 134.52 25.7927 137.024C21.6723 143.992 20.1255 152.045 21.3937 159.925L26.6989 193.361L25.4908 207.436L24.0653 224.023L23.9897 224.909L22.4698 242.595C22.3978 243.42 22.6104 244.244 23.0763 244.946C23.5421 245.648 24.2364 246.191 25.0564 246.494C25.5366 246.674 26.0496 246.766 26.5669 246.764C26.6425 246.764 26.7132 246.764 26.7888 246.76L102.192 242.954L102.881 242.919C103.51 242.888 104.123 242.722 104.673 242.433C105.223 242.145 105.694 241.742 106.051 241.255C106.409 240.768 106.642 240.21 106.733 239.626C106.824 239.041 106.771 238.444 106.577 237.881L106.577 237.881Z" fill="#E6E6E6"/>
<path d="M86.7529 213.608C85.3167 214.209 83.7576 214.507 82.1854 214.482C80.6132 214.456 79.0661 214.107 77.6531 213.459C76.2402 212.812 74.9956 211.881 74.0072 210.733C73.0189 209.585 72.3106 208.248 71.9325 206.815L33.8679 203.551L46.2663 188.985L80.5123 194.319C83.1185 193.882 85.8048 194.357 88.0623 195.656C90.3198 196.954 91.9916 198.984 92.7608 201.362C93.5301 203.739 93.3434 206.299 92.2361 208.556C91.1288 210.814 89.1778 212.611 86.7529 213.608L86.7529 213.608Z" fill="#FFB8B8"/>
<path d="M65.6727 187.544L57.068 186.281L48.3878 185.005C47.4529 184.868 46.5595 184.547 45.7663 184.063C44.9731 183.578 44.298 182.942 43.7854 182.196C43.2727 181.449 42.9341 180.609 42.7918 179.731C42.6495 178.853 42.7067 177.957 42.9597 177.101L50.4929 151.627C51.4045 148.483 51.1519 145.141 49.7765 142.15C48.4011 139.158 45.9843 136.693 42.9219 135.159C40.8531 134.123 38.5557 133.554 36.2117 133.496C33.8677 133.438 31.5416 133.894 29.4179 134.827C27.2876 135.745 25.4135 137.115 23.9432 138.828C22.4729 140.542 21.4467 142.553 20.9452 144.702L11.4438 184.845C10.8037 187.553 10.7945 190.359 11.4167 193.071C12.0389 195.782 13.2778 198.336 15.0487 200.556C16.8196 202.776 19.0807 204.612 21.6773 205.936C24.2738 207.26 27.1445 208.042 30.0929 208.229L62.9587 210.298C64.1605 210.375 65.3492 210.026 66.2897 209.319C67.2302 208.613 67.8539 207.601 68.0374 206.483C68.0517 206.421 68.0562 206.359 68.0657 206.297L69.6942 192.634L69.7083 192.51C69.8486 191.353 69.507 190.191 68.7548 189.265C68.0027 188.339 66.8983 187.722 65.6727 187.544Z" fill="#E6E6E6"/>
<path d="M144.354 100.469C144.354 100.381 144.339 100.293 144.308 100.211C144.278 100.129 144.233 100.055 144.176 99.9925C144.12 99.93 144.053 99.8807 143.979 99.8473C143.905 99.8139 143.826 99.7971 143.747 99.7979L130.594 99.8045C130.514 99.8046 130.435 99.8223 130.361 99.8564C130.288 99.8905 130.221 99.9404 130.165 100.003C130.108 100.066 130.064 100.141 130.033 100.223C130.003 100.305 129.987 100.393 129.988 100.481C129.988 100.57 130.004 100.658 130.034 100.74C130.065 100.822 130.11 100.896 130.166 100.959C130.223 101.022 130.29 101.071 130.363 101.105C130.437 101.139 130.516 101.156 130.596 101.156L131.208 101.155L135.035 101.153L135.038 101.155L143.745 101.147C143.825 101.148 143.905 101.131 143.979 101.097C144.053 101.063 144.121 101.013 144.177 100.95C144.234 100.887 144.279 100.812 144.309 100.73C144.34 100.647 144.355 100.559 144.354 100.469Z" fill="#E6E6E6"/>
<path d="M128.531 103.598L128.529 95.0761C128.528 94.9898 128.496 94.9075 128.441 94.8471C128.386 94.7866 128.311 94.753 128.234 94.7533L126.208 94.7529L125.158 94.7534L119.516 94.7548L118.422 94.7556C118.344 94.7569 118.27 94.7922 118.216 94.8538C118.161 94.9154 118.131 94.9984 118.131 95.0847L118.131 95.6319L118.133 103.607C118.133 103.692 118.164 103.774 118.219 103.834C118.274 103.894 118.348 103.928 118.425 103.927L125.161 103.925L126.212 103.925L128.237 103.925C128.275 103.925 128.314 103.917 128.349 103.9C128.385 103.884 128.418 103.86 128.445 103.83C128.472 103.799 128.494 103.763 128.509 103.723C128.523 103.684 128.531 103.641 128.531 103.598Z" fill="#E6E6E6"/>
<path d="M141.833 108.992C141.833 108.813 141.769 108.642 141.656 108.515C141.542 108.389 141.388 108.317 141.228 108.317L126.789 108.325C126.661 108.325 126.537 108.37 126.434 108.454C126.33 108.537 126.253 108.654 126.213 108.789C126.19 108.857 126.179 108.93 126.18 109.003C126.18 109.077 126.191 109.15 126.213 109.219L126.214 109.226C126.256 109.358 126.334 109.473 126.437 109.554C126.54 109.636 126.663 109.68 126.789 109.681L141.228 109.672C141.308 109.672 141.387 109.654 141.46 109.62C141.534 109.586 141.601 109.535 141.657 109.472C141.714 109.409 141.758 109.334 141.788 109.252C141.818 109.169 141.834 109.081 141.833 108.992Z" fill="#E6E6E6"/>
<path d="M144.345 111.276C144.344 111.187 144.328 111.099 144.297 111.017C144.267 110.935 144.221 110.861 144.165 110.798C144.108 110.736 144.041 110.686 143.967 110.652C143.893 110.619 143.814 110.602 143.734 110.602L126.788 110.61C126.661 110.608 126.537 110.651 126.435 110.733C126.332 110.815 126.255 110.932 126.216 111.066L126.214 111.07C126.191 111.138 126.179 111.211 126.181 111.284C126.18 111.36 126.192 111.435 126.215 111.506C126.255 111.64 126.333 111.756 126.436 111.838C126.539 111.92 126.663 111.963 126.79 111.961L143.736 111.954C143.897 111.953 144.052 111.882 144.166 111.755C144.28 111.628 144.344 111.455 144.345 111.276Z" fill="#E6E6E6"/>
<path d="M119.84 112.643C121.091 113.401 122.658 112.888 123.339 111.496C124.021 110.104 123.56 108.36 122.309 107.601C121.058 106.843 119.491 107.356 118.809 108.748C118.128 110.14 118.589 111.884 119.84 112.643Z" fill="#E6E6E6"/>
<path d="M157.353 81.5405L155.359 81.5416L130.796 81.5548L128.802 81.5558C127.834 81.5576 126.906 81.9865 126.222 82.7487C125.538 83.5108 125.153 84.5438 125.153 85.6211L125.169 122.93C125.17 124.008 125.556 125.04 126.241 125.802C126.925 126.563 127.854 126.991 128.822 126.992L128.827 126.992L157.367 126.976L157.372 126.976C158.34 126.975 159.268 126.546 159.952 125.784C160.637 125.021 161.021 123.988 161.022 122.911L161.006 85.602C161.004 84.5247 160.619 83.492 159.934 82.7306C159.249 81.9692 158.321 81.5412 157.353 81.5405Z" fill="#CCCCCC"/>
<path d="M157.353 82.7102L154.992 82.7115L131.164 82.7242L128.802 82.7255C128.113 82.7267 127.452 83.0322 126.965 83.575C126.478 84.1177 126.204 84.8533 126.204 85.6205L126.22 122.93C126.221 123.697 126.495 124.432 126.983 124.974C127.471 125.517 128.132 125.821 128.821 125.822L128.826 125.822L157.367 125.807L157.372 125.807C158.061 125.805 158.722 125.5 159.209 124.957C159.696 124.414 159.97 123.679 159.971 122.912L159.954 85.6024C159.953 84.8353 159.679 84.0999 159.191 83.5577C158.704 83.0155 158.043 82.7107 157.353 82.7102Z" fill="white"/>
<path d="M153.894 91.1428C153.893 90.9633 153.828 90.7914 153.714 90.6645C153.6 90.5376 153.446 90.4659 153.285 90.465L148.382 90.4685L147.016 90.469L142.639 90.4722C142.478 90.4733 142.324 90.5451 142.211 90.6721C142.097 90.7991 142.034 90.9709 142.034 91.15C142.034 91.329 142.097 91.5008 142.211 91.6278C142.324 91.7548 142.478 91.8267 142.639 91.8277L147.799 91.8261L148.88 91.8227L153.285 91.8206C153.446 91.8197 153.6 91.748 153.714 91.6211C153.829 91.4941 153.893 91.3223 153.894 91.1428Z" fill="#CCCCCC"/>
<path d="M156.402 93.4241C156.402 93.3355 156.386 93.2477 156.356 93.1659C156.325 93.084 156.281 93.0098 156.224 92.9473C156.168 92.8849 156.101 92.8355 156.027 92.8021C155.953 92.7687 155.874 92.7519 155.795 92.7527L148.957 92.7572L147.906 92.7576L142.642 92.7593C142.562 92.7594 142.483 92.7771 142.409 92.8112C142.336 92.8453 142.269 92.8952 142.212 92.9581C142.156 93.0209 142.112 93.0955 142.081 93.1775C142.051 93.2596 142.035 93.3475 142.035 93.4362C142.036 93.525 142.051 93.6128 142.082 93.6947C142.113 93.7767 142.158 93.8511 142.214 93.9137C142.271 93.9764 142.338 94.026 142.411 94.0598C142.485 94.0936 142.564 94.1109 142.644 94.1108L147.908 94.1091L148.959 94.1087L155.793 94.1019C155.873 94.1027 155.953 94.0857 156.027 94.0519C156.101 94.0181 156.168 93.9682 156.225 93.9051C156.282 93.842 156.327 93.767 156.357 93.6844C156.387 93.6018 156.403 93.5133 156.402 93.4241Z" fill="#CCCCCC"/>
<path d="M140.578 96.5527L140.577 89.758L140.576 88.5884L140.577 88.0307C140.576 87.9444 140.544 87.8621 140.489 87.8017C140.434 87.7412 140.359 87.7076 140.282 87.7079L133.521 87.7113L130.469 87.7103C130.392 87.7116 130.318 87.7468 130.264 87.8084C130.209 87.87 130.179 87.953 130.179 88.0393L130.18 88.5928L130.178 89.2027L130.181 89.7626L130.179 89.7667L130.181 96.5612C130.181 96.6468 130.212 96.7285 130.267 96.7886C130.322 96.8487 130.396 96.8822 130.473 96.8818L140.285 96.8795C140.323 96.8797 140.362 96.8714 140.397 96.8551C140.433 96.8388 140.465 96.8147 140.493 96.7843C140.52 96.7539 140.542 96.7178 140.556 96.6781C140.571 96.6383 140.579 96.5957 140.578 96.5527Z" fill="#6E2F9B"/>
<path d="M153.881 101.947C153.881 101.768 153.817 101.597 153.703 101.47C153.59 101.343 153.436 101.272 153.275 101.271L148.96 101.275L147.909 101.275L143.745 101.274L138.836 101.28C138.757 101.28 138.677 101.297 138.603 101.331C138.53 101.365 138.462 101.415 138.406 101.478C138.349 101.541 138.304 101.616 138.274 101.698C138.243 101.78 138.228 101.869 138.228 101.958C138.228 102.047 138.243 102.135 138.274 102.217C138.305 102.299 138.349 102.374 138.406 102.437C138.463 102.5 138.53 102.55 138.604 102.584C138.677 102.618 138.757 102.635 138.837 102.635L147.909 102.631L148.96 102.631L153.275 102.627C153.355 102.627 153.434 102.609 153.508 102.575C153.582 102.54 153.649 102.49 153.705 102.427C153.761 102.364 153.806 102.289 153.836 102.206C153.866 102.124 153.881 102.036 153.881 101.947Z" fill="#CCCCCC"/>
<path d="M156.392 104.231C156.392 104.142 156.376 104.054 156.345 103.972C156.314 103.89 156.269 103.816 156.212 103.753C156.156 103.69 156.088 103.641 156.014 103.607C155.94 103.574 155.861 103.557 155.781 103.557L148.963 103.562L147.912 103.563L138.835 103.565C138.755 103.565 138.676 103.582 138.602 103.616C138.528 103.65 138.461 103.7 138.405 103.762C138.348 103.825 138.303 103.9 138.273 103.982C138.242 104.065 138.226 104.153 138.226 104.242C138.227 104.331 138.242 104.419 138.273 104.501C138.304 104.583 138.349 104.658 138.406 104.72C138.463 104.783 138.53 104.833 138.604 104.866C138.678 104.9 138.757 104.917 138.837 104.916L147.91 104.912L148.961 104.912L155.783 104.909C155.945 104.908 156.099 104.836 156.214 104.709C156.328 104.582 156.392 104.41 156.392 104.231Z" fill="#CCCCCC"/>
<path d="M131.888 105.597C133.139 106.356 134.705 105.842 135.387 104.45C136.069 103.058 135.607 101.315 134.357 100.556C133.106 99.7972 131.539 100.311 130.857 101.703C130.175 103.095 130.637 104.839 131.888 105.597Z" fill="#CCCCCC"/>
<path d="M274.292 219.921H0.419407C0.308173 219.921 0.201495 219.872 0.122841 219.785C0.0441871 219.697 0 219.579 0 219.455C0 219.331 0.0441871 219.212 0.122841 219.125C0.201495 219.037 0.308173 218.988 0.419407 218.988H274.292C274.403 218.988 274.51 219.037 274.589 219.125C274.667 219.212 274.711 219.331 274.711 219.455C274.711 219.579 274.667 219.697 274.589 219.785C274.51 219.872 274.403 219.921 274.292 219.921Z" fill="#3F3D56"/>
<path d="M47.6011 211.286V211.52C47.6025 213.102 48.0166 214.65 48.7931 215.976C49.5696 217.302 50.6752 218.348 51.9755 218.988C52.9083 219.452 53.919 219.691 54.9407 219.688H122.675V211.286H47.6011Z" fill="#3F3D56"/>
<path d="M169.967 155.915C168.892 153.446 167.237 151.346 165.178 149.838C164.244 149.15 163.237 148.595 162.179 148.186C160.738 147.626 159.222 147.34 157.695 147.341H92.6874C89.0736 147.345 85.609 148.945 83.0536 151.789C80.4983 154.633 79.0608 158.489 79.0567 162.51V204.518C79.0555 205.108 79.0863 205.697 79.149 206.283C79.2411 207.158 79.401 208.024 79.627 208.869C79.8511 209.701 80.1402 210.51 80.491 211.286C81.6201 213.811 83.3598 215.935 85.5145 217.419C87.6692 218.904 90.1533 219.689 92.6874 219.688H157.695C159.486 219.689 161.258 219.297 162.913 218.535C164.567 217.773 166.069 216.655 167.335 215.247C168.601 213.838 169.605 212.165 170.29 210.324C170.975 208.484 171.327 206.511 171.326 204.518V162.51C171.329 160.226 170.864 157.97 169.967 155.915Z" fill="#3F3D56"/>
<path d="M128.756 187.249C130.609 187.249 132.111 185.577 132.111 183.515C132.111 181.452 130.609 179.781 128.756 179.781C126.903 179.781 125.401 181.452 125.401 183.515C125.401 185.577 126.903 187.249 128.756 187.249Z" fill="white"/>
<path d="M235.707 44.8701H235.171V28.5706C235.171 27.3318 234.951 26.1051 234.523 24.9605C234.096 23.816 233.47 22.776 232.681 21.9C231.892 21.024 230.955 20.3292 229.923 19.8551C228.892 19.381 227.787 19.137 226.67 19.137H195.555C193.301 19.137 191.139 20.1309 189.545 21.9C187.951 23.6692 187.055 26.0686 187.055 28.5706V117.991C187.055 120.493 187.951 122.892 189.545 124.661C191.139 126.43 193.301 127.424 195.555 127.424H226.67C228.925 127.424 231.087 126.43 232.681 124.661C234.275 122.892 235.17 120.493 235.17 117.991V56.4723H235.707L235.707 44.8701Z" fill="#CCCCCC"/>
<path d="M233.19 28.5324V118.029C233.19 119.902 232.52 121.698 231.327 123.022C230.135 124.347 228.517 125.091 226.831 125.091H195.512C193.825 125.091 192.208 124.347 191.015 123.022C189.822 121.698 189.152 119.902 189.152 118.029V28.5324C189.152 26.6595 189.822 24.8634 191.015 23.5391C192.208 22.2147 193.825 21.4707 195.512 21.4707H199.311C199.124 21.9802 199.053 22.5327 199.104 23.0799C199.155 23.627 199.326 24.1519 199.602 24.6084C199.878 25.0649 200.251 25.439 200.689 25.6977C201.126 25.9565 201.613 26.0921 202.108 26.0925H219.965C220.461 26.0921 220.948 25.9565 221.385 25.6977C221.822 25.4389 222.195 25.0649 222.472 24.6084C222.748 24.1519 222.919 23.627 222.97 23.0799C223.021 22.5327 222.95 21.9802 222.763 21.4707H226.831C228.517 21.4707 230.135 22.2147 231.327 23.5391C232.52 24.8634 233.19 26.6595 233.19 28.5324Z" fill="white"/>
<path d="M207.716 60.0942C206.096 59.2394 205.032 56.7956 205.092 54.3854C205.153 51.9752 206.257 49.7211 207.779 48.5717C209.302 47.4224 211.182 47.3353 212.816 48.1345C214.45 48.9336 216.644 49.1513 217.626 51.1377C218.381 52.6641 218.109 56.0695 217.575 57.7668C217.113 59.2338 215.983 60.0604 214.882 60.523C213.663 61.0304 212.363 61.2311 211.071 61.1115C209.779 60.9919 208.524 60.5548 207.391 59.8297L207.716 60.0942Z" fill="#2F2E41"/>
<path d="M217.187 87.8617L216.484 84.6402L216.435 84.409C216.395 84.2297 216.313 84.0657 216.197 83.9339C216.082 83.8022 215.938 83.7074 215.779 83.6595L215.078 83.448L214.456 83.2591L213.113 82.8541H213.112L210.4 82.0351L207.999 81.3083L207.418 81.133L205.824 80.651L204.832 80.3518L203.294 79.888L203.17 79.8502C202.956 79.7863 202.729 79.8104 202.53 79.9182C202.331 80.026 202.172 80.2103 202.083 80.438C202.016 80.6117 201.95 80.7885 201.886 80.9683C201.101 83.1977 200.506 85.5059 200.11 87.8617C200.092 87.9614 200.073 88.0627 200.057 88.1639H214.298C214.298 88.182 214.298 88.1987 214.3 88.2168C214.324 88.2002 214.348 88.1835 214.372 88.1639H217.253L217.187 87.8617Z" fill="#2F2E41"/>
<path d="M214.605 60.7541C216.568 58.5697 216.568 55.028 214.605 52.8435C212.642 50.6591 209.46 50.6591 207.497 52.8435C205.534 55.028 205.534 58.5697 207.497 60.7541C209.46 62.9386 212.642 62.9386 214.605 60.7541Z" fill="#FFB8B8"/>
<path d="M216.414 86.1447C215.892 86.7898 215.307 87.3681 214.669 87.8685C214.54 87.9708 214.407 88.0701 214.272 88.165C214.248 88.1843 214.224 88.2006 214.2 88.2169C214.199 88.1991 214.199 88.1828 214.199 88.165H202.719C202.696 88.1439 202.674 88.1211 202.654 88.0968C202.582 88.0257 202.511 87.9471 202.443 87.8685C201.993 87.3581 201.613 86.7773 201.315 86.1447L202.718 81.7438L203.257 80.0466L204.042 77.589L204.886 74.9372C204.812 74.692 204.753 74.442 204.707 74.1887V74.1872C203.907 69.6841 207.845 65.3144 207.845 65.3144C207.875 65.2877 207.906 65.2625 207.937 65.2388C208.316 64.9275 208.729 64.6687 209.164 64.468C211.01 63.6187 212.943 63.9611 214.244 64.3998C214.697 64.5505 215.139 64.7368 215.567 64.9572C215.719 65.0372 215.802 65.0876 215.802 65.0876L215.932 69.4395L216.108 75.3893L216.203 78.7081L216.322 82.8955L216.372 84.7084L216.414 86.1447Z" fill="#6E2F9B"/>
<path d="M222.233 87.8698L220.963 80.7879L220.786 79.7983L221.644 75.5802L221.242 73.3368L219.742 64.97C219.705 64.7685 219.614 64.5839 219.48 64.4403C219.346 64.2967 219.176 64.2008 218.991 64.165L217.156 63.818L215.452 63.4945C215.288 63.4622 215.119 63.4798 214.963 63.5454C214.807 63.611 214.671 63.7221 214.568 63.8667C214.439 64.042 214.369 64.2602 214.368 64.4855C214.368 64.6247 214.394 64.7624 214.444 64.8902C215.689 68.076 215.223 73.8655 214.774 79.4631C214.761 79.627 214.747 79.791 214.735 79.9549C214.641 81.1187 214.552 82.2648 214.479 83.371C214.455 83.7388 214.434 84.1036 214.413 84.4625C214.348 85.6588 214.31 86.8034 214.318 87.8698C214.318 87.9687 214.319 88.0677 214.322 88.1651C214.322 88.1829 214.322 88.1991 214.323 88.2168C214.348 88.2006 214.372 88.1843 214.396 88.1651H222.286L222.233 87.8698Z" fill="#2F2E41"/>
<path d="M209.258 64.2631C209.22 64.0963 209.145 63.9424 209.038 63.8154C208.932 63.6884 208.798 63.5923 208.648 63.5359C208.499 63.4795 208.339 63.4646 208.183 63.4924C208.027 63.5202 207.88 63.5899 207.755 63.6953L207.277 64.1673L203.651 67.7587C203.548 67.8596 203.467 67.984 203.414 68.1228C203.076 69.0023 202.447 70.658 201.703 72.7197C201.44 73.4509 201.162 74.2345 200.877 75.0511C200.401 76.413 201.991 78.4987 201.514 79.9761C201.432 80.2353 201.344 80.49 201.251 80.7402C200.286 83.3847 198.914 85.6187 198.44 87.9172C198.419 88.0176 198.399 88.1179 198.379 88.2168H203.626C203.633 88.1944 203.64 88.1719 203.647 88.1479C203.667 88.0715 203.689 87.9951 203.711 87.9172C204.098 86.5432 204.531 85.0344 204.987 83.4492C205.05 83.2304 205.114 83.0102 205.177 82.7884C205.368 82.1247 205.563 81.4509 205.761 80.7672C205.788 80.6683 205.817 80.5694 205.846 80.4705C205.912 80.2398 205.979 80.009 206.046 79.7783C206.134 79.4756 206.222 79.172 206.311 78.8673C206.539 78.0762 206.769 77.2806 206.999 76.4895C207.932 73.2696 207.728 70.1725 208.43 67.7003C208.441 67.6643 208.451 67.6299 208.461 67.5954C208.762 66.5316 209.028 65.5877 209.243 64.801C209.292 64.6264 209.297 64.4407 209.258 64.2631Z" fill="#2F2E41"/>
<path d="M214.575 49.9324C214.762 49.964 214.953 49.9234 215.118 49.8169C215.284 49.7104 215.414 49.544 215.489 49.3435C215.558 49.1403 215.586 48.9215 215.571 48.7038C215.556 48.4861 215.497 48.2753 215.401 48.0877C215.204 47.7137 214.929 47.4025 214.602 47.1825C214.224 46.8913 213.788 46.718 213.336 46.6794C213.11 46.6623 212.884 46.7015 212.672 46.7942C212.461 46.887 212.269 47.0312 212.11 47.217C211.954 47.4075 211.852 47.6471 211.815 47.9052C211.779 48.1633 211.81 48.4282 211.904 48.6659C212.094 49.0892 212.493 49.3266 212.881 49.4878C213.652 49.8067 214.473 49.9313 215.289 49.8531L214.575 49.9324Z" fill="#2F2E41"/>
<path d="M216.486 55.9405C215.704 56.1978 215.747 55.7217 215.318 54.9394C214.889 54.157 214.332 53.2363 213.518 53.2853C212.852 53.3255 212.388 54.0095 211.912 54.5392C211.066 55.4833 209.836 56.0811 208.674 55.7929C207.512 55.5047 206.554 54.1504 206.809 52.8376C206.952 52.1023 207.434 51.4906 208.011 51.1139C208.588 50.7372 209.254 50.5712 209.916 50.4846C211.391 50.2931 212.885 50.4697 214.293 51.0018C215.265 51.3702 216.242 51.966 216.726 52.987C217.21 54.0081 217.633 55.4855 216.691 55.9405H216.486Z" fill="#2F2E41"/>
<path d="M229.415 56.8903V61.989C229.325 62.0141 229.235 62.0378 229.145 62.0586C228.492 62.2171 227.827 62.3223 227.167 62.4098C226.142 62.5461 225.09 62.6469 224.09 62.3668C222.693 61.9756 221.523 60.8465 220.814 59.47C220.106 58.0949 219.827 56.4917 219.816 54.9121C219.808 53.6823 219.954 52.4509 219.877 51.2241C219.798 49.9972 219.461 48.7273 218.649 47.8783C217.836 47.0277 216.464 46.7492 215.573 47.4975C215.421 47.6312 215.279 47.7763 215.146 47.9316C214.974 48.1422 214.771 48.3205 214.546 48.4591C214.143 48.6814 213.505 48.508 213.478 48.0146L213.9 47.1507C213.887 47.1315 213.872 47.1107 213.858 47.0915C213.24 46.158 213.498 44.737 214.263 43.9353C215.045 43.1145 216.208 42.8596 217.285 42.9633C218.354 43.081 219.376 43.5042 220.248 44.1906C221.12 44.8769 221.812 45.8022 222.254 46.8736C222.937 48.5791 222.93 50.5306 223.547 52.2672C223.88 53.1899 224.38 54.0295 225.016 54.7356C225.653 55.4417 226.413 55.9997 227.252 56.3761C227.857 56.6419 228.495 56.8082 229.145 56.8695C229.235 56.8784 229.325 56.8843 229.415 56.8903Z" fill="#2F2E41"/>
<path d="M213.059 78.8543H213.003V77.0979C213.003 76.8282 212.911 76.5697 212.746 76.379C212.581 76.1884 212.357 76.0813 212.124 76.0813H208.905C208.79 76.0813 208.675 76.1076 208.569 76.1587C208.462 76.2098 208.365 76.2846 208.283 76.379C208.202 76.4734 208.137 76.5855 208.093 76.7088C208.049 76.8322 208.026 76.9644 208.026 77.0979V86.7336C208.026 87.0033 208.119 87.2618 208.283 87.4525C208.448 87.6431 208.672 87.7502 208.905 87.7502H212.124C212.239 87.7502 212.354 87.7239 212.46 87.6728C212.567 87.6217 212.664 87.5469 212.746 87.4525C212.827 87.3581 212.892 87.246 212.936 87.1227C212.981 86.9993 213.003 86.8671 213.003 86.7336V80.1045H213.059V78.8543Z" fill="#3F3D56"/>
<path d="M210.332 80.7488C210.912 80.7488 211.381 80.2264 211.381 79.5819C211.381 78.9375 210.912 78.415 210.332 78.415C209.753 78.415 209.284 78.9375 209.284 79.5819C209.284 80.2264 209.753 80.7488 210.332 80.7488Z" fill="white"/>
<path d="M209.982 82.7031C209.958 82.6706 209.931 82.6397 209.904 82.6087C209.683 82.359 209.417 82.1633 209.123 82.0342C208.829 81.905 208.513 81.8453 208.197 81.8589C208.096 81.8646 207.996 81.8774 207.896 81.8973L207.84 81.8353L207.261 81.1977L205.947 79.7528L205.132 78.8555L203.932 77.5345L203.031 76.5442L202.682 76.159L203.3 73.495L201.72 72.7999L199.663 71.8951L199.63 71.8804L199.554 72.1106L199.004 73.7887L198.594 75.0358C198.355 75.7726 198.315 76.5696 198.477 77.3311C198.64 78.0927 198.998 78.7864 199.51 79.3292C199.626 79.4528 199.75 79.5677 199.881 79.6731L201.281 80.7003L201.74 81.0368L202.604 81.6715L204.029 82.7179L204.916 83.3687L206.042 84.1953C206.037 84.2763 206.036 84.3576 206.038 84.4388C206.051 84.7873 206.131 85.1288 206.272 85.4411C206.413 85.7534 206.613 86.0294 206.857 86.2512C207.15 86.5197 207.501 86.7002 207.876 86.7751H207.878C208.347 86.8705 208.832 86.8003 209.264 86.5744C209.548 86.423 209.801 86.2077 210.005 85.9423C210.209 85.6769 210.361 85.3674 210.45 85.0336C210.496 84.8655 210.525 84.6922 210.536 84.517C210.558 84.1893 210.521 83.8599 210.426 83.5483C210.331 83.2368 210.18 82.9494 209.982 82.7031Z" fill="#FFB8B8"/>
<path d="M223.078 76.1374L222.877 74.7671L222.59 72.814L220.952 73.1877L218.822 73.6741L218.988 76.4311L218.865 76.5275L216.199 78.6156L214.643 79.8332L213.093 81.0478L213.091 81.0493L213.08 81.0582C212.988 81.0177 212.895 80.985 212.799 80.9603C212.499 80.8828 212.187 80.8782 211.885 80.9467C211.583 81.0152 211.296 81.1552 211.045 81.3577C210.81 81.5461 210.611 81.7855 210.458 82.0622C210.35 82.2568 210.267 82.4681 210.212 82.6895C210.176 82.8296 210.15 82.973 210.136 83.1181C210.103 83.4614 210.133 83.8088 210.224 84.1382C210.316 84.4676 210.466 84.7717 210.667 85.0312C210.914 85.3556 211.232 85.6005 211.589 85.7416C212.076 85.9377 212.609 85.9298 213.091 85.7193H213.093C213.191 85.6774 213.287 85.6268 213.378 85.5681C213.806 85.2976 214.142 84.8721 214.332 84.3594C214.383 84.2245 214.423 84.0845 214.452 83.9412C214.467 83.8613 214.479 83.7806 214.487 83.6994L214.999 83.4488L216.315 82.8052L220.682 80.6696L221.105 80.4635C221.465 80.2657 221.793 79.9994 222.075 79.676C222.477 79.2186 222.777 78.6593 222.951 78.0441C223.126 77.4289 223.169 76.7754 223.078 76.1374Z" fill="#FFB8B8"/>
<path d="M208.35 65.8346C208.281 65.5444 208.175 65.2665 208.034 65.0091C207.85 64.6719 207.609 64.376 207.324 64.1373C207.204 64.0368 207.077 63.9465 206.944 63.8671C206.272 63.4653 205.482 63.3708 204.746 63.6046C204.011 63.8383 203.391 64.381 203.022 65.1136L199.688 71.7428L199.577 71.9608L198.799 73.5102L199.016 73.658L200.967 74.9806L203.126 76.4449L203.278 76.5479L204.726 74.0222V74.0207L208.004 68.3021C208.13 68.0829 208.231 67.8478 208.305 67.602C208.314 67.5676 208.324 67.5318 208.334 67.4975C208.477 66.955 208.482 66.3803 208.35 65.8346Z" fill="#2F2E41"/>
<path d="M220.5 65.4871C220.245 64.7338 219.742 64.1212 219.097 63.7773C218.452 63.4333 217.715 63.3846 217.039 63.6414C216.954 63.674 216.87 63.711 216.788 63.7524C216.314 63.9919 215.91 64.3783 215.622 64.8669C215.506 65.0625 215.41 65.2726 215.337 65.493C215.207 65.8767 215.146 66.2855 215.157 66.6961C215.168 67.1066 215.25 67.5106 215.4 67.8849L215.979 69.3428L218.84 76.5479L218.919 76.5139L221.403 75.429L222.942 74.757L223.544 74.495L220.5 65.4871Z" fill="#2F2E41"/>
<path d="M206.444 102.686H197.025C196.383 102.686 195.767 102.391 195.314 101.866C194.86 101.341 194.605 100.628 194.605 99.8857C194.605 99.143 194.86 98.4307 195.314 97.9055C195.767 97.3803 196.383 97.0852 197.025 97.0852H206.444C207.086 97.0852 207.702 97.3803 208.156 97.9055C208.61 98.4307 208.865 99.143 208.865 99.8857C208.865 100.628 208.61 101.341 208.156 101.866C207.702 102.391 207.086 102.686 206.444 102.686Z" fill="#6E2F9B"/>
<path d="M225.666 102.686H215.969C215.309 102.686 214.675 102.391 214.208 101.866C213.741 101.341 213.478 100.628 213.478 99.8857C213.478 99.143 213.741 98.4307 214.208 97.9055C214.675 97.3803 215.309 97.0852 215.969 97.0852H225.666C226.327 97.0852 226.96 97.3803 227.428 97.9055C227.895 98.4307 228.157 99.143 228.157 99.8857C228.157 100.628 227.895 101.341 227.428 101.866C226.96 102.391 226.327 102.686 225.666 102.686Z" fill="#E6E6E6"/>
<path d="M227.118 41.0745H195.224C194.615 41.0754 194.032 41.3421 193.601 41.816C193.17 42.2899 192.928 42.9324 192.927 43.6026V85.6887C192.928 86.3589 193.17 87.0014 193.601 87.4753C194.032 87.9492 194.615 88.2159 195.224 88.2168H227.118C227.727 88.2161 228.311 87.9495 228.742 87.4756C229.173 87.0016 229.415 86.359 229.415 85.6887V43.6026C229.415 42.9323 229.173 42.2897 228.742 41.8157C228.311 41.3417 227.727 41.0752 227.118 41.0745ZM229.145 85.6887C229.144 86.2801 228.931 86.8471 228.551 87.2652C228.171 87.6834 227.655 87.9187 227.118 87.9194H195.224C194.687 87.9187 194.172 87.6834 193.792 87.2652C193.412 86.8471 193.198 86.2801 193.197 85.6887V43.6026C193.198 43.0112 193.412 42.4442 193.792 42.026C194.172 41.6079 194.687 41.3726 195.224 41.3719H227.118C227.655 41.3726 228.171 41.6079 228.551 42.026C228.931 42.4442 229.144 43.0112 229.145 43.6026V85.6887Z" fill="#3F3D56"/>
<path d="M201.855 52.2766C201.741 52.2762 201.628 52.2504 201.523 52.2008C201.418 52.1511 201.322 52.0785 201.242 51.9873L197.155 46.0103C197.061 45.873 196.94 45.7617 196.801 45.685C196.662 45.6082 196.51 45.5681 196.355 45.5676H172.686C171.491 45.5676 170.346 45.0358 169.501 44.0893C168.657 43.1428 168.182 41.859 168.182 40.5205C168.182 39.1819 168.657 37.8981 169.501 36.9516C170.346 36.0051 171.492 35.4734 172.686 35.4734H202.264C203.353 35.4734 204.406 35.916 205.226 36.7193C206.047 37.5225 206.58 38.6318 206.727 39.8417C206.873 41.0516 206.623 42.28 206.023 43.2993C205.424 44.3186 204.514 45.0596 203.464 45.3851C203.254 45.452 203.068 45.5943 202.936 45.7902C202.805 45.9861 202.734 46.225 202.734 46.4703V51.2948C202.736 51.489 202.686 51.6792 202.589 51.8406C202.493 52.0021 202.356 52.1272 202.195 52.1996C202.087 52.2501 201.972 52.2762 201.855 52.2766Z" fill="#6E2F9B"/>
<path d="M174.054 42.9415C175.212 42.9415 176.151 41.8966 176.151 40.6077C176.151 39.3188 175.212 38.2739 174.054 38.2739C172.896 38.2739 171.957 39.3188 171.957 40.6077C171.957 41.8966 172.896 42.9415 174.054 42.9415Z" fill="white"/>
<path d="M180.135 42.9415C181.177 42.9415 182.022 41.8966 182.022 40.6077C182.022 39.3188 181.177 38.2739 180.135 38.2739C179.093 38.2739 178.248 39.3188 178.248 40.6077C178.248 41.8966 179.093 42.9415 180.135 42.9415Z" fill="white"/>
<path d="M186.007 42.9415C187.049 42.9415 187.894 41.8966 187.894 40.6077C187.894 39.3188 187.049 38.2739 186.007 38.2739C184.965 38.2739 184.12 39.3188 184.12 40.6077C184.12 41.8966 184.965 42.9415 186.007 42.9415Z" fill="white"/>
<path d="M128.74 28.5203H88.0754V56.7015H128.74V28.5203Z" fill="#E6E6E6"/>
<path d="M98.25 33.9492H90.8022V39.3368H98.25V33.9492Z" fill="white"/>
<path d="M107.504 33.9492H100.057V39.3368H107.504V33.9492Z" fill="white"/>
<path d="M116.759 33.9492H109.311V39.3368H116.759V33.9492Z" fill="white"/>
<path d="M126.013 33.9492H118.566V39.3368H126.013V33.9492Z" fill="white"/>
<path d="M98.25 41.5747H90.8022V46.9623H98.25V41.5747Z" fill="white"/>
<path d="M107.504 41.5747H100.057V46.9623H107.504V41.5747Z" fill="white"/>
<path d="M116.759 41.5747H109.311V46.9623H116.759V41.5747Z" fill="white"/>
<path d="M126.013 41.5747H118.566V46.9623H126.013V41.5747Z" fill="white"/>
<path d="M98.25 49.2002H90.8022V54.5878H98.25V49.2002Z" fill="white"/>
<path d="M107.504 49.2002H100.057V54.5878H107.504V49.2002Z" fill="white"/>
<path d="M116.759 49.2002H109.311V54.5878H116.759V49.2002Z" fill="white"/>
<path d="M126.013 49.2002H118.566V54.5878H126.013V49.2002Z" fill="white"/>
<path d="M98.7258 31.8357C99.3428 31.8357 99.843 31.2791 99.843 30.5924C99.843 29.9058 99.3428 29.3491 98.7258 29.3491C98.1088 29.3491 97.6086 29.9058 97.6086 30.5924C97.6086 31.2791 98.1088 31.8357 98.7258 31.8357Z" fill="white"/>
<path d="M117.196 31.8357C117.813 31.8357 118.313 31.2791 118.313 30.5924C118.313 29.9058 117.813 29.3491 117.196 29.3491C116.579 29.3491 116.079 29.9058 116.079 30.5924C116.079 31.2791 116.579 31.8357 117.196 31.8357Z" fill="white"/>
<path d="M99.1725 25.2048H98.2788V30.924H99.1725V25.2048Z" fill="#E6E6E6"/>
<path d="M117.643 25.2048H116.749V30.924H117.643V25.2048Z" fill="#E6E6E6"/>
<path d="M123.974 36.6431C123.973 37.0932 123.827 37.528 123.562 37.8677C123.296 38.2074 122.93 38.429 122.529 38.492C122.129 38.555 121.721 38.455 121.382 38.2104C121.042 37.9658 120.793 37.5931 120.681 37.1608C120.569 36.7284 120.6 36.2654 120.77 35.8568C120.94 35.4483 121.236 35.1216 121.605 34.9369C121.974 34.7522 122.39 34.7217 122.777 34.8513C123.165 34.9808 123.497 35.2615 123.713 35.6418C123.884 35.9414 123.974 36.2886 123.974 36.6431Z" fill="#6E2F9B"/>
<path d="M123.713 35.6419L122.056 37.4866C121.951 37.3071 121.371 36.4727 121.371 36.4727C121.445 36.3891 121.525 36.3111 121.608 36.2393L122.09 36.9536L123.519 35.3628C123.592 35.4488 123.657 35.5422 123.713 35.6419Z" fill="white"/>
<path d="M105.465 44.2686C105.465 44.7187 105.318 45.1535 105.053 45.4932C104.787 45.8329 104.421 46.0545 104.02 46.1175C103.62 46.1805 103.212 46.0805 102.873 45.8359C102.533 45.5913 102.285 45.2186 102.172 44.7862C102.06 44.3539 102.091 43.8909 102.261 43.4823C102.431 43.0738 102.727 42.7471 103.096 42.5624C103.465 42.3776 103.881 42.3472 104.269 42.4767C104.656 42.6062 104.988 42.887 105.205 43.2673C105.375 43.5668 105.465 43.9141 105.465 44.2686Z" fill="#6E2F9B"/>
<path d="M105.205 43.2674L103.547 45.1121C103.443 44.9326 102.862 44.0982 102.862 44.0982C102.936 44.0146 103.016 43.9366 103.1 43.8648L103.581 44.5791L105.01 42.9883C105.083 43.0743 105.148 43.1677 105.205 43.2674Z" fill="white"/>
<path d="M96.2105 44.2686C96.2101 44.7187 96.0638 45.1535 95.7984 45.4932C95.5331 45.8329 95.1664 46.0546 94.766 46.1175C94.3655 46.1805 93.958 46.0805 93.6185 45.8359C93.279 45.5913 93.0301 45.2186 92.9177 44.7862C92.8053 44.3539 92.8369 43.8909 93.0067 43.4823C93.1764 43.0738 93.4729 42.7471 93.8418 42.5624C94.2106 42.3776 94.6269 42.3472 95.0143 42.4767C95.4016 42.6062 95.734 42.887 95.9502 43.2673C96.1206 43.5669 96.2108 43.9141 96.2105 44.2686Z" fill="#6E2F9B"/>
<path d="M95.9503 43.2674L94.2924 45.1121C94.1882 44.9326 93.6077 44.0982 93.6077 44.0982C93.6821 44.0146 93.7615 43.9366 93.8453 43.8648L94.3267 44.5791L95.7561 42.9883C95.8286 43.0743 95.8936 43.1677 95.9503 43.2674Z" fill="white"/>
<path d="M206.763 214.141C217.415 214.141 226.051 204.531 226.051 192.676C226.051 180.821 217.415 171.21 206.763 171.21C196.11 171.21 187.475 180.821 187.475 192.676C187.475 204.531 196.11 214.141 206.763 214.141Z" fill="#E6E6E6"/>
<path d="M206.763 209.549C215.136 209.549 221.924 201.995 221.924 192.676C221.924 183.357 215.136 175.803 206.763 175.803C198.389 175.803 191.602 183.357 191.602 192.676C191.602 201.995 198.389 209.549 206.763 209.549Z" fill="#6E2F9B"/>
<path opacity="0.2" d="M206.802 175.85C206.572 175.85 206.344 175.857 206.117 175.868C209.949 176.243 213.509 178.225 216.077 181.412C218.645 184.599 220.028 188.754 219.947 193.034C219.865 197.314 218.325 201.399 215.638 204.462C212.95 207.526 209.317 209.337 205.475 209.531C205.912 209.573 206.355 209.596 206.802 209.596C210.823 209.596 214.68 207.818 217.523 204.654C220.366 201.49 221.963 197.198 221.963 192.723C221.963 188.248 220.366 183.957 217.523 180.792C214.68 177.628 210.823 175.85 206.802 175.85V175.85Z" fill="black"/>
<path d="M206.808 174.605C206.677 174.605 206.551 174.663 206.459 174.766C206.366 174.869 206.314 175.009 206.314 175.154V177.55C206.314 177.696 206.366 177.836 206.459 177.939C206.551 178.042 206.677 178.1 206.808 178.1C206.938 178.1 207.064 178.042 207.157 177.939C207.249 177.836 207.301 177.696 207.301 177.55V175.154C207.301 175.009 207.249 174.869 207.156 174.766C207.064 174.663 206.938 174.605 206.808 174.605Z" fill="white"/>
<path d="M216.661 177.849C216.522 177.733 216.38 177.62 216.237 177.51C216.152 177.504 216.066 177.523 215.989 177.565C215.912 177.607 215.846 177.67 215.798 177.749L214.586 179.729C214.512 179.849 214.484 179.997 214.509 180.14C214.533 180.283 214.608 180.41 214.716 180.492C214.824 180.574 214.957 180.604 215.085 180.577C215.214 180.55 215.327 180.467 215.401 180.347L216.613 178.367C216.659 178.292 216.688 178.205 216.696 178.115C216.704 178.024 216.692 177.933 216.661 177.849Z" fill="white"/>
<path d="M222.167 186.876C222.143 186.81 222.107 186.749 222.061 186.698C222.016 186.646 221.962 186.606 221.902 186.578C221.843 186.55 221.778 186.535 221.714 186.534C221.649 186.534 221.585 186.548 221.525 186.575L219.53 187.476C219.409 187.531 219.312 187.638 219.261 187.772C219.21 187.906 219.209 188.057 219.259 188.192C219.308 188.326 219.403 188.434 219.524 188.491C219.644 188.547 219.78 188.548 219.901 188.494L221.896 187.592C222.017 187.537 222.114 187.431 222.165 187.297C222.215 187.162 222.216 187.011 222.167 186.876Z" fill="white"/>
<path d="M198.94 179.729L197.728 177.749C197.68 177.67 197.614 177.607 197.537 177.565C197.459 177.523 197.374 177.504 197.288 177.51C197.146 177.62 197.004 177.733 196.865 177.849C196.833 177.933 196.821 178.024 196.829 178.115C196.838 178.205 196.866 178.292 196.912 178.367L198.124 180.347C198.198 180.467 198.312 180.55 198.44 180.577C198.569 180.604 198.702 180.574 198.81 180.492C198.918 180.41 198.992 180.283 199.017 180.14C199.041 179.997 199.013 179.849 198.94 179.729Z" fill="white"/>
<path d="M193.996 187.476L192.001 186.575C191.88 186.52 191.744 186.521 191.623 186.578C191.503 186.634 191.407 186.742 191.358 186.877C191.309 187.012 191.31 187.163 191.361 187.297C191.411 187.431 191.508 187.537 191.629 187.592L193.625 188.494C193.746 188.548 193.881 188.547 194.002 188.491C194.122 188.434 194.218 188.326 194.267 188.191C194.316 188.057 194.315 187.906 194.264 187.771C194.214 187.637 194.117 187.531 193.996 187.476V187.476Z" fill="white"/>
<path d="M206.808 207.252C206.677 207.253 206.551 207.311 206.459 207.414C206.366 207.516 206.314 207.656 206.314 207.802V210.198C206.314 210.343 206.366 210.483 206.459 210.586C206.551 210.689 206.677 210.747 206.808 210.747C206.938 210.747 207.064 210.689 207.157 210.586C207.249 210.483 207.301 210.343 207.301 210.198V207.802C207.301 207.656 207.249 207.516 207.156 207.414C207.064 207.311 206.938 207.253 206.808 207.252Z" fill="white"/>
<path d="M216.613 206.985L215.401 205.005C215.365 204.946 215.318 204.895 215.264 204.855C215.21 204.815 215.149 204.788 215.085 204.775C215.022 204.761 214.956 204.762 214.893 204.777C214.829 204.791 214.769 204.82 214.716 204.86C214.662 204.901 214.616 204.953 214.581 205.013C214.545 205.073 214.521 205.141 214.509 205.212C214.497 205.283 214.497 205.355 214.51 205.426C214.524 205.497 214.549 205.564 214.586 205.623L215.798 207.603C215.846 207.682 215.912 207.745 215.989 207.787C216.066 207.829 216.152 207.848 216.237 207.842C216.38 207.732 216.522 207.619 216.661 207.503C216.692 207.419 216.704 207.328 216.696 207.237C216.688 207.147 216.659 207.06 216.613 206.985Z" fill="white"/>
<path d="M221.896 197.76L219.901 196.858C219.78 196.803 219.644 196.804 219.524 196.861C219.403 196.918 219.308 197.025 219.258 197.16C219.209 197.295 219.21 197.446 219.261 197.58C219.312 197.715 219.409 197.821 219.53 197.876L221.525 198.777C221.646 198.832 221.782 198.831 221.902 198.774C222.023 198.717 222.118 198.61 222.167 198.475C222.216 198.34 222.216 198.189 222.165 198.055C222.114 197.921 222.017 197.815 221.896 197.76V197.76Z" fill="white"/>
<path d="M198.81 204.86C198.702 204.778 198.569 204.748 198.44 204.775C198.312 204.802 198.198 204.885 198.124 205.005L196.912 206.985C196.866 207.06 196.838 207.147 196.829 207.237C196.821 207.328 196.833 207.419 196.865 207.503C197.004 207.619 197.146 207.732 197.288 207.841C197.374 207.848 197.459 207.829 197.537 207.787C197.614 207.745 197.68 207.682 197.728 207.603L198.94 205.623C198.976 205.563 199.002 205.496 199.015 205.426C199.028 205.355 199.029 205.283 199.017 205.212C199.005 205.141 198.98 205.073 198.945 205.013C198.909 204.953 198.863 204.901 198.81 204.86Z" fill="white"/>
<path d="M194.267 197.16C194.243 197.093 194.207 197.032 194.161 196.981C194.116 196.93 194.062 196.889 194.002 196.861C193.942 196.833 193.878 196.818 193.814 196.818C193.749 196.817 193.685 196.831 193.625 196.858L191.63 197.76C191.508 197.815 191.412 197.921 191.361 198.055C191.31 198.189 191.309 198.34 191.359 198.475C191.408 198.61 191.503 198.717 191.624 198.774C191.744 198.831 191.88 198.832 192.001 198.777L193.996 197.876C194.117 197.821 194.214 197.714 194.264 197.58C194.315 197.446 194.316 197.295 194.267 197.16Z" fill="white"/>
<path d="M207.448 192.404C207.493 192.704 207.43 193.012 207.272 193.26C207.114 193.508 206.873 193.677 206.604 193.728L197.848 195.386C197.714 195.411 197.578 195.407 197.446 195.373C197.314 195.34 197.189 195.277 197.078 195.19C196.968 195.103 196.874 194.992 196.802 194.865C196.729 194.737 196.681 194.595 196.658 194.446C196.635 194.298 196.639 194.145 196.669 193.998C196.699 193.851 196.755 193.712 196.833 193.589C196.912 193.466 197.011 193.362 197.126 193.282C197.241 193.201 197.368 193.147 197.502 193.122L206.258 191.464C206.527 191.414 206.804 191.484 207.027 191.66C207.25 191.836 207.402 192.104 207.448 192.404Z" fill="#3F3D56"/>
<path d="M216.663 203.199C216.537 203.34 216.366 203.419 216.188 203.42C216.01 203.421 215.838 203.343 215.711 203.203L206.286 192.796C206.16 192.656 206.088 192.466 206.088 192.268C206.087 192.069 206.157 191.879 206.283 191.738C206.408 191.597 206.579 191.517 206.758 191.516C206.936 191.515 207.107 191.593 207.234 191.733L216.659 202.14C216.786 202.28 216.857 202.47 216.858 202.669C216.859 202.867 216.789 203.058 216.663 203.199Z" fill="#3F3D56"/>
<path d="M206.763 193.974C207.407 193.974 207.929 193.393 207.929 192.676C207.929 191.959 207.407 191.378 206.763 191.378C206.119 191.378 205.597 191.959 205.597 192.676C205.597 193.393 206.119 193.974 206.763 193.974Z" fill="#CCCCCC"/>
<path d="M198.73 170.17C196.939 173.302 194.208 175.381 190.84 176.747C190.773 176.802 190.697 176.842 190.617 176.865C190.536 176.888 190.452 176.893 190.37 176.88C190.288 176.867 190.208 176.836 190.137 176.789C190.065 176.741 190.003 176.679 189.953 176.605C188.123 173.886 188.537 170 190.951 167.923C191.535 167.421 192.203 167.054 192.915 166.842C193.628 166.63 194.371 166.578 195.102 166.688C195.832 166.798 196.536 167.069 197.172 167.485C197.808 167.9 198.364 168.452 198.806 169.108L198.857 169.184C198.907 169.258 198.943 169.342 198.964 169.432C198.984 169.521 198.989 169.615 198.977 169.706C198.965 169.798 198.937 169.886 198.895 169.966C198.852 170.045 198.796 170.115 198.73 170.17Z" fill="#E6E6E6"/>
<path d="M214.719 169.108C215.162 168.452 215.717 167.9 216.353 167.485C216.989 167.069 217.693 166.798 218.424 166.688C219.155 166.578 219.898 166.63 220.61 166.842C221.323 167.054 221.99 167.421 222.574 167.923C224.989 170 225.402 173.886 223.572 176.605C223.523 176.679 223.46 176.741 223.389 176.789C223.317 176.836 223.238 176.867 223.156 176.88C223.073 176.893 222.989 176.888 222.909 176.865C222.828 176.842 222.753 176.802 222.686 176.747C219.559 175.414 216.994 173.109 214.796 170.17C214.661 170.058 214.573 169.891 214.549 169.706C214.525 169.521 214.568 169.333 214.669 169.184L214.719 169.108Z" fill="#E6E6E6"/>
<path d="M213.935 211.273C213.82 211.344 213.737 211.463 213.701 211.603C213.665 211.743 213.681 211.893 213.745 212.02L216.593 217.683C216.656 217.81 216.763 217.904 216.889 217.944C217.015 217.983 217.15 217.965 217.264 217.894C217.378 217.823 217.462 217.705 217.498 217.564C217.533 217.424 217.518 217.274 217.454 217.147L214.606 211.484C214.542 211.357 214.435 211.264 214.309 211.224C214.184 211.185 214.049 211.202 213.935 211.273Z" fill="#E6E6E6"/>
<path d="M198.919 211.484L196.072 217.147C196.008 217.274 195.992 217.424 196.028 217.564C196.063 217.705 196.147 217.823 196.261 217.894C196.376 217.965 196.511 217.983 196.636 217.944C196.762 217.904 196.869 217.81 196.933 217.683L199.781 212.02C199.812 211.957 199.832 211.888 199.84 211.816C199.848 211.745 199.842 211.672 199.825 211.603C199.807 211.533 199.778 211.469 199.737 211.412C199.697 211.355 199.648 211.308 199.591 211.273C199.534 211.238 199.472 211.215 199.408 211.207C199.343 211.198 199.278 211.204 199.216 211.224C199.154 211.243 199.095 211.276 199.044 211.321C198.994 211.366 198.951 211.421 198.919 211.484H198.919Z" fill="#E6E6E6"/>
<path d="M217.169 219.133C218.012 219.133 218.694 218.374 218.694 217.436C218.694 216.499 218.012 215.739 217.169 215.739C216.327 215.739 215.644 216.499 215.644 217.436C215.644 218.374 216.327 219.133 217.169 219.133Z" fill="#E6E6E6"/>
<path d="M218.246 175.703C219.088 175.703 219.771 174.943 219.771 174.006C219.771 173.069 219.088 172.309 218.246 172.309C217.404 172.309 216.721 173.069 216.721 174.006C216.721 174.943 217.404 175.703 218.246 175.703Z" fill="#E6E6E6"/>
<path d="M206.673 171.71C207.515 171.71 208.198 170.95 208.198 170.012C208.198 169.075 207.515 168.315 206.673 168.315C205.831 168.315 205.148 169.075 205.148 170.012C205.148 170.95 205.831 171.71 206.673 171.71Z" fill="#E6E6E6"/>
<path d="M195.639 175.504C196.481 175.504 197.164 174.744 197.164 173.806C197.164 172.869 196.481 172.109 195.639 172.109C194.796 172.109 194.114 172.869 194.114 173.806C194.114 174.744 194.796 175.504 195.639 175.504Z" fill="#E6E6E6"/>
<path d="M196.625 219.133C197.468 219.133 198.151 218.374 198.151 217.436C198.151 216.499 197.468 215.739 196.625 215.739C195.783 215.739 195.1 216.499 195.1 217.436C195.1 218.374 195.783 219.133 196.625 219.133Z" fill="#E6E6E6"/>
<path d="M76.5195 82.3443C75.6724 82.2654 74.8222 82.2757 73.9879 82.3753C72.3452 82.5462 70.6852 82.6177 69.0199 82.5891C63.9217 82.4906 59.0129 83.8637 55.0776 86.4892C51.1423 89.1148 48.4075 92.8412 47.3099 97.0734C46.1151 95.9975 43.3628 93.9629 40.8606 95.3479C40.8224 95.37 40.8003 95.3812 40.7196 95.339C39.1964 94.5421 37.0363 86.3918 37.5111 79.4532C37.7633 75.7705 38.819 71.1412 42.4146 70.0013L42.604 69.9412L42.6659 69.7757C42.9648 68.9715 45.6732 67.8185 50.2707 67.1701C58.626 65.9916 71.1543 63.3213 77.5699 69.7361C77.9345 71.7189 79.2944 76.02 80.9673 76.6593C82.8196 77.3671 84.4194 77.978 84.5167 79.9927C84.5036 82.8445 84.2587 85.6826 83.7838 88.4864C83.2817 86.6915 82.1441 85.0507 80.5312 83.795C79.3783 82.9773 77.9784 82.4711 76.5195 82.3443Z" fill="#2F2E41"/>
</g>
<defs>
<clipPath id="clip0_1382_7919">
<rect width="300" height="282" fill="white"/>
</clipPath>
</defs>
</svg>
