<svg width="300" height="213" viewBox="0 0 300 213" fill="none" xmlns="http://www.w3.org/2000/svg">
<g clip-path="url(#clip0_1373_7588)">
<path d="M298.572 69.2735C294.434 83.6298 282.351 93.6794 269.746 102.216C267.986 103.409 266.226 104.573 264.465 105.711C264.453 105.716 264.441 105.727 264.429 105.733C264.344 105.787 264.259 105.842 264.18 105.896C263.817 106.131 263.453 106.365 263.092 106.597L263.29 106.686C263.29 106.686 263.485 106.789 263.272 106.702C263.209 106.676 263.143 106.652 263.079 106.625C255.757 103.672 248.304 100.501 242.693 94.9687C236.872 89.2237 233.47 80.2129 236.622 72.6656C237.036 71.677 237.56 70.7376 238.182 69.8651C238.438 69.4992 238.713 69.149 239 68.8054C240.739 66.6833 243.011 65.0626 245.584 64.11C248.157 63.1573 250.937 62.9072 253.638 63.3851C256.34 63.8631 258.865 65.0519 260.955 66.8294C263.044 68.6069 264.623 70.909 265.528 73.4988C266.454 64.8768 259.345 57.6547 252.503 52.3258C245.658 46.9996 237.88 41.1993 236.557 32.6252C235.818 27.8547 237.477 23.2316 240.499 19.5204C240.593 19.4076 240.686 19.295 240.782 19.1853C244.461 14.8628 249.635 12.0871 255.27 11.4127C265.766 10.3219 275.961 15.8775 283.586 23.1749C295.858 34.916 303.277 52.9504 298.572 69.2735Z" fill="#F2F2F2"/>
<path d="M278.845 50.4955C280.859 53.6294 282.405 57.0404 283.435 60.6207C284.306 63.8207 284.694 67.1329 284.585 70.4476C284.397 77.2607 282.3 83.9184 279.002 89.8483C276.45 94.3445 273.34 98.5001 269.746 102.216C267.986 103.409 266.226 104.573 264.465 105.711C264.453 105.716 264.441 105.727 264.429 105.733C264.344 105.787 264.259 105.842 264.18 105.896C263.817 106.131 263.453 106.365 263.093 106.597C263.093 106.597 263.485 106.789 263.272 106.702C263.209 106.676 263.143 106.652 263.079 106.625C263.736 101.245 263.093 95.7851 261.205 90.7041C259.316 85.6232 256.238 81.0688 252.227 77.4227C248.206 73.8321 243.394 71.2425 238.182 69.8651C238.438 69.4992 238.713 69.149 239 68.8054C241.013 69.3698 242.972 70.1111 244.854 71.0206C251.583 74.2516 257.092 79.5632 260.567 86.1691C263.685 92.1674 265.027 98.9309 264.435 105.665C264.736 105.393 265.037 105.114 265.329 104.838C270.893 99.6507 275.835 93.6961 279.18 86.8241C282.082 81.0045 283.508 74.5606 283.333 68.06C283.06 60.9719 280.236 54.4064 276.147 48.6908C271.767 42.5738 266.275 37.1618 260.411 32.4734C254.405 27.6626 247.832 23.605 240.84 20.3908C240.683 20.3172 240.559 20.1858 240.496 20.0238C240.432 19.8618 240.433 19.6815 240.499 19.5204C240.546 19.3757 240.647 19.2553 240.782 19.1853C240.852 19.1554 240.927 19.1415 241.003 19.1447C241.078 19.1479 241.152 19.1682 241.218 19.2039C242.082 19.6013 242.939 20.0041 243.789 20.4244C250.873 23.9254 257.493 28.2927 263.5 33.4261C269.301 38.3724 274.763 44.0236 278.845 50.4955Z" fill="white"/>
<path d="M263.542 202.031C260.905 203.863 258.118 205.47 255.21 206.834L254.781 206.075L250.667 198.854L250.307 198.221L248.202 194.528L248.198 194.523L241.554 182.85L238.139 176.858L248.28 169.745L252.225 178.086L254.364 182.616L263.169 201.237L263.542 202.031Z" fill="#FFB6B6"/>
<path d="M254.481 173.868L253.21 171.876L247.586 163.054C246.818 161.34 245.402 160 243.648 159.328C241.895 158.656 239.946 158.706 238.229 159.468C236.512 160.23 235.168 161.641 234.49 163.393C233.811 165.144 233.855 167.093 234.611 168.812L238.087 181.197C238.185 181.547 238.357 181.873 238.591 182.151C238.825 182.43 239.116 182.655 239.445 182.812C239.773 182.968 240.131 183.053 240.495 183.059C240.859 183.066 241.22 182.995 241.554 182.85C241.567 182.846 241.576 182.842 241.589 182.837L252.225 178.086L253.37 177.574C253.705 177.423 254.003 177.202 254.245 176.926C254.486 176.65 254.666 176.326 254.771 175.974C254.877 175.623 254.905 175.253 254.855 174.889C254.805 174.526 254.678 174.178 254.481 173.868H254.481Z" fill="#6E2F9B"/>
<path d="M244.093 152.748H218.924C218.406 152.747 217.91 152.541 217.544 152.175C217.178 151.809 216.972 151.313 216.971 150.795V139.947C216.971 136.091 218.503 132.393 221.229 129.667C223.955 126.941 227.653 125.409 231.508 125.409C235.364 125.409 239.061 126.941 241.787 129.667C244.514 132.393 246.045 136.091 246.045 139.947V150.795C246.045 151.313 245.839 151.809 245.473 152.175C245.107 152.541 244.61 152.747 244.093 152.748Z" fill="#2F2E41"/>
<path d="M223.923 174.145L220.964 180.828L220.321 182.282L209.364 207.034L209.013 207.828C206.046 206.591 203.189 205.104 200.473 203.384L200.768 202.551L209.711 177.318L211.907 171.121L216.715 172.332L223.923 174.145Z" fill="#FFB6B6"/>
<path d="M242.953 146.039C246.404 139.727 244.084 131.812 237.771 128.361C231.458 124.91 223.543 127.23 220.092 133.543C216.642 139.855 218.962 147.77 225.274 151.221C231.587 154.672 239.502 152.352 242.953 146.039Z" fill="#FFB6B6"/>
<path d="M254.229 176.944C254.041 175.228 253.7 173.532 253.21 171.876C251.732 166.891 248.908 162.41 245.047 158.927C243.629 157.654 241.789 156.951 239.883 156.953H221.532C220.213 156.949 218.915 157.284 217.762 157.925C216.61 158.566 215.64 159.491 214.947 160.613C214.254 161.735 213.86 163.016 213.802 164.334C213.745 165.651 214.026 166.962 214.619 168.14L216.715 172.332L220.964 180.828L221.983 182.863L226.527 191.954L226.887 192.675L249.951 199.019L250.051 198.798C250.138 198.602 250.224 198.412 250.307 198.221C250.432 197.93 250.558 197.648 250.675 197.361C253.002 191.846 254.099 186.938 254.364 182.616C254.483 180.725 254.438 178.828 254.229 176.944Z" fill="#6E2F9B"/>
<path d="M224.86 159.331C223.163 158.535 221.219 158.445 219.455 159.079C217.691 159.714 216.25 161.021 215.448 162.715L213.812 165.185L208.345 173.438C208.142 173.744 208.007 174.091 207.95 174.454C207.893 174.817 207.915 175.188 208.014 175.541C208.113 175.895 208.288 176.223 208.525 176.504C208.763 176.784 209.058 177.01 209.39 177.166L209.711 177.318L220.321 182.282L221.076 182.633C221.361 182.767 221.669 182.846 221.983 182.863C222.403 182.897 222.823 182.823 223.207 182.651C223.542 182.501 223.84 182.281 224.082 182.005C224.324 181.73 224.504 181.405 224.609 181.054L228.28 168.769C229.076 167.064 229.164 165.112 228.522 163.342C227.881 161.573 226.564 160.13 224.86 159.331Z" fill="#6E2F9B"/>
<path d="M246.045 139.296H228.267L228.085 136.431L227.173 139.296H224.436L224.075 133.619L222.268 139.296H216.971V139.014C216.975 135.062 218.376 131.273 220.866 128.479C223.357 125.684 226.733 124.112 230.255 124.108H232.761C236.283 124.112 239.66 125.684 242.15 128.479C244.64 131.273 246.041 135.062 246.045 139.014V139.296Z" fill="#2F2E41"/>
<path d="M250.676 197.361C250.598 197.091 250.473 196.837 250.307 196.611C249.713 195.815 249.004 195.113 248.202 194.528L248.198 194.523C245.408 192.41 239.853 189.941 229.139 189.876H229.122C228.63 189.875 228.15 190.016 227.736 190.282C227.323 190.547 226.995 190.926 226.791 191.373L226.527 191.954L224.821 195.704C224.677 196.026 224.447 196.304 224.157 196.507C222.617 197.596 217.713 201.545 215.179 209.086C215.088 209.356 215.001 209.629 214.919 209.911C225.754 213.076 237.283 212.972 248.059 209.612L248.298 208.627L250.667 198.854L250.706 198.694C250.813 198.255 250.803 197.795 250.676 197.361Z" fill="#2F2E41"/>
<path d="M235.805 13.2263H0.47126V14.1695H235.805V13.2263Z" fill="#3F3D56"/>
<path d="M8.48865 9.90616C10.0514 9.90616 11.3183 8.63927 11.3183 7.07649C11.3183 5.51371 10.0514 4.24683 8.48865 4.24683C6.92587 4.24683 5.65898 5.51371 5.65898 7.07649C5.65898 8.63927 6.92587 9.90616 8.48865 9.90616Z" fill="#3F3D56"/>
<path d="M16.6239 9.90616C18.1867 9.90616 19.4536 8.63927 19.4536 7.07649C19.4536 5.51371 18.1867 4.24683 16.6239 4.24683C15.0612 4.24683 13.7943 5.51371 13.7943 7.07649C13.7943 8.63927 15.0612 9.90616 16.6239 9.90616Z" fill="#3F3D56"/>
<path d="M24.7592 9.90616C26.322 9.90616 27.5889 8.63927 27.5889 7.07649C27.5889 5.51371 26.322 4.24683 24.7592 4.24683C23.1965 4.24683 21.9296 5.51371 21.9296 7.07649C21.9296 8.63927 23.1965 9.90616 24.7592 9.90616Z" fill="#3F3D56"/>
<path d="M184.838 67.9649H51.2713C50.8738 67.9649 50.4802 67.8866 50.1129 67.7345C49.7457 67.5824 49.412 67.3594 49.1309 67.0783C48.8498 66.7972 48.6268 66.4635 48.4747 66.0963C48.3226 65.729 48.2443 65.3354 48.2443 64.9379C48.2443 64.5404 48.3226 64.1468 48.4747 63.7795C48.6268 63.4123 48.8498 63.0786 49.1309 62.7975C49.412 62.5164 49.7457 62.2934 50.1129 62.1413C50.4802 61.9892 50.8738 61.9109 51.2713 61.9109H184.838C185.236 61.9109 185.629 61.9892 185.997 62.1413C186.364 62.2934 186.698 62.5164 186.979 62.7975C187.26 63.0786 187.483 63.4123 187.635 63.7795C187.787 64.1468 187.865 64.5404 187.865 64.9379C187.865 65.3354 187.787 65.729 187.635 66.0963C187.483 66.4635 187.26 66.7972 186.979 67.0783C186.698 67.3594 186.364 67.5824 185.997 67.7345C185.629 67.8866 185.236 67.9649 184.838 67.9649Z" fill="#CCCCCC"/>
<path d="M184.838 100.505H51.2713C50.8738 100.505 50.4802 100.427 50.1129 100.275C49.7457 100.123 49.412 99.8999 49.1309 99.6188C48.8498 99.3378 48.6268 99.0041 48.4747 98.6368C48.3226 98.2696 48.2443 97.8759 48.2443 97.4784C48.2443 97.0809 48.3226 96.6873 48.4747 96.32C48.6268 95.9528 48.8498 95.6191 49.1309 95.338C49.412 95.0569 49.7457 94.834 50.1129 94.6818C50.4802 94.5297 50.8738 94.4514 51.2713 94.4514H184.838C185.236 94.4514 185.629 94.5297 185.997 94.6818C186.364 94.834 186.698 95.0569 186.979 95.338C187.26 95.6191 187.483 95.9528 187.635 96.32C187.787 96.6873 187.865 97.0809 187.865 97.4784C187.865 97.8759 187.787 98.2696 187.635 98.6368C187.483 99.0041 187.26 99.3378 186.979 99.6188C186.698 99.8999 186.364 100.123 185.997 100.275C185.629 100.427 185.236 100.505 184.838 100.505Z" fill="#E6E6E6"/>
<path d="M184.838 112.992H51.2713C50.4685 112.992 49.6986 112.673 49.1309 112.105C48.5632 111.538 48.2443 110.768 48.2443 109.965C48.2443 109.162 48.5632 108.392 49.1309 107.824C49.6986 107.257 50.4685 106.938 51.2713 106.938H184.838C185.641 106.938 186.411 107.257 186.979 107.824C187.546 108.392 187.865 109.162 187.865 109.965C187.865 110.768 187.546 111.538 186.979 112.105C186.411 112.673 185.641 112.992 184.838 112.992Z" fill="#E6E6E6"/>
<path d="M163.082 55.1002H73.028C72.2251 55.1002 71.4552 54.7813 70.8875 54.2136C70.3199 53.6459 70.0009 52.876 70.0009 52.0732C70.0009 51.2703 70.3199 50.5004 70.8875 49.9327C71.4552 49.3651 72.2251 49.0461 73.028 49.0461H163.082C163.884 49.0461 164.654 49.3651 165.222 49.9327C165.79 50.5004 166.109 51.2703 166.109 52.0732C166.109 52.876 165.79 53.6459 165.222 54.2136C164.654 54.7813 163.884 55.1002 163.082 55.1002Z" fill="#CCCCCC"/>
<path d="M98.3598 88.0189H51.4411C51.0433 88.0193 50.6493 87.9414 50.2816 87.7895C49.914 87.6376 49.5798 87.4147 49.2984 87.1336C49.0169 86.8524 48.7936 86.5186 48.6412 86.1511C48.4889 85.7836 48.4105 85.3897 48.4105 84.9919C48.4105 84.594 48.4889 84.2001 48.6412 83.8326C48.7936 83.4651 49.0169 83.1313 49.2984 82.8502C49.5798 82.569 49.914 82.3461 50.2816 82.1942C50.6493 82.0423 51.0433 81.9644 51.4411 81.9648H98.3598C99.1627 81.9648 99.9326 82.2838 100.5 82.8514C101.068 83.4191 101.387 84.189 101.387 84.9919C101.387 85.7947 101.068 86.5646 100.5 87.1323C99.9326 87.7 99.1627 88.0189 98.3598 88.0189Z" fill="#E6E6E6"/>
<path d="M185.008 88.0189H138.089C137.692 88.0193 137.298 87.9414 136.93 87.7895C136.562 87.6376 136.228 87.4147 135.947 87.1336C135.665 86.8524 135.442 86.5186 135.29 86.1511C135.137 85.7836 135.059 85.3897 135.059 84.9919C135.059 84.594 135.137 84.2001 135.29 83.8326C135.442 83.4651 135.665 83.1313 135.947 82.8502C136.228 82.569 136.562 82.3461 136.93 82.1942C137.298 82.0423 137.692 81.9644 138.089 81.9648H185.008C185.406 81.9644 185.8 82.0423 186.168 82.1942C186.535 82.3461 186.869 82.569 187.151 82.8502C187.432 83.1313 187.656 83.4651 187.808 83.8326C187.96 84.2001 188.039 84.594 188.039 84.9919C188.039 85.3897 187.96 85.7836 187.808 86.1511C187.656 86.5186 187.432 86.8524 187.151 87.1336C186.869 87.4147 186.535 87.6376 186.168 87.7895C185.8 87.9414 185.406 88.0193 185.008 88.0189Z" fill="#E6E6E6"/>
<path d="M232.975 0H3.29801C2.42298 0.00133119 1.58424 0.349818 0.965909 0.968955C0.347577 1.58809 0.000192117 2.42728 0 3.3023V158.936C0.00110236 159.81 0.348921 160.648 0.96718 161.267C1.58544 161.885 2.42366 162.233 3.29801 162.234H175.048C175.005 161.921 174.97 161.605 174.935 161.292H3.29801C2.67324 161.292 2.07422 161.043 1.63244 160.601C1.19065 160.16 0.942196 159.561 0.941621 158.936V3.3023C0.942028 2.67708 1.19029 2.07753 1.63199 1.63503C2.07368 1.19254 2.67279 0.943192 3.29801 0.941655H232.975C233.601 0.942308 234.201 1.19123 234.643 1.63379C235.086 2.07636 235.335 2.67642 235.336 3.3023V98.6872C235.648 98.7089 235.965 98.7349 236.277 98.7653V3.3023C236.277 2.42659 235.929 1.58687 235.31 0.967657C234.69 0.348447 233.851 0.000402445 232.975 0Z" fill="#3F3D56"/>
<path d="M175.048 162.234C175.005 161.921 174.97 161.605 174.935 161.292C174.927 161.244 174.922 161.201 174.918 161.153C174.792 160.012 174.701 158.859 174.645 157.695C174.406 158.697 174.19 159.704 173.998 160.715C174.011 160.863 174.024 161.006 174.041 161.153C174.046 161.201 174.05 161.244 174.059 161.292C174.093 161.605 174.128 161.921 174.172 162.234C174.293 163.201 174.441 164.156 174.614 165.107C174.618 165.067 174.623 165.033 174.627 164.994C174.749 164.078 174.888 163.167 175.052 162.256C175.049 162.249 175.047 162.241 175.048 162.234ZM236.277 97.8932C235.965 97.8628 235.648 97.8367 235.336 97.815C235.288 97.8107 235.244 97.8107 235.197 97.8064C233.808 97.7022 232.402 97.6501 230.988 97.6501C222.978 97.6526 215.058 99.3343 207.739 102.587C200.42 105.839 193.863 110.589 188.493 116.532C183.123 122.474 179.059 129.477 176.562 137.087C174.065 144.697 173.192 152.746 173.998 160.715C174.011 160.863 174.024 161.006 174.041 161.153C174.046 161.201 174.05 161.244 174.059 161.292C174.093 161.605 174.128 161.921 174.172 162.234C174.293 163.201 174.441 164.156 174.614 165.107C176.338 174.528 180.387 183.37 186.394 190.831C192.401 198.291 200.176 204.133 209.013 207.828C209.915 208.201 210.827 208.557 211.751 208.883C212.358 209.104 212.966 209.308 213.582 209.503C214.025 209.646 214.472 209.781 214.919 209.911C215.552 210.098 216.194 210.276 216.841 210.44C224.773 212.475 233.049 212.777 241.108 211.326C249.167 209.875 256.818 206.705 263.542 202.031H263.546C271.171 196.766 277.404 189.73 281.71 181.526C286.016 173.322 288.266 164.196 288.268 154.931C288.268 125.127 265.391 100.571 236.277 97.8932ZM263.169 201.237C260.517 203.088 257.711 204.707 254.781 206.075C252.675 207.06 250.51 207.913 248.298 208.627C238.315 211.839 227.635 212.21 217.453 209.698C216.689 209.512 215.931 209.308 215.179 209.087C214.437 208.87 213.702 208.64 212.975 208.397C212.38 208.193 211.786 207.984 211.195 207.763C210.579 207.529 209.972 207.286 209.364 207.034C200.226 203.226 192.248 197.086 186.227 189.228C180.206 181.37 176.352 172.069 175.052 162.256C175.049 162.249 175.047 162.241 175.048 162.234C175.005 161.921 174.97 161.605 174.935 161.292C174.927 161.244 174.922 161.201 174.918 161.153C174.792 160.012 174.701 158.859 174.645 157.695C174.597 156.779 174.574 155.858 174.575 154.931C174.591 139.974 180.54 125.635 191.116 115.059C201.692 104.483 216.031 98.5344 230.988 98.518C232.402 98.518 233.808 98.5701 235.197 98.6742C235.245 98.6786 235.288 98.6829 235.336 98.6873C235.648 98.709 235.965 98.735 236.278 98.7654C264.913 101.438 287.4 125.605 287.4 154.931C287.399 164.032 285.194 172.997 280.975 181.061C276.755 189.125 270.646 196.047 263.169 201.237ZM211.195 207.763C210.579 207.529 209.972 207.286 209.364 207.034C200.226 203.226 192.248 197.086 186.227 189.228C180.206 181.37 176.352 172.069 175.052 162.256C174.888 163.167 174.749 164.078 174.627 164.994C174.623 165.033 174.618 165.067 174.614 165.107C176.338 174.528 180.388 183.37 186.394 190.831C192.401 198.291 200.176 204.133 209.013 207.828C209.915 208.201 210.827 208.557 211.751 208.883C211.56 208.514 211.373 208.141 211.195 207.763ZM235.197 97.8064C233.808 97.7022 232.402 97.6501 230.988 97.6501C222.978 97.6526 215.058 99.3343 207.739 102.587C200.42 105.839 193.863 110.589 188.493 116.532C183.123 122.474 179.059 129.477 176.562 137.087C174.065 144.697 173.192 152.746 173.998 160.715C174.011 160.863 174.024 161.006 174.041 161.153C174.046 161.201 174.05 161.244 174.059 161.292H174.935C174.926 161.244 174.922 161.201 174.918 161.153C174.792 160.012 174.701 158.859 174.644 157.695C174.597 156.779 174.574 155.858 174.575 154.931C174.591 139.974 180.54 125.635 191.116 115.059C201.692 104.483 216.031 98.5344 230.987 98.518C232.402 98.518 233.808 98.5701 235.197 98.6742C235.244 98.6786 235.288 98.6829 235.336 98.6873V97.815C235.288 97.8107 235.245 97.8107 235.197 97.8064H235.197Z" fill="#3F3D56"/>
<path d="M277.547 112.312C295.141 112.612 295.138 138.782 277.547 139.08C259.953 138.78 259.956 112.609 277.547 112.312Z" fill="#6E2F9B"/>
<path d="M277.547 132.984C277.298 132.984 277.059 132.884 276.883 132.708C276.706 132.532 276.607 132.293 276.607 132.043V127.056C276.607 126.945 276.562 126.838 276.484 126.76C276.405 126.681 276.299 126.637 276.188 126.637H271.2C270.951 126.637 270.711 126.538 270.535 126.361C270.359 126.185 270.26 125.945 270.26 125.696C270.26 125.446 270.359 125.207 270.535 125.031C270.711 124.854 270.951 124.755 271.2 124.755H276.188C276.299 124.755 276.405 124.711 276.484 124.632C276.562 124.554 276.607 124.447 276.607 124.336V119.349C276.607 119.099 276.706 118.86 276.882 118.683C277.059 118.507 277.298 118.408 277.547 118.408C277.797 118.408 278.036 118.507 278.212 118.683C278.389 118.86 278.488 119.099 278.488 119.349V124.336C278.488 124.447 278.532 124.554 278.611 124.632C278.689 124.711 278.796 124.755 278.907 124.755H283.894C284.144 124.755 284.383 124.854 284.559 125.031C284.736 125.207 284.835 125.446 284.835 125.696C284.835 125.945 284.736 126.185 284.559 126.361C284.383 126.537 284.144 126.637 283.894 126.637H278.907C278.796 126.637 278.689 126.681 278.611 126.76C278.532 126.838 278.488 126.945 278.488 127.056V132.043C278.488 132.293 278.388 132.532 278.212 132.708C278.036 132.884 277.797 132.983 277.547 132.984Z" fill="white"/>
</g>
<defs>
<clipPath id="clip0_1373_7588">
<rect width="300" height="213" fill="white"/>
</clipPath>
</defs>
</svg>
