<svg width="300" height="282" viewBox="0 0 300 282" fill="none" xmlns="http://www.w3.org/2000/svg">
<g clip-path="url(#clip0_1723_8810)">
<path d="M273.69 269.784C273.37 269.798 273.052 269.717 272.781 269.55C272.51 269.383 272.298 269.139 272.174 268.851C272.05 268.563 272.02 268.245 272.089 267.94C272.157 267.636 272.32 267.358 272.556 267.147L272.663 266.732C272.649 266.699 272.635 266.666 272.62 266.633C272.297 265.891 271.756 265.259 271.065 264.815C270.373 264.371 269.562 264.136 268.734 264.139C267.905 264.142 267.096 264.383 266.408 264.832C265.72 265.28 265.183 265.917 264.866 266.661C263.598 269.63 261.983 272.604 261.585 275.744C261.41 277.132 261.484 278.539 261.804 279.902C258.825 273.585 257.278 266.72 257.268 259.771C257.268 258.027 257.367 256.285 257.567 254.552C257.731 253.131 257.96 251.721 258.253 250.32C259.849 242.722 263.277 235.6 268.255 229.54C270.664 228.262 272.613 226.297 273.838 223.909C274.281 223.051 274.595 222.135 274.769 221.189C274.497 221.224 273.744 217.2 273.949 216.954C273.57 216.395 272.892 216.117 272.479 215.572C270.422 212.861 267.587 213.334 266.108 217.019C262.947 218.569 262.916 221.141 264.856 223.615C266.09 225.189 266.259 227.318 267.342 229.003C267.23 229.141 267.114 229.276 267.003 229.414C264.967 231.959 263.192 234.692 261.705 237.574C262.066 234.346 261.635 231.08 260.445 228.046C259.239 225.218 256.979 222.836 254.988 220.391C252.597 217.454 247.695 218.736 247.273 222.459C247.269 222.495 247.265 222.531 247.261 222.567C247.557 222.729 247.846 222.901 248.13 223.083C248.485 223.314 248.761 223.644 248.92 224.03C249.08 224.416 249.116 224.84 249.023 225.246C248.931 225.652 248.714 226.021 248.402 226.306C248.09 226.59 247.696 226.776 247.274 226.839L247.23 226.846C247.336 227.882 247.522 228.908 247.787 229.917C245.234 239.516 250.747 243.013 258.618 243.17C258.792 243.256 258.961 243.343 259.135 243.425C257.64 247.543 256.703 251.832 256.346 256.185C256.144 258.753 256.156 261.332 256.382 263.898L256.368 263.807C255.798 260.954 254.232 258.379 251.935 256.518C248.524 253.794 243.704 252.791 240.023 250.601C239.632 250.357 239.177 250.227 238.713 250.225C238.248 250.224 237.792 250.352 237.4 250.595C237.008 250.837 236.695 251.183 236.498 251.593C236.302 252.002 236.23 252.458 236.291 252.906C236.296 252.938 236.301 252.97 236.306 253.001C236.854 253.219 237.389 253.469 237.905 253.751C238.201 253.913 238.49 254.085 238.773 254.267C239.129 254.498 239.405 254.828 239.564 255.214C239.724 255.6 239.759 256.024 239.667 256.43C239.574 256.836 239.358 257.205 239.046 257.49C238.733 257.774 238.34 257.96 237.917 258.023L237.874 258.03C237.843 258.034 237.816 258.038 237.785 258.043C238.722 260.219 240.038 262.221 241.674 263.963C243.271 272.344 250.129 273.139 257.464 270.698H257.469C258.274 274.098 259.44 277.408 260.948 280.573H273.379C273.423 280.439 273.463 280.3 273.504 280.166C272.353 280.236 271.198 280.169 270.064 279.967C270.986 278.867 271.908 277.758 272.831 276.658C272.851 276.637 272.871 276.616 272.889 276.593C273.356 276.03 273.829 275.471 274.297 274.908L274.297 274.907C274.322 273.182 274.118 271.46 273.691 269.784L273.69 269.784Z" fill="#F2F2F2"/>
<path d="M252.978 162.331C256.273 150.703 262.418 140.8 272.34 133.181C272.733 132.591 273.35 132.177 274.056 132.029C274.762 131.882 275.5 132.012 276.107 132.392L298.754 146.607C299.361 146.989 299.787 147.588 299.939 148.275C300.091 148.962 299.956 149.679 299.565 150.269L280.204 179.42C279.811 180.009 279.194 180.423 278.488 180.571C277.781 180.719 277.044 180.588 276.436 180.208L253.79 165.994C253.183 165.612 252.757 165.012 252.605 164.326C252.453 163.639 252.587 162.922 252.978 162.331Z" fill="#F2F2F2"/>
<path d="M260.564 154.617C261.413 148.473 266.641 142.193 273.011 135.876C273.379 135.324 273.957 134.936 274.618 134.798C275.28 134.66 275.971 134.782 276.539 135.138L296.002 147.354C296.57 147.712 296.969 148.273 297.112 148.916C297.254 149.559 297.128 150.231 296.762 150.784L279.533 176.724C279.165 177.276 278.587 177.664 277.926 177.802C277.264 177.941 276.573 177.819 276.005 177.462L263.948 169.895C261.418 168.303 259.64 165.8 259.006 162.936C258.372 160.072 258.932 157.08 260.564 154.617Z" fill="white"/>
<path d="M262.3 179.667C259.426 167.934 259.905 156.378 264.826 145.056C264.878 144.355 265.214 143.703 265.759 143.243C266.305 142.783 267.016 142.552 267.737 142.601L294.627 144.456C295.347 144.506 296.018 144.832 296.491 145.363C296.965 145.893 297.202 146.585 297.152 147.285L294.625 181.897C294.573 182.598 294.238 183.249 293.692 183.71C293.146 184.17 292.435 184.401 291.714 184.352L264.825 182.497C264.104 182.447 263.434 182.12 262.96 181.59C262.487 181.059 262.249 180.368 262.3 179.667Z" fill="#F2F2F2"/>
<path d="M265.126 169.355C262.826 163.574 264.297 155.622 266.75 147.104C266.799 146.448 267.113 145.837 267.625 145.406C268.136 144.975 268.802 144.759 269.477 144.805L292.586 146.399C293.261 146.446 293.889 146.752 294.332 147.249C294.776 147.745 294.998 148.393 294.951 149.049L292.703 179.849C292.654 180.505 292.34 181.115 291.829 181.546C291.318 181.977 290.651 182.194 289.977 182.148L275.661 181.16C272.655 180.95 269.857 179.588 267.883 177.375C265.908 175.162 264.916 172.278 265.126 169.355Z" fill="white"/>
<path d="M264.619 107.235L253.099 65.7867C252.606 64.032 251.423 62.5363 249.805 61.6223C248.187 60.7083 246.264 60.4493 244.452 60.9011C243.514 61.1349 242.635 61.5518 241.869 62.1266C241.102 62.7013 240.464 63.4217 239.993 64.244C239.523 65.0662 239.229 65.9731 239.131 66.9092C239.032 67.8454 239.131 68.7912 239.421 69.689L252.745 112.387L259.716 138.664C258.701 139.418 257.949 140.457 257.562 141.641C257.175 142.824 257.173 144.095 257.555 145.28C257.937 146.465 258.685 147.507 259.698 148.264C260.71 149.021 261.938 149.457 263.214 149.512C264.49 149.568 265.753 149.24 266.831 148.573C267.908 147.907 268.749 146.934 269.238 145.787C269.727 144.639 269.841 143.374 269.565 142.161C269.288 140.949 268.634 139.849 267.692 139.01L264.619 107.235Z" fill="#FFB6B6"/>
<path d="M181.54 114.406L193.354 73.0354C193.849 71.2812 193.615 69.4081 192.702 67.8203C191.789 66.2325 190.27 65.0573 188.474 64.5483C187.544 64.285 186.569 64.2084 185.609 64.3232C184.648 64.4381 183.721 64.7419 182.885 65.2163C182.049 65.6906 181.321 66.3255 180.746 67.0823C180.171 67.839 179.76 68.7017 179.538 69.6178L168.622 112.957L160.847 139.02C159.579 139.166 158.387 139.687 157.434 140.514C156.481 141.341 155.813 142.433 155.521 143.642C155.228 144.851 155.326 146.118 155.8 147.271C156.274 148.424 157.102 149.407 158.171 150.087C159.24 150.767 160.499 151.11 161.775 151.07C163.052 151.031 164.285 150.61 165.308 149.865C166.33 149.12 167.091 148.088 167.489 146.908C167.886 145.727 167.9 144.457 167.529 143.269L181.54 114.406Z" fill="#FFB6B6"/>
<path d="M249.144 273.321L241.616 273.321L238.035 245.095L249.145 245.095L249.144 273.321Z" fill="#FFB6B6"/>
<path d="M249.409 280.956L226.26 280.955V280.67C226.26 278.347 227.209 276.119 228.899 274.477C230.589 272.834 232.88 271.911 235.27 271.911H235.271L239.499 268.793L247.388 271.912L249.409 271.912L249.409 280.956Z" fill="#2F2E41"/>
<path d="M196.169 273.395L188.758 272.11L190.329 243.71L201.267 245.607L196.169 273.395Z" fill="#FFB6B6"/>
<path d="M195.051 280.956L172.262 277.005L172.313 276.724C172.733 274.438 174.07 272.406 176.03 271.078C177.99 269.749 180.412 269.232 182.765 269.639L182.766 269.639L187.491 267.291L194.695 271.707L196.684 272.052L195.051 280.956Z" fill="#2F2E41"/>
<path d="M196.903 143.542C196.903 143.542 189.887 153.201 190.173 156.443C190.459 159.685 192.937 157.099 190.459 159.685C187.981 162.271 186.538 160.536 187.755 163.731C188.972 166.926 189.468 164.857 188.972 166.926C188.477 168.995 189.468 248.127 189.468 248.127H202.369C202.369 248.127 209.644 202.243 208.723 200.1C207.802 197.958 207.824 198.891 208.804 196.614C209.784 194.338 210.707 191.63 210.707 191.63L220.905 163.731L228.771 203.012L238.03 249.689H250.393C250.393 249.689 252.51 181.049 253.446 180.194C254.382 179.339 253.262 177.417 252.088 176.309C250.913 175.201 251.147 174.076 251.526 171.794C251.904 169.512 253.501 168.239 253.446 166.807C253.391 165.374 256.86 142.617 251.409 138.997C245.958 135.376 196.903 143.542 196.903 143.542Z" fill="#2F2E41"/>
<path d="M240.039 47.3204L225.608 43.6852L218.871 34.6534L202.874 36.5652L199.468 48.8847L188.079 55.3112C208.495 55.4299 197.501 112.927 200.501 116.637C202.943 119.656 188.313 126.838 192.898 131.419C197.483 136 195.788 134.167 194.724 139.155C193.66 144.142 185.904 149.421 194.724 149.368C203.544 149.316 256.765 148.577 255.245 142.664C253.724 136.751 253.748 138.253 251.455 134.546C249.162 130.839 247.619 132.91 248.391 127.44C249.162 121.969 246.656 117.738 248.402 115.318C251.082 111.602 248.381 84.78 245.855 85.496L240.039 47.3204Z" fill="#E6E6E6"/>
<path d="M235.919 47.5121C235.919 47.5121 246.475 43.1526 250.277 51.2827C251.491 53.8794 252.513 60.4017 253.498 58.9554C254.483 57.509 253.533 60.6798 254.143 60.6837C254.687 60.6872 255.524 59.8314 254.891 62.7798C254.693 63.7469 254.75 64.7471 255.057 65.687C255.364 66.6269 255.911 67.476 256.646 68.155L238.299 78.8368L235.919 47.5121Z" fill="#E6E6E6"/>
<path d="M196.257 54.9031C196.257 54.9031 185.701 50.5436 181.9 58.6737C180.83 60.9602 181.096 66.0408 179.014 65.4704C176.933 64.9 178.411 67.0491 178.136 67.7957C177.83 68.6278 179.166 70.9827 177.289 70.1586C175.412 69.3346 175.53 75.546 175.53 75.546L193.877 86.2278L196.257 54.9031Z" fill="#E6E6E6"/>
<path d="M201.262 42.727L198.221 47.9007C198.221 47.9007 189.858 52.3353 189.858 53.0744C189.858 53.8135 191.378 59.8485 189.858 64.5916C188.337 69.3346 192.76 78.2545 193.659 85.5948C197.461 116.637 186.156 127.916 183.775 147.679L207.902 154.529C207.902 154.529 211.907 102.594 211.907 90.7685C211.907 78.9429 201.262 42.727 201.262 42.727Z" fill="#2F2E41"/>
<path d="M223.31 40.5097L229.526 43.9462C229.526 43.9462 237.659 45.6895 237.756 46.4225C237.853 47.1555 237.882 54.9464 240.013 59.4618C242.145 63.9772 241.558 66.3782 247.298 79.7265C250.231 86.5467 256.964 141.113 256.964 141.113L233.935 150.903C233.935 150.903 223.139 99.8908 221.585 88.1621C220.031 76.4334 223.31 40.5097 223.31 40.5097Z" fill="#2F2E41"/>
<path d="M151.037 8.13071H10.1148C7.43385 8.13288 4.86324 9.16878 2.96699 11.0111C1.07073 12.8535 0.00371002 15.3518 0 17.958V141.398C0.0034863 144.005 1.07027 146.504 2.96641 148.348C4.86255 150.191 7.43327 151.228 10.1148 151.231H151.037C153.718 151.228 156.288 150.19 158.183 148.347C160.078 146.504 161.144 144.005 161.146 141.398V17.958C161.143 15.3524 160.078 12.8542 158.182 11.0117C156.287 9.16923 153.717 8.13309 151.037 8.13071Z" fill="white"/>
<path d="M86.6478 36.4623H71.5927C70.8533 36.4623 70.1441 36.1767 69.6213 35.6685C69.0984 35.1602 68.8047 34.4708 68.8047 33.752C68.8047 33.0332 69.0984 32.3439 69.6213 31.8356C70.1441 31.3273 70.8533 31.0418 71.5927 31.0418H86.6478C87.3873 31.0418 88.0964 31.3273 88.6192 31.8356C89.1421 32.3439 89.4358 33.0332 89.4358 33.752C89.4358 34.4708 89.1421 35.1602 88.6192 35.6685C88.0964 36.1767 87.3873 36.4623 86.6478 36.4623Z" fill="#6E2F9B"/>
<path d="M286.268 160.988H271.213C270.473 160.988 269.764 160.702 269.241 160.194C268.719 159.686 268.425 158.997 268.425 158.278C268.425 157.559 268.719 156.87 269.241 156.361C269.764 155.853 270.473 155.568 271.213 155.568H286.268C287.007 155.568 287.717 155.853 288.239 156.361C288.762 156.87 289.056 157.559 289.056 158.278C289.056 158.997 288.762 159.686 288.239 160.194C287.717 160.702 287.007 160.988 286.268 160.988Z" fill="#6E2F9B"/>
<path d="M125.679 93.2321H32.5605C31.821 93.2321 31.1119 92.9466 30.589 92.4383C30.0662 91.93 29.7725 91.2407 29.7725 90.5219C29.7725 89.8031 30.0662 89.1137 30.589 88.6054C31.1119 88.0972 31.821 87.8116 32.5605 87.8116H125.679C126.419 87.8116 127.128 88.0972 127.651 88.6054C128.174 89.1137 128.467 89.8031 128.467 90.5219C128.467 91.2407 128.174 91.93 127.651 92.4383C127.128 92.9466 126.419 93.2321 125.679 93.2321Z" fill="#E6E6E6"/>
<path d="M125.679 111.12H32.5605C31.821 111.12 31.1119 110.834 30.589 110.326C30.0662 109.818 29.7725 109.128 29.7725 108.409C29.7725 107.691 30.0662 107.001 30.589 106.493C31.1119 105.985 31.821 105.699 32.5605 105.699H125.679C126.419 105.699 127.128 105.985 127.651 106.493C128.174 107.001 128.467 107.691 128.467 108.409C128.467 109.128 128.174 109.818 127.651 110.326C127.128 110.834 126.419 111.12 125.679 111.12Z" fill="#E6E6E6"/>
<path d="M125.679 129.007H32.5605C31.821 129.007 31.1119 128.722 30.589 128.213C30.0662 127.705 29.7725 127.016 29.7725 126.297C29.7725 125.578 30.0662 124.889 30.589 124.381C31.1119 123.872 31.821 123.587 32.5605 123.587H125.679C126.419 123.587 127.128 123.872 127.651 124.381C128.174 124.889 128.467 125.578 128.467 126.297C128.467 127.016 128.174 127.705 127.651 128.213C127.128 128.722 126.419 129.007 125.679 129.007Z" fill="#E6E6E6"/>
<path d="M106.646 44.5942H51.5943C48.9133 44.5963 46.3428 45.6323 44.4465 47.4746C42.5502 49.317 41.4832 51.8153 41.4795 54.4215V70.5366C41.483 73.1433 42.5498 75.6424 44.4459 77.4856C46.342 79.3289 48.9128 80.3659 51.5943 80.3693H106.646C109.327 80.3657 111.897 79.3284 113.792 77.4851C115.687 75.6417 116.753 73.1428 116.755 70.5366V54.4215C116.753 51.8159 115.687 49.3176 113.792 47.4752C111.896 45.6327 109.326 44.5966 106.646 44.5942ZM115.64 70.5366C115.64 72.8568 114.692 75.0821 113.004 76.7228C111.316 78.3635 109.027 79.2852 106.64 79.2852H67.1219C60.6169 79.2852 54.3783 76.7732 49.7785 72.3017C45.1788 67.8303 42.5947 61.7656 42.5947 55.4421V54.4215C42.5985 52.1028 43.548 49.8803 45.2351 48.2413C46.9222 46.6022 49.2091 45.6805 51.5943 45.6783H106.646C109.031 45.6807 111.317 46.6027 113.003 48.2418C114.689 49.881 115.638 52.1034 115.64 54.4215V70.5366Z" fill="#E6E6E6"/>
<path d="M79.737 68.298C84.9722 68.298 89.2161 64.1724 89.2161 59.0832C89.2161 53.994 84.9722 49.8683 79.737 49.8683C74.5018 49.8683 70.2578 53.994 70.2578 59.0832C70.2578 64.1724 74.5018 68.298 79.737 68.298Z" fill="#E6E6E6"/>
<path d="M101.544 80.3693L59.1055 80.223L72.4878 76.9707L74.155 71.6207L86.9854 71.5502L90.8272 76.8406L100.529 79.2853L101.41 79.5075L101.544 80.3693Z" fill="#E6E6E6"/>
<path d="M74.3497 64.9666C76.3838 63.4209 73.6032 56.6216 76.9624 58.0729C76.9624 58.0729 81.0679 55.5331 81.8928 57.2021C82.8479 59.1347 86.2447 58.2579 88.3311 57.5758C88.1671 57.2053 88.0506 56.8166 87.984 56.4184C88.3692 56.7134 88.7772 56.979 89.2045 57.213C89.491 57.0641 89.7447 56.862 89.951 56.6179C90.1545 56.3914 90.2818 56.1096 90.3159 55.8106C90.3499 55.5116 90.289 55.2097 90.1413 54.9453C89.7942 54.4265 89.0776 54.2668 88.6558 53.806C88.6071 53.7412 88.5753 53.6659 88.5631 53.5865C88.5509 53.5071 88.5587 53.4261 88.5858 53.3502C88.6361 53.1648 88.6436 52.971 88.608 52.7824C88.5724 52.5938 88.4944 52.4152 88.3797 52.2593C88.2649 52.1034 88.1162 51.9739 87.9441 51.8803C87.772 51.7866 87.5808 51.731 87.384 51.7174C87.3049 51.7197 87.2264 51.7031 87.1554 51.669C86.8014 51.4583 86.4743 51.2074 86.1813 50.9216C86.6702 50.9433 86.0723 48.0339 81.2247 48.585C80.0043 48.5414 79.3669 49.8499 78.1651 50.0567C75.2519 48.4385 72.6515 50.7728 71.3862 53.0042C70.1209 55.2356 68.7512 62.4268 74.3497 64.9666Z" fill="#E6E6E6"/>
<path d="M151.037 8.13071H10.1148C7.43385 8.13288 4.86324 9.16878 2.96699 11.0111C1.07073 12.8535 0.00371002 15.3518 0 17.958V141.398C0.0034863 144.005 1.07027 146.504 2.96641 148.348C4.86255 150.191 7.43327 151.228 10.1148 151.231H151.037C153.718 151.228 156.288 150.19 158.183 148.347C160.078 146.504 161.144 144.005 161.146 141.398V17.958C161.143 15.3524 160.078 12.8542 158.182 11.0117C156.287 9.16923 153.717 8.13309 151.037 8.13071ZM160.031 141.398C160.031 143.719 159.082 145.944 157.395 147.585C155.707 149.225 153.418 150.147 151.031 150.147H73.7149C64.181 150.147 54.7404 148.322 45.9322 144.775C37.124 141.228 29.1207 136.03 22.3792 129.476C15.6376 122.923 10.29 115.143 6.64151 106.58C2.99303 98.0174 1.11519 88.8401 1.1152 79.5721V17.958C1.11899 15.6394 2.06856 13.4168 3.75565 11.7778C5.44275 10.1388 7.72965 9.21705 10.1148 9.2148H151.037C153.421 9.21727 155.707 10.1392 157.394 11.7784C159.08 13.4175 160.028 15.6399 160.031 17.958V141.398Z" fill="#E6E6E6"/>
<path d="M298.263 281.833L122.42 282C122.245 281.999 122.077 281.931 121.953 281.81C121.829 281.689 121.76 281.525 121.76 281.355C121.76 281.184 121.829 281.02 121.953 280.899C122.077 280.778 122.245 280.71 122.42 280.709L298.263 280.543C298.439 280.544 298.607 280.612 298.73 280.733C298.854 280.854 298.924 281.017 298.924 281.188C298.924 281.359 298.854 281.522 298.73 281.643C298.607 281.764 298.439 281.833 298.263 281.833Z" fill="#CACACA"/>
<path d="M207.77 33.463C216.452 33.463 223.491 26.6208 223.491 18.1806C223.491 9.74033 216.452 2.89816 207.77 2.89816C199.087 2.89816 192.049 9.74033 192.049 18.1806C192.049 26.6208 199.087 33.463 207.77 33.463Z" fill="#FFB6B6"/>
<path d="M195.929 16.8283C196.471 16.5939 197.036 16.4137 197.611 16.2917C198.739 16.036 199.854 15.7156 200.949 15.3326C204.297 14.1532 207.872 13.9186 211.102 14.6664C214.332 15.4142 217.03 17.1013 218.766 19.458C219.3 18.5354 220.635 16.6826 222.621 16.9835C222.651 16.9887 222.668 16.9907 222.712 16.9471C223.529 16.1237 223.013 10.647 221.043 6.49238C219.997 4.28733 218.194 1.67762 215.543 1.76708L215.404 1.7718L215.323 1.68378C214.934 1.25578 212.867 1.14253 209.671 1.75354C203.863 2.86401 194.938 3.97465 192.225 9.32002C192.457 10.617 192.584 13.5555 191.63 14.3151C190.574 15.156 189.661 15.8821 190.078 17.14C190.767 18.8876 191.607 20.5758 192.59 22.1925C192.494 20.9806 192.855 19.7238 193.622 18.5991C194.189 17.8443 194.994 17.2263 195.929 16.8283Z" fill="#2F2E41"/>
</g>
<defs>
<clipPath id="clip0_1723_8810">
<rect width="300" height="282" fill="white"/>
</clipPath>
</defs>
</svg>
