<svg width="300" height="282" viewBox="0 0 300 282" fill="none" xmlns="http://www.w3.org/2000/svg">
<g clip-path="url(#clip0_2613_13039)">
<path d="M145.305 88.5858L143.311 88.5868L118.748 88.6L116.754 88.601C115.786 88.6028 114.858 89.0318 114.174 89.7939C113.49 90.556 113.105 91.5891 113.105 92.6664L113.121 129.976C113.122 131.053 113.508 132.085 114.193 132.847C114.878 133.608 115.806 134.036 116.774 134.037L116.779 134.037L145.319 134.022L145.325 134.022C146.293 134.02 147.22 133.591 147.905 132.829C148.589 132.067 148.973 131.034 148.974 129.956L148.958 92.6472C148.956 91.5699 148.571 90.5373 147.886 89.7759C147.201 89.0145 146.273 88.5865 145.305 88.5858Z" fill="#E6E6E6"/>
<path d="M145.306 89.7555L142.944 89.7568L119.116 89.7696L116.755 89.7708C116.066 89.772 115.405 90.0775 114.918 90.6203C114.43 91.163 114.156 91.8987 114.156 92.6658L114.172 129.975C114.173 130.742 114.448 131.478 114.935 132.02C115.423 132.562 116.084 132.867 116.774 132.867L116.779 132.867L145.319 132.852L145.324 132.852C146.014 132.851 146.674 132.545 147.161 132.002C147.649 131.46 147.923 130.724 147.923 129.957L147.907 92.6477C147.906 91.8806 147.631 91.1452 147.144 90.603C146.656 90.0608 145.995 89.756 145.306 89.7555Z" fill="white"/>
<path d="M141.846 98.188C141.845 98.0085 141.781 97.8366 141.667 97.7097C141.553 97.5828 141.398 97.5111 141.237 97.5102L140.285 97.5125L130.592 97.5174C130.431 97.5184 130.277 97.5903 130.163 97.7173C130.05 97.8443 129.986 98.0161 129.986 98.1952C129.986 98.3742 130.05 98.546 130.163 98.673C130.277 98.8 130.431 98.8719 130.591 98.8729L141.237 98.8658C141.398 98.8649 141.553 98.7932 141.667 98.6663C141.781 98.5393 141.845 98.3675 141.846 98.188Z" fill="#E6E6E6"/>
<path d="M131.326 217.992C129.876 218.564 128.311 218.83 126.74 218.773C125.168 218.715 123.63 218.335 122.232 217.658C120.834 216.982 119.611 216.027 118.65 214.859C117.688 213.691 117.011 212.34 116.666 210.9L78.6855 206.862L91.417 192.552L125.532 198.58C128.148 198.196 130.822 198.727 133.049 200.07C135.276 201.414 136.901 203.478 137.615 205.871C138.329 208.263 138.084 210.819 136.924 213.053C135.765 215.287 133.773 217.045 131.326 217.992L131.326 217.992Z" fill="#FFB8B8"/>
<path d="M110.849 191.504L94.7959 188.811L93.6302 188.616C92.6986 188.46 91.8127 188.12 91.0308 187.62C90.2488 187.119 89.5886 186.469 89.0933 185.712C88.598 184.955 88.279 184.109 88.1571 183.228C88.0353 182.347 88.1134 181.452 88.3863 180.601L96.2686 156.017L96.5046 155.286C97.4888 152.162 97.3136 148.816 96.0076 145.797C94.7017 142.778 92.3424 140.264 89.316 138.668C87.2675 137.6 84.9841 136.991 82.6436 136.886C80.3031 136.782 77.9684 137.185 75.8211 138.066C73.6739 138.946 71.772 140.279 70.2632 141.962C68.7545 143.645 67.6796 145.632 67.1222 147.768L57.0686 186.281L56.6957 187.708C55.9935 190.395 55.9169 193.193 56.4712 195.91C57.0254 198.628 58.1975 201.201 59.9075 203.455C61.6175 205.709 63.8252 207.59 66.3801 208.971C68.9349 210.351 71.7769 211.198 74.7121 211.454C74.7451 211.459 74.7735 211.459 74.8066 211.463L80.8247 211.964L88.6315 212.615L98.4494 213.435L107.611 214.201C108.811 214.303 110.008 213.978 110.965 213.29C111.921 212.603 112.567 211.603 112.775 210.488C112.789 210.426 112.798 210.364 112.808 210.302L114.753 196.675L114.771 196.551C114.939 195.397 114.624 194.227 113.893 193.286C113.162 192.345 112.071 191.707 110.849 191.504Z" fill="#CCCCCC"/>
<path d="M102.192 242.954L101.611 237.513L101.177 237.536L24.8584 240.987L25.0566 246.494L25.3919 255.926C37.2011 264.369 50.3152 271.07 64.2804 275.796L64.7762 272.19C64.8195 271.896 64.9697 271.625 65.2013 271.423C65.4329 271.221 65.7318 271.101 66.0472 271.082C66.3626 271.063 66.6753 271.147 66.9322 271.32C67.1892 271.493 67.3746 271.744 67.457 272.03L68.9627 277.298C81.1281 280.98 93.7613 283.127 106.53 283.682L102.192 242.954Z" fill="#2F2E41"/>
<path d="M77.6573 106.566C86.4249 98.3364 86.4249 84.9939 77.6573 76.7645C68.8898 68.5352 54.6748 68.5352 45.9073 76.7645C37.1397 84.9939 37.1397 98.3364 45.9073 106.566C54.6748 114.795 68.8898 114.795 77.6573 106.566Z" fill="#FFB8B8"/>
<path d="M106.577 237.881L102.126 224.909L102.051 224.688L101.824 224.023L100.555 220.328C100.144 219.128 99.752 217.923 99.3886 216.713C99.0535 215.623 98.7404 214.53 98.4494 213.435C98.0341 211.911 97.6565 210.381 97.3166 208.845C96.1647 203.684 95.3966 198.453 95.0179 193.192C94.9139 191.735 94.84 190.274 94.7959 188.811C94.5195 179.84 95.3799 170.871 97.359 162.091C99.082 154.499 98.1617 146.588 94.7338 139.524C91.3059 132.459 85.5515 126.615 78.3183 122.852C73.5719 120.389 68.3185 118.91 62.9119 118.514C62.5391 118.488 62.1661 118.466 61.7886 118.443C56.0774 118.105 50.358 118.974 45.0527 120.988C39.7474 123.002 34.9916 126.108 31.1365 130.078C29.0716 132.189 27.2783 134.52 25.7932 137.024C21.6728 143.992 20.126 152.045 21.3942 159.925L26.6994 193.361L25.4913 207.436L24.0658 224.023L23.9902 224.909L22.4703 242.595C22.3983 243.42 22.6109 244.244 23.0768 244.946C23.5426 245.648 24.2369 246.191 25.0569 246.494C25.5371 246.674 26.05 246.766 26.5674 246.764C26.643 246.764 26.7137 246.764 26.7893 246.76L102.192 242.954L102.882 242.919C103.511 242.888 104.124 242.722 104.673 242.433C105.223 242.145 105.695 241.742 106.052 241.255C106.409 240.768 106.642 240.21 106.733 239.625C106.825 239.041 106.771 238.444 106.577 237.881L106.577 237.881Z" fill="#E6E6E6"/>
<path d="M86.7531 213.608C85.317 214.209 83.7579 214.507 82.1857 214.482C80.6135 214.456 79.0664 214.107 77.6534 213.459C76.2404 212.812 74.9959 211.881 74.0075 210.733C73.0191 209.585 72.3109 208.248 71.9327 206.816L33.8682 203.551L46.2666 188.985L80.5125 194.319C83.1187 193.882 85.8051 194.357 88.0626 195.656C90.3201 196.954 91.9918 198.984 92.7611 201.362C93.5303 203.739 93.3436 206.299 92.2363 208.556C91.129 210.814 89.1781 212.611 86.7532 213.608L86.7531 213.608Z" fill="#FFB8B8"/>
<path d="M65.673 187.544L57.0683 186.281L48.388 185.005C47.4532 184.868 46.5598 184.547 45.7666 184.062C44.9734 183.578 44.2983 182.942 43.7856 182.196C43.273 181.449 42.9344 180.609 42.7921 179.731C42.6498 178.853 42.707 177.957 42.9599 177.101L50.4932 151.627C51.4048 148.483 51.1522 145.141 49.7768 142.15C48.4014 139.158 45.9846 136.693 42.9222 135.159C40.8534 134.123 38.5559 133.554 36.2119 133.496C33.868 133.438 31.5419 133.894 29.4181 134.827C27.2878 135.745 25.4137 137.115 23.9434 138.828C22.4732 140.542 21.4469 142.553 20.9455 144.702L11.444 184.845C10.804 187.553 10.7947 190.359 11.4169 193.071C12.0391 195.782 13.278 198.335 15.049 200.556C16.8199 202.776 19.081 204.612 21.6775 205.936C24.274 207.26 27.1447 208.042 30.0932 208.229L62.959 210.298C64.1607 210.375 65.3494 210.025 66.2899 209.319C67.2304 208.613 67.8541 207.601 68.0376 206.483C68.0519 206.421 68.0565 206.359 68.066 206.297L69.6945 192.634L69.7085 192.51C69.8489 191.353 69.5072 190.19 68.7551 189.265C68.0029 188.339 66.8985 187.722 65.673 187.544Z" fill="#E6E6E6"/>
<path d="M144.354 100.469C144.354 100.381 144.338 100.293 144.308 100.211C144.277 100.129 144.233 100.055 144.176 99.9926C144.12 99.9302 144.053 99.8808 143.979 99.8474C143.905 99.814 143.826 99.7972 143.746 99.798L130.593 99.8046C130.514 99.8047 130.435 99.8224 130.361 99.8565C130.288 99.8906 130.221 99.9405 130.164 100.003C130.108 100.066 130.064 100.141 130.033 100.223C130.003 100.305 129.987 100.393 129.987 100.482C129.987 100.57 130.003 100.658 130.034 100.74C130.065 100.822 130.109 100.896 130.166 100.959C130.222 101.022 130.289 101.071 130.363 101.105C130.437 101.139 130.516 101.156 130.596 101.156L131.208 101.155L135.034 101.153L135.038 101.156L143.745 101.147C143.825 101.148 143.905 101.131 143.979 101.097C144.053 101.063 144.12 101.014 144.177 100.95C144.234 100.887 144.279 100.812 144.309 100.73C144.339 100.647 144.355 100.559 144.354 100.469Z" fill="#E6E6E6"/>
<path d="M128.531 103.598L128.529 95.076C128.528 94.9897 128.497 94.9074 128.441 94.847C128.386 94.7865 128.311 94.7529 128.234 94.7532L126.209 94.7528L125.158 94.7533L119.516 94.7548L118.422 94.7555C118.344 94.7568 118.27 94.7921 118.216 94.8537C118.162 94.9153 118.131 94.9983 118.132 95.0846L118.131 95.6318L118.133 103.607C118.134 103.692 118.165 103.774 118.219 103.834C118.274 103.894 118.348 103.927 118.425 103.927L125.161 103.925L126.212 103.924L128.237 103.925C128.276 103.925 128.314 103.917 128.35 103.9C128.385 103.884 128.418 103.86 128.445 103.83C128.473 103.799 128.494 103.763 128.509 103.723C128.524 103.684 128.531 103.641 128.531 103.598Z" fill="#E6E6E6"/>
<path d="M141.833 108.992C141.833 108.813 141.769 108.642 141.656 108.515C141.542 108.389 141.389 108.317 141.228 108.317L126.789 108.325C126.662 108.325 126.537 108.37 126.434 108.454C126.331 108.537 126.253 108.654 126.213 108.789C126.19 108.857 126.179 108.93 126.18 109.003C126.181 109.077 126.192 109.15 126.213 109.219L126.214 109.226C126.257 109.358 126.334 109.473 126.437 109.554C126.54 109.636 126.663 109.68 126.789 109.681L141.228 109.672C141.308 109.672 141.387 109.654 141.461 109.62C141.534 109.586 141.601 109.535 141.658 109.472C141.714 109.409 141.758 109.334 141.788 109.252C141.819 109.169 141.834 109.081 141.833 108.992Z" fill="#E6E6E6"/>
<path d="M144.345 111.276C144.344 111.187 144.328 111.099 144.297 111.017C144.266 110.935 144.221 110.861 144.164 110.798C144.108 110.736 144.04 110.686 143.966 110.653C143.892 110.619 143.813 110.602 143.733 110.602L126.788 110.61C126.661 110.608 126.537 110.652 126.434 110.734C126.331 110.816 126.255 110.932 126.216 111.066L126.214 111.07C126.19 111.138 126.179 111.211 126.181 111.284C126.18 111.36 126.192 111.435 126.215 111.507C126.255 111.64 126.332 111.756 126.436 111.838C126.539 111.92 126.663 111.963 126.789 111.962L143.736 111.954C143.897 111.953 144.052 111.882 144.166 111.755C144.28 111.628 144.344 111.456 144.345 111.276Z" fill="#E6E6E6"/>
<path d="M119.84 112.643C121.091 113.401 122.658 112.888 123.34 111.496C124.021 110.104 123.56 108.36 122.309 107.601C121.058 106.842 119.491 107.356 118.81 108.748C118.128 110.14 118.589 111.884 119.84 112.643Z" fill="#E6E6E6"/>
<path d="M157.353 81.5406L155.359 81.5416L130.796 81.5548L128.802 81.5558C127.834 81.5576 126.906 81.9866 126.222 82.7487C125.538 83.5108 125.153 84.5439 125.153 85.6212L125.169 122.93C125.17 124.008 125.556 125.04 126.241 125.802C126.925 126.563 127.854 126.991 128.822 126.992L128.827 126.992L157.367 126.976L157.372 126.976C158.34 126.975 159.268 126.546 159.952 125.784C160.637 125.021 161.021 123.988 161.022 122.911L161.006 85.602C161.004 84.5247 160.619 83.4921 159.934 82.7307C159.249 81.9693 158.321 81.5413 157.353 81.5406Z" fill="#CCCCCC"/>
<path d="M157.353 82.7103L154.992 82.7116L131.164 82.7244L128.803 82.7256C128.113 82.7269 127.453 83.0323 126.965 83.5751C126.478 84.1178 126.204 84.8535 126.204 85.6206L126.22 122.93C126.221 123.697 126.496 124.432 126.983 124.975C127.471 125.517 128.132 125.822 128.821 125.822L128.827 125.822L157.367 125.807L157.372 125.807C158.061 125.805 158.722 125.5 159.209 124.957C159.697 124.414 159.97 123.679 159.971 122.912L159.955 85.6025C159.954 84.8354 159.679 84.1 159.191 83.5578C158.704 83.0156 158.043 82.7108 157.353 82.7103Z" fill="white"/>
<path d="M153.894 91.1428C153.893 90.9633 153.829 90.7914 153.715 90.6645C153.601 90.5376 153.446 90.4659 153.285 90.465L148.383 90.4685L147.016 90.469L142.639 90.4722C142.478 90.4733 142.325 90.5451 142.211 90.6721C142.098 90.7991 142.034 90.9709 142.034 91.15C142.034 91.329 142.098 91.5008 142.211 91.6278C142.324 91.7548 142.478 91.8267 142.639 91.8277L147.799 91.8261L148.88 91.8227L153.285 91.8206C153.446 91.8197 153.601 91.748 153.715 91.6211C153.829 91.4941 153.893 91.3223 153.894 91.1428Z" fill="#CCCCCC"/>
<path d="M156.402 93.4242C156.402 93.3356 156.386 93.2478 156.356 93.166C156.325 93.0841 156.28 93.0098 156.224 92.9474C156.167 92.885 156.1 92.8356 156.027 92.8022C155.953 92.7688 155.874 92.752 155.794 92.7528L148.957 92.7573L147.906 92.7577L142.641 92.7594C142.562 92.7595 142.483 92.7772 142.409 92.8113C142.335 92.8454 142.269 92.8953 142.212 92.9581C142.156 93.021 142.111 93.0956 142.081 93.1776C142.051 93.2597 142.035 93.3476 142.035 93.4363C142.035 93.5251 142.051 93.6129 142.082 93.6948C142.112 93.7768 142.157 93.8512 142.214 93.9138C142.27 93.9764 142.337 94.0261 142.411 94.0599C142.485 94.0937 142.564 94.111 142.643 94.1109L147.908 94.1092L148.959 94.1088L155.793 94.102C155.873 94.1028 155.952 94.0858 156.027 94.052C156.101 94.0182 156.168 93.9683 156.225 93.9052C156.282 93.8421 156.326 93.7671 156.357 93.6845C156.387 93.6019 156.402 93.5134 156.402 93.4242Z" fill="#CCCCCC"/>
<path d="M140.579 96.5528L140.577 89.7581L140.577 88.5885L140.577 88.0308C140.576 87.9445 140.544 87.8622 140.489 87.8018C140.434 87.7413 140.359 87.7076 140.282 87.708L133.521 87.7114L130.47 87.7104C130.392 87.7117 130.318 87.7469 130.264 87.8085C130.21 87.8701 130.179 87.9531 130.18 88.0394L130.181 88.5929L130.178 89.2027L130.181 89.7626L130.179 89.7667L130.181 96.5613C130.181 96.6469 130.213 96.7286 130.267 96.7887C130.322 96.8488 130.396 96.8823 130.473 96.8819L140.285 96.8795C140.323 96.8798 140.362 96.8715 140.398 96.8552C140.433 96.8389 140.466 96.8148 140.493 96.7844C140.52 96.754 140.542 96.7179 140.557 96.6782C140.571 96.6384 140.579 96.5958 140.579 96.5528Z" fill="#6E2F9B"/>
<path d="M153.881 101.947C153.881 101.768 153.817 101.597 153.703 101.47C153.59 101.343 153.436 101.272 153.275 101.272L148.96 101.275L147.909 101.276L143.745 101.275L138.836 101.28C138.757 101.28 138.677 101.297 138.603 101.331C138.53 101.366 138.462 101.415 138.406 101.478C138.349 101.541 138.304 101.616 138.274 101.698C138.243 101.781 138.228 101.869 138.228 101.958C138.228 102.047 138.243 102.135 138.274 102.217C138.305 102.299 138.349 102.374 138.406 102.437C138.463 102.5 138.53 102.55 138.604 102.584C138.677 102.618 138.757 102.635 138.837 102.635L147.909 102.631L148.96 102.631L153.275 102.627C153.355 102.627 153.434 102.609 153.508 102.575C153.582 102.54 153.649 102.49 153.705 102.427C153.761 102.364 153.806 102.289 153.836 102.207C153.866 102.124 153.881 102.036 153.881 101.947Z" fill="#CCCCCC"/>
<path d="M156.392 104.231C156.392 104.142 156.376 104.054 156.345 103.972C156.314 103.89 156.269 103.816 156.212 103.753C156.155 103.69 156.088 103.641 156.014 103.607C155.94 103.574 155.861 103.557 155.781 103.557L148.962 103.562L147.912 103.563L138.835 103.565C138.755 103.565 138.676 103.582 138.602 103.616C138.528 103.65 138.461 103.7 138.404 103.762C138.348 103.825 138.303 103.9 138.272 103.982C138.242 104.065 138.226 104.153 138.226 104.242C138.226 104.331 138.242 104.419 138.273 104.501C138.304 104.583 138.349 104.658 138.406 104.72C138.462 104.783 138.53 104.833 138.604 104.866C138.678 104.9 138.757 104.917 138.837 104.916L147.91 104.912L148.961 104.912L155.783 104.909C155.945 104.908 156.099 104.836 156.213 104.709C156.327 104.582 156.392 104.41 156.392 104.231Z" fill="#CCCCCC"/>
<path d="M131.888 105.597C133.139 106.356 134.706 105.843 135.387 104.45C136.069 103.058 135.608 101.315 134.357 100.556C133.106 99.7973 131.539 100.311 130.857 101.703C130.176 103.095 130.637 104.839 131.888 105.597Z" fill="#CCCCCC"/>
<path d="M274.292 219.921H0.419407C0.308173 219.921 0.201495 219.872 0.122841 219.785C0.0441871 219.697 0 219.578 0 219.455C0 219.331 0.0441871 219.212 0.122841 219.125C0.201495 219.037 0.308173 218.988 0.419407 218.988H274.292C274.403 218.988 274.51 219.037 274.589 219.125C274.667 219.212 274.711 219.331 274.711 219.455C274.711 219.578 274.667 219.697 274.589 219.785C274.51 219.872 274.403 219.921 274.292 219.921Z" fill="#3F3D56"/>
<path d="M47.6006 211.286V211.52C47.602 213.102 48.0161 214.65 48.7926 215.976C49.5691 217.302 50.6747 218.348 51.9751 218.988C52.9079 219.452 53.9185 219.691 54.9402 219.688H122.674V211.286H47.6006Z" fill="#3F3D56"/>
<path d="M169.967 155.915C168.892 153.446 167.237 151.346 165.178 149.838C164.244 149.15 163.237 148.595 162.179 148.186C160.738 147.626 159.222 147.34 157.695 147.341H92.6874C89.0736 147.346 85.609 148.945 83.0536 151.789C80.4983 154.633 79.0608 158.489 79.0567 162.51V204.519C79.0555 205.108 79.0863 205.697 79.149 206.283C79.2411 207.158 79.401 208.024 79.627 208.869C79.8511 209.701 80.1402 210.51 80.491 211.286C81.6201 213.811 83.3598 215.935 85.5145 217.42C87.6692 218.904 90.1533 219.689 92.6874 219.688H157.695C159.486 219.689 161.258 219.297 162.913 218.535C164.567 217.773 166.069 216.655 167.335 215.247C168.601 213.838 169.605 212.165 170.29 210.325C170.975 208.484 171.327 206.511 171.326 204.519V162.51C171.329 160.226 170.864 157.97 169.967 155.915Z" fill="#3F3D56"/>
<path d="M128.757 187.249C130.61 187.249 132.112 185.577 132.112 183.514C132.112 181.452 130.61 179.78 128.757 179.78C126.904 179.78 125.401 181.452 125.401 183.514C125.401 185.577 126.904 187.249 128.757 187.249Z" fill="white"/>
<path d="M235.707 44.8701H235.171V28.5707C235.171 27.3318 234.951 26.1051 234.524 24.9606C234.097 23.816 233.47 22.7761 232.681 21.9001C231.892 21.0241 230.955 20.3292 229.924 19.8551C228.892 19.381 227.787 19.137 226.671 19.137H195.556C193.301 19.137 191.139 20.1309 189.545 21.9C187.951 23.6692 187.056 26.0687 187.056 28.5706V117.991C187.056 120.493 187.951 122.892 189.545 124.661C191.139 126.43 193.301 127.424 195.556 127.424H226.671C228.925 127.424 231.087 126.43 232.681 124.661C234.275 122.892 235.171 120.493 235.171 117.991V56.4723H235.707L235.707 44.8701Z" fill="#CCCCCC"/>
<path d="M233.191 28.5325V118.029C233.191 119.902 232.521 121.698 231.328 123.022C230.136 124.347 228.518 125.091 226.832 125.091H195.513C193.826 125.091 192.209 124.347 191.016 123.022C189.823 121.698 189.153 119.902 189.153 118.029V28.5325C189.153 26.6596 189.823 24.8634 191.016 23.5391C192.209 22.2148 193.826 21.4708 195.513 21.4708H199.312C199.125 21.9802 199.054 22.5328 199.105 23.0799C199.156 23.6271 199.327 24.152 199.603 24.6084C199.879 25.0649 200.252 25.439 200.689 25.6978C201.127 25.9566 201.614 26.0922 202.109 26.0926H219.966C220.462 26.0922 220.949 25.9566 221.386 25.6978C221.823 25.439 222.196 25.0649 222.473 24.6084C222.749 24.1519 222.92 23.6271 222.971 23.0799C223.022 22.5328 222.951 21.9802 222.764 21.4708H226.832C228.518 21.4708 230.136 22.2148 231.328 23.5391C232.521 24.8634 233.191 26.6596 233.191 28.5325Z" fill="white"/>
<path d="M207.717 60.0942C206.097 59.2394 205.033 56.7955 205.093 54.3853C205.154 51.9752 206.258 49.7211 207.78 48.5717C209.303 47.4223 211.183 47.3353 212.817 48.1345C214.451 48.9336 216.645 49.1513 217.627 51.1376C218.382 52.6641 218.11 56.0694 217.576 57.7668C217.114 59.2338 215.984 60.0604 214.883 60.523C213.664 61.0304 212.364 61.231 211.072 61.1114C209.78 60.9918 208.525 60.5547 207.392 59.8297L207.717 60.0942Z" fill="#2F2E41"/>
<path d="M217.187 87.8618L216.485 84.6403L216.435 84.4091C216.395 84.2298 216.313 84.0658 216.198 83.934C216.083 83.8022 215.938 83.7075 215.779 83.6596L215.078 83.4481L214.456 83.2592L213.114 82.8542H213.113L210.4 82.0352L207.999 81.3084L207.419 81.1331L205.824 80.6511L204.832 80.3519L203.294 79.888L203.171 79.8503C202.957 79.7864 202.73 79.8105 202.531 79.9183C202.331 80.0261 202.173 80.2104 202.084 80.4381C202.016 80.6118 201.951 80.7886 201.886 80.9684C201.101 83.1978 200.507 85.506 200.11 87.8618C200.093 87.9615 200.074 88.0627 200.058 88.164H214.299C214.299 88.1821 214.299 88.1987 214.3 88.2169C214.324 88.2003 214.349 88.1836 214.373 88.164H217.253L217.187 87.8618Z" fill="#2F2E41"/>
<path d="M214.605 60.754C216.568 58.5696 216.568 55.0279 214.605 52.8435C212.643 50.659 209.46 50.659 207.497 52.8435C205.535 55.0279 205.535 58.5696 207.497 60.754C209.46 62.9385 212.643 62.9385 214.605 60.754Z" fill="#FFB8B8"/>
<path d="M216.414 86.1447C215.892 86.7898 215.307 87.3681 214.669 87.8685C214.54 87.9708 214.408 88.0701 214.273 88.165C214.249 88.1843 214.225 88.2006 214.201 88.2169C214.199 88.1991 214.199 88.1828 214.199 88.165H202.719C202.696 88.1439 202.674 88.1211 202.654 88.0968C202.582 88.0257 202.511 87.9471 202.443 87.8685C201.993 87.3581 201.613 86.7773 201.315 86.1447L202.718 81.7438L203.258 80.0466L204.042 77.589L204.886 74.9372C204.813 74.692 204.753 74.442 204.707 74.1887V74.1872C203.907 69.6841 207.845 65.3144 207.845 65.3144C207.876 65.2877 207.906 65.2625 207.937 65.2388C208.317 64.9275 208.729 64.6687 209.165 64.468C211.011 63.6187 212.944 63.9611 214.245 64.3998C214.697 64.5505 215.139 64.7368 215.567 64.9572C215.719 65.0372 215.802 65.0876 215.802 65.0876L215.932 69.4395L216.108 75.3893L216.203 78.7081L216.322 82.8955L216.373 84.7084L216.414 86.1447Z" fill="#6E2F9B"/>
<path d="M222.234 87.8698L220.964 80.7879L220.786 79.7984L221.644 75.5803L221.242 73.3368L219.742 64.97C219.705 64.7685 219.614 64.584 219.48 64.4404C219.346 64.2968 219.176 64.2008 218.992 64.1651L217.157 63.818L215.452 63.4946C215.288 63.4623 215.119 63.4799 214.963 63.5455C214.808 63.6111 214.671 63.7222 214.569 63.8668C214.44 64.042 214.369 64.2603 214.368 64.4856C214.369 64.6248 214.395 64.7625 214.445 64.8903C215.689 68.076 215.224 73.8656 214.774 79.4631C214.761 79.6271 214.748 79.791 214.735 79.955C214.641 81.1188 214.553 82.2649 214.48 83.3711C214.456 83.7388 214.434 84.1036 214.414 84.4625C214.348 85.6588 214.31 86.8035 214.318 87.8698C214.318 87.9688 214.32 88.0677 214.323 88.1652C214.323 88.1829 214.323 88.1992 214.324 88.2169C214.348 88.2006 214.372 88.1844 214.396 88.1652H222.286L222.234 87.8698Z" fill="#2F2E41"/>
<path d="M209.259 64.2632C209.221 64.0963 209.145 63.9424 209.039 63.8154C208.932 63.6884 208.798 63.5924 208.649 63.536C208.5 63.4796 208.34 63.4646 208.184 63.4924C208.028 63.5203 207.881 63.59 207.756 63.6953L207.278 64.1673L203.651 67.7588C203.549 67.8597 203.468 67.984 203.414 68.1229C203.077 69.0024 202.447 70.658 201.704 72.7197C201.44 73.4509 201.162 74.2345 200.877 75.0511C200.402 76.4131 201.991 78.4988 201.515 79.9761C201.432 80.2353 201.345 80.49 201.252 80.7403C200.286 83.3848 198.914 85.6188 198.44 87.9172C198.42 88.0176 198.399 88.118 198.38 88.2169H203.626C203.633 88.1944 203.64 88.172 203.647 88.148C203.668 88.0716 203.69 87.9951 203.712 87.9172C204.099 86.5433 204.531 85.0345 204.987 83.4492C205.051 83.2305 205.114 83.0102 205.177 82.7885C205.369 82.1247 205.564 81.451 205.761 80.7672C205.789 80.6683 205.818 80.5695 205.847 80.4706C205.913 80.2398 205.98 80.0091 206.047 79.7783C206.135 79.4757 206.223 79.172 206.311 78.8674C206.54 78.0762 206.77 77.2806 207 76.4895C207.932 73.2696 207.728 70.1726 208.431 67.7004C208.442 67.6644 208.451 67.6299 208.461 67.5955C208.763 66.5317 209.029 65.5877 209.244 64.8011C209.292 64.6264 209.298 64.4408 209.259 64.2632Z" fill="#2F2E41"/>
<path d="M214.576 49.9325C214.763 49.964 214.954 49.9234 215.119 49.8169C215.284 49.7105 215.414 49.5441 215.489 49.3435C215.559 49.1404 215.587 48.9215 215.571 48.7039C215.556 48.4862 215.498 48.2754 215.401 48.0877C215.204 47.7138 214.93 47.4026 214.602 47.1825C214.225 46.8913 213.789 46.718 213.336 46.6795C213.11 46.6624 212.884 46.7016 212.673 46.7943C212.461 46.8871 212.269 47.0312 212.11 47.2171C211.955 47.4075 211.852 47.6471 211.816 47.9053C211.779 48.1634 211.81 48.4282 211.904 48.666C212.095 49.0893 212.493 49.3267 212.882 49.4878C213.653 49.8068 214.474 49.9313 215.29 49.8531L214.576 49.9325Z" fill="#2F2E41"/>
<path d="M216.486 55.9405C215.704 56.1978 215.747 55.7217 215.318 54.9393C214.889 54.157 214.332 53.2363 213.518 53.2853C212.852 53.3255 212.388 54.0095 211.912 54.5392C211.066 55.4833 209.836 56.0811 208.674 55.7929C207.512 55.5047 206.554 54.1503 206.809 52.8376C206.952 52.1022 207.434 51.4906 208.011 51.1139C208.588 50.7372 209.254 50.5712 209.916 50.4846C211.391 50.2931 212.885 50.4696 214.293 51.0018C215.265 51.3702 216.242 51.966 216.726 52.987C217.21 54.008 217.633 55.4855 216.691 55.9405H216.486Z" fill="#2F2E41"/>
<path d="M229.416 56.8904V61.9891C229.325 62.0143 229.236 62.038 229.145 62.0587C228.493 62.2173 227.828 62.3225 227.167 62.4099C226.142 62.5462 225.09 62.647 224.091 62.367C222.694 61.9758 221.524 60.8467 220.814 59.4701C220.106 58.0951 219.827 56.4918 219.816 54.9123C219.808 53.6824 219.955 52.4511 219.877 51.2242C219.799 49.9973 219.462 48.7275 218.649 47.8784C217.837 47.0279 216.464 46.7493 215.573 47.4976C215.422 47.6314 215.279 47.7765 215.147 47.9318C214.974 48.1424 214.772 48.3206 214.547 48.4593C214.143 48.6815 213.506 48.5082 213.479 48.0147L213.901 47.1509C213.887 47.1316 213.873 47.1109 213.859 47.0916C213.24 46.1581 213.499 44.7371 214.264 43.9355C215.045 43.1146 216.208 42.8597 217.286 42.9635C218.355 43.0811 219.376 43.5044 220.249 44.1907C221.121 44.8771 221.813 45.8024 222.255 46.8738C222.937 48.5793 222.93 50.5308 223.548 52.2674C223.881 53.1901 224.38 54.0297 225.017 54.7357C225.653 55.4418 226.414 55.9998 227.252 56.3762C227.858 56.6421 228.495 56.8084 229.145 56.8697C229.236 56.8786 229.325 56.8845 229.416 56.8904Z" fill="#2F2E41"/>
<path d="M213.059 78.8542H213.004V77.0978C213.004 76.8282 212.911 76.5696 212.746 76.379C212.581 76.1883 212.358 76.0812 212.124 76.0812H208.906C208.79 76.0812 208.676 76.1075 208.569 76.1586C208.463 76.2097 208.366 76.2846 208.284 76.379C208.202 76.4734 208.137 76.5854 208.093 76.7088C208.049 76.8321 208.026 76.9643 208.026 77.0978V86.7336C208.026 87.0032 208.119 87.2618 208.284 87.4524C208.449 87.643 208.672 87.7501 208.906 87.7501H212.124C212.24 87.7501 212.354 87.7239 212.461 87.6728C212.568 87.6217 212.665 87.5468 212.746 87.4524C212.828 87.358 212.893 87.2459 212.937 87.1226C212.981 86.9993 213.004 86.8671 213.004 86.7336V80.1044H213.059V78.8542Z" fill="#3F3D56"/>
<path d="M210.333 80.7488C210.912 80.7488 211.381 80.2264 211.381 79.5819C211.381 78.9374 210.912 78.415 210.333 78.415C209.754 78.415 209.284 78.9374 209.284 79.5819C209.284 80.2264 209.754 80.7488 210.333 80.7488Z" fill="white"/>
<path d="M209.983 82.7032C209.959 82.6707 209.932 82.6397 209.905 82.6087C209.684 82.3591 209.418 82.1634 209.123 82.0342C208.829 81.9051 208.514 81.8454 208.197 81.859C208.096 81.8647 207.996 81.8775 207.897 81.8973L207.84 81.8354L207.261 81.1978L205.948 79.7529L205.133 78.8555L203.933 77.5346L203.032 76.5443L202.682 76.1591L203.3 73.4951L201.721 72.7999L199.663 71.8952L199.631 71.8804L199.554 72.1107L199.005 73.7888L198.595 75.0359C198.356 75.7727 198.315 76.5696 198.478 77.3312C198.64 78.0927 198.999 78.7865 199.51 79.3293C199.627 79.4529 199.751 79.5678 199.882 79.6732L201.281 80.7004L201.741 81.0369L202.604 81.6715L204.029 82.7179L204.917 83.3688L206.043 84.1953C206.038 84.2764 206.036 84.3576 206.039 84.4388C206.052 84.7873 206.132 85.1289 206.273 85.4412C206.414 85.7535 206.613 86.0295 206.858 86.2512C207.151 86.5197 207.502 86.7002 207.877 86.7752H207.878C208.348 86.8706 208.833 86.8003 209.264 86.5745C209.549 86.4231 209.801 86.2077 210.006 85.9423C210.21 85.677 210.361 85.3674 210.451 85.0336C210.497 84.8656 210.526 84.6923 210.536 84.5171C210.559 84.1893 210.521 83.8599 210.426 83.5484C210.331 83.2368 210.18 82.9494 209.983 82.7032Z" fill="#FFB8B8"/>
<path d="M223.078 76.1374L222.877 74.7671L222.59 72.8139L220.952 73.1877L218.822 73.6741L218.988 76.4311L218.865 76.5275L216.2 78.6156L214.644 79.8331L213.093 81.0477L213.092 81.0492L213.08 81.0581C212.989 81.0177 212.895 80.985 212.799 80.9602C212.499 80.8828 212.187 80.8782 211.885 80.9466C211.583 81.0151 211.297 81.1552 211.045 81.3577C210.811 81.5461 210.611 81.7855 210.458 82.0621C210.35 82.2568 210.267 82.4681 210.212 82.6895C210.176 82.8296 210.151 82.973 210.136 83.1181C210.103 83.4614 210.133 83.8088 210.224 84.1382C210.316 84.4676 210.467 84.7717 210.667 85.0312C210.914 85.3555 211.232 85.6005 211.589 85.7415C212.076 85.9377 212.609 85.9298 213.092 85.7193H213.093C213.191 85.6774 213.287 85.6268 213.379 85.568C213.806 85.2976 214.142 84.872 214.332 84.3594C214.383 84.2245 214.423 84.0845 214.452 83.9411C214.467 83.8613 214.479 83.7806 214.487 83.6994L215 83.4488L216.316 82.8051L220.682 80.6696L221.105 80.4634C221.465 80.2657 221.794 79.9994 222.075 79.6759C222.477 79.2185 222.777 78.6592 222.952 78.0441C223.126 77.4289 223.169 76.7754 223.078 76.1374Z" fill="#FFB8B8"/>
<path d="M208.35 65.8346C208.281 65.5445 208.175 65.2665 208.034 65.0091C207.85 64.672 207.609 64.3761 207.324 64.1374C207.204 64.0369 207.077 63.9466 206.944 63.8672C206.272 63.4653 205.482 63.3709 204.746 63.6046C204.011 63.8383 203.391 64.3811 203.022 65.1136L199.688 71.7429L199.577 71.9608L198.799 73.5103L199.016 73.6581L200.967 74.9806L203.126 76.445L203.278 76.548L204.726 74.0223V74.0208L208.004 68.3021C208.13 68.083 208.231 67.8479 208.305 67.602C208.314 67.5677 208.324 67.5319 208.334 67.4975C208.477 66.955 208.482 66.3804 208.35 65.8346Z" fill="#2F2E41"/>
<path d="M220.5 65.4872C220.245 64.7338 219.743 64.1212 219.098 63.7773C218.453 63.4334 217.715 63.3847 217.039 63.6415C216.954 63.674 216.871 63.711 216.788 63.7525C216.314 63.9919 215.91 64.3783 215.623 64.867C215.507 65.0625 215.411 65.2726 215.337 65.4931C215.208 65.8767 215.147 66.2856 215.157 66.6961C215.168 67.1066 215.251 67.5107 215.4 67.8849L215.98 69.3428L218.841 76.548L218.919 76.514L221.403 75.429L222.943 74.7571L223.544 74.4951L220.5 65.4872Z" fill="#2F2E41"/>
<path d="M206.445 102.686H197.026C196.384 102.686 195.768 102.391 195.314 101.866C194.86 101.341 194.605 100.629 194.605 99.8858C194.605 99.1431 194.86 98.4307 195.314 97.9055C195.768 97.3803 196.384 97.0853 197.026 97.0853H206.445C207.087 97.0853 207.703 97.3803 208.156 97.9055C208.61 98.4307 208.865 99.1431 208.865 99.8858C208.865 100.629 208.61 101.341 208.156 101.866C207.703 102.391 207.087 102.686 206.445 102.686Z" fill="#6E2F9B"/>
<path d="M225.666 102.686H215.97C215.309 102.686 214.675 102.391 214.208 101.866C213.741 101.341 213.479 100.629 213.479 99.8858C213.479 99.1431 213.741 98.4307 214.208 97.9055C214.675 97.3803 215.309 97.0853 215.97 97.0853H225.666C226.327 97.0853 226.961 97.3803 227.428 97.9055C227.895 98.4307 228.158 99.1431 228.158 99.8858C228.158 100.629 227.895 101.341 227.428 101.866C226.961 102.391 226.327 102.686 225.666 102.686Z" fill="#E6E6E6"/>
<path d="M227.119 41.0745H195.225C194.616 41.0755 194.032 41.3421 193.602 41.816C193.171 42.29 192.929 42.9325 192.928 43.6027V85.6887C192.929 86.359 193.171 87.0015 193.602 87.4754C194.032 87.9493 194.616 88.2159 195.225 88.2169H227.119C227.728 88.2162 228.312 87.9496 228.743 87.4756C229.173 87.0017 229.416 86.359 229.416 85.6887V43.6027C229.416 42.9324 229.173 42.2897 228.743 41.8158C228.312 41.3418 227.728 41.0752 227.119 41.0745ZM229.146 85.6887C229.145 86.2801 228.931 86.8471 228.551 87.2653C228.171 87.6835 227.656 87.9187 227.119 87.9195H195.225C194.688 87.9187 194.172 87.6835 193.792 87.2653C193.412 86.8471 193.199 86.2801 193.198 85.6887V43.6027C193.199 43.0113 193.412 42.4443 193.792 42.0261C194.172 41.6079 194.688 41.3727 195.225 41.372H227.119C227.656 41.3727 228.171 41.6079 228.551 42.0261C228.931 42.4443 229.145 43.0113 229.146 43.6027V85.6887Z" fill="#3F3D56"/>
<path d="M201.855 52.2767C201.741 52.2763 201.628 52.2505 201.523 52.2008C201.418 52.1512 201.323 52.0786 201.243 51.9873L197.156 46.0104C197.061 45.8731 196.94 45.7618 196.801 45.685C196.663 45.6083 196.51 45.5681 196.355 45.5676H172.686C171.492 45.5676 170.346 45.0359 169.502 44.0894C168.657 43.1428 168.183 41.8591 168.183 40.5205C168.183 39.182 168.657 37.8982 169.502 36.9517C170.346 36.0052 171.492 35.4734 172.686 35.4734H202.264C203.354 35.4735 204.406 35.9161 205.227 36.7193C206.048 37.5225 206.581 38.6319 206.727 39.8418C206.874 41.0517 206.624 42.2801 206.024 43.2994C205.424 44.3187 204.515 45.0597 203.465 45.3852C203.254 45.4521 203.069 45.5943 202.937 45.7903C202.805 45.9862 202.734 46.225 202.735 46.4704V51.2949C202.737 51.489 202.686 51.6793 202.59 51.8407C202.493 52.0021 202.356 52.1272 202.195 52.1996C202.088 52.2501 201.972 52.2763 201.855 52.2767Z" fill="#6E2F9B"/>
<path d="M174.054 42.9415C175.212 42.9415 176.151 41.8967 176.151 40.6078C176.151 39.3189 175.212 38.274 174.054 38.274C172.896 38.274 171.957 39.3189 171.957 40.6078C171.957 41.8967 172.896 42.9415 174.054 42.9415Z" fill="white"/>
<path d="M180.135 42.9415C181.178 42.9415 182.023 41.8967 182.023 40.6078C182.023 39.3189 181.178 38.274 180.135 38.274C179.093 38.274 178.248 39.3189 178.248 40.6078C178.248 41.8967 179.093 42.9415 180.135 42.9415Z" fill="white"/>
<path d="M186.007 42.9415C187.05 42.9415 187.895 41.8967 187.895 40.6078C187.895 39.3189 187.05 38.274 186.007 38.274C184.965 38.274 184.12 39.3189 184.12 40.6078C184.12 41.8967 184.965 42.9415 186.007 42.9415Z" fill="white"/>
<path d="M128.74 28.5203H88.0752V56.7015H128.74V28.5203Z" fill="#E6E6E6"/>
<path d="M98.2495 33.9493H90.8018V39.3369H98.2495V33.9493Z" fill="white"/>
<path d="M107.504 33.9493H100.057V39.3369H107.504V33.9493Z" fill="white"/>
<path d="M116.758 33.9493H109.311V39.3369H116.758V33.9493Z" fill="white"/>
<path d="M126.013 33.9493H118.565V39.3369H126.013V33.9493Z" fill="white"/>
<path d="M98.2495 41.5748H90.8018V46.9624H98.2495V41.5748Z" fill="white"/>
<path d="M107.504 41.5748H100.057V46.9624H107.504V41.5748Z" fill="white"/>
<path d="M116.758 41.5748H109.311V46.9624H116.758V41.5748Z" fill="white"/>
<path d="M126.013 41.5748H118.565V46.9624H126.013V41.5748Z" fill="white"/>
<path d="M98.2495 49.2003H90.8018V54.5879H98.2495V49.2003Z" fill="white"/>
<path d="M107.504 49.2003H100.057V54.5879H107.504V49.2003Z" fill="white"/>
<path d="M116.758 49.2003H109.311V54.5879H116.758V49.2003Z" fill="white"/>
<path d="M126.013 49.2003H118.565V54.5879H126.013V49.2003Z" fill="white"/>
<path d="M98.7256 31.8357C99.3426 31.8357 99.8427 31.2791 99.8427 30.5924C99.8427 29.9058 99.3426 29.3491 98.7256 29.3491C98.1086 29.3491 97.6084 29.9058 97.6084 30.5924C97.6084 31.2791 98.1086 31.8357 98.7256 31.8357Z" fill="white"/>
<path d="M117.196 31.8357C117.813 31.8357 118.313 31.2791 118.313 30.5924C118.313 29.9058 117.813 29.3491 117.196 29.3491C116.579 29.3491 116.079 29.9058 116.079 30.5924C116.079 31.2791 116.579 31.8357 117.196 31.8357Z" fill="white"/>
<path d="M99.1721 25.2048H98.2783V30.924H99.1721V25.2048Z" fill="#E6E6E6"/>
<path d="M117.643 25.2048H116.749V30.924H117.643V25.2048Z" fill="#E6E6E6"/>
<path d="M123.973 36.6431C123.973 37.0932 123.826 37.528 123.561 37.8677C123.296 38.2074 122.929 38.429 122.529 38.492C122.128 38.555 121.721 38.455 121.381 38.2104C121.042 37.9658 120.793 37.5931 120.68 37.1608C120.568 36.7284 120.6 36.2654 120.769 35.8568C120.939 35.4483 121.236 35.1216 121.604 34.9369C121.973 34.7522 122.39 34.7217 122.777 34.8513C123.164 34.9808 123.497 35.2615 123.713 35.6418C123.883 35.9414 123.974 36.2886 123.973 36.6431Z" fill="#6E2F9B"/>
<path d="M123.713 35.6418L122.055 37.4865C121.951 37.307 121.37 36.4727 121.37 36.4727C121.445 36.389 121.524 36.311 121.608 36.2392L122.089 36.9535L123.519 35.3627C123.591 35.4487 123.656 35.5422 123.713 35.6418Z" fill="white"/>
<path d="M105.464 44.2686C105.464 44.7187 105.318 45.1535 105.052 45.4932C104.787 45.8329 104.42 46.0546 104.02 46.1175C103.619 46.1805 103.212 46.0805 102.872 45.8359C102.533 45.5914 102.284 45.2186 102.172 44.7863C102.059 44.3539 102.091 43.8909 102.261 43.4823C102.43 43.0738 102.727 42.7471 103.096 42.5624C103.464 42.3777 103.881 42.3473 104.268 42.4768C104.656 42.6063 104.988 42.887 105.204 43.2673C105.374 43.5669 105.465 43.9141 105.464 44.2686Z" fill="#6E2F9B"/>
<path d="M105.204 43.2674L103.546 45.1121C103.442 44.9325 102.861 44.0982 102.861 44.0982C102.936 44.0145 103.015 43.9365 103.099 43.8648L103.58 44.5791L105.01 42.9883C105.082 43.0743 105.147 43.1677 105.204 43.2674Z" fill="white"/>
<path d="M96.2105 44.2686C96.2101 44.7187 96.0638 45.1536 95.7984 45.4932C95.5331 45.8329 95.1664 46.0546 94.766 46.1175C94.3655 46.1805 93.958 46.0805 93.6185 45.8359C93.279 45.5914 93.0301 45.2187 92.9177 44.7863C92.8053 44.3539 92.8369 43.8909 93.0067 43.4823C93.1764 43.0738 93.4729 42.7471 93.8418 42.5624C94.2106 42.3777 94.6269 42.3473 95.0143 42.4768C95.4016 42.6063 95.734 42.887 95.9502 43.2674C96.1206 43.5669 96.2108 43.9141 96.2105 44.2686Z" fill="#6E2F9B"/>
<path d="M95.95 43.2674L94.2921 45.1121C94.1879 44.9325 93.6074 44.0982 93.6074 44.0982C93.6818 44.0145 93.7612 43.9365 93.845 43.8648L94.3264 44.5791L95.7559 42.9883C95.8284 43.0743 95.8934 43.1677 95.95 43.2674Z" fill="white"/>
<path d="M206.763 214.142C217.415 214.142 226.05 204.531 226.05 192.676C226.05 180.821 217.415 171.211 206.763 171.211C196.11 171.211 187.475 180.821 187.475 192.676C187.475 204.531 196.11 214.142 206.763 214.142Z" fill="#E6E6E6"/>
<path d="M206.763 209.549C215.136 209.549 221.924 201.995 221.924 192.676C221.924 183.357 215.136 175.803 206.763 175.803C198.389 175.803 191.602 183.357 191.602 192.676C191.602 201.995 198.389 209.549 206.763 209.549Z" fill="#6E2F9B"/>
<path opacity="0.2" d="M206.802 175.85C206.572 175.85 206.344 175.857 206.117 175.868C209.949 176.243 213.509 178.225 216.077 181.412C218.645 184.599 220.028 188.754 219.947 193.034C219.865 197.314 218.325 201.399 215.638 204.463C212.95 207.526 209.317 209.338 205.475 209.531C205.912 209.573 206.355 209.596 206.802 209.596C210.823 209.596 214.68 207.818 217.523 204.654C220.366 201.49 221.963 197.198 221.963 192.723C221.963 188.248 220.366 183.957 217.523 180.792C214.68 177.628 210.823 175.85 206.802 175.85V175.85Z" fill="black"/>
<path d="M206.808 174.605C206.677 174.605 206.552 174.663 206.459 174.766C206.367 174.869 206.315 175.009 206.314 175.154V177.55C206.314 177.696 206.366 177.836 206.459 177.939C206.552 178.042 206.677 178.1 206.808 178.1C206.939 178.1 207.064 178.042 207.157 177.939C207.249 177.836 207.301 177.696 207.301 177.55V175.154C207.301 175.009 207.249 174.869 207.157 174.766C207.064 174.663 206.939 174.605 206.808 174.605Z" fill="white"/>
<path d="M216.661 177.849C216.522 177.733 216.38 177.62 216.237 177.511C216.152 177.504 216.066 177.523 215.989 177.565C215.912 177.607 215.846 177.67 215.798 177.749L214.586 179.729C214.512 179.849 214.484 179.997 214.509 180.14C214.533 180.283 214.608 180.41 214.716 180.492C214.824 180.574 214.957 180.604 215.085 180.577C215.214 180.55 215.327 180.467 215.401 180.347L216.613 178.367C216.659 178.292 216.688 178.205 216.696 178.115C216.704 178.024 216.692 177.933 216.661 177.849Z" fill="white"/>
<path d="M222.166 186.876C222.142 186.81 222.106 186.749 222.061 186.698C222.015 186.646 221.961 186.606 221.901 186.578C221.842 186.55 221.778 186.535 221.713 186.534C221.648 186.534 221.584 186.548 221.524 186.575L219.529 187.476C219.408 187.531 219.311 187.638 219.26 187.772C219.21 187.906 219.209 188.057 219.258 188.192C219.307 188.326 219.402 188.434 219.523 188.491C219.643 188.547 219.779 188.548 219.9 188.494L221.896 187.592C222.017 187.537 222.113 187.431 222.164 187.297C222.215 187.162 222.216 187.011 222.166 186.876Z" fill="white"/>
<path d="M198.94 179.729L197.728 177.749C197.68 177.67 197.614 177.607 197.537 177.565C197.46 177.523 197.374 177.504 197.289 177.511C197.146 177.62 197.004 177.733 196.865 177.849C196.834 177.933 196.821 178.024 196.83 178.115C196.838 178.205 196.866 178.292 196.913 178.367L198.125 180.347C198.198 180.467 198.312 180.55 198.44 180.577C198.569 180.604 198.702 180.574 198.81 180.492C198.918 180.41 198.993 180.283 199.017 180.14C199.041 179.997 199.014 179.849 198.94 179.729Z" fill="white"/>
<path d="M193.995 187.476L192 186.575C191.879 186.52 191.743 186.521 191.623 186.578C191.502 186.635 191.407 186.742 191.358 186.877C191.308 187.012 191.309 187.163 191.36 187.297C191.411 187.431 191.508 187.537 191.629 187.592L193.624 188.494C193.745 188.548 193.881 188.547 194.001 188.491C194.122 188.434 194.217 188.326 194.266 188.192C194.316 188.057 194.315 187.906 194.264 187.772C194.213 187.638 194.117 187.531 193.995 187.476V187.476Z" fill="white"/>
<path d="M206.808 207.253C206.677 207.253 206.552 207.311 206.459 207.414C206.367 207.517 206.315 207.656 206.314 207.802V210.198C206.314 210.344 206.366 210.483 206.459 210.586C206.552 210.689 206.677 210.747 206.808 210.747C206.939 210.747 207.064 210.689 207.157 210.586C207.249 210.483 207.301 210.344 207.301 210.198V207.802C207.301 207.656 207.249 207.517 207.157 207.414C207.064 207.311 206.939 207.253 206.808 207.253Z" fill="white"/>
<path d="M216.613 206.985L215.401 205.005C215.365 204.946 215.318 204.895 215.264 204.855C215.21 204.816 215.149 204.788 215.085 204.775C215.022 204.761 214.956 204.762 214.893 204.777C214.829 204.791 214.769 204.82 214.716 204.861C214.662 204.901 214.616 204.953 214.581 205.013C214.545 205.074 214.521 205.141 214.509 205.212C214.497 205.283 214.497 205.356 214.51 205.426C214.524 205.497 214.549 205.564 214.586 205.623L215.798 207.603C215.846 207.682 215.912 207.745 215.989 207.787C216.066 207.829 216.152 207.848 216.237 207.842C216.38 207.732 216.522 207.619 216.661 207.503C216.692 207.419 216.704 207.328 216.696 207.237C216.688 207.147 216.659 207.06 216.613 206.985Z" fill="white"/>
<path d="M221.896 197.76L219.901 196.858C219.779 196.804 219.644 196.805 219.523 196.861C219.403 196.918 219.307 197.026 219.258 197.16C219.209 197.295 219.21 197.446 219.261 197.581C219.311 197.715 219.408 197.821 219.529 197.876L221.524 198.777C221.646 198.832 221.781 198.831 221.902 198.774C222.022 198.717 222.118 198.61 222.167 198.475C222.216 198.34 222.215 198.189 222.164 198.055C222.113 197.921 222.017 197.815 221.896 197.76V197.76Z" fill="white"/>
<path d="M198.81 204.861C198.702 204.779 198.569 204.748 198.44 204.775C198.312 204.802 198.198 204.885 198.125 205.005L196.913 206.985C196.866 207.06 196.838 207.147 196.83 207.237C196.821 207.328 196.834 207.419 196.865 207.503C197.004 207.619 197.146 207.732 197.289 207.842C197.374 207.848 197.46 207.829 197.537 207.787C197.614 207.745 197.68 207.682 197.728 207.603L198.94 205.623C198.977 205.564 199.002 205.497 199.015 205.426C199.029 205.356 199.029 205.283 199.017 205.212C199.005 205.141 198.98 205.074 198.945 205.013C198.909 204.953 198.864 204.901 198.81 204.861Z" fill="white"/>
<path d="M194.267 197.16C194.243 197.093 194.207 197.032 194.161 196.981C194.116 196.93 194.062 196.889 194.002 196.861C193.942 196.833 193.878 196.818 193.814 196.818C193.749 196.817 193.685 196.831 193.625 196.858L191.63 197.76C191.508 197.815 191.412 197.921 191.361 198.055C191.31 198.189 191.309 198.34 191.359 198.475C191.408 198.61 191.503 198.717 191.624 198.774C191.744 198.831 191.88 198.832 192.001 198.777L193.996 197.876C194.117 197.821 194.214 197.714 194.264 197.58C194.315 197.446 194.316 197.295 194.267 197.16Z" fill="white"/>
<path d="M207.448 192.404C207.494 192.704 207.43 193.012 207.272 193.26C207.114 193.508 206.873 193.677 206.604 193.728L197.848 195.386C197.715 195.411 197.578 195.407 197.446 195.373C197.314 195.34 197.189 195.277 197.078 195.19C196.968 195.103 196.874 194.992 196.802 194.865C196.73 194.737 196.681 194.595 196.658 194.446C196.635 194.298 196.639 194.145 196.669 193.998C196.7 193.851 196.755 193.712 196.834 193.589C196.912 193.466 197.011 193.362 197.126 193.282C197.241 193.201 197.369 193.147 197.502 193.122L206.258 191.464C206.528 191.414 206.804 191.484 207.027 191.66C207.251 191.836 207.402 192.104 207.448 192.404Z" fill="#3F3D56"/>
<path d="M216.662 203.199C216.537 203.34 216.366 203.42 216.187 203.42C216.009 203.421 215.838 203.343 215.711 203.203L206.285 192.796C206.159 192.656 206.088 192.466 206.087 192.268C206.086 192.069 206.157 191.879 206.282 191.738C206.408 191.597 206.578 191.517 206.757 191.517C206.935 191.516 207.106 191.594 207.233 191.733L216.659 202.14C216.785 202.28 216.856 202.47 216.857 202.669C216.858 202.868 216.788 203.058 216.662 203.199Z" fill="#3F3D56"/>
<path d="M206.763 193.974C207.407 193.974 207.929 193.393 207.929 192.676C207.929 191.959 207.407 191.378 206.763 191.378C206.119 191.378 205.597 191.959 205.597 192.676C205.597 193.393 206.119 193.974 206.763 193.974Z" fill="#CCCCCC"/>
<path d="M198.729 170.17C196.939 173.302 194.208 175.381 190.839 176.747C190.773 176.802 190.697 176.843 190.616 176.865C190.536 176.888 190.452 176.893 190.37 176.88C190.287 176.867 190.208 176.836 190.137 176.789C190.065 176.742 190.003 176.679 189.953 176.605C188.123 173.886 188.536 170 190.951 167.923C191.535 167.421 192.202 167.054 192.915 166.842C193.627 166.63 194.371 166.578 195.101 166.688C195.832 166.798 196.536 167.069 197.172 167.485C197.808 167.9 198.363 168.452 198.806 169.108L198.857 169.184C198.907 169.258 198.943 169.342 198.963 169.432C198.984 169.521 198.988 169.615 198.977 169.706C198.965 169.798 198.937 169.886 198.894 169.966C198.852 170.045 198.796 170.115 198.729 170.17Z" fill="#E6E6E6"/>
<path d="M214.719 169.108C215.162 168.452 215.717 167.9 216.353 167.485C216.989 167.069 217.693 166.798 218.424 166.688C219.155 166.578 219.898 166.63 220.61 166.842C221.323 167.054 221.99 167.421 222.574 167.923C224.989 170 225.402 173.886 223.572 176.605C223.522 176.679 223.46 176.742 223.388 176.789C223.317 176.836 223.238 176.867 223.155 176.88C223.073 176.893 222.989 176.888 222.909 176.865C222.828 176.843 222.752 176.802 222.686 176.747C219.559 175.414 216.994 173.109 214.796 170.17C214.661 170.058 214.572 169.891 214.548 169.706C214.525 169.521 214.568 169.333 214.668 169.184L214.719 169.108Z" fill="#E6E6E6"/>
<path d="M213.935 211.273C213.821 211.344 213.737 211.463 213.701 211.603C213.666 211.743 213.681 211.893 213.745 212.02L216.593 217.683C216.657 217.81 216.763 217.904 216.889 217.944C217.015 217.983 217.15 217.965 217.264 217.894C217.378 217.823 217.463 217.705 217.498 217.564C217.534 217.424 217.518 217.274 217.454 217.147L214.606 211.484C214.542 211.357 214.436 211.264 214.31 211.224C214.184 211.185 214.049 211.202 213.935 211.273Z" fill="#E6E6E6"/>
<path d="M198.919 211.484L196.072 217.147C196.008 217.274 195.992 217.424 196.027 217.564C196.063 217.705 196.147 217.823 196.261 217.894C196.375 217.965 196.51 217.983 196.636 217.944C196.762 217.904 196.869 217.81 196.933 217.683L199.78 212.02C199.812 211.957 199.832 211.888 199.84 211.817C199.847 211.745 199.842 211.672 199.825 211.603C199.807 211.533 199.777 211.469 199.737 211.412C199.697 211.355 199.647 211.308 199.591 211.273C199.534 211.238 199.472 211.215 199.408 211.207C199.343 211.198 199.278 211.204 199.216 211.224C199.153 211.243 199.095 211.276 199.044 211.321C198.993 211.366 198.951 211.421 198.919 211.484H198.919Z" fill="#E6E6E6"/>
<path d="M217.169 219.133C218.011 219.133 218.694 218.374 218.694 217.436C218.694 216.499 218.011 215.739 217.169 215.739C216.326 215.739 215.644 216.499 215.644 217.436C215.644 218.374 216.326 219.133 217.169 219.133Z" fill="#E6E6E6"/>
<path d="M218.246 175.703C219.088 175.703 219.771 174.944 219.771 174.006C219.771 173.069 219.088 172.309 218.246 172.309C217.404 172.309 216.721 173.069 216.721 174.006C216.721 174.944 217.404 175.703 218.246 175.703Z" fill="#E6E6E6"/>
<path d="M206.673 171.71C207.515 171.71 208.198 170.95 208.198 170.013C208.198 169.075 207.515 168.315 206.673 168.315C205.83 168.315 205.147 169.075 205.147 170.013C205.147 170.95 205.83 171.71 206.673 171.71Z" fill="#E6E6E6"/>
<path d="M195.638 175.504C196.481 175.504 197.163 174.744 197.163 173.806C197.163 172.869 196.481 172.109 195.638 172.109C194.796 172.109 194.113 172.869 194.113 173.806C194.113 174.744 194.796 175.504 195.638 175.504Z" fill="#E6E6E6"/>
<path d="M196.625 219.133C197.467 219.133 198.15 218.374 198.15 217.436C198.15 216.499 197.467 215.739 196.625 215.739C195.782 215.739 195.1 216.499 195.1 217.436C195.1 218.374 195.782 219.133 196.625 219.133Z" fill="#E6E6E6"/>
<path d="M76.5195 82.3444C75.6724 82.2654 74.8222 82.2758 73.9879 82.3753C72.3452 82.5463 70.6852 82.6177 69.0199 82.5892C63.9217 82.4907 59.0129 83.8638 55.0776 86.4893C51.1423 89.1148 48.4075 92.8413 47.3099 97.0735C46.1151 95.9975 43.3628 93.963 40.8606 95.3479C40.8224 95.3701 40.8003 95.3812 40.7196 95.339C39.1964 94.5422 37.0363 86.3918 37.5111 79.4533C37.7633 75.7706 38.819 71.1413 42.4146 70.0013L42.604 69.9413L42.6659 69.7758C42.9648 68.9716 45.6732 67.8186 50.2707 67.1701C58.626 65.9917 71.1543 63.3214 77.5699 69.7362C77.9345 71.7189 79.2944 76.02 80.9673 76.6594C82.8196 77.3672 84.4194 77.9781 84.5167 79.9927C84.5036 82.8446 84.2587 85.6827 83.7838 88.4865C83.2817 86.6916 82.1441 85.0507 80.5312 83.795C79.3783 82.9774 77.9784 82.4712 76.5195 82.3444Z" fill="#2F2E41"/>
</g>
<defs>
<clipPath id="clip0_2613_13039">
<rect width="300" height="282" fill="white"/>
</clipPath>
</defs>
</svg>
