<svg width="300" height="224" viewBox="0 0 300 224" fill="none" xmlns="http://www.w3.org/2000/svg">
<g clip-path="url(#clip0_1721_8330)">
<path d="M287.457 194.049C287.787 184.182 283.272 174.378 274.489 171.016C276.582 181.1 274.805 192.444 269.573 202.403C267.536 206.282 264.891 210.439 265.617 214.396C266.069 216.858 267.818 218.765 269.918 219.975C272.019 221.185 274.465 221.786 276.882 222.376L277.31 222.796C282.703 213.791 287.126 203.916 287.457 194.049Z" fill="#F2F2F2"/>
<path d="M274.368 171.201C278.771 177.353 281.018 185.242 280.53 193.355C280.459 195.151 280.117 196.927 279.516 198.621C278.853 200.32 277.8 201.84 276.442 203.057C275.186 204.227 273.785 205.297 272.796 206.715C272.307 207.407 271.963 208.191 271.785 209.019C271.606 209.847 271.596 210.702 271.755 211.534C272.124 213.506 273.206 215.126 274.325 216.666C275.567 218.376 276.887 220.128 277.178 222.371C277.213 222.643 277.645 222.513 277.61 222.241C277.104 218.338 273.721 216.068 272.491 212.54C271.917 210.893 271.865 208.992 272.913 207.282C273.829 205.786 275.273 204.682 276.553 203.507C277.896 202.333 278.971 200.884 279.707 199.259C280.389 197.591 280.797 195.823 280.916 194.024C281.233 190.143 280.918 186.237 279.982 182.457C278.977 178.296 277.186 174.366 274.705 170.878C274.553 170.665 274.217 170.99 274.368 171.201L274.368 171.201Z" fill="white"/>
<path d="M280.827 190.707C282.242 190.38 283.52 189.62 284.484 188.533C285.447 187.445 286.047 186.085 286.201 184.641C286.223 184.36 285.787 184.374 285.765 184.655C285.624 186 285.065 187.267 284.167 188.277C283.268 189.288 282.076 189.992 280.757 190.289C280.729 190.293 280.702 190.303 280.678 190.318C280.654 190.333 280.634 190.352 280.617 190.375C280.601 190.397 280.589 190.423 280.583 190.45C280.576 190.478 280.575 190.506 280.58 190.534C280.585 190.561 280.595 190.588 280.61 190.612C280.625 190.635 280.644 190.656 280.667 190.672C280.69 190.688 280.716 190.699 280.744 190.705C280.771 190.711 280.8 190.712 280.827 190.707V190.707Z" fill="white"/>
<path d="M277.146 202.537C276.056 201.781 275.139 200.802 274.455 199.666C273.77 198.53 273.334 197.261 273.175 195.945C273.139 195.673 272.707 195.803 272.743 196.075C272.911 197.445 273.368 198.763 274.083 199.944C274.797 201.125 275.754 202.14 276.89 202.924C277.107 203.072 277.362 202.684 277.146 202.537Z" fill="white"/>
<path d="M278.479 178.636C277.99 178.866 277.449 178.968 276.909 178.931C276.37 178.893 275.848 178.719 275.395 178.424C275.18 178.273 274.926 178.661 275.139 178.811C275.642 179.135 276.217 179.327 276.813 179.369C277.41 179.412 278.007 179.303 278.55 179.054C278.606 179.035 278.655 178.998 278.688 178.948C278.721 178.899 278.736 178.839 278.731 178.78C278.726 178.753 278.715 178.727 278.699 178.705C278.683 178.682 278.662 178.663 278.638 178.65C278.614 178.636 278.588 178.628 278.56 178.625C278.533 178.623 278.505 178.627 278.479 178.636Z" fill="white"/>
<path d="M243.434 188.122C243.565 188.221 243.695 188.319 243.826 188.422C245.575 189.753 247.196 191.245 248.668 192.878C248.784 193.002 248.899 193.13 249.011 193.258C252.536 197.286 255.176 202.009 256.76 207.122C257.41 209.207 257.888 211.342 258.191 213.504C258.615 216.52 258.828 219.858 260.214 222.343C260.355 222.603 260.514 222.853 260.69 223.091L276.685 223.363C276.724 223.345 276.763 223.331 276.802 223.313L277.436 223.353C277.429 223.238 277.418 223.12 277.41 223.005C277.406 222.938 277.398 222.871 277.394 222.805C277.39 222.76 277.386 222.716 277.385 222.675C277.384 222.66 277.382 222.645 277.381 222.634C277.38 222.593 277.374 222.556 277.373 222.519C277.316 221.856 277.255 221.192 277.187 220.529C277.187 220.525 277.187 220.525 277.184 220.521C276.662 215.469 275.702 210.475 273.986 205.894C273.934 205.756 273.883 205.615 273.824 205.477C273.045 203.432 272.081 201.464 270.943 199.596C270.321 198.585 269.642 197.611 268.908 196.678C267.007 194.277 264.689 192.239 262.063 190.663C256.806 187.502 250.348 186.216 243.924 187.983C243.759 188.028 243.598 188.073 243.434 188.122Z" fill="#F2F2F2"/>
<path d="M243.438 188.328C251.072 190.043 257.858 194.307 262.365 200.391C263.387 201.701 264.169 203.181 264.674 204.764C265.122 206.412 265.117 208.151 264.658 209.797C264.261 211.395 263.674 213.009 263.663 214.621C263.653 215.411 263.831 216.191 264.181 216.898C264.531 217.606 265.043 218.221 265.677 218.692C267.202 219.875 269.144 220.374 271.07 220.793C273.207 221.258 275.44 221.706 277.062 223.13C277.259 223.302 277.561 222.947 277.365 222.774C274.543 220.297 270.173 220.732 266.938 218.962C265.429 218.136 264.227 216.811 264.111 214.955C264.01 213.331 264.614 211.666 265.03 210.05C265.499 208.442 265.568 206.744 265.231 205.104C264.815 203.493 264.096 201.976 263.113 200.634C260.976 197.619 258.312 195.015 255.248 192.949C251.701 190.536 247.727 188.821 243.539 187.893C243.275 187.834 243.176 188.27 243.438 188.328Z" fill="white"/>
<path d="M261.016 198.321C263.164 196.148 263.61 192.897 262.071 190.728C261.92 190.515 261.544 190.789 261.695 191.003C263.137 193.035 262.707 196.034 260.699 198.066C260.488 198.28 260.806 198.533 261.016 198.321V198.321Z" fill="white"/>
<path d="M264.963 208.998C263.619 209.145 262.26 209.018 260.967 208.624C259.675 208.23 258.476 207.578 257.443 206.706C257.245 206.535 256.943 206.89 257.14 207.062C258.217 207.966 259.467 208.643 260.813 209.05C262.16 209.457 263.575 209.586 264.972 209.43C265.254 209.403 265.243 208.972 264.963 208.998L264.963 208.998Z" fill="white"/>
<path d="M251.595 191.135C251.275 191.615 250.853 192.017 250.36 192.315C249.867 192.613 249.314 192.798 248.741 192.858C248.459 192.88 248.471 193.312 248.751 193.289C249.384 193.221 249.994 193.016 250.54 192.688C251.086 192.36 251.554 191.917 251.911 191.391C251.95 191.349 251.971 191.293 251.97 191.237C251.968 191.18 251.945 191.125 251.904 191.085C251.856 191.053 251.797 191.04 251.74 191.049C251.682 191.058 251.63 191.089 251.595 191.135V191.135Z" fill="white"/>
<path d="M238.677 182.844C238.71 182.806 238.455 182.774 237.983 182.747V166.884H215.084V168.161H204.776C203.567 168.163 202.408 168.643 201.554 169.498C200.699 170.353 200.218 171.512 200.217 172.72V179.281C200.218 180.49 200.698 181.649 201.553 182.504C202.408 183.359 203.567 183.839 204.776 183.84L215.341 183.854L219.979 183.861H220.299L224.941 183.868L237.906 183.885H239.024C239.187 183.701 238.521 183.028 238.677 182.844Z" fill="#3F3D56"/>
<path d="M238.923 183.139C238.166 184.243 237.552 184.203 237.015 183.488C236.733 183.077 236.505 182.631 236.339 182.161C234.707 177.977 233.639 168.378 230.562 171.735C229.954 172.397 229.337 173.055 228.718 173.705C227.567 174.916 226.365 176.23 225.173 177.391C225.173 177.394 225.2 177.265 225.196 177.268C224.609 177.843 225.051 172.871 224.819 171.472C224.769 171.17 224.689 171.035 224.56 171.156C224.55 171.02 224.544 170.884 224.545 170.747C224.544 170.531 224.555 170.315 224.578 170.1C224.597 169.903 224.624 169.703 224.661 169.502L234.722 115.702C234.987 114.293 235.695 113.005 236.742 112.025C237.789 111.046 239.121 110.425 240.545 110.254C241.219 110.179 241.901 110.203 242.568 110.326L244.4 110.668C245.123 110.803 245.818 111.057 246.458 111.42L246.461 111.421C247.684 112.111 248.661 113.166 249.256 114.438C249.85 115.71 250.032 117.137 249.776 118.517L238.923 183.139Z" fill="#3F3D56"/>
<path d="M153.01 213.784L148.286 211.525L154.775 191.782L161.746 195.116L153.01 213.784Z" fill="#FFB6B6"/>
<path d="M184.676 210.601C184.332 210.816 183.989 211.028 183.642 211.24C182.951 211.663 182.254 212.079 181.557 212.489C181.206 212.693 180.852 212.898 180.502 213.099V213.11L180.481 213.113L180.474 213.117L179.94 213.249L179.173 211.222L178.819 210.289L178.32 208.967L177.404 206.549L172.581 193.816L180.079 191.966L180.36 193.115H180.363L180.502 193.684L183.122 204.308L183.656 206.479L183.673 206.545L183.996 207.843L184.273 208.967L184.582 210.223L184.676 210.601Z" fill="#FFB6B6"/>
<path d="M229.402 165.885C228.927 166.648 228.441 167.408 227.952 168.161C227.043 169.563 226.11 170.944 225.152 172.304C225.152 172.307 225.149 172.307 225.145 172.311C224.587 172.828 223.97 173.279 223.307 173.653C223.279 173.674 223.248 173.688 223.22 173.706C222.731 173.975 222.212 174.184 221.672 174.327C221.478 174.375 221.28 174.424 221.086 174.472C220.385 174.639 219.691 174.781 219.001 174.906C217.773 175.125 216.558 175.281 215.351 175.378C215.254 175.388 215.157 175.395 215.059 175.402C210.095 175.766 205.261 175.18 200.217 174.219C197.726 173.747 195.182 173.182 192.549 172.595C191.689 172.401 190.825 172.21 189.95 172.019C189.885 172.005 189.815 171.988 189.746 171.974C188.497 171.7 187.227 171.429 185.926 171.162C184.288 170.826 182.598 170.5 180.843 170.191L180.968 172.665C181.072 174.568 181.467 176.443 182.141 178.226C182.89 180.419 183.483 182.154 182.231 185.766L181.627 187.514C181.94 188.383 182.047 189.312 181.941 190.228C181.834 191.145 181.517 192.025 181.013 192.798L180.891 192.982L185.926 205.719L186.252 206.545H183.674L180.503 206.548H175.129L167.374 190.991L167.003 190.248V190.21L167.804 160.313C167.815 160.049 167.836 159.782 167.87 159.519C168.012 158.32 168.39 157.161 168.984 156.11C169.578 155.06 170.375 154.138 171.329 153.398C172.244 152.684 173.291 152.158 174.41 151.852C175.529 151.546 176.698 151.465 177.849 151.615L180.503 151.958L185.926 152.659L189.746 153.155L189.822 153.166L201.088 154.623L201.896 151.327L202.045 151.272L206.788 149.533L223.192 143.521L223.234 143.507L224.313 143.111L224.441 143.319C224.479 143.382 224.517 143.444 224.552 143.507C225.619 145.419 226.487 147.434 227.144 149.523C228.248 152.934 229.158 156.406 229.867 159.921C229.899 160.074 229.926 160.212 229.951 160.337L229.961 160.376C229.971 160.435 229.978 160.473 229.982 160.483C230.36 162.058 230.096 163.98 229.402 165.885Z" fill="#2F2E41"/>
<path d="M236.73 76.5931C236.73 73.8304 235.368 71.1809 232.945 69.2274C230.521 67.2739 227.234 66.1765 223.806 66.1765C220.379 66.1765 217.092 67.2739 214.668 69.2274C212.244 71.1809 210.883 73.8304 210.883 76.5931V83.1226C210.883 83.4932 211.066 83.8485 211.392 84.1106C211.717 84.3726 212.157 84.5201 212.617 84.5206H212.934C213.301 83.6745 213.524 82.7926 213.599 81.8985C214.266 82.7044 214.774 83.589 215.105 84.5206H234.991C235.451 84.5202 235.893 84.3729 236.219 84.1109C236.544 83.8489 236.728 83.4936 236.73 83.1226C237.775 81.4041 238.244 79.4333 236.73 76.5931Z" fill="#2F2E41"/>
<path d="M230.094 154.867C230.042 154.645 229.976 154.42 229.907 154.201C229.356 152.546 228.715 150.922 227.985 149.337C227.166 147.533 226.184 145.6 225.015 143.508C224.45 142.495 223.841 141.441 223.19 140.347C222.864 139.799 222.525 139.241 222.173 138.672C222.16 138.645 222.145 138.62 222.128 138.595L222.028 138.429L205.797 140.601L199.753 141.409L199.393 144.421L199.306 145.167C199.302 145.167 199.302 145.167 199.306 145.17L199.063 147.203V147.207L198.74 149.892L198.713 149.889L189.744 148.726L180.501 147.529L175.536 146.887C174.385 146.737 173.216 146.818 172.097 147.124C170.978 147.43 169.931 147.956 169.017 148.671C168.063 149.41 167.266 150.332 166.672 151.383C166.078 152.434 165.699 153.592 165.558 154.791C165.526 155.034 165.506 155.284 165.495 155.53L160.811 166.629C158.009 173.267 156.224 180.29 155.517 187.46L152.082 198.441L152.571 198.486L159.85 199.163L161.772 199.343L166.005 193.164C166.488 192.46 166.946 191.735 167.372 190.992C168.075 189.779 168.699 188.523 169.242 187.231L178.398 165.442C179.106 165.564 179.807 165.68 180.501 165.789C183.71 166.31 186.791 166.734 189.744 167.063C199.344 168.135 207.657 168.218 215.057 167.309C217.136 167.056 219.145 166.723 221.084 166.31C221.795 166.161 222.497 166 223.19 165.828C223.353 165.789 223.513 165.751 223.672 165.71C225.106 165.34 226.424 164.616 227.506 163.605C228.588 162.594 229.399 161.328 229.865 159.922C230.422 158.294 230.501 156.54 230.094 154.867Z" fill="#2F2E41"/>
<path d="M154.518 210.56L149.408 208.111L148.606 207.726L147.326 210.869L138.388 212.836C137.946 212.933 137.547 213.169 137.249 213.509C136.95 213.849 136.768 214.275 136.729 214.726C136.691 215.177 136.797 215.628 137.033 216.014C137.269 216.4 137.622 216.7 138.041 216.871L146.774 220.435L149.546 217.94L148.866 221.288L152.155 222.631L155.76 211.157L154.518 210.56Z" fill="#2F2E41"/>
<path d="M185.926 205.719L186.252 206.545H185.926V205.719Z" fill="#2F2E41"/>
<path d="M124.862 145.672C124.862 143.812 124.237 142.303 123.471 142.299H65.7063C64.9361 142.303 64.3151 143.812 64.3116 145.672V222.224C64.3116 222.397 64.2474 222.564 64.1314 222.691C64.0154 222.819 63.8559 222.899 63.6841 222.916C63.123 222.97 62.5619 223.02 62.0009 223.066C61.987 223.066 61.9731 223.07 61.9593 223.07C61.6539 223.098 61.3486 223.119 61.0433 223.143H61.0398C60.8828 222.852 60.7275 222.56 60.5741 222.264C60.5222 222.165 60.4951 222.054 60.4951 221.942V141.297C60.4951 140.783 60.5159 140.266 60.5506 139.756C60.6002 139.056 60.687 138.359 60.8108 137.667C61.3972 134.444 62.7226 132.262 64.2283 132.255H124.945C125.165 132.256 125.382 132.302 125.584 132.39C125.879 132.521 126.147 132.709 126.371 132.942C126.675 133.258 126.936 133.614 127.145 134C127.887 135.308 128.418 137.258 128.606 139.527C128.606 139.548 128.609 139.569 128.609 139.59C128.658 140.152 128.682 140.724 128.678 141.297L128.727 148.732L128.758 153.166L128.852 167.079L128.887 172.019L129.039 222.744C129.039 222.928 128.966 223.104 128.836 223.234C128.706 223.365 128.529 223.438 128.345 223.438H125.556C125.372 223.438 125.195 223.365 125.065 223.234C124.935 223.104 124.862 222.928 124.862 222.744L124.862 145.672Z" fill="#3F3D56"/>
<path d="M83.6859 111.629L79.6679 129.308L77.1004 132.12H75.248L82.8824 99.9763L83.2599 105.437V105.441L83.6859 111.629Z" fill="#3F3D56"/>
<path d="M103.023 129.696L79.4511 129.547L77.359 129.533L75.8671 129.522L74.1288 129.512H74.115C73.8628 129.512 73.621 129.612 73.4419 129.79L70.5066 132.725C70.4416 132.789 70.3888 132.864 70.3505 132.947C70.3322 132.97 70.317 132.996 70.3054 133.023C70.2419 133.171 70.2156 133.332 70.229 133.492C70.2423 133.652 70.2948 133.806 70.3819 133.941C70.4689 134.076 70.5879 134.188 70.7282 134.266C70.8686 134.345 71.026 134.387 71.1867 134.39H101.722C101.905 134.389 102.085 134.337 102.239 134.239C102.394 134.141 102.518 134.001 102.596 133.835L102.836 133.315L103.328 132.256L103.887 131.063C103.947 130.936 103.977 130.797 103.977 130.657C103.976 130.404 103.875 130.161 103.697 129.981C103.518 129.802 103.276 129.699 103.023 129.696Z" fill="#3F3D56"/>
<path opacity="0.17" d="M102.835 133.314L102.594 133.836C102.516 134.001 102.393 134.141 102.238 134.239C102.084 134.337 101.905 134.39 101.722 134.391H71.1859C71.0253 134.388 70.8679 134.345 70.7276 134.267C70.5873 134.189 70.4684 134.077 70.3814 133.942C70.2944 133.807 70.242 133.653 70.2289 133.493C70.2157 133.333 70.2422 133.172 70.3059 133.024C70.3167 132.997 70.3316 132.971 70.3502 132.948L102.835 133.314Z" fill="black"/>
<path opacity="0.17" d="M83.2599 105.437V105.441L76.7226 132.12H75.248L82.8824 99.9763L83.2599 105.437Z" fill="black"/>
<path d="M91.282 110.326L82.0288 39.9252C81.9949 39.6614 81.8576 39.4218 81.6471 39.2591L75.2771 31.2861L74.7046 30.8455C74.4925 30.6849 74.226 30.6139 73.9621 30.6477L73.0045 30.7761C72.7404 30.8101 72.5007 30.9477 72.338 31.1585C72.1754 31.3693 72.1031 31.6361 72.1372 31.9002L81.7269 104.844V104.847L82.3133 109.309L83.0107 114.607V114.614L84.0932 122.857C84.1104 122.999 84.1581 123.135 84.233 123.256C84.3078 123.377 84.4081 123.48 84.5269 123.558C84.6435 123.639 84.7759 123.693 84.9153 123.718C85.0547 123.743 85.1979 123.739 85.3352 123.704L85.9424 123.551C86.175 123.491 86.379 123.351 86.5184 123.156L86.789 122.771L86.9139 122.59L91.1051 111.037C91.2522 110.831 91.3154 110.576 91.282 110.326Z" fill="#3F3D56"/>
<path opacity="0.17" d="M75.2763 31.2864L86.9157 122.592L86.7893 122.771L86.5196 123.155C86.3804 123.35 86.1763 123.491 85.9435 123.55L85.3355 123.703C85.1978 123.737 85.0545 123.742 84.9149 123.717C84.7754 123.692 84.6426 123.638 84.5254 123.558C84.4082 123.478 84.3092 123.374 84.2348 123.254C84.1604 123.133 84.1123 122.998 84.0936 122.857L72.1394 31.9013C72.1048 31.6372 72.1764 31.3701 72.3386 31.1588C72.5008 30.9475 72.7403 30.8093 73.0044 30.7745L73.9645 30.6483C74.0947 30.6307 74.2272 30.6392 74.3541 30.6733C74.481 30.7074 74.5999 30.7665 74.7038 30.847L75.2763 31.2864Z" fill="black"/>
<path d="M75.6191 33.8976L81.7959 42.7141L89.1375 98.5739L85.1572 106.47L75.6191 33.8976Z" fill="#6E2F9B"/>
<path d="M208.366 222.857L204.13 222.936L215.903 182.038L220.139 183.346L208.366 222.857Z" fill="#3F3D56"/>
<path d="M236.147 222.935L231.914 222.855L220.298 183.861L220.139 183.347L222.855 182.508C223.393 182.518 223.952 182.525 224.528 182.532L224.941 183.868L236.147 222.935Z" fill="#3F3D56"/>
<path d="M184.146 206.721L178.791 208.576L177.95 208.867L179.252 212.001L174.286 219.688C174.04 220.067 173.922 220.516 173.949 220.967C173.976 221.419 174.147 221.85 174.437 222.198C174.726 222.545 175.12 222.791 175.559 222.899C175.998 223.007 176.461 222.972 176.878 222.799L185.591 219.186L185.805 215.463L187.678 218.321L190.96 216.961L185.448 206.271L184.146 206.721Z" fill="#2F2E41"/>
<path d="M151.644 91.9239C151.898 92.4186 152.257 92.8515 152.697 93.1923C153.136 93.5331 153.645 93.7735 154.187 93.8964C154.729 94.0193 155.292 94.0218 155.835 93.9038C156.379 93.7857 156.89 93.55 157.332 93.2132L168.592 100.688L168.614 93.6649L157.917 87.6431C157.302 86.9374 156.45 86.4819 155.521 86.3628C154.593 86.2438 153.653 86.4695 152.879 86.9971C152.106 87.5248 151.553 88.3178 151.326 89.2258C151.098 90.1338 151.211 91.0938 151.644 91.9239V91.9239Z" fill="#FFB6B6"/>
<path d="M160.057 95.1701L165.31 89.1933L186.702 101.893L215.059 99.2958C216.461 99.1674 217.873 99.3493 219.197 99.8283C220.52 100.307 221.722 101.072 222.717 102.068C223.712 103.063 224.475 104.266 224.953 105.59C225.431 106.914 225.611 108.327 225.482 109.728C225.244 112.26 224.013 114.593 222.057 116.218C220.102 117.842 217.581 118.624 215.05 118.393L183.113 115.437L160.057 95.1701Z" fill="#6E2F9B"/>
<path d="M225.872 95.2624L225.823 95.2005L212.42 93.878L203.364 109.829C195.58 119.346 201.236 125.909 201.575 126.885L198.873 139.343L199.479 143.512L199.781 144.751L230.624 160.867L224.285 139.748L230.474 120.489C231.847 116.231 232.145 111.699 231.342 107.298C230.539 102.896 228.66 98.7617 225.872 95.2624Z" fill="#6E2F9B"/>
<path d="M233.562 83.6677C232.642 86.4849 230.641 88.8214 227.999 90.1636C225.357 91.5058 222.29 91.7438 219.473 90.8254C219.153 90.7213 218.841 90.6033 218.536 90.4715C215.972 89.3724 213.911 87.3538 212.76 84.8126C211.609 82.2714 211.45 79.3915 212.315 76.7391C212.589 75.8945 212.964 75.0861 213.432 74.3312C214.869 72.005 217.108 70.2862 219.726 69.5C222.345 68.7139 225.161 68.915 227.641 70.0653C230.121 71.2157 232.093 73.2353 233.185 75.7421C234.276 78.2488 234.41 81.0686 233.562 83.6677Z" fill="#FFB6B6"/>
<path d="M229.923 146.518C229.923 147.129 229.738 147.724 229.392 148.227C229.046 148.73 228.556 149.117 227.987 149.336C227.716 149.439 227.432 149.502 227.144 149.523C227.067 149.53 226.987 149.533 226.911 149.533H221.086V177.796C220.999 177.911 220.909 178.025 220.819 178.14C220.319 178.778 219.812 179.416 219.299 180.044C219.188 180.183 219.077 180.318 218.969 180.454C218.799 180.658 218.633 180.863 218.466 181.064C218.407 181.134 218.352 181.2 218.296 181.269C218.012 181.609 217.727 181.949 217.436 182.289V182.293C217.432 182.296 217.432 182.296 217.432 182.3L217.287 182.466C217.054 182.74 216.822 183.018 216.582 183.292C216.257 183.111 215.97 182.87 215.736 182.581C215.591 182.407 215.467 182.215 215.368 182.012C215.365 182.008 215.365 182.005 215.361 181.998C215.357 181.99 215.354 181.982 215.351 181.973C215.156 181.567 215.056 181.123 215.059 180.672V149.533H202C201.614 149.536 201.232 149.461 200.876 149.315C200.426 149.135 200.027 148.85 199.711 148.482C199.396 148.115 199.174 147.677 199.065 147.205V147.202C198.902 146.517 198.988 145.796 199.308 145.169C199.304 145.165 199.304 145.165 199.308 145.165C199.442 144.891 199.622 144.641 199.838 144.426V144.423C199.838 144.419 199.838 144.419 199.842 144.416C200.123 144.128 200.459 143.9 200.829 143.744C201.2 143.588 201.598 143.507 202 143.507H226.911C227.71 143.507 228.475 143.825 229.04 144.389C229.605 144.954 229.922 145.72 229.923 146.518Z" fill="#3F3D56"/>
<path d="M246.511 88.1856C245.292 87.9577 244.04 87.9721 242.827 88.2279C241.613 88.4838 240.462 88.9761 239.439 89.6768C238.416 90.3774 237.541 91.2728 236.864 92.3116C236.187 93.3504 235.722 94.5124 235.494 95.7313V95.7313C235.091 97.8844 235.45 100.11 236.508 102.028C237.566 103.946 239.258 105.436 241.294 106.244L238.455 121.424L244.38 122.532L250.658 88.9611L246.511 88.1856Z" fill="#3F3D56"/>
<path d="M201.348 188.826H191.455C190.911 188.826 190.385 188.629 189.974 188.272C189.564 187.915 189.295 187.422 189.219 186.884C188.608 182.388 188.608 177.831 189.219 173.336C189.294 172.804 189.557 172.316 189.96 171.96C190.363 171.604 190.879 171.403 191.417 171.393C194.53 169.998 197.882 169.998 201.382 171.393C201.708 171.398 202.029 171.473 202.323 171.615C202.617 171.756 202.876 171.961 203.082 172.213C203.297 172.476 203.451 172.783 203.533 173.112C203.614 173.442 203.622 173.785 203.554 174.118C202.759 178.073 202.759 182.146 203.554 186.101C203.622 186.434 203.614 186.778 203.533 187.107C203.451 187.437 203.297 187.744 203.082 188.006C202.872 188.263 202.608 188.47 202.308 188.612C202.008 188.754 201.68 188.827 201.348 188.826Z" fill="#F2F2F2"/>
<path d="M200.312 176.558H191.985C191.847 176.558 191.715 176.504 191.617 176.406C191.52 176.308 191.465 176.176 191.465 176.038C191.465 175.9 191.52 175.768 191.617 175.67C191.715 175.572 191.847 175.518 191.985 175.518H200.312C200.45 175.518 200.583 175.572 200.68 175.67C200.778 175.768 200.833 175.9 200.833 176.038C200.833 176.176 200.778 176.308 200.68 176.406C200.583 176.504 200.45 176.558 200.312 176.558Z" fill="white"/>
<path d="M200.312 180.722H191.985C191.847 180.722 191.715 180.667 191.617 180.569C191.52 180.472 191.465 180.339 191.465 180.201C191.465 180.063 191.52 179.931 191.617 179.833C191.715 179.736 191.847 179.681 191.985 179.681H200.312C200.45 179.681 200.583 179.736 200.68 179.833C200.778 179.931 200.833 180.063 200.833 180.201C200.833 180.339 200.778 180.472 200.68 180.569C200.583 180.667 200.45 180.722 200.312 180.722Z" fill="white"/>
<path d="M200.312 184.885H191.985C191.847 184.885 191.715 184.83 191.617 184.733C191.52 184.635 191.465 184.503 191.465 184.365C191.465 184.227 191.52 184.094 191.617 183.997C191.715 183.899 191.847 183.844 191.985 183.844H200.312C200.45 183.844 200.583 183.899 200.68 183.997C200.778 184.094 200.833 184.227 200.833 184.365C200.833 184.503 200.778 184.635 200.68 184.733C200.583 184.83 200.45 184.885 200.312 184.885Z" fill="white"/>
<path d="M83.1289 78.55V78.5491C83.1394 78.4646 83.1825 78.3877 83.249 78.3346C83.3154 78.2815 83.4 78.2564 83.4846 78.2648L137.013 78.4074C137.097 78.3995 137.182 78.4249 137.248 78.4782C137.314 78.5315 137.356 78.6084 137.366 78.6926V78.6936C137.356 78.778 137.313 78.855 137.246 78.9081C137.18 78.9612 137.095 78.9862 137.011 78.9779L83.4822 78.8352C83.3977 78.8431 83.3136 78.8177 83.2476 78.7644C83.1816 78.7112 83.139 78.6342 83.1289 78.55Z" fill="#3F3D56"/>
<path d="M97.2842 111.518L95.0114 114.017C94.906 114.106 94.7774 114.163 94.6408 114.18C94.5043 114.198 94.3655 114.176 94.241 114.117C93.8641 113.984 93.5287 113.754 93.2682 113.451C91.6439 111.607 89.8204 109.949 87.8309 108.507C87.5042 108.277 87.2435 107.965 87.0748 107.602C87.0064 107.485 86.9718 107.352 86.9748 107.217C86.9778 107.081 87.0184 106.95 87.0919 106.836C87.1145 105.469 87.885 104.621 89.3822 104.317C89.6447 104.044 90.2377 104.148 90.7693 104.562C92.9557 106.268 95.0105 108.136 96.9163 110.151C97.3843 110.646 97.5425 111.234 97.2842 111.518Z" fill="#6E2F9B"/>
<path d="M91.4422 106.137L89.5292 108.241C89.4632 108.313 89.304 108.276 89.1735 108.157C89.0431 108.039 88.9909 107.884 89.0569 107.811L90.9699 105.707C91.036 105.635 91.1952 105.672 91.3256 105.79C91.4561 105.909 91.5083 106.064 91.4422 106.137Z" fill="white"/>
<path d="M93.3319 107.854L91.4189 109.958C91.3528 110.031 91.1936 109.994 91.0632 109.875C90.9327 109.756 90.8805 109.601 90.9466 109.529L92.8596 107.425C92.9256 107.352 93.0848 107.389 93.2153 107.508C93.3457 107.627 93.3979 107.782 93.3319 107.854Z" fill="white"/>
<path d="M95.2205 109.572L93.3075 111.676C93.2415 111.748 93.0823 111.711 92.9518 111.593C92.8214 111.474 92.7692 111.319 92.8353 111.246L94.7482 109.142C94.8143 109.07 94.9735 109.107 95.104 109.226C95.2344 109.344 95.2866 109.499 95.2205 109.572Z" fill="white"/>
<path d="M300 223.135C300 223.189 299.99 223.243 299.969 223.293C299.948 223.343 299.918 223.389 299.879 223.427C299.841 223.466 299.795 223.496 299.745 223.517C299.695 223.537 299.641 223.548 299.587 223.548H0.412875C0.303374 223.548 0.198356 223.504 0.120927 223.427C0.0434985 223.349 0 223.244 0 223.135C0 223.025 0.0434985 222.92 0.120927 222.843C0.198356 222.765 0.303374 222.722 0.412875 222.722H299.587C299.641 222.722 299.695 222.732 299.745 222.753C299.795 222.774 299.841 222.804 299.879 222.843C299.918 222.881 299.948 222.926 299.969 222.977C299.99 223.027 300 223.081 300 223.135Z" fill="#CCCCCC"/>
<path d="M204.247 176.18C204.726 175.897 205.137 175.513 205.451 175.054C205.765 174.595 205.975 174.073 206.065 173.524C206.156 172.976 206.125 172.414 205.975 171.879C205.825 171.343 205.559 170.847 205.197 170.426L211.991 158.741L204.978 159.137L199.602 170.172C198.934 170.827 198.53 171.706 198.466 172.64C198.402 173.574 198.683 174.498 199.256 175.239C199.828 175.98 200.653 176.484 201.573 176.658C202.493 176.831 203.444 176.661 204.247 176.18V176.18Z" fill="#FFB6B6"/>
<path d="M206.989 167.59L200.711 162.7L212.119 140.592L207.844 112.439C207.633 111.048 207.731 109.627 208.13 108.277C208.53 106.927 209.222 105.682 210.157 104.63C211.092 103.578 212.247 102.745 213.54 102.189C214.834 101.634 216.233 101.37 217.64 101.416C220.181 101.503 222.584 102.594 224.321 104.449C226.059 106.305 226.989 108.775 226.908 111.316L225.852 143.372L206.989 167.59Z" fill="#6E2F9B"/>
<path d="M152.544 97.9298H131.345C130.777 97.9292 130.232 97.7032 129.83 97.3015C129.429 96.8997 129.203 96.3551 129.202 95.7869V67.717C129.203 67.1489 129.429 66.6042 129.83 66.2025C130.232 65.8008 130.777 65.5748 131.345 65.5742H152.544C153.112 65.5748 153.657 65.8008 154.059 66.2025C154.46 66.6042 154.686 67.1489 154.687 67.717V95.7869C154.686 96.3551 154.46 96.8998 154.059 97.3015C153.657 97.7032 153.112 97.9292 152.544 97.9298Z" fill="#E6E6E6"/>
<path d="M151.054 96.1438H132.835C132.331 96.1433 131.847 95.9426 131.491 95.5859C131.134 95.2292 130.933 94.7456 130.933 94.2412V69.2628C130.933 68.7583 131.134 68.2747 131.491 67.918C131.847 67.5613 132.331 67.3607 132.835 67.3601H151.054C151.558 67.3607 152.042 67.5613 152.399 67.918C152.755 68.2747 152.956 68.7583 152.957 69.2628V94.2412C152.956 94.7456 152.755 95.2292 152.399 95.5859C152.042 95.9426 151.558 96.1433 151.054 96.1438Z" fill="white"/>
<path d="M149.237 72.107H134.653C134.59 72.1072 134.528 72.095 134.47 72.0712C134.412 72.0474 134.36 72.0123 134.316 71.9682C134.271 71.924 134.236 71.8715 134.212 71.8137C134.188 71.7559 134.176 71.694 134.176 71.6314C134.176 71.5688 134.188 71.5069 134.212 71.4491C134.236 71.3913 134.271 71.3388 134.316 71.2946C134.36 71.2504 134.412 71.2154 134.47 71.1916C134.528 71.1678 134.59 71.1556 134.653 71.1558H149.237C149.299 71.1556 149.361 71.1678 149.419 71.1916C149.477 71.2154 149.529 71.2504 149.574 71.2946C149.618 71.3388 149.653 71.3913 149.677 71.4491C149.701 71.5069 149.713 71.5688 149.713 71.6314C149.713 71.694 149.701 71.7559 149.677 71.8137C149.653 71.8715 149.618 71.924 149.574 71.9682C149.529 72.0123 149.477 72.0474 149.419 72.0712C149.361 72.095 149.299 72.1072 149.237 72.107Z" fill="#6E2F9B"/>
<path d="M149.236 73.9865H134.652C134.526 73.9865 134.405 73.9364 134.316 73.8471C134.227 73.7579 134.177 73.637 134.177 73.5108C134.177 73.3847 134.227 73.2637 134.316 73.1745C134.405 73.0853 134.526 73.0352 134.652 73.0352H149.236C149.299 73.0352 149.361 73.0475 149.418 73.0714C149.476 73.0953 149.528 73.1303 149.573 73.1745C149.617 73.2186 149.652 73.2711 149.676 73.3288C149.7 73.3865 149.712 73.4483 149.712 73.5108C149.712 73.5733 149.7 73.6351 149.676 73.6928C149.652 73.7505 149.617 73.803 149.573 73.8471C149.528 73.8913 149.476 73.9264 149.418 73.9503C149.361 73.9742 149.299 73.9865 149.236 73.9865Z" fill="#6E2F9B"/>
<path d="M140.974 75.8659H134.652C134.526 75.8659 134.405 75.8157 134.316 75.7265C134.227 75.6373 134.177 75.5164 134.177 75.3902C134.177 75.2641 134.227 75.1431 134.316 75.0539C134.405 74.9647 134.526 74.9146 134.652 74.9146H140.974C141.1 74.9146 141.221 74.9647 141.31 75.0539C141.4 75.1431 141.45 75.2641 141.45 75.3902C141.45 75.5164 141.4 75.6373 141.31 75.7265C141.221 75.8157 141.1 75.8659 140.974 75.8659Z" fill="#6E2F9B"/>
<path d="M149.237 79.8022H134.653C134.59 79.8023 134.528 79.7901 134.47 79.7663C134.412 79.7425 134.36 79.7075 134.316 79.6633C134.271 79.6191 134.236 79.5666 134.212 79.5088C134.188 79.451 134.176 79.3891 134.176 79.3265C134.176 79.264 134.188 79.202 134.212 79.1442C134.236 79.0864 134.271 79.0339 134.316 78.9897C134.36 78.9456 134.412 78.9106 134.47 78.8867C134.528 78.8629 134.59 78.8507 134.653 78.8509H149.237C149.299 78.8507 149.361 78.8629 149.419 78.8867C149.477 78.9106 149.529 78.9456 149.574 78.9897C149.618 79.0339 149.653 79.0864 149.677 79.1442C149.701 79.202 149.713 79.264 149.713 79.3265C149.713 79.3891 149.701 79.451 149.677 79.5088C149.653 79.5666 149.618 79.6191 149.574 79.6633C149.529 79.7075 149.477 79.7425 149.419 79.7663C149.361 79.7901 149.299 79.8023 149.237 79.8022Z" fill="#E4E4E4"/>
<path d="M149.237 81.6816H134.653C134.59 81.6818 134.528 81.6696 134.47 81.6458C134.412 81.6219 134.36 81.5869 134.316 81.5427C134.271 81.4986 134.236 81.4461 134.212 81.3883C134.188 81.3305 134.176 81.2685 134.176 81.206C134.176 81.1434 134.188 81.0814 134.212 81.0236C134.236 80.9658 134.271 80.9134 134.316 80.8692C134.36 80.825 134.412 80.79 134.47 80.7661C134.528 80.7423 134.59 80.7301 134.653 80.7303H149.237C149.299 80.7301 149.361 80.7423 149.419 80.7661C149.477 80.79 149.53 80.825 149.574 80.8692C149.618 80.9134 149.653 80.9658 149.677 81.0236C149.701 81.0814 149.714 81.1434 149.714 81.206C149.714 81.2685 149.701 81.3305 149.677 81.3883C149.653 81.4461 149.618 81.4986 149.574 81.5427C149.53 81.5869 149.477 81.6219 149.419 81.6458C149.361 81.6696 149.299 81.6818 149.237 81.6816Z" fill="#E4E4E4"/>
<path d="M140.974 83.5611H134.652C134.526 83.5611 134.405 83.5109 134.316 83.4217C134.227 83.3325 134.177 83.2116 134.177 83.0854C134.177 82.9593 134.227 82.8383 134.316 82.7491C134.405 82.6598 134.526 82.6097 134.652 82.6097H140.974C141.1 82.6097 141.221 82.6598 141.31 82.7491C141.4 82.8383 141.45 82.9593 141.45 83.0854C141.45 83.2116 141.4 83.3325 141.31 83.4217C141.221 83.5109 141.1 83.5611 140.974 83.5611Z" fill="#E4E4E4"/>
<path d="M149.236 87.4973H134.652C134.526 87.4973 134.405 87.4472 134.316 87.358C134.227 87.2688 134.177 87.1478 134.177 87.0217C134.177 86.8955 134.227 86.7745 134.316 86.6853C134.405 86.5961 134.526 86.546 134.652 86.546H149.236C149.362 86.546 149.483 86.5961 149.573 86.6853C149.662 86.7745 149.712 86.8955 149.712 87.0217C149.712 87.1478 149.662 87.2688 149.573 87.358C149.483 87.4472 149.362 87.4973 149.236 87.4973Z" fill="#E4E4E4"/>
<path d="M149.236 89.3767H134.652C134.526 89.3767 134.405 89.3266 134.316 89.2374C134.227 89.1482 134.177 89.0272 134.177 88.9011C134.177 88.7749 134.227 88.6539 134.316 88.5647C134.405 88.4755 134.526 88.4254 134.652 88.4254H149.236C149.362 88.4254 149.483 88.4755 149.573 88.5647C149.662 88.6539 149.712 88.7749 149.712 88.9011C149.712 89.0272 149.662 89.1482 149.573 89.2374C149.483 89.3266 149.362 89.3767 149.236 89.3767Z" fill="#E4E4E4"/>
<path d="M140.974 91.2562H134.652C134.526 91.2562 134.405 91.2061 134.316 91.1169C134.227 91.0277 134.177 90.9067 134.177 90.7806C134.177 90.6544 134.227 90.5334 134.316 90.4442C134.405 90.355 134.526 90.3049 134.652 90.3049H140.974C141.1 90.3049 141.221 90.355 141.31 90.4442C141.4 90.5334 141.45 90.6544 141.45 90.7806C141.45 90.9067 141.4 91.0277 141.31 91.1169C141.221 91.2061 141.1 91.2562 140.974 91.2562Z" fill="#E4E4E4"/>
<path d="M80.4053 60.5291L137.276 11.8852H137.366V12.5993H137.54L80.8698 61.0717L80.4053 60.5291Z" fill="#2F2E41"/>
<path d="M119.67 116.393H93.5204C93.1119 116.393 92.7202 116.556 92.4313 116.844C92.1424 117.133 91.98 117.525 91.9795 117.934V134.214C91.98 134.622 92.1424 135.014 92.4313 135.303C92.7202 135.592 93.1119 135.754 93.5204 135.755H119.67C120.078 135.754 120.47 135.592 120.759 135.303C121.048 135.014 121.21 134.622 121.211 134.214V117.934C121.21 117.525 121.048 117.133 120.759 116.844C120.47 116.556 120.078 116.393 119.67 116.393Z" fill="white"/>
<path d="M119.67 116.393H93.5204C93.1119 116.393 92.7202 116.556 92.4313 116.844C92.1424 117.133 91.98 117.525 91.9795 117.934V134.214C91.98 134.622 92.1424 135.014 92.4313 135.303C92.7202 135.592 93.1119 135.754 93.5204 135.755H119.67C120.078 135.754 120.47 135.592 120.759 135.303C121.048 135.014 121.21 134.622 121.211 134.214V117.934C121.21 117.525 121.048 117.133 120.759 116.844C120.47 116.556 120.078 116.393 119.67 116.393ZM120.175 128.087C120.169 129.744 119.513 131.333 118.349 132.513C117.185 133.693 115.605 134.369 113.947 134.397C111.294 134.431 115.415 134.445 112.215 134.445C104.898 134.445 97.2676 134.375 94.4207 134.33C94.0461 134.322 93.6894 134.168 93.4267 133.901C93.164 133.634 93.0162 133.275 93.0147 132.9V117.935C93.0149 117.801 93.0682 117.672 93.1629 117.577C93.2577 117.482 93.3862 117.428 93.5203 117.428H119.669C119.803 117.428 119.931 117.481 120.026 117.576C120.121 117.671 120.175 117.799 120.175 117.933V128.087Z" fill="#CACACA"/>
<path d="M116.221 126.783H96.2977C96.1214 126.783 95.9495 126.728 95.8054 126.627C95.6614 126.525 95.5522 126.382 95.4928 126.216L92.4158 117.583C92.3699 117.454 92.3556 117.316 92.3741 117.181C92.3925 117.045 92.4433 116.916 92.522 116.804C92.6008 116.692 92.7052 116.601 92.8266 116.538C92.948 116.475 93.0827 116.442 93.2195 116.442L119.939 116.394H119.941C120.082 116.394 120.221 116.429 120.346 116.496C120.47 116.564 120.576 116.66 120.654 116.778C120.732 116.896 120.779 117.032 120.792 117.173C120.804 117.314 120.782 117.455 120.726 117.585L120.679 117.565L120.726 117.585L117.006 126.265C116.94 126.419 116.831 126.55 116.691 126.642C116.551 126.734 116.388 126.783 116.221 126.783Z" fill="#CACACA"/>
<path d="M106.58 128.912C107.756 128.912 108.709 127.959 108.709 126.783C108.709 125.608 107.756 124.655 106.58 124.655C105.404 124.655 104.451 125.608 104.451 126.783C104.451 127.959 105.404 128.912 106.58 128.912Z" fill="#3F3D56"/>
<path d="M49.3131 212.478C48.8967 215.545 46.8115 218.313 44.1296 220.121C43.4906 220.553 42.8162 220.93 42.1138 221.248C41.3414 221.597 40.5448 221.889 39.7302 222.123C36.1566 223.167 32.295 223.212 28.5375 223.233C24.7384 223.257 20.9404 223.282 17.1436 223.306C14.1494 223.323 11.058 223.323 8.29279 222.175C8.25144 222.16 8.2109 222.142 8.17135 222.123C5.45471 220.95 3.14053 218.372 3.20645 215.423C3.23295 214.384 3.52692 213.37 4.05995 212.478C4.4128 211.878 4.83685 211.324 5.32286 210.826C6.82864 209.265 8.9173 208.04 10.8741 207.055C14.1008 205.434 17.7473 203.332 18.691 200.001C18.7906 199.651 18.8579 199.292 18.8922 198.929C19.1143 196.639 18.0005 194.533 16.5815 192.649C16.4427 192.462 16.297 192.274 16.1478 192.087C15.8286 191.688 15.499 191.296 15.1729 190.921C15.0341 190.762 14.8953 190.599 14.7531 190.436C13.4416 188.916 12.1197 187.292 11.4292 185.478C11.132 184.718 10.9666 183.913 10.94 183.098C10.8637 180.152 14.1563 177.185 16.6474 178.577C17.8687 178.459 19.09 178.337 20.3112 178.212C21.8101 178.063 23.302 177.914 24.7973 177.761H24.8008C25.1374 177.734 25.467 177.699 25.7966 177.664C28.9087 177.355 32.0186 177.044 35.1261 176.731C36.507 176.596 38.1308 176.544 39.0294 177.605C40.0078 178.764 39.5012 180.596 38.5332 181.765C37.5652 182.931 36.2225 183.757 35.3135 184.964C34.1373 186.525 33.8632 188.5 34.1998 190.436C34.2972 190.998 34.4435 191.55 34.6369 192.087C34.9766 193.046 35.4472 193.953 36.0352 194.783C38.0752 197.642 41.0972 199.613 43.7792 201.878C46.4646 204.147 48.9765 207.027 49.3443 210.517C49.3547 210.618 49.3651 210.722 49.3686 210.826C49.4075 211.377 49.3889 211.93 49.3131 212.478Z" fill="#E6E6E6"/>
<path d="M27.4933 180.709C24.7861 178.034 22.4801 174.982 20.647 171.647C18.8195 168.329 17.4697 164.77 16.6376 161.074C15.7939 157.324 15.5145 153.469 15.8085 149.636C16.4183 141.83 19.3027 134.374 24.105 128.19C24.3983 127.814 24.6986 127.443 25.0059 127.078C25.3485 126.671 25.9306 127.258 25.5904 127.663C20.6898 133.539 17.6195 140.723 16.7596 148.326C16.1376 154.136 16.8321 160.012 18.7915 165.516C20.7509 171.021 23.9249 176.014 28.0778 180.124C28.4572 180.498 27.8727 181.083 27.4933 180.709V180.709Z" fill="#E6E6E6"/>
<path d="M23.7725 128.892C24.1071 128.767 24.4348 128.624 24.7542 128.463C24.7704 128.488 24.7861 128.514 24.8023 128.539L23.7725 128.892Z" fill="#E6E6E6"/>
<path d="M30.1547 121.6C30.0194 122.358 29.7751 123.091 29.4295 123.779C28.4753 125.695 26.9553 127.272 25.0753 128.296C24.9712 128.352 24.8636 128.411 24.7561 128.463C24.6277 128.262 24.4958 128.06 24.3709 127.859C23.4854 126.541 22.8307 125.081 22.4349 123.543C22.0325 121.735 22.2511 119.706 23.4099 118.259C24.5652 116.812 26.7719 116.163 28.3713 117.1C28.8331 117.376 29.225 117.755 29.5163 118.207C29.3567 118.405 29.197 118.599 29.0375 118.797C29.0234 118.815 29.0084 118.832 28.9924 118.849C28.8536 119.022 28.7113 119.192 28.5726 119.366C27.9931 120.077 27.4172 120.792 26.8378 121.499C27.6544 121.65 28.4855 121.707 29.315 121.67C29.381 121.666 29.4503 121.663 29.5163 121.659C29.7279 121.645 29.943 121.628 30.1547 121.6Z" fill="#E6E6E6"/>
<path d="M18.4514 135.829L18.2294 138.722L18.1704 139.506C18.1079 139.475 18.042 139.444 17.9796 139.413C15.8215 138.341 13.9169 136.822 12.393 134.956C10.8691 133.09 9.76095 130.92 9.14268 128.591C8.93597 127.783 8.79099 126.961 8.70898 126.131C9.83311 125.958 10.9607 125.781 12.0848 125.607C11.1747 124.423 10.0347 123.436 8.73327 122.703C9.03004 119.808 10.0764 117.039 11.7691 114.671C12.0606 119.522 17.1399 122.606 18.9996 127.092C19.5701 128.496 19.8171 130.011 19.7222 131.523C19.6273 133.035 19.193 134.507 18.4514 135.829Z" fill="#E6E6E6"/>
<path d="M17.4865 161.243C17.2159 161.257 16.9452 161.264 16.6781 161.26C14.3692 161.246 12.0876 160.76 9.97322 159.832C7.85885 158.904 5.95625 157.554 4.38207 155.865C3.10777 154.47 2.08318 152.865 1.35317 151.122C1.37745 151.119 1.39827 151.115 1.42256 151.112C2.54669 150.938 3.67429 150.762 4.79842 150.588C3.60451 149.032 2.01773 147.823 0.201286 147.084C-0.0443756 145.516 -0.0630727 143.921 0.145772 142.348C2.68547 146.487 8.62184 146.82 12.3724 149.901C14.1611 151.392 15.3805 153.454 15.8246 155.74C15.9353 156.305 15.9945 156.879 16.0015 157.454C16.005 157.593 16.005 157.728 16.0015 157.864L16.0848 158.051L17.4865 161.243Z" fill="#E6E6E6"/>
<path d="M28.6455 166.034C27.9273 166.916 27.2092 167.804 26.491 168.685C27.3739 168.847 28.2734 168.901 29.1694 168.845C28.3738 171.694 26.8463 174.286 24.7388 176.363C24.5411 176.557 24.3364 176.748 24.1282 176.929C24.0866 176.967 24.0415 177.005 23.9998 177.043L23.8125 176.512L23.809 176.509L22.7473 173.57C21.4004 172.216 20.4676 170.506 20.0584 168.64V168.633C19.8096 167.541 19.7521 166.414 19.8884 165.302C20.4817 160.483 24.555 156.15 23.5419 151.4C25.7741 153.208 27.5061 155.557 28.5727 158.224C27.9933 158.936 27.4173 159.65 26.8379 160.358C27.6546 160.508 28.4856 160.565 29.3152 160.528C29.6057 161.703 29.764 162.906 29.787 164.116C29.7905 164.289 29.7905 164.459 29.787 164.633C29.4227 165.084 29.0549 165.531 28.6906 165.982C28.6766 166.001 28.6616 166.018 28.6455 166.034Z" fill="#E6E6E6"/>
<path d="M155.666 23.6819H134.467C133.899 23.6812 133.354 23.4552 132.953 23.0535C132.551 22.6518 132.325 22.1071 132.324 21.539V2.14289C132.325 1.57476 132.551 1.03008 132.953 0.628349C133.354 0.226618 133.899 0.000644646 134.467 0H155.666C156.234 0.000641891 156.779 0.226618 157.181 0.628349C157.582 1.03008 157.808 1.57476 157.809 2.14289V21.539C157.808 22.1071 157.582 22.6518 157.181 23.0535C156.779 23.4552 156.234 23.6812 155.666 23.6819Z" fill="#E6E6E6"/>
<path d="M154.176 21.8959H135.957C135.453 21.8953 134.969 21.6947 134.613 21.338C134.256 20.9813 134.055 20.4977 134.055 19.9932V3.68863C134.055 3.18419 134.256 2.70057 134.613 2.34388C134.969 1.98719 135.453 1.78655 135.957 1.78598H154.176C154.681 1.78655 155.164 1.98719 155.521 2.34388C155.878 2.70057 156.078 3.18419 156.079 3.68863V19.9932C156.078 20.4977 155.878 20.9813 155.521 21.338C155.164 21.6947 154.681 21.8953 154.176 21.8959Z" fill="white"/>
<path d="M152.359 6.53289H137.775C137.712 6.53306 137.65 6.52089 137.592 6.49706C137.535 6.47323 137.482 6.43822 137.438 6.39404C137.393 6.34986 137.358 6.29737 137.334 6.23958C137.31 6.18179 137.298 6.11983 137.298 6.05726C137.298 5.99469 137.31 5.93274 137.334 5.87495C137.358 5.81716 137.393 5.76467 137.438 5.72049C137.482 5.67631 137.535 5.6413 137.592 5.61747C137.65 5.59365 137.712 5.58147 137.775 5.58164H152.359C152.421 5.58147 152.483 5.59365 152.541 5.61747C152.599 5.6413 152.651 5.67631 152.696 5.72049C152.74 5.76467 152.775 5.81716 152.799 5.87495C152.823 5.93274 152.836 5.99469 152.836 6.05726C152.836 6.11983 152.823 6.18179 152.799 6.23958C152.775 6.29737 152.74 6.34986 152.696 6.39404C152.651 6.43822 152.599 6.47323 152.541 6.49706C152.483 6.52089 152.421 6.53306 152.359 6.53289Z" fill="#6E2F9B"/>
<path d="M152.358 8.41233H137.774C137.648 8.41233 137.527 8.36222 137.438 8.27301C137.349 8.18381 137.299 8.06283 137.299 7.93668C137.299 7.81053 137.349 7.68954 137.438 7.60034C137.527 7.51114 137.648 7.46103 137.774 7.46103H152.358C152.485 7.46103 152.606 7.51114 152.695 7.60034C152.784 7.68954 152.834 7.81053 152.834 7.93668C152.834 8.06283 152.784 8.18381 152.695 8.27301C152.606 8.36222 152.485 8.41233 152.358 8.41233Z" fill="#6E2F9B"/>
<path d="M144.096 10.2918H137.774C137.648 10.2918 137.527 10.2416 137.438 10.1524C137.349 10.0632 137.299 9.94226 137.299 9.81611C137.299 9.68996 137.349 9.56898 137.438 9.47977C137.527 9.39057 137.648 9.34045 137.774 9.34045H144.096C144.222 9.34045 144.343 9.39057 144.433 9.47977C144.522 9.56898 144.572 9.68996 144.572 9.81611C144.572 9.94226 144.522 10.0632 144.433 10.1524C144.343 10.2416 144.222 10.2918 144.096 10.2918Z" fill="#6E2F9B"/>
<path d="M152.359 14.228H137.775C137.712 14.2282 137.65 14.216 137.592 14.1922C137.535 14.1684 137.482 14.1334 137.438 14.0892C137.393 14.045 137.358 13.9925 137.334 13.9347C137.31 13.8769 137.298 13.815 137.298 13.7524C137.298 13.6898 137.31 13.6279 137.334 13.5701C137.358 13.5123 137.393 13.4598 137.438 13.4156C137.482 13.3714 137.535 13.3364 137.592 13.3126C137.65 13.2888 137.712 13.2766 137.775 13.2768H152.359C152.421 13.2766 152.483 13.2888 152.541 13.3126C152.599 13.3364 152.651 13.3714 152.696 13.4156C152.74 13.4598 152.775 13.5123 152.799 13.5701C152.823 13.6279 152.836 13.6898 152.836 13.7524C152.836 13.815 152.823 13.8769 152.799 13.9347C152.775 13.9925 152.74 14.045 152.696 14.0892C152.651 14.1334 152.599 14.1684 152.541 14.1922C152.483 14.216 152.421 14.2282 152.359 14.228Z" fill="#E4E4E4"/>
<path d="M152.359 16.1075H137.775C137.712 16.1076 137.65 16.0954 137.592 16.0716C137.535 16.0478 137.482 16.0128 137.438 15.9686C137.393 15.9244 137.358 15.8719 137.334 15.8141C137.31 15.7563 137.298 15.6944 137.298 15.6318C137.298 15.5692 137.31 15.5073 137.334 15.4495C137.358 15.3917 137.393 15.3392 137.438 15.295C137.482 15.2508 137.535 15.2158 137.592 15.192C137.65 15.1682 137.712 15.156 137.775 15.1562H152.359C152.421 15.156 152.483 15.1682 152.541 15.192C152.599 15.2158 152.652 15.2508 152.696 15.295C152.74 15.3392 152.775 15.3917 152.799 15.4495C152.823 15.5073 152.836 15.5692 152.836 15.6318C152.836 15.6944 152.823 15.7563 152.799 15.8141C152.775 15.8719 152.74 15.9244 152.696 15.9686C152.652 16.0128 152.599 16.0478 152.541 16.0716C152.483 16.0954 152.421 16.1076 152.359 16.1075Z" fill="#E4E4E4"/>
<path d="M144.096 17.9869H137.774C137.648 17.9869 137.527 17.9368 137.438 17.8476C137.349 17.7584 137.299 17.6374 137.299 17.5113C137.299 17.3851 137.349 17.2641 137.438 17.1749C137.527 17.0857 137.648 17.0356 137.774 17.0356H144.096C144.222 17.0356 144.343 17.0857 144.433 17.1749C144.522 17.2641 144.572 17.3851 144.572 17.5113C144.572 17.6374 144.522 17.7584 144.433 17.8476C144.343 17.9368 144.222 17.9869 144.096 17.9869Z" fill="#E4E4E4"/>
<path d="M233.73 81.4978C233.845 81.4136 233.939 81.3068 234.005 81.1844C234.071 81.062 234.108 80.927 234.114 80.7886L234.439 72.8806C234.446 72.7198 234.411 72.5589 234.336 72.4124C234.261 72.2659 234.149 72.1385 234.01 72.0416C228.525 68.2352 222.442 67.043 215.929 68.4981C215.756 68.5378 215.598 68.6194 215.47 68.7348C215.342 68.8503 215.25 68.9958 215.201 69.157L212.796 74.943C212.757 75.0718 212.747 75.2076 212.767 75.3415C212.787 75.4755 212.836 75.6047 212.911 75.721C213.064 75.9552 212.485 80.3374 212.769 80.3929C213.034 77.7652 213.854 76.6437 215.706 78.3151C215.898 78.3522 216.097 78.3373 216.278 78.2722C216.458 78.2071 216.615 78.0944 216.728 77.9473L217.924 76.3889C218.002 76.288 218.113 76.2143 218.24 76.179C218.367 76.1438 218.505 76.1488 218.631 76.1933C218.757 76.2379 218.865 76.3196 218.939 76.4261C219.013 76.5325 219.049 76.658 219.042 76.7836L218.963 78.0895C218.949 78.3246 219.026 78.5585 219.181 78.7474C219.336 78.9362 219.557 79.0671 219.803 79.1155C222.99 81.4328 227.674 81.8921 232.903 81.6754C233.048 81.7037 233.196 81.7025 233.339 81.6718C233.482 81.6412 233.615 81.5818 233.73 81.4978Z" fill="#2F2E41"/>
</g>
<defs>
<clipPath id="clip0_1721_8330">
<rect width="300" height="224" fill="white"/>
</clipPath>
</defs>
</svg>
