<svg width="21" height="25" viewBox="0 0 21 25" fill="none" xmlns="http://www.w3.org/2000/svg">
<g clip-path="url(#clip0_931_4293)">
<path d="M19.1744 16.1451L19.1744 16.145C20.3267 13.0208 20.2689 9.56052 20.214 6.66562L20.2136 6.65667C20.2136 6.65611 20.2136 6.65554 20.2135 6.65497C20.2026 6.41276 20.1954 6.15799 20.191 5.87677L20.191 5.87633C20.1759 4.85426 19.3604 4.00457 18.3361 3.94732C15.3837 3.78254 13.0584 2.81062 11.0794 0.882834L11.0709 0.874734C10.704 0.541803 10.1599 0.541701 9.79261 0.874753L9.78413 0.882836C7.80515 2.81064 5.47989 3.78254 2.52743 3.9475L2.52736 3.94751C1.50335 4.00461 0.68772 4.85425 0.672587 5.87652L0.672586 5.87661C0.668427 6.15487 0.661061 6.4082 0.650245 6.65031L0.649327 6.68657C0.594218 9.57702 0.535526 13.0324 1.68402 16.1485L1.68403 16.1486C2.31082 17.8493 3.25691 19.3204 4.49397 20.5277C5.90454 21.9043 7.76936 23.0138 10.0555 23.8109L10.0555 23.811C10.1043 23.828 10.1559 23.8421 10.2093 23.8528C10.2839 23.8677 10.3581 23.875 10.4318 23.875C10.5056 23.875 10.5799 23.8677 10.6541 23.8529C10.7073 23.8422 10.7594 23.8279 10.8085 23.8108L19.1744 16.1451ZM19.1744 16.1451C18.547 17.8464 17.6008 19.3179 16.3642 20.5257M19.1744 16.1451L16.3642 20.5257M16.3642 20.5257C14.9548 21.9021 13.092 23.0122 10.8086 23.8107L16.3642 20.5257Z" stroke="black" stroke-width="1.25"/>
<path d="M13.1687 16.5H7.83132L9.521 13.3155L9.73385 12.9143L9.35497 12.664C8.75107 12.2649 8.34384 11.5653 8.34384 10.7578C8.34384 9.49302 9.3268 8.5 10.5 8.5C11.6732 8.5 12.6559 9.49297 12.6559 10.7578C12.6559 11.5653 12.2488 12.2649 11.6451 12.6638L11.2661 12.9141L11.479 13.3153L13.1687 16.5Z" stroke="black"/>
</g>
<defs>
<clipPath id="clip0_931_4293">
<rect width="21" height="24.5" fill="white"/>
</clipPath>
</defs>
</svg>
