<svg width="16" height="16" viewBox="0 0 16 16" fill="none" xmlns="http://www.w3.org/2000/svg">
<g clip-path="url(#clip0_557_3142)">
<path d="M10.2067 5.79688C9.99977 5.79688 9.83203 5.96461 9.83203 6.17158V13.2535C9.83203 13.4604 9.99977 13.6282 10.2067 13.6282C10.4137 13.6282 10.5814 13.4604 10.5814 13.2535V6.17158C10.5814 5.96461 10.4137 5.79688 10.2067 5.79688Z" fill="#FC544B"/>
<path d="M5.78535 5.79688C5.57838 5.79688 5.41064 5.96461 5.41064 6.17158V13.2535C5.41064 13.4604 5.57838 13.6282 5.78535 13.6282C5.99232 13.6282 6.16006 13.4604 6.16006 13.2535V6.17158C6.16006 5.96461 5.99232 5.79688 5.78535 5.79688Z" fill="#FC544B"/>
<path d="M2.56276 4.76335V13.9953C2.56276 14.541 2.76285 15.0534 3.11238 15.4211C3.4603 15.7898 3.94449 15.9991 4.45122 16H11.5408C12.0477 15.9991 12.5318 15.7898 12.8796 15.4211C13.2291 15.0534 13.4292 14.541 13.4292 13.9953V4.76335C14.1241 4.57893 14.5743 3.90768 14.4813 3.19471C14.3882 2.48189 13.781 1.94867 13.062 1.94852H11.1435V1.48014C11.1457 1.08626 10.99 0.708039 10.7112 0.42979C10.4323 0.151688 10.0535 -0.0031709 9.65963 4.92333e-05H6.33236C5.93848 -0.0031709 5.55968 0.151688 5.28084 0.42979C5.00201 0.708039 4.84627 1.08626 4.84847 1.48014V1.94852H2.93C2.21104 1.94867 1.60375 2.48189 1.51066 3.19471C1.41771 3.90768 1.86795 4.57893 2.56276 4.76335ZM11.5408 15.2506H4.45122C3.81056 15.2506 3.31217 14.7002 3.31217 13.9953V4.79629H12.6798V13.9953C12.6798 14.7002 12.1814 15.2506 11.5408 15.2506ZM5.59788 1.48014C5.59539 1.28503 5.67209 1.09724 5.81055 0.959502C5.94887 0.821768 6.1371 0.746095 6.33236 0.749461H9.65963C9.85489 0.746095 10.0431 0.821768 10.1814 0.959502C10.3199 1.09709 10.3966 1.28503 10.3941 1.48014V1.94852H5.59788V1.48014ZM2.93 2.69793H13.062C13.4345 2.69793 13.7365 2.99989 13.7365 3.3724C13.7365 3.74491 13.4345 4.04687 13.062 4.04687H2.93C2.55749 4.04687 2.25553 3.74491 2.25553 3.3724C2.25553 2.99989 2.55749 2.69793 2.93 2.69793Z" fill="#FC544B"/>
<path d="M7.99629 5.79688C7.78932 5.79688 7.62158 5.96461 7.62158 6.17158V13.2535C7.62158 13.4604 7.78932 13.6282 7.99629 13.6282C8.20326 13.6282 8.371 13.4604 8.371 13.2535V6.17158C8.371 5.96461 8.20326 5.79688 7.99629 5.79688Z" fill="#FC544B"/>
</g>
<defs>
<clipPath id="clip0_557_3142">
<rect width="16" height="16" fill="white"/>
</clipPath>
</defs>
</svg>
