<svg width="20" height="19" viewBox="0 0 20 19" fill="none" xmlns="http://www.w3.org/2000/svg">
<path d="M19.31 13.536L19.3097 13.5357C19.1805 13.4064 19.0356 13.3457 18.8463 13.3457H13.4763L11.9881 14.8338L11.9819 14.84L11.9819 14.84C11.4274 15.3752 10.7594 15.6533 10 15.6533C9.24093 15.6533 8.5726 15.3756 8.01801 14.8399L8.01048 14.8326L8.01056 14.8325L6.53463 13.3457H1.15383C0.964753 13.3457 0.819815 13.4063 0.690021 13.5359L19.31 13.536ZM19.31 13.536C19.4394 13.6652 19.5 13.8099 19.5 13.9997V17.8457C19.5 18.0352 19.4395 18.1799 19.31 18.3093L19.3098 18.3096M19.31 13.536L19.3098 18.3096M19.3098 18.3096C19.1807 18.4387 19.0359 18.4993 18.8463 18.4993H1.15383C0.964311 18.4993 0.819516 18.4388 0.690021 18.3094C0.560546 18.1799 0.5 18.0351 0.5 17.8457V13.9997C0.5 13.8101 0.560553 13.6653 0.689888 13.536L19.3098 18.3096ZM15.5102 17.586L15.5098 17.5864C15.2671 17.8288 14.9611 17.961 14.6153 17.961C14.2694 17.961 13.9636 17.8287 13.7211 17.5864L13.7208 17.5861C13.4785 17.3436 13.3463 17.0377 13.3463 16.692C13.3463 16.3465 13.4783 16.04 13.7211 15.7974C13.9634 15.5552 14.2692 15.4225 14.6153 15.4225C14.9614 15.4225 15.2674 15.5551 15.5099 15.7974L15.5102 17.586ZM15.5102 17.586C15.7524 17.3436 15.8847 17.0377 15.8847 16.692C15.8847 16.3464 15.7526 16.04 15.5099 15.7975L15.5102 17.586ZM18.2332 17.2327C18.081 17.385 17.9007 17.461 17.6923 17.461C17.484 17.461 17.3038 17.385 17.1515 17.2327L16.7978 15.7977C16.7978 15.7977 16.7979 15.7976 16.798 15.7975C17.0404 15.5551 17.3463 15.4225 17.6923 15.4225C18.0383 15.4225 18.3445 15.5551 18.587 15.7978C18.8295 16.0402 18.9616 16.3465 18.9616 16.692C18.9616 17.0375 18.8295 17.3436 18.5869 17.5861C18.5868 17.5862 18.5867 17.5863 18.5866 17.5864L18.2332 17.2327ZM18.2332 17.2327C18.3856 17.0804 18.4616 16.9002 18.4616 16.692C18.4616 16.4836 18.3854 16.3031 18.2332 16.1511V17.2327Z" stroke="black"/>
<path d="M9.82198 13.0427L9.8221 13.0426L9.81281 13.0333L4.42809 7.64865L4.42217 7.64273L4.41605 7.637C4.35334 7.57837 4.34036 7.53917 4.33643 7.51949C4.33214 7.49805 4.32879 7.44881 4.36633 7.35656C4.40317 7.27367 4.43924 7.24098 4.4614 7.22633C4.48345 7.21174 4.5264 7.19202 4.61538 7.19202H7.69231H8.19231V6.69202V1.30735C8.19231 1.23658 8.21222 1.1821 8.27415 1.12011C8.3363 1.05798 8.39086 1.03809 8.46148 1.03809H11.5387C11.6092 1.03809 11.6637 1.05788 11.7259 1.12C11.7878 1.1821 11.8078 1.23675 11.8078 1.30735V6.69198V7.19198H12.3078H15.3845C15.4737 7.19202 15.5168 7.21179 15.5389 7.2264C15.561 7.24105 15.5971 7.2737 15.6338 7.35656C15.6713 7.44886 15.668 7.49806 15.6637 7.51945C15.6598 7.53911 15.6468 7.57833 15.584 7.63704L15.5779 7.64273L15.5721 7.64861L10.1874 13.0333L10.1873 13.0332L10.1783 13.0427C10.1314 13.092 10.084 13.1151 10.0001 13.1151C9.91627 13.1151 9.86867 13.0919 9.82198 13.0427Z" stroke="black"/>
</svg>
