<svg width="16" height="16" viewBox="0 0 16 16" fill="none" xmlns="http://www.w3.org/2000/svg">
<path d="M13.7737 1.09887C12.9673 0.293865 11.6614 0.293865 10.855 1.09887L10.1243 1.83351L2.34683 9.60688L2.3303 9.62354C2.32629 9.62754 2.32629 9.6318 2.32203 9.6318C2.31377 9.6442 2.30137 9.65647 2.29324 9.66887C2.29324 9.673 2.28898 9.673 2.28898 9.67713C2.28071 9.68953 2.27671 9.69779 2.26831 9.71019C2.26431 9.71432 2.26431 9.71832 2.26018 9.72258C2.25605 9.73498 2.25191 9.74325 2.24765 9.75564C2.24765 9.75965 2.24365 9.75965 2.24365 9.76391L0.518054 14.953C0.467434 15.1007 0.505915 15.2643 0.617098 15.3739C0.695223 15.451 0.800595 15.4942 0.910229 15.4938C0.955038 15.493 0.999459 15.486 1.04233 15.4731L6.22738 13.7434C6.23139 13.7434 6.23139 13.7434 6.23565 13.7394C6.24869 13.7355 6.26122 13.7299 6.27271 13.7227C6.27594 13.7223 6.27878 13.7209 6.2811 13.7187C6.29337 13.7104 6.3099 13.7021 6.3223 13.6938C6.33456 13.6857 6.34709 13.6733 6.35949 13.665C6.36362 13.6607 6.36762 13.6607 6.36762 13.6567C6.37188 13.6526 6.38015 13.6486 6.38428 13.6402L14.8924 5.13206C15.6974 4.32563 15.6974 3.01972 14.8924 2.21342L13.7737 1.09887ZM6.09528 12.7732L3.22209 9.90014L10.4133 2.7089L13.2865 5.58196L6.09528 12.7732ZM2.81738 10.6638L5.32746 13.1738L1.55834 14.4287L2.81738 10.6638ZM14.3104 4.55407L13.8728 4.99583L10.9995 2.12251L11.4414 1.68087C11.9247 1.19792 12.7081 1.19792 13.1916 1.68087L14.3144 2.80368C14.7942 3.28922 14.7923 4.07085 14.3104 4.55407Z" fill="#B7834A"/>
</svg>
