<svg width="20" height="20" viewBox="0 0 20 20" fill="none" xmlns="http://www.w3.org/2000/svg">
<path d="M19.8889 9.65671C19.266 8.79519 18.2067 7.61359 16.9142 6.52898C14.9429 4.87457 12.5743 3.55469 10 3.55469C7.38584 3.55469 4.94451 4.93035 2.96967 6.62574C1.23077 8.11855 0.156045 9.5946 0.111123 9.65671C-0.037041 9.86163 -0.037041 10.1384 0.111123 10.3433C0.650653 11.0896 1.57862 12.1699 2.77338 13.2148C4.67143 14.8747 7.24283 16.4453 10 16.4453C12.4856 16.4453 14.7558 15.2217 16.6797 13.6627C17.9993 12.5933 19.1497 11.3657 19.8889 10.3433C20.037 10.1384 20.037 9.86159 19.8889 9.65671ZM16.0156 12.6944C14.4141 14.0181 12.2913 15.2734 10 15.2734C7.69463 15.2734 5.39643 13.9629 3.51569 12.2992C2.69542 11.5736 1.95456 10.7808 1.32718 10.0002C1.71241 9.52163 2.49604 8.60741 3.55471 7.6728C5.19568 6.22414 7.49736 4.72656 10 4.72656C12.1792 4.72656 14.352 5.8975 16.1719 7.43093C17.1169 8.22722 17.9668 9.12124 18.6728 9.99979C18.2372 10.541 17.2919 11.6395 16.0156 12.6944Z" fill="black"/>
<path d="M9.99999 5.89844C7.73839 5.89844 5.89844 7.73839 5.89844 9.99999C5.89844 12.2616 7.73839 14.1015 9.99999 14.1015C12.2616 14.1015 14.1015 12.2616 14.1015 9.99999C14.1015 7.73839 12.2616 5.89844 9.99999 5.89844ZM9.99999 12.9297C8.38457 12.9297 7.07031 11.6154 7.07031 9.99999C7.07031 8.38457 8.38457 7.07031 9.99999 7.07031C11.6154 7.07031 12.9297 8.38457 12.9297 9.99999C12.9297 11.6154 11.6154 12.9297 9.99999 12.9297Z" fill="black"/>
<path d="M10 8.24219C9.03074 8.24219 8.24219 9.03074 8.24219 10C8.24219 10.9693 9.03074 11.7578 10 11.7578C10.9693 11.7578 11.7578 10.9693 11.7578 10C11.7578 9.03074 10.9693 8.24219 10 8.24219ZM10 10.5859C9.67691 10.5859 9.41406 10.3231 9.41406 10C9.41406 9.67691 9.67691 9.41406 10 9.41406C10.3231 9.41406 10.5859 9.67691 10.5859 10C10.5859 10.3231 10.3231 10.5859 10 10.5859Z" fill="black"/>
</svg>
