<svg width="16" height="20" viewBox="0 0 16 20" fill="none" xmlns="http://www.w3.org/2000/svg">
<path d="M11.5156 0C9.95953 0 8.81883 0.633164 7.71562 1.24551C6.69812 1.81027 5.73703 2.34375 4.48438 2.34375C3.30023 2.34375 2.07684 1.72617 1.55469 1.4277V0H0.382812V20H1.55469V12.1272C2.28824 12.4814 3.37559 12.8906 4.48438 12.8906C6.04043 12.8906 7.18121 12.2575 8.28438 11.6451C9.30188 11.0804 10.263 10.5469 11.5156 10.5469C13.0692 10.5469 14.6906 11.61 14.7062 11.6204L15.6172 12.2277V1.44422C14.4123 0.649062 12.9417 0 11.5156 0V0ZM14.4453 10.1384C13.7118 9.78418 12.6244 9.375 11.5156 9.375C9.95953 9.375 8.81883 10.0082 7.71562 10.6205C6.69812 11.1853 5.73703 11.7188 4.48438 11.7188C3.30004 11.7188 2.07641 11.101 1.55469 10.8027V2.75219C2.28824 3.10641 3.37559 3.51562 4.48438 3.51562C6.04043 3.51562 7.18121 2.88246 8.28438 2.27012C9.30188 1.70535 10.263 1.17188 11.5156 1.17188C12.6998 1.17188 13.9236 1.78961 14.4453 2.08789V10.1384Z" fill="black"/>
</svg>
