<svg width="26" height="26" viewBox="0 0 26 26" fill="none" xmlns="http://www.w3.org/2000/svg">
<g clip-path="url(#clip0_931_4306)">
<path d="M3.17459 23.3636C6.21729 26.251 11.0424 26.1247 13.9304 23.0819C16.0568 20.8407 16.6089 17.5261 15.354 14.729L25.3085 4.23907C25.4067 4.13558 25.4566 3.99546 25.4459 3.85331L25.2041 0.641492C25.1846 0.382196 24.9715 0.180086 24.7116 0.174194L21.492 0.101269C21.4837 0.101096 21.4756 0.101115 21.4673 0.101331C21.3337 0.104829 21.2066 0.161202 21.1141 0.25858L20.0402 1.38977C19.9479 1.48699 19.898 1.61686 19.9015 1.75089L19.9634 4.1161L17.5982 4.17804C17.4642 4.18155 17.3371 4.23817 17.2449 4.33534L16.0411 5.60386C15.9489 5.70113 15.899 5.83095 15.9025 5.96493L15.9645 8.33019L13.5993 8.39213C13.4653 8.39564 13.3382 8.45225 13.2459 8.54943L11.1591 10.7485C8.29979 9.64212 5.01895 10.367 2.89258 12.6072C2.89259 12.6073 2.89254 12.6073 2.89249 12.6073C0.00504281 15.6506 0.131641 20.4759 3.17459 23.3636ZM3.62551 13.3031C5.54135 11.2845 8.53786 10.6847 11.082 11.8104C11.2775 11.8967 11.506 11.851 11.6531 11.6961L13.8349 9.3969L16.496 9.32722C16.775 9.31991 16.9953 9.0878 16.988 8.80884L16.9183 6.14769L17.8339 5.18286L20.4951 5.11317C20.7741 5.10587 20.9943 4.87375 20.987 4.5948L20.9173 1.93369L21.693 1.11667L24.2306 1.17419L24.4212 3.70572L14.3818 14.2851C14.2347 14.4401 14.201 14.6709 14.2976 14.8614C15.5552 17.3429 15.113 20.3669 13.1972 22.3862C10.6929 25.0247 6.50886 25.1344 3.87024 22.6305C1.23151 20.1264 1.12175 15.9421 3.62551 13.3031Z" fill="black"/>
<path d="M5.7331 20.6664C6.19032 21.1003 6.78907 21.3302 7.41908 21.3137C8.04915 21.2972 8.63505 21.0363 9.06903 20.579C9.96398 19.6353 9.9248 18.139 8.98144 17.2433C8.5096 16.7957 7.89959 16.5818 7.29564 16.5976C6.69164 16.6134 6.09366 16.859 5.64589 17.3306C5.64584 17.3306 5.64579 17.3306 5.64574 17.3307C5.21191 17.7878 4.98199 18.3866 4.99849 19.0167C5.01499 19.6467 5.27588 20.2325 5.7331 20.6664ZM6.37891 18.0263C6.89095 17.4872 7.74648 17.465 8.28569 17.9763C8.82496 18.4884 8.84737 19.3439 8.33572 19.8833C8.08769 20.1447 7.75281 20.2938 7.39258 20.3032C7.03244 20.3127 6.69021 20.1812 6.42879 19.9332C6.16743 19.6852 6.01827 19.3503 6.00884 18.9901C5.99941 18.6299 6.13088 18.2877 6.37891 18.0263Z" fill="black"/>
</g>
<defs>
<clipPath id="clip0_931_4306">
<rect width="25" height="25" fill="white" transform="translate(26 24.9912) rotate(178.5)"/>
</clipPath>
</defs>
</svg>
