<svg width="28" height="28" viewBox="0 0 28 28" fill="none" xmlns="http://www.w3.org/2000/svg">
<path d="M25.4262 5.92751C25.2132 5.62654 24.9909 5.33303 24.7542 5.05044C22.1845 1.96665 18.3173 0 13.9997 0C13.9917 0 13.9854 0.000574371 13.9785 0.000574371C13.9739 0.000574371 13.9704 0 13.9658 0C13.9503 0 13.9342 0.00172311 13.9176 0.00172311C9.63277 0.0264211 5.79942 1.98732 3.24462 5.05044C3.00913 5.33361 2.7857 5.62654 2.57261 5.92751C0.955179 8.21063 0 10.9946 0 13.9997C0 17.0042 0.954604 19.7894 2.57261 22.0719C2.7857 22.3729 3.00913 22.6664 3.24462 22.949C5.79885 26.0121 9.6322 27.973 13.9176 27.9977C13.9342 27.9977 13.9503 27.9994 13.9658 27.9994C13.9704 27.9994 13.9739 27.9989 13.9779 27.9989C13.9848 27.9989 13.9911 27.9994 13.9991 27.9994C18.3173 27.9994 22.1839 26.0334 24.7542 22.9496C24.9897 22.667 25.2132 22.3729 25.4262 22.0719C27.0437 19.7888 27.9989 17.0048 27.9989 13.9991C27.9989 10.9952 27.0437 8.21063 25.4262 5.92751ZM9.90732 1.82076C8.62073 3.06197 7.55125 4.87641 6.81433 7.05385C5.82699 6.6851 4.93844 6.24111 4.17223 5.73911C5.67421 3.95512 7.64947 2.58122 9.90732 1.82076ZM3.49792 6.61733C4.36866 7.19859 5.37496 7.70691 6.48752 8.12562C6.00734 9.87975 5.73165 11.8269 5.72131 13.8814H1.15104C1.17574 11.179 2.04591 8.67817 3.49792 6.61733ZM1.19412 15.0301H5.74371C5.8178 16.7498 6.07914 18.3816 6.48637 19.8744C5.37324 20.2931 4.36752 20.8014 3.49792 21.3832C2.21075 19.5562 1.38079 17.3839 1.19412 15.0301ZM4.17568 22.258C4.94189 21.7572 5.82814 21.3143 6.81319 20.9456C7.5501 23.1236 8.62016 24.9369 9.90732 26.1781C7.64947 25.4182 5.67823 24.0414 4.17568 22.258ZM13.4253 26.8093C11.0681 26.4865 9.0337 24.069 7.88037 20.5872C9.54317 20.0886 11.4254 19.7865 13.4253 19.7377V26.8093ZM13.4253 18.5901C11.3163 18.6406 9.32836 18.9663 7.55815 19.5097C7.19572 18.1335 6.96367 16.6234 6.89417 15.0307H13.4253V18.5901ZM13.4253 13.8814H6.87005C6.88039 11.9521 7.13139 10.1296 7.56331 8.4915C9.33123 9.03313 11.318 9.35937 13.4248 9.40934V13.8814H13.4253ZM13.4253 8.26175C11.4265 8.21293 9.54489 7.91196 7.88381 7.4134C9.03657 3.93329 11.0693 1.51347 13.4253 1.1901V8.26175ZM26.8467 13.8814H22.2103C22.2 11.8355 21.9278 9.89641 21.451 8.1486C22.5883 7.72586 23.6158 7.2095 24.5009 6.6179C25.9524 8.67874 26.822 11.179 26.8467 13.8814ZM23.8255 5.74026C23.0438 6.25203 22.1351 6.70291 21.1242 7.07567C20.3804 4.86837 19.2954 3.0321 17.9887 1.78629C20.2885 2.53929 22.2999 3.9287 23.8255 5.74026ZM14.5741 1.19871C16.9055 1.55884 18.9135 3.97407 20.0542 7.43063C18.4086 7.91828 16.5482 8.2135 14.5741 8.26175V1.19871ZM14.5741 9.40992C16.6562 9.36052 18.6205 9.04117 20.3729 8.51103C20.8026 10.1445 21.0518 11.9601 21.0616 13.882H14.5741V9.40992ZM14.5741 15.0301H21.038C20.9686 16.6154 20.7377 18.1185 20.3787 19.4907C18.624 18.9588 16.6573 18.6401 14.5752 18.5901L14.5741 15.0301ZM14.5741 26.8007V19.7383C16.5493 19.7865 18.4097 20.0817 20.0576 20.5694C18.9152 24.0271 16.9049 26.4406 14.5741 26.8007ZM17.9887 26.2137C19.2954 24.9685 20.3827 23.1334 21.1265 20.9255C22.1351 21.2977 23.0426 21.748 23.8232 22.2586C22.2976 24.0696 20.2885 25.4601 17.9887 26.2137ZM24.5009 21.3832C23.6158 20.7916 22.5883 20.2741 21.4505 19.852C21.8537 18.3655 22.1127 16.7412 22.1856 15.0307H26.8042C26.6175 17.3839 25.7898 19.5567 24.5009 21.3832Z" fill="black"/>
</svg>
