<svg width="26" height="28" viewBox="0 0 26 28" fill="none" xmlns="http://www.w3.org/2000/svg">
<path d="M21.4766 14.3753V11.7578C21.4766 7.93942 18.9385 4.70307 15.461 3.64602V2.46094C15.461 1.10398 14.357 0 13.0001 0C11.6431 0 10.5391 1.10398 10.5391 2.46094V3.64602C7.06155 4.70307 4.5235 7.93937 4.5235 11.7578V14.3753C4.5235 17.7294 3.24502 20.9098 0.923587 23.3307C0.696087 23.5679 0.632158 23.918 0.761111 24.2203C0.890064 24.5226 1.18702 24.7188 1.51569 24.7188H8.98102C9.36208 26.5886 11.0193 28 13.0001 28C14.9808 28 16.638 26.5886 17.0191 24.7188H24.4844C24.8131 24.7188 25.11 24.5226 25.2389 24.2203C25.3679 23.918 25.304 23.5679 25.0765 23.3307C22.7551 20.9098 21.4766 17.7293 21.4766 14.3753ZM12.1797 2.46094C12.1797 2.00862 12.5477 1.64062 13.0001 1.64062C13.4524 1.64062 13.8204 2.00862 13.8204 2.46094V3.32106C13.5504 3.29503 13.2768 3.28125 13.0001 3.28125C12.7233 3.28125 12.4497 3.29503 12.1797 3.32106V2.46094ZM13.0001 26.3594C11.9306 26.3594 11.0188 25.6735 10.6802 24.7188H15.3199C14.9813 25.6735 14.0695 26.3594 13.0001 26.3594ZM3.28373 23.0781C5.15191 20.5739 6.16412 17.5433 6.16412 14.3753V11.7578C6.16412 7.98848 9.23072 4.92188 13.0001 4.92188C16.7694 4.92188 19.836 7.98848 19.836 11.7578V14.3753C19.836 17.5433 20.8482 20.5739 22.7164 23.0781H3.28373Z" fill="black"/>
</svg>
