<svg width="36" height="36" viewBox="0 0 36 36" fill="none" xmlns="http://www.w3.org/2000/svg">
<path d="M30.894 19.0079H24.384V12.8759C24.384 12.0839 23.742 11.4419 22.95 11.4419H22.146H14.454V9.16788C14.454 7.21187 16.044 5.62188 18 5.62188C19.956 5.62188 21.546 7.21187 21.546 9.16788C21.546 9.49788 21.816 9.76788 22.146 9.76788C22.476 9.76788 22.746 9.49788 22.746 9.16788C22.746 6.55187 20.616 4.42188 18 4.42188C15.384 4.42188 13.254 6.55187 13.254 9.16788V11.4419H13.05C12.258 11.4419 11.616 12.0839 11.616 12.8759V19.0079H5.106C3.942 19.0079 3 19.9559 3 21.1139V29.4779C3 30.6359 3.942 31.5839 5.106 31.5839H30.894C32.052 31.5839 33 30.6419 33 29.4779V21.1139C33 19.9559 32.058 19.0079 30.894 19.0079ZM12.816 12.8759C12.816 12.7439 12.924 12.6419 13.05 12.6419H13.854H22.146H22.95C23.082 12.6419 23.184 12.7499 23.184 12.8759V19.8959C23.184 20.0279 23.076 20.1299 22.95 20.1299H13.05C12.918 20.1299 12.816 20.0219 12.816 19.8959V12.8759ZM31.8 29.4779C31.8 29.9759 31.392 30.3839 30.894 30.3839H5.106C4.608 30.3839 4.2 29.9759 4.2 29.4779V21.1139C4.2 20.6159 4.608 20.2079 5.106 20.2079H11.652C11.796 20.8499 12.366 21.3299 13.05 21.3299H22.95C23.634 21.3299 24.204 20.8499 24.348 20.2079H30.894C31.392 20.2079 31.8 20.6159 31.8 21.1139V29.4779Z" fill="black"/>
<path d="M11.7601 24.6961H10.5301L11.1421 23.6341C11.3101 23.3461 11.2081 22.9801 10.9201 22.8121C10.6321 22.6441 10.2661 22.7461 10.0981 23.0341L9.48606 24.0961L8.87406 23.0341C8.70606 22.7461 8.34006 22.6501 8.05206 22.8121C7.76406 22.9741 7.66806 23.3461 7.83006 23.6341L8.44206 24.6961H7.21206C6.88206 24.6961 6.61206 24.9661 6.61206 25.2961C6.61206 25.6261 6.88206 25.8961 7.21206 25.8961H8.44206L7.83006 26.9581C7.66206 27.2461 7.76406 27.6121 8.05206 27.7801C8.14806 27.8341 8.25006 27.8581 8.35206 27.8581C8.56206 27.8581 8.76006 27.7501 8.87406 27.5581L9.48606 26.4961L10.0981 27.5581C10.2121 27.7501 10.4101 27.8581 10.6201 27.8581C10.7221 27.8581 10.8241 27.8341 10.9201 27.7801C11.2081 27.6121 11.3041 27.2461 11.1421 26.9581L10.5301 25.8961H11.7601C12.0901 25.8961 12.3601 25.6261 12.3601 25.2961C12.3601 24.9661 12.0901 24.6961 11.7601 24.6961Z" fill="black"/>
<path d="M20.268 24.6961H19.038L19.65 23.6341C19.818 23.3461 19.716 22.9801 19.428 22.8121C19.14 22.6441 18.774 22.7461 18.606 23.0341L18 24.0961L17.388 23.0341C17.22 22.7461 16.854 22.6501 16.566 22.8121C16.278 22.9801 16.182 23.3461 16.344 23.6341L16.956 24.6961H15.726C15.396 24.6961 15.126 24.9661 15.126 25.2961C15.126 25.6261 15.396 25.8961 15.726 25.8961H16.956L16.344 26.9581C16.176 27.2461 16.278 27.6121 16.566 27.7801C16.662 27.8341 16.764 27.8581 16.866 27.8581C17.076 27.8581 17.274 27.7501 17.388 27.5581L18 26.4961L18.612 27.5581C18.726 27.7501 18.924 27.8581 19.134 27.8581C19.236 27.8581 19.338 27.8341 19.434 27.7801C19.722 27.6121 19.818 27.2461 19.656 26.9581L19.044 25.8961H20.274C20.604 25.8961 20.874 25.6261 20.874 25.2961C20.874 24.9661 20.598 24.6961 20.268 24.6961Z" fill="black"/>
<path d="M28.7759 24.6961H27.5459L28.1579 23.6341C28.3259 23.3461 28.2239 22.9801 27.9359 22.8121C27.6479 22.6441 27.2819 22.7461 27.1139 23.0341L26.5019 24.0961L25.8899 23.0341C25.7219 22.7461 25.3559 22.6501 25.0679 22.8121C24.7799 22.9801 24.6839 23.3461 24.8459 23.6341L25.4579 24.6961H24.2399C23.9099 24.6961 23.6399 24.9661 23.6399 25.2961C23.6399 25.6261 23.9099 25.8961 24.2399 25.8961H25.4699L24.8579 26.9581C24.6899 27.2461 24.7919 27.6121 25.0799 27.7801C25.1759 27.8341 25.2779 27.8581 25.3799 27.8581C25.5899 27.8581 25.7879 27.7501 25.9019 27.5581L26.5139 26.4961L27.1259 27.5581C27.2399 27.7501 27.4379 27.8581 27.6479 27.8581C27.7499 27.8581 27.8519 27.8341 27.9479 27.7801C28.2359 27.6121 28.3319 27.2461 28.1699 26.9581L27.5579 25.8961H28.7879C29.1179 25.8961 29.3879 25.6261 29.3879 25.2961C29.3879 24.9661 29.1059 24.6961 28.7759 24.6961Z" fill="black"/>
</svg>
