<svg width="19" height="19" viewBox="0 0 19 19" fill="none" xmlns="http://www.w3.org/2000/svg">
<path d="M7.09821 6.49713L9.50039 0.536148L11.9026 6.49812L12.0169 6.78181L12.3215 6.80925L18.4972 7.36559C18.4976 7.3665 18.4979 7.3675 18.4983 7.36862C18.5011 7.37781 18.5006 7.3854 18.4998 7.38874C18.4995 7.39001 18.4992 7.39038 18.4992 7.3904L18.4986 7.39127C18.4982 7.39178 18.4973 7.3928 18.4957 7.39427L18.4955 7.39448L13.8023 11.6582L13.5875 11.8533L13.6503 12.1366L15.0567 18.4793C15.0567 18.4793 15.0567 18.4794 15.0567 18.4794C15.0571 18.4812 15.0574 18.4829 15.0576 18.4844L9.76813 15.1393L9.50088 14.9703L9.23364 15.1393L3.94412 18.4844C3.94434 18.4829 3.94464 18.4813 3.94503 18.4795L3.94504 18.4795L5.35143 12.1366L5.41423 11.8533L5.19951 11.6582L0.505348 7.39346L0.505106 7.39325C0.503469 7.39176 0.502555 7.39071 0.502113 7.39017L0.501413 7.38919L0.501376 7.38913C0.501279 7.38896 0.501039 7.38847 0.500771 7.38735C0.499944 7.38392 0.499451 7.37636 0.502257 7.3673C0.502562 7.36632 0.502873 7.36542 0.503182 7.3646L6.67931 6.80822L6.9839 6.78078L7.09821 6.49713Z" fill="#EDF2F7" stroke="#EDF2F7"/>
</svg>
