<svg width="45" height="49" viewBox="0 0 45 49" fill="none" xmlns="http://www.w3.org/2000/svg">
<path d="M15.9994 3.74916L18.9675 2.06772L18.9675 2.06773L18.9723 2.065C20.2135 1.35285 21.3958 1 22.5111 1C23.6029 1 24.785 1.35197 26.0277 2.06501L26.0306 2.06663L41.5315 10.8929L35.0635 14.5742L15.9994 3.74916ZM22.5113 21.6942L3.4818 10.898L10.9775 6.6293L29.9592 17.4731L22.5113 21.6942ZM25.0192 26.0855L43.9998 15.2394C43.9999 15.2604 44 15.2816 44 15.3031V32.5801C44 34.0775 43.7413 34.973 43.3419 35.6062C42.9381 36.2465 42.3159 36.7403 41.3335 37.3001C41.3335 37.3001 41.3334 37.3002 41.3334 37.3002L25.0192 46.5928V26.0855ZM19.9808 26.0855V46.5809L3.67069 37.3025C3.66993 37.3021 3.66917 37.3017 3.66841 37.3012C2.69628 36.741 2.07247 36.2467 1.66517 35.6043C1.26293 34.9698 1 34.074 1 32.5801V15.3031C1 15.2816 1.00005 15.2604 1.00015 15.2394L19.9808 26.0855Z" stroke="black" stroke-width="2"/>
</svg>
