<svg width="28" height="24" viewBox="0 0 28 24" fill="none" xmlns="http://www.w3.org/2000/svg">
<path d="M27.5024 3.29526C27.1396 2.8664 26.6316 2.60445 26.0717 2.55769L6.35384 0.911272C5.79395 0.864515 5.2496 1.03858 4.82068 1.40133C4.39352 1.76264 4.13195 2.26812 4.08372 2.82522L3.68702 6.54702H2.103C0.94341 6.54702 0 7.49043 0 8.65002V20.993C0 22.1526 0.94341 23.096 2.103 23.096H21.8896C23.0492 23.096 23.9926 22.1526 23.9926 20.993V18.9908L24.6948 19.0494C24.754 19.0543 24.8129 19.0568 24.8713 19.0568C25.9523 19.0568 26.8739 18.225 26.9655 17.1287L27.9926 4.82847C28.0393 4.26863 27.8652 3.72417 27.5024 3.29526ZM2.103 7.64076H21.8896C22.4461 7.64076 22.8989 8.09352 22.8989 8.65002V9.77472H1.09375V8.65002C1.09375 8.09352 1.5465 7.64076 2.103 7.64076ZM1.09375 10.8685H22.8989V13.1374H1.09375V10.8685ZM21.8896 22.0023H2.103C1.5465 22.0023 1.09375 21.5495 1.09375 20.993V14.2311H22.8989V20.993C22.8989 21.5495 22.4461 22.0023 21.8896 22.0023ZM26.9026 4.73741L25.8755 17.0376C25.8292 17.5922 25.3402 18.0059 24.7858 17.9594L23.9926 17.8932V8.65002C23.9926 7.49043 23.0492 6.54702 21.8896 6.54702H4.787L5.17194 2.93547C5.17238 2.93131 5.17276 2.92721 5.17309 2.923C5.21941 2.36842 5.7081 1.95476 6.26284 2.00124L25.9808 3.64766C26.2495 3.67008 26.4933 3.79581 26.6674 4.00165C26.8414 4.20749 26.925 4.46874 26.9026 4.73741Z" fill="black"/>
<path d="M20.6102 15.8569H15.3469C15.0449 15.8569 14.8 16.1018 14.8 16.4038V19.8376C14.8 20.1396 15.0449 20.3845 15.3469 20.3845H20.6102C20.9122 20.3845 21.157 20.1396 21.157 19.8376V16.4038C21.157 16.1018 20.9122 15.8569 20.6102 15.8569ZM20.0633 19.2907H15.8938V16.9507H20.0633V19.2907Z" fill="black"/>
</svg>
