<svg width="510" height="510" viewBox="0 0 510 510" fill="none" xmlns="http://www.w3.org/2000/svg">
<g clip-path="url(#clip0_29_2551)">
<path d="M467.503 84.9998H361.253V42.4998C361.253 31.2281 356.775 20.418 348.805 12.4477C340.835 4.47742 330.025 -0.000244141 318.753 -0.000244141L191.253 -0.000244141C179.981 -0.000244141 169.171 4.47742 161.201 12.4477C153.231 20.418 148.753 31.2281 148.753 42.4998V84.9998H42.5032V127.5H85.0032V446.25C85.0032 463.157 91.7197 479.372 103.675 491.328C115.631 503.283 131.846 510 148.753 510H361.253C378.161 510 394.376 503.283 406.331 491.328C418.287 479.372 425.003 463.157 425.003 446.25V127.5H467.503V84.9998ZM191.253 42.4998H318.753V84.9998H191.253V42.4998ZM382.503 446.25C382.503 451.886 380.264 457.291 376.279 461.276C372.294 465.261 366.889 467.5 361.253 467.5H148.753C143.117 467.5 137.712 465.261 133.727 461.276C129.742 457.291 127.503 451.886 127.503 446.25V127.5H382.503V446.25Z" fill="black" fill-opacity="0.666667"/>
<path d="M233.75 212.487H191.25V382.486H233.75V212.487Z" fill="#000" fill-opacity="0.666667"/>
<path d="M318.757 212.487H276.257V382.486H318.757V212.487Z" fill="#000" fill-opacity="0.666667"/>
</g>
<defs>
<clipPath id="clip0_29_2551">
<rect width="510" height="510" fill="#000"/>
</clipPath>
</defs>
</svg>
